<svg width="20" height="20" viewBox="0 0 20 20" fill="none" xmlns="http://www.w3.org/2000/svg">
<path fill-rule="evenodd" clip-rule="evenodd" d="M10 0C4.48625 0 0 4.48625 0 10C0 15.5138 4.48625 20 10 20C15.5138 20 20 15.5138 20 10C20 4.48625 15.5138 0 10 0ZM10.75 9.25H14.25C14.6642 9.25 15 9.58579 15 10C15 10.4142 14.6642 10.75 14.25 10.75H10.75V14.25C10.75 14.6642 10.4142 15 10 15C9.58579 15 9.25 14.6642 9.25 14.25V10.75H5.75C5.33579 10.75 5 10.4142 5 10C5 9.58579 5.33579 9.25 5.75 9.25H9.25V5.75C9.25 5.33579 9.58579 5 10 5C10.4142 5 10.75 5.33579 10.75 5.75V9.25ZM1 10C1 14.9621 5.03792 19 10 19C14.9621 19 19 14.9621 19 10C19 5.03792 14.9621 1 10 1C5.03792 1 1 5.03792 1 10Z" fill="#0079C7"/>
</svg>
