<svg width="38" height="38" viewBox="0 0 38 38" fill="none" xmlns="http://www.w3.org/2000/svg">
<path fill-rule="evenodd" clip-rule="evenodd" d="M12.8911 21.986L12.8898 21.9873L12.8806 21.9966C12.7712 22.1072 12.716 22.1629 12.6608 22.2771C12.5431 22.682 12.7772 23.0908 13.1821 23.2033L18.9673 24.7634C19.2545 24.8204 19.5456 24.7634 19.7189 24.5901L33.7835 10.4686C34.2479 10.0598 34.4795 9.5993 34.6528 9.07796C34.8831 8.501 34.8831 7.86193 34.7097 7.28367C34.592 6.76233 34.2453 6.18537 33.8404 5.78046C33.4355 5.37554 32.9711 5.08447 32.3928 4.91112C31.8145 4.74036 31.2363 4.68085 30.658 4.8542C30.1354 4.97193 29.6179 5.25912 29.1535 5.72354L12.8911 21.986ZM13.6417 29.6832L17.6364 25.6897H17.6326L15.26 24.9989L9.58866 30.6702C9.41531 30.8436 9.06732 30.8449 8.89397 30.6702C8.72062 30.4956 8.72062 30.1476 8.89397 29.9743L14.1617 24.7673L12.3674 24.3029L3.16699 33.621H5.88753C9.79463 33.621 10.6873 32.7054 12.7849 30.554C13.0486 30.2835 13.3314 29.9934 13.6417 29.6832ZM30.1936 6.76621L14.86 22.1037L19.0281 23.2033L32.8624 9.36903C33.0927 9.13876 33.2673 8.84769 33.3268 8.5605C33.4394 8.21251 33.4394 7.92144 33.3268 7.57862C33.2699 7.28755 33.0966 6.93956 32.8055 6.70929C32.5752 6.47902 32.2841 6.30438 31.997 6.18795C31.649 6.07411 31.3579 6.07411 31.0707 6.18795C31.0137 6.22147 30.9546 6.25504 30.8949 6.28905L30.8948 6.28908L30.8948 6.2891C30.6454 6.43096 30.3825 6.58049 30.1936 6.76621ZM22.6699 14.9848C22.613 15.215 22.7269 15.5061 23.0179 15.563L25.2171 16.1413C25.4474 16.1982 25.7385 16.0844 25.7954 15.7933C25.8523 15.563 25.7385 15.2719 25.4474 15.215L23.2482 14.6368C23.0179 14.5798 22.7269 14.6937 22.6699 14.9848ZM21.6867 16.8929C21.3957 16.836 21.2818 16.5449 21.3387 16.3146C21.3957 16.0236 21.6867 15.9097 21.917 15.9666L24.1162 16.5449C24.4073 16.6018 24.5211 16.8929 24.4642 17.1232C24.4073 17.4142 24.1162 17.5281 23.8859 17.4712L21.6867 16.8929ZM17.4063 20.2525C17.3494 20.4828 17.4632 20.7738 17.7543 20.8308L19.9535 21.409C20.1837 21.4659 20.4748 21.3521 20.5317 21.061C20.5886 20.8308 20.4748 20.5397 20.1837 20.4828L17.9845 19.9045C17.7543 19.8476 17.4632 19.9614 17.4063 20.2525ZM20.3569 18.1671C20.0658 18.1102 19.952 17.8191 20.0089 17.5889C20.0658 17.2978 20.3569 17.184 20.5872 17.2409L22.7864 17.8191C23.0774 17.8761 23.1913 18.1671 23.1344 18.3974C23.0774 18.6885 22.7864 18.8023 22.5561 18.7454L20.3569 18.1671ZM18.6791 18.9226C18.6222 19.1529 18.736 19.444 19.0271 19.5009L21.2263 20.0791C21.4565 20.1361 21.7476 20.0222 21.8045 19.7312C21.8614 19.5009 21.7476 19.2098 21.4565 19.1529L19.2573 18.5746C19.0271 18.5177 18.736 18.6316 18.6791 18.9226Z" fill="#1D1D1B"/>
<mask id="mask0" mask-type="alpha" maskUnits="userSpaceOnUse" x="3" y="4" width="32" height="30">
<path fill-rule="evenodd" clip-rule="evenodd" d="M12.8911 21.986L12.8898 21.9873L12.8806 21.9966C12.7712 22.1072 12.716 22.1629 12.6608 22.2771C12.5431 22.682 12.7772 23.0908 13.1821 23.2033L18.9673 24.7634C19.2545 24.8204 19.5456 24.7634 19.7189 24.5901L33.7835 10.4686C34.2479 10.0598 34.4795 9.5993 34.6528 9.07796C34.8831 8.501 34.8831 7.86193 34.7097 7.28367C34.592 6.76233 34.2453 6.18537 33.8404 5.78046C33.4355 5.37554 32.9711 5.08447 32.3928 4.91112C31.8145 4.74036 31.2363 4.68085 30.658 4.8542C30.1354 4.97193 29.6179 5.25912 29.1535 5.72354L12.8911 21.986ZM13.6417 29.6832L17.6364 25.6897H17.6326L15.26 24.9989L9.58866 30.6702C9.41531 30.8436 9.06732 30.8449 8.89397 30.6702C8.72062 30.4956 8.72062 30.1476 8.89397 29.9743L14.1617 24.7673L12.3674 24.3029L3.16699 33.621H5.88753C9.79463 33.621 10.6873 32.7054 12.7849 30.554C13.0486 30.2835 13.3314 29.9934 13.6417 29.6832ZM30.1936 6.76621L14.86 22.1037L19.0281 23.2033L32.8624 9.36903C33.0927 9.13876 33.2673 8.84769 33.3268 8.5605C33.4394 8.21251 33.4394 7.92144 33.3268 7.57862C33.2699 7.28755 33.0966 6.93956 32.8055 6.70929C32.5752 6.47902 32.2841 6.30438 31.997 6.18795C31.649 6.07411 31.3579 6.07411 31.0707 6.18795C31.0137 6.22147 30.9546 6.25504 30.8949 6.28905L30.8948 6.28908L30.8948 6.2891C30.6454 6.43096 30.3825 6.58049 30.1936 6.76621ZM22.6699 14.9848C22.613 15.215 22.7269 15.5061 23.0179 15.563L25.2171 16.1413C25.4474 16.1982 25.7385 16.0844 25.7954 15.7933C25.8523 15.563 25.7385 15.2719 25.4474 15.215L23.2482 14.6368C23.0179 14.5798 22.7269 14.6937 22.6699 14.9848ZM21.6867 16.8929C21.3957 16.836 21.2818 16.5449 21.3387 16.3146C21.3957 16.0236 21.6867 15.9097 21.917 15.9666L24.1162 16.5449C24.4073 16.6018 24.5211 16.8929 24.4642 17.1232C24.4073 17.4142 24.1162 17.5281 23.8859 17.4712L21.6867 16.8929ZM17.4063 20.2525C17.3494 20.4828 17.4632 20.7738 17.7543 20.8308L19.9535 21.409C20.1837 21.4659 20.4748 21.3521 20.5317 21.061C20.5886 20.8308 20.4748 20.5397 20.1837 20.4828L17.9845 19.9045C17.7543 19.8476 17.4632 19.9614 17.4063 20.2525ZM20.3569 18.1671C20.0658 18.1102 19.952 17.8191 20.0089 17.5889C20.0658 17.2978 20.3569 17.184 20.5872 17.2409L22.7864 17.8191C23.0774 17.8761 23.1913 18.1671 23.1344 18.3974C23.0774 18.6885 22.7864 18.8023 22.5561 18.7454L20.3569 18.1671ZM18.6791 18.9226C18.6222 19.1529 18.736 19.444 19.0271 19.5009L21.2263 20.0791C21.4565 20.1361 21.7476 20.0222 21.8045 19.7312C21.8614 19.5009 21.7476 19.2098 21.4565 19.1529L19.2573 18.5746C19.0271 18.5177 18.736 18.6316 18.6791 18.9226Z" fill="white"/>
</mask>
<g mask="url(#mask0)">
<rect width="38" height="38" fill="#0079C8"/>
</g>
</svg>
