<svg width="38" height="38" viewBox="0 0 38 38" fill="none" xmlns="http://www.w3.org/2000/svg">
<path fill-rule="evenodd" clip-rule="evenodd" d="M21.5256 29.771L21.8195 29.7216L21.8779 29.6592C26.4881 28.7657 30.8825 25.8585 34.2657 21.462C35.0138 20.5279 35.0237 19.1703 34.2905 18.163L34.2845 18.157C30.936 13.6389 26.5138 10.6772 21.8076 9.79557L21.7146 9.73323L21.5256 9.70255C20.7004 9.56303 19.8593 9.46804 19.04 9.51059H18.9628C18.1494 9.46705 17.3024 9.56303 16.4771 9.70255L16.2822 9.73323L16.1921 9.79161C11.4859 10.6792 7.06377 13.6418 3.71127 18.1659C2.97804 19.1743 2.98793 20.5319 3.7271 21.4531C7.11918 25.8624 11.5107 28.7696 16.1238 29.6602L16.1822 29.7226L16.4761 29.772C17.3014 29.9076 18.1464 30.0006 18.9628 29.964H19.04C19.0865 29.967 19.1359 29.967 19.1824 29.967C19.9582 29.967 20.7469 29.9017 21.5266 29.772L21.5256 29.771ZM19.2439 17.7879C19.2439 16.934 18.6967 16.1433 17.9051 15.9019C18.2702 15.7812 18.6354 15.7198 18.9995 15.7198C21.2507 15.7198 23.016 17.5475 23.016 19.7363C23.016 21.9875 21.1883 23.7528 18.9995 23.7528C16.8067 23.7528 14.983 21.9251 14.983 19.7363C14.983 19.1891 15.1038 18.6419 15.2858 18.2154C15.4679 19.1277 16.2595 19.7986 17.2342 19.7986C18.3286 19.7986 19.2439 18.8833 19.2439 17.7889V17.7879ZM17.0122 27.9648L16.7306 27.9157C12.4628 27.1706 8.3602 24.4771 5.16503 20.3241C4.93645 20.0391 4.94833 19.573 5.1868 19.2475C8.3038 15.0361 12.4014 12.305 16.7236 11.5569L16.9552 11.5164L17.0136 11.4669C17.6132 11.3798 18.2475 11.3343 18.863 11.3372L19.0055 11.3402L19.1786 11.3343C19.7753 11.3343 20.3819 11.3778 20.9786 11.4669L21.037 11.5164L21.2685 11.5569C25.5977 12.305 29.6953 15.0331 32.8123 19.2415C33.0537 19.576 33.0626 20.0391 32.8241 20.336C29.6389 24.4761 25.5353 27.1666 21.2685 27.9147L20.9835 27.9642L20.937 28.0107C20.3621 28.0938 19.7803 28.1344 19.1678 28.1344H19.1302L18.9877 28.1314L18.8145 28.1373C18.2327 28.1373 17.6429 28.0938 17.0581 28.0107L17.0122 27.9648ZM22.0611 9.99545L22.0492 9.98261C22.0522 9.98558 22.0581 9.9915 22.0611 9.99545ZM19.0298 27.699C23.3471 27.5506 26.7293 24.0536 26.7293 19.7363C26.7293 15.419 23.3461 11.9221 19.0298 11.7736H18.9675C14.6502 11.9221 11.268 15.419 11.268 19.7363C11.268 24.0536 14.6512 27.5506 18.9675 27.699H19.0298ZM18.9991 25.8713C22.314 25.7417 24.9056 23.0542 24.9056 19.7363C24.9056 16.4214 22.314 13.7309 18.9991 13.6013C15.6842 13.7309 13.0927 16.4214 13.0927 19.7363C13.0927 23.0512 15.6842 25.7417 18.9991 25.8713Z" fill="#1D1D1B"/>
<mask id="mask0" mask-type="alpha" maskUnits="userSpaceOnUse" x="3" y="9" width="32" height="21">
<path fill-rule="evenodd" clip-rule="evenodd" d="M21.5256 29.771L21.8195 29.7216L21.8779 29.6592C26.4881 28.7657 30.8825 25.8585 34.2657 21.462C35.0138 20.5279 35.0237 19.1703 34.2905 18.163L34.2845 18.157C30.936 13.6389 26.5138 10.6772 21.8076 9.79557L21.7146 9.73323L21.5256 9.70255C20.7004 9.56303 19.8593 9.46804 19.04 9.51059H18.9628C18.1494 9.46705 17.3024 9.56303 16.4771 9.70255L16.2822 9.73323L16.1921 9.79161C11.4859 10.6792 7.06377 13.6418 3.71127 18.1659C2.97804 19.1743 2.98793 20.5319 3.7271 21.4531C7.11918 25.8624 11.5107 28.7696 16.1238 29.6602L16.1822 29.7226L16.4761 29.772C17.3014 29.9076 18.1464 30.0006 18.9628 29.964H19.04C19.0865 29.967 19.1359 29.967 19.1824 29.967C19.9582 29.967 20.7469 29.9017 21.5266 29.772L21.5256 29.771ZM19.2439 17.7879C19.2439 16.934 18.6967 16.1433 17.9051 15.9019C18.2702 15.7812 18.6354 15.7198 18.9995 15.7198C21.2507 15.7198 23.016 17.5475 23.016 19.7363C23.016 21.9875 21.1883 23.7528 18.9995 23.7528C16.8067 23.7528 14.983 21.9251 14.983 19.7363C14.983 19.1891 15.1038 18.6419 15.2858 18.2154C15.4679 19.1277 16.2595 19.7986 17.2342 19.7986C18.3286 19.7986 19.2439 18.8833 19.2439 17.7889V17.7879ZM17.0122 27.9648L16.7306 27.9157C12.4628 27.1706 8.3602 24.4771 5.16503 20.3241C4.93645 20.0391 4.94833 19.573 5.1868 19.2475C8.3038 15.0361 12.4014 12.305 16.7236 11.5569L16.9552 11.5164L17.0136 11.4669C17.6132 11.3798 18.2475 11.3343 18.863 11.3372L19.0055 11.3402L19.1786 11.3343C19.7753 11.3343 20.3819 11.3778 20.9786 11.4669L21.037 11.5164L21.2685 11.5569C25.5977 12.305 29.6953 15.0331 32.8123 19.2415C33.0537 19.576 33.0626 20.0391 32.8241 20.336C29.6389 24.4761 25.5353 27.1666 21.2685 27.9147L20.9835 27.9642L20.937 28.0107C20.3621 28.0938 19.7803 28.1344 19.1678 28.1344H19.1302L18.9877 28.1314L18.8145 28.1373C18.2327 28.1373 17.6429 28.0938 17.0581 28.0107L17.0122 27.9648ZM22.0611 9.99545L22.0492 9.98261C22.0522 9.98558 22.0581 9.9915 22.0611 9.99545ZM19.0298 27.699C23.3471 27.5506 26.7293 24.0536 26.7293 19.7363C26.7293 15.419 23.3461 11.9221 19.0298 11.7736H18.9675C14.6502 11.9221 11.268 15.419 11.268 19.7363C11.268 24.0536 14.6512 27.5506 18.9675 27.699H19.0298ZM18.9991 25.8713C22.314 25.7417 24.9056 23.0542 24.9056 19.7363C24.9056 16.4214 22.314 13.7309 18.9991 13.6013C15.6842 13.7309 13.0927 16.4214 13.0927 19.7363C13.0927 23.0512 15.6842 25.7417 18.9991 25.8713Z" fill="white"/>
</mask>
<g mask="url(#mask0)">
<rect width="38" height="38" fill="#0079C8"/>
</g>
</svg>
