<svg width="48" height="42" viewBox="0 0 48 42" fill="none" xmlns="http://www.w3.org/2000/svg">
<path fill-rule="evenodd" clip-rule="evenodd" d="M40.875 33.9079V41.1429H0V7.09422H7.125V0H48V33.9064H40.875V33.9079ZM37.734 34.0486H7.0305V10.3568H3.1395V37.9741H37.734V34.0486ZM10.2645 3.07497H44.859V30.7391H10.2645V3.07497ZM38.4555 25.4048V21.0451H40.3215V25.4048L40.401 27.2873H14.7225V21.0451H16.5885V25.4048H18.684V23.1591H20.55V25.4048H22.6455V21.0451H24.5115V25.4048H26.607V23.1591H28.473V25.4048H30.5355V21.0451H32.4345V25.4048H34.497V23.1591H36.363V25.4048H38.4555ZM30.6 11.5069C31.374 12.2772 32.301 12.66 33.3795 12.66C34.4565 12.66 35.376 12.2817 36.126 11.516C36.8805 10.7594 37.2555 9.84081 37.2555 8.77244C37.2555 7.6844 36.876 6.76282 36.1125 6.00164C35.3535 5.24046 34.4385 4.86214 33.3795 4.86214C32.2965 4.82431 31.374 5.18901 30.6 5.95927C29.826 6.72498 29.442 7.64808 29.442 8.71645C29.442 9.80903 29.826 10.7367 30.6 11.5069ZM33.3787 6.46924C32.7596 6.46942 32.2303 6.68733 31.785 7.126C31.3395 7.56485 31.128 8.09601 31.1475 8.71494C31.1475 9.33841 31.3635 9.86805 31.7985 10.3039C32.235 10.7442 32.76 10.9606 33.3735 10.9606C33.993 10.9606 34.5165 10.7427 34.9485 10.3039C35.385 9.86351 35.5995 9.33387 35.5995 8.71494C35.5995 8.09601 35.3835 7.56031 34.9485 7.126C34.5227 6.69187 33.9979 6.46942 33.3787 6.46924ZM33.3787 6.46924C33.379 6.46924 33.3792 6.46924 33.3795 6.46924H33.378C33.3782 6.46924 33.3785 6.46924 33.3787 6.46924ZM29.2125 17.7719V19.2806H29.211H27.561V17.7719C27.561 16.8412 27.8895 16.0407 28.545 15.3794C29.2005 14.7181 29.988 14.3867 30.9165 14.3867H35.7825C36.7065 14.3867 37.5045 14.7181 38.169 15.3794C38.8335 16.0407 39.177 16.8352 39.195 17.7719V19.2806H37.545V17.7719C37.545 17.3043 37.377 16.9017 37.0395 16.5613C36.702 16.2208 36.303 16.0498 35.8395 16.0498H30.918C30.4365 16.0498 30.033 16.2208 29.7045 16.5613C29.376 16.9017 29.2125 17.3043 29.2125 17.7719Z" fill="white"/>
</svg>
