<svg width="38" height="38" viewBox="0 0 38 38" fill="none" xmlns="http://www.w3.org/2000/svg">
<path fill-rule="evenodd" clip-rule="evenodd" d="M30.264 17.1918C30.4816 11.7339 29.9055 8.48981 27.0481 6.01919C23.5645 2.93484 18.3415 2.57473 14.0359 3.8805C12.7583 4.26252 11.2522 5.00621 10.1656 5.94561C7.30983 8.41466 6.89023 11.7135 7.10629 17.1323C6.17629 18.1468 6.27492 19.5418 6.44245 20.774C6.77437 22.8375 7.37245 24.1887 8.26801 24.8964C8.32281 25.8906 8.38231 26.9208 8.76276 27.9056C9.15888 29.2959 10.0638 30.4498 11.6185 31.5473C12.0287 31.8495 12.4452 32.1908 12.846 32.5274C13.4006 33.0139 13.9875 33.4622 14.6027 33.8692C15.6219 34.5378 16.7461 34.8337 18.2444 34.8337C18.401 34.8337 18.5763 34.8337 18.7345 34.8243C18.8303 34.8186 18.9152 34.8232 18.9982 34.8278H18.9982L18.9983 34.8278C19.0523 34.8307 19.1054 34.8337 19.1603 34.8337C20.6195 34.8337 21.7985 34.5205 22.8772 33.8692C23.4399 33.4967 23.9757 33.0849 24.4805 32.637C24.9228 32.2476 25.3853 31.8818 25.8661 31.5411C26.962 30.7254 28.1723 29.6513 28.7109 27.904C29.0021 27.093 29.0428 26.1975 29.0819 25.3363L29.1023 24.9449C30.3141 23.9899 30.7259 22.1393 30.9279 20.8225C31.0907 19.5966 31.1439 18.2063 30.264 17.1918ZM24.3554 24.1527C24.3554 24.8038 23.8276 25.3317 23.1764 25.3317C22.5253 25.3317 21.9975 24.8038 21.9975 24.1527C21.9975 23.5016 22.5253 22.9738 23.1764 22.9738C23.8276 22.9738 24.3554 23.5016 24.3554 24.1527ZM19.8524 25.8687C20.5035 25.8687 21.0313 25.3408 21.0313 24.6897C21.0313 24.0386 20.5035 23.5108 19.8524 23.5108C19.2012 23.5108 18.6734 24.0386 18.6734 24.6897C18.6734 25.3408 19.2012 25.8687 19.8524 25.8687ZM22.639 28.4411C23.2901 28.4411 23.818 27.9132 23.818 27.2621C23.818 26.611 23.2901 26.0832 22.639 26.0832C21.9879 26.0832 21.4601 26.611 21.4601 27.2621C21.4601 27.9132 21.9879 28.4411 22.639 28.4411ZM28.7985 22.1299C28.9835 21.5902 29.1131 21.0331 29.1852 20.4671C29.234 20.0709 29.2544 19.6717 29.2463 19.2725C29.2463 18.7668 29.1023 18.1546 28.62 18.02C28.6858 17.4924 28.75 16.9647 28.8032 16.4355C29.0616 13.8365 29.0318 11.0794 27.4348 8.88748C26.0962 7.0447 24.0718 5.74676 21.8799 5.1659C19.2127 4.47431 16.3976 4.6186 13.8151 5.57924C11.869 6.29475 9.59566 8.18607 9.07117 10.2762C8.77243 11.5755 8.62014 12.9042 8.61712 14.2374C8.61086 14.5536 8.69228 18.0028 8.88015 17.9777C8.28364 18.056 8.14429 18.8482 8.15682 19.4494C8.17404 20.2855 8.19909 21.1325 8.45899 21.9248C8.71889 22.717 9.25591 23.4591 10.0387 23.755C9.78917 25.4004 10.1464 27.0803 11.0439 28.4818C11.7782 29.6169 12.8413 30.514 13.9372 31.2843C15.0332 32.0546 16.22 32.7451 17.5383 32.9736C19.6175 33.3337 21.7405 32.4977 23.4768 31.2984C24.7121 30.4451 25.8394 29.3851 26.5706 28.0794C27.3017 26.7736 27.6446 25.2033 27.3017 23.7425C28.0721 23.6517 28.5464 22.8626 28.7985 22.1299Z" fill="#1D1D1B"/>
<mask id="mask0" mask-type="alpha" maskUnits="userSpaceOnUse" x="6" y="3" width="26" height="32">
<path fill-rule="evenodd" clip-rule="evenodd" d="M30.264 17.1918C30.4816 11.7339 29.9055 8.48981 27.0481 6.01919C23.5645 2.93484 18.3415 2.57473 14.0359 3.8805C12.7583 4.26252 11.2522 5.00621 10.1656 5.94561C7.30983 8.41466 6.89023 11.7135 7.10629 17.1323C6.17629 18.1468 6.27492 19.5418 6.44245 20.774C6.77437 22.8375 7.37245 24.1887 8.26801 24.8964C8.32281 25.8906 8.38231 26.9208 8.76276 27.9056C9.15888 29.2959 10.0638 30.4498 11.6185 31.5473C12.0287 31.8495 12.4452 32.1908 12.846 32.5274C13.4006 33.0139 13.9875 33.4622 14.6027 33.8692C15.6219 34.5378 16.7461 34.8337 18.2444 34.8337C18.401 34.8337 18.5763 34.8337 18.7345 34.8243C18.8303 34.8186 18.9152 34.8232 18.9982 34.8278H18.9982L18.9983 34.8278C19.0523 34.8307 19.1054 34.8337 19.1603 34.8337C20.6195 34.8337 21.7985 34.5205 22.8772 33.8692C23.4399 33.4967 23.9757 33.0849 24.4805 32.637C24.9228 32.2476 25.3853 31.8818 25.8661 31.5411C26.962 30.7254 28.1723 29.6513 28.7109 27.904C29.0021 27.093 29.0428 26.1975 29.0819 25.3363L29.1023 24.9449C30.3141 23.9899 30.7259 22.1393 30.9279 20.8225C31.0907 19.5966 31.1439 18.2063 30.264 17.1918ZM24.3554 24.1527C24.3554 24.8038 23.8276 25.3317 23.1764 25.3317C22.5253 25.3317 21.9975 24.8038 21.9975 24.1527C21.9975 23.5016 22.5253 22.9738 23.1764 22.9738C23.8276 22.9738 24.3554 23.5016 24.3554 24.1527ZM19.8524 25.8687C20.5035 25.8687 21.0313 25.3408 21.0313 24.6897C21.0313 24.0386 20.5035 23.5108 19.8524 23.5108C19.2012 23.5108 18.6734 24.0386 18.6734 24.6897C18.6734 25.3408 19.2012 25.8687 19.8524 25.8687ZM22.639 28.4411C23.2901 28.4411 23.818 27.9132 23.818 27.2621C23.818 26.611 23.2901 26.0832 22.639 26.0832C21.9879 26.0832 21.4601 26.611 21.4601 27.2621C21.4601 27.9132 21.9879 28.4411 22.639 28.4411ZM28.7985 22.1299C28.9835 21.5902 29.1131 21.0331 29.1852 20.4671C29.234 20.0709 29.2544 19.6717 29.2463 19.2725C29.2463 18.7668 29.1023 18.1546 28.62 18.02C28.6858 17.4924 28.75 16.9647 28.8032 16.4355C29.0616 13.8365 29.0318 11.0794 27.4348 8.88748C26.0962 7.0447 24.0718 5.74676 21.8799 5.1659C19.2127 4.47431 16.3976 4.6186 13.8151 5.57924C11.869 6.29475 9.59566 8.18607 9.07117 10.2762C8.77243 11.5755 8.62014 12.9042 8.61712 14.2374C8.61086 14.5536 8.69228 18.0028 8.88015 17.9777C8.28364 18.056 8.14429 18.8482 8.15682 19.4494C8.17404 20.2855 8.19909 21.1325 8.45899 21.9248C8.71889 22.717 9.25591 23.4591 10.0387 23.755C9.78917 25.4004 10.1464 27.0803 11.0439 28.4818C11.7782 29.6169 12.8413 30.514 13.9372 31.2843C15.0332 32.0546 16.22 32.7451 17.5383 32.9736C19.6175 33.3337 21.7405 32.4977 23.4768 31.2984C24.7121 30.4451 25.8394 29.3851 26.5706 28.0794C27.3017 26.7736 27.6446 25.2033 27.3017 23.7425C28.0721 23.6517 28.5464 22.8626 28.7985 22.1299Z" fill="white"/>
</mask>
<g mask="url(#mask0)">
<rect width="38" height="38" fill="#0079C8"/>
</g>
</svg>
