<svg width="28" height="32" viewBox="0 0 28 32" fill="none" xmlns="http://www.w3.org/2000/svg">
<path fill-rule="evenodd" clip-rule="evenodd" d="M26.3008 31.1792C26.6419 30.9762 26.7759 30.5011 26.5728 30.1601L26.5698 30.1611C26.4978 30.026 26.3638 29.754 26.2978 29.617C26.261 29.5566 26.2225 29.4936 26.1825 29.4282C25.186 27.7985 23.257 24.6438 23.6474 22.6188C23.9194 21.0595 24.5975 19.7683 25.3446 18.4091C25.3814 18.3402 25.4183 18.2714 25.4551 18.2025C26.5094 16.2325 27.586 14.2209 27.586 11.0048C27.586 7.81431 26.2988 5.09485 24.1234 3.12552C21.8821 1.15319 18.8255 0 15.428 0C14.6809 0 13.9997 0.0690116 13.2526 0.203034C10.4681 0.679114 7.88271 2.17236 6.04841 4.14169C4.2141 6.11102 2.99189 8.62345 2.99189 11.0709C2.99189 11.5459 3.05691 12.021 3.12592 12.4961C3.1795 12.7065 2.65786 13.6128 2.00949 14.7392C1.82281 15.0636 1.62562 15.4062 1.42863 15.7556C1.02953 16.3833 0.679126 17.0131 0.375057 17.5595C0.317174 17.6636 0.26097 17.7646 0.206428 17.862C0.187703 17.9017 0.168645 17.9358 0.151001 17.9673C0.107387 18.0452 0.0724055 18.1076 0.0724055 18.2031C-0.061617 18.5431 0.0073946 18.9492 0.141417 19.2902C0.27944 19.5623 0.547485 19.8343 0.888542 20.0374C0.953582 20.0689 1.01956 20.0851 1.08557 20.1014C1.15558 20.1186 1.22563 20.1359 1.29461 20.1714C1.33727 20.1822 1.38493 20.1946 1.4368 20.2081C1.71566 20.2808 2.11624 20.3852 2.51682 20.4434C2.4518 20.7155 2.31378 21.0525 2.11075 21.4626C1.90771 21.8727 2.04574 22.2787 2.4518 22.4818C2.31378 22.5468 2.17976 22.6848 2.11075 22.8878C1.97672 23.2939 2.17976 23.704 2.58583 23.838C3.06091 23.972 2.9959 24.2441 2.92688 24.5161C2.91908 24.5469 2.91107 24.578 2.90295 24.6097C2.76743 25.1373 2.6012 25.7844 2.85787 26.5544C2.86658 26.5714 2.87501 26.5877 2.8832 26.6037C3.00486 26.8402 3.07336 26.9733 3.19893 27.1636C4.2171 28.3888 7.13959 28.7948 9.10892 29.0669C9.24294 29.0669 9.44598 29.0669 9.71802 29.1359C10.2621 29.2049 10.6682 29.3389 10.9402 29.611C11.2813 29.951 11.6223 30.5641 12.0284 31.5143C12.2314 31.9203 12.6415 32.1234 13.0476 31.9203C13.4536 31.7173 13.6567 31.3072 13.4536 30.9012C12.9096 29.745 12.5035 28.9979 12.0284 28.5228C11.4853 27.9137 10.8032 27.7066 9.92206 27.5726C9.85705 27.5726 9.585 27.5726 9.31295 27.5036C7.54766 27.2976 4.89721 26.9605 4.35312 26.1444C4.2191 25.7383 4.28811 25.3282 4.42213 24.9222C4.43009 24.8902 4.43805 24.8584 4.44595 24.8269C4.63973 24.0531 4.80163 23.4066 4.15009 22.8838C4.32764 22.8838 4.48715 22.903 4.63812 22.9211C4.77375 22.9374 4.90249 22.9528 5.03124 22.9528C5.4373 22.9528 5.77836 22.6118 5.77836 22.2057C5.77836 21.7997 5.4373 21.4586 5.03124 21.4586C4.75919 21.4586 4.35312 21.3936 4.01207 21.3246C3.93121 21.3246 3.87542 21.3009 3.82919 21.2813C3.7965 21.2674 3.76861 21.2556 3.74002 21.2556C3.87804 20.9145 3.94305 20.7115 4.01207 20.4394C4.04362 20.3744 4.05985 20.3084 4.0761 20.2424C4.09333 20.1724 4.11057 20.1023 4.14609 20.0334C4.2151 19.9683 4.2151 19.9683 4.2151 19.8993C4.28411 19.4933 4.01207 19.0872 3.606 19.0182C3.53337 18.984 3.44275 18.9678 3.34359 18.95C3.25431 18.9341 3.15811 18.9169 3.06191 18.8842C2.58683 18.7461 1.97772 18.6121 1.63667 18.5431C1.61679 18.522 1.59008 18.5074 1.56455 18.4934C1.5066 18.4616 1.45474 18.4331 1.50265 18.3401C1.82967 17.6812 2.22542 17.0204 2.61956 16.3623L2.65584 16.3017C3.74302 14.5354 4.69318 12.8352 4.55916 11.954C4.42514 11.6129 4.42513 11.2719 4.42513 10.8658C4.42513 8.82748 5.44431 6.72113 7.07558 5.02384C8.70385 3.25855 10.9452 1.96733 13.3926 1.49225C14.0047 1.35823 14.6869 1.28922 15.296 1.28922C18.3525 1.28922 21.0689 2.30839 22.9752 4.07768C24.8106 5.77497 25.9637 8.08535 25.9637 10.8698C25.9637 13.7923 24.9446 15.6926 23.9254 17.5269C23.1093 18.9562 22.3631 20.3814 22.0221 22.2157C21.547 24.8632 23.7884 28.5318 24.8756 30.2981C25.0123 30.4348 25.0882 30.5715 25.1642 30.7082C25.201 30.7745 25.2379 30.8409 25.2816 30.9072C25.4847 31.2482 25.9597 31.3823 26.3008 31.1792ZM14.5458 7.33423C13.4616 7.33423 12.3745 7.26922 11.2863 7.20021L11.2886 7.23645C11.3558 8.30862 11.4233 9.3837 11.4203 10.4598C11.4203 10.7278 11.0142 10.8658 10.8112 10.5938C10.5392 10.1877 10.0641 9.91566 9.51999 9.91566C8.63584 9.91566 7.88872 10.6658 7.88872 11.5469C7.88872 12.4311 8.63884 13.1782 9.51999 13.1782C10.0641 13.1782 10.5392 12.9062 10.8112 12.5001C11.0142 12.159 11.4203 12.2931 11.4203 12.6341C11.4203 13.7183 11.3553 14.8055 11.2863 15.8937C12.3705 15.8937 13.4576 15.9587 14.5458 16.0277C14.8139 16.0277 14.9519 15.6216 14.6799 15.4186C14.2738 15.1465 14.0017 14.6715 14.0017 14.1274C14.0017 13.2432 14.7489 12.4961 15.633 12.4961C16.5172 12.4961 17.2643 13.2462 17.2643 14.1274C17.2643 14.6715 16.9922 15.1465 16.5862 15.4186C16.2451 15.6216 16.3791 16.0277 16.7202 16.0277C17.8044 16.0277 18.8926 15.9627 19.9797 15.8937C19.9797 14.8095 19.9147 13.7223 19.8457 12.6341C19.8457 12.3661 20.2518 12.228 20.4548 12.5001C20.7269 12.9062 21.2019 13.1782 21.746 13.1782C22.6302 13.1782 23.3773 12.4281 23.3773 11.5469C23.3773 10.6628 22.6272 9.91566 21.746 9.91566C21.2019 9.91566 20.7269 10.1877 20.4548 10.5938C20.2518 10.9348 19.8457 10.8008 19.8457 10.4598C19.8457 9.37557 19.9107 8.28839 19.9797 7.20021C18.8956 7.20021 17.8074 7.26522 16.7202 7.33423C16.4522 7.33423 16.3141 6.92816 16.5862 6.72513C16.9922 6.45308 17.2643 5.978 17.2643 5.43391C17.2643 4.54976 16.5172 3.80264 15.633 3.80264C14.7489 3.80264 14.0017 4.55276 14.0017 5.43391C14.0017 5.978 14.2738 6.45308 14.6799 6.72513C15.0209 6.92816 14.8869 7.33423 14.5458 7.33423Z" fill="#0079C7"/>
</svg>
