<svg width="38" height="38" viewBox="0 0 38 38" fill="none" xmlns="http://www.w3.org/2000/svg">
<path fill-rule="evenodd" clip-rule="evenodd" d="M6.2633 10.7857C6.09904 11.1657 5.61119 11.33 5.23021 11.1657C4.84923 11.0014 4.68596 10.5136 4.85022 10.1326C5.61119 8.55824 6.75214 7.19761 8.21767 6.27634C9.63075 5.35506 11.3684 4.81081 13.1625 4.7544C18.701 4.59311 23.0461 8.88282 23.2094 14.3155C23.2648 16.6498 22.5573 19.096 20.8186 21.2146C19.7855 22.5169 18.9721 23.3333 18.2646 23.9854C16.9069 25.343 16.0381 26.2119 14.4637 29.9593C13.5949 31.9691 12.1818 33.1635 10.6629 33.7077C9.68616 34.0323 8.65307 34.0877 7.67539 33.872C6.69772 33.6563 5.77347 33.2199 5.06891 32.5697C3.92796 31.6415 3.16699 30.176 3.16699 28.3275C3.16699 27.8911 3.54698 27.5111 3.98337 27.5111C4.41977 27.5111 4.79975 27.8911 4.79975 28.3275C4.79975 29.6298 5.34401 30.6619 6.15742 31.4228C6.70167 31.9117 7.35379 32.1838 8.05934 32.3471C8.76489 32.5104 9.52487 32.4549 10.2334 32.2392C11.3743 31.8592 12.4074 30.937 13.0566 29.3606C14.7942 25.3401 15.7195 24.3634 17.185 22.8978C17.8371 22.2457 18.5981 21.4848 19.6282 20.235C21.0937 18.3885 21.6904 16.3262 21.638 14.3689C21.5262 9.80805 17.8866 6.16847 13.2149 6.33175C11.694 6.38717 10.2799 6.82059 9.08649 7.634C7.84065 8.39497 6.86297 9.48051 6.2633 10.7847V10.7857ZM27.2297 14.0978C27.3376 14.3699 27.6097 14.5332 27.8818 14.4777L31.6302 13.5001C31.9024 13.3922 32.0656 13.1201 32.0102 12.848C31.9024 12.5758 31.6302 12.4126 31.3581 12.468L27.6097 13.4456C27.3376 13.5535 27.1743 13.8256 27.2297 14.0978ZM27.1736 19.0416C26.9014 19.0416 26.6293 18.8249 26.6293 18.4973C26.6293 18.2252 26.846 17.9531 27.1736 17.9531H34.2894C34.5616 17.9531 34.8337 18.1698 34.8337 18.4973C34.8337 18.7694 34.617 19.0416 34.2894 19.0416H27.1736ZM25.3278 23.0067C25.0556 22.9513 24.8914 22.6267 24.9478 22.3546C25.0042 22.0825 25.3278 21.9182 25.5999 21.9746L31.6273 23.6044C31.8994 23.6598 32.0636 23.9844 32.0072 24.2565C31.9508 24.5286 31.6273 24.6929 31.3551 24.6365L25.3278 23.0067ZM9.19408 17.8482C9.46621 18.1727 9.9026 18.2816 10.2272 18.0649L10.2301 18.0678C10.2826 18.0649 10.339 18.0114 10.1223 17.7304H10.2865C10.4498 17.7304 10.5587 17.7868 10.6665 17.8947C10.7754 18.0025 10.8308 18.1114 10.8308 18.2747C10.8308 18.4379 10.7744 18.5458 10.6665 18.6547C10.5587 18.7635 10.4508 18.8189 10.2865 18.8189C9.85015 18.8189 9.47017 19.1989 9.47017 19.6353C9.47017 20.0717 9.85015 20.4517 10.2865 20.4517C10.8832 20.4517 11.4275 20.235 11.8075 19.855C12.1875 19.4186 12.4042 18.9297 12.4042 18.333C12.4042 17.7363 12.1875 17.1921 11.8075 16.8121C11.3711 16.4321 10.8823 16.2154 10.2856 16.2154C10.2316 16.2154 10.1636 16.2293 10.0956 16.2431C10.0275 16.257 9.9595 16.2708 9.90557 16.2708C9.74229 16.0541 9.63344 15.782 9.52558 15.5099C9.36132 15.1318 9.25345 14.644 9.25345 14.2076C9.46918 14.0997 9.68886 13.9909 9.90557 13.9355C10.2301 13.8266 10.6111 13.7712 10.9911 13.7712C12.1321 13.7712 13.1097 14.2066 13.8697 14.9676C14.6297 15.7285 15.0661 16.7616 15.0661 17.9026C15.0661 18.6636 14.9018 19.4245 14.5218 20.0766C14.1973 20.6179 13.7609 21.1097 13.1642 21.4343C12.8872 21.5736 12.5288 21.6733 12.1935 21.7666C12.1359 21.7826 12.0789 21.7985 12.0232 21.8143C10.6665 22.1389 9.47215 22.4674 8.82003 25.0739C8.76363 25.342 8.60035 25.6142 8.38364 25.7784C8.22234 25.9427 7.95021 26.0506 7.67809 26.0506C7.35054 26.0506 7.07842 25.9427 6.86171 25.726C6.64499 25.5617 6.53713 25.2342 6.53713 24.9096C6.53713 24.8018 6.53713 24.6375 6.59255 24.5296C6.64499 24.4218 6.7014 24.3129 6.80926 24.205C7.08139 23.8805 7.02597 23.3916 6.7014 23.1195C6.37682 22.8474 5.88799 22.9028 5.61586 23.2274C5.45159 23.4995 5.28832 23.7716 5.17947 24.0438C5.07062 24.3159 5.0152 24.6434 5.0152 24.968C5.0152 25.726 5.34274 26.4306 5.83158 26.9224C6.32042 27.4142 7.02498 27.7387 7.78595 27.7387C8.43806 27.7387 9.03476 27.522 9.5236 27.142C10.0115 26.764 10.336 26.2198 10.5003 25.5677C10.9327 23.8854 11.6937 23.6657 12.5625 23.449C12.6017 23.4392 12.6414 23.4293 12.6816 23.4193C13.0841 23.3193 13.5331 23.2076 14.028 22.9602C14.9493 22.5248 15.6014 21.8192 16.0903 20.9504C16.5791 20.0776 16.8512 19.0485 16.8512 18.0154C16.8512 16.4381 16.2545 15.025 15.2214 13.9948C14.1884 12.9647 12.7753 12.3126 11.2009 12.3126C10.7121 12.3126 10.2796 12.369 9.84323 12.4769C10.0045 12.0959 10.2767 11.7159 10.5488 11.4438C11.2573 10.7392 12.234 10.3028 13.3195 10.3028C15.3818 10.3028 17.0679 11.988 17.1758 14.0503C17.1758 14.4867 17.5558 14.8112 17.9922 14.8112C18.4286 14.8112 18.7532 14.4312 18.7532 13.9948C18.6453 11.0598 16.2585 8.72548 13.3235 8.72548C11.8016 8.72548 10.4439 9.37859 9.4672 10.3553C8.48952 11.3854 7.89282 12.7431 7.89282 14.264C7.89282 14.9171 8.00068 15.5692 8.21739 16.1659C8.43312 16.8151 8.75769 17.3593 9.19408 17.8482Z" fill="#1D1D1B"/>
<mask id="mask0" mask-type="alpha" maskUnits="userSpaceOnUse" x="3" y="4" width="32" height="31">
<path fill-rule="evenodd" clip-rule="evenodd" d="M6.2633 10.7857C6.09904 11.1657 5.61119 11.33 5.23021 11.1657C4.84923 11.0014 4.68596 10.5136 4.85022 10.1326C5.61119 8.55824 6.75214 7.19761 8.21767 6.27634C9.63075 5.35506 11.3684 4.81081 13.1625 4.7544C18.701 4.59311 23.0461 8.88282 23.2094 14.3155C23.2648 16.6498 22.5573 19.096 20.8186 21.2146C19.7855 22.5169 18.9721 23.3333 18.2646 23.9854C16.9069 25.343 16.0381 26.2119 14.4637 29.9593C13.5949 31.9691 12.1818 33.1635 10.6629 33.7077C9.68616 34.0323 8.65307 34.0877 7.67539 33.872C6.69772 33.6563 5.77347 33.2199 5.06891 32.5697C3.92796 31.6415 3.16699 30.176 3.16699 28.3275C3.16699 27.8911 3.54698 27.5111 3.98337 27.5111C4.41977 27.5111 4.79975 27.8911 4.79975 28.3275C4.79975 29.6298 5.34401 30.6619 6.15742 31.4228C6.70167 31.9117 7.35379 32.1838 8.05934 32.3471C8.76489 32.5104 9.52487 32.4549 10.2334 32.2392C11.3743 31.8592 12.4074 30.937 13.0566 29.3606C14.7942 25.3401 15.7195 24.3634 17.185 22.8978C17.8371 22.2457 18.5981 21.4848 19.6282 20.235C21.0937 18.3885 21.6904 16.3262 21.638 14.3689C21.5262 9.80805 17.8866 6.16847 13.2149 6.33175C11.694 6.38717 10.2799 6.82059 9.08649 7.634C7.84065 8.39497 6.86297 9.48051 6.2633 10.7847V10.7857ZM27.2297 14.0978C27.3376 14.3699 27.6097 14.5332 27.8818 14.4777L31.6302 13.5001C31.9024 13.3922 32.0656 13.1201 32.0102 12.848C31.9024 12.5758 31.6302 12.4126 31.3581 12.468L27.6097 13.4456C27.3376 13.5535 27.1743 13.8256 27.2297 14.0978ZM27.1736 19.0416C26.9014 19.0416 26.6293 18.8249 26.6293 18.4973C26.6293 18.2252 26.846 17.9531 27.1736 17.9531H34.2894C34.5616 17.9531 34.8337 18.1698 34.8337 18.4973C34.8337 18.7694 34.617 19.0416 34.2894 19.0416H27.1736ZM25.3278 23.0067C25.0556 22.9513 24.8914 22.6267 24.9478 22.3546C25.0042 22.0825 25.3278 21.9182 25.5999 21.9746L31.6273 23.6044C31.8994 23.6598 32.0636 23.9844 32.0072 24.2565C31.9508 24.5286 31.6273 24.6929 31.3551 24.6365L25.3278 23.0067ZM9.19408 17.8482C9.46621 18.1727 9.9026 18.2816 10.2272 18.0649L10.2301 18.0678C10.2826 18.0649 10.339 18.0114 10.1223 17.7304H10.2865C10.4498 17.7304 10.5587 17.7868 10.6665 17.8947C10.7754 18.0025 10.8308 18.1114 10.8308 18.2747C10.8308 18.4379 10.7744 18.5458 10.6665 18.6547C10.5587 18.7635 10.4508 18.8189 10.2865 18.8189C9.85015 18.8189 9.47017 19.1989 9.47017 19.6353C9.47017 20.0717 9.85015 20.4517 10.2865 20.4517C10.8832 20.4517 11.4275 20.235 11.8075 19.855C12.1875 19.4186 12.4042 18.9297 12.4042 18.333C12.4042 17.7363 12.1875 17.1921 11.8075 16.8121C11.3711 16.4321 10.8823 16.2154 10.2856 16.2154C10.2316 16.2154 10.1636 16.2293 10.0956 16.2431C10.0275 16.257 9.9595 16.2708 9.90557 16.2708C9.74229 16.0541 9.63344 15.782 9.52558 15.5099C9.36132 15.1318 9.25345 14.644 9.25345 14.2076C9.46918 14.0997 9.68886 13.9909 9.90557 13.9355C10.2301 13.8266 10.6111 13.7712 10.9911 13.7712C12.1321 13.7712 13.1097 14.2066 13.8697 14.9676C14.6297 15.7285 15.0661 16.7616 15.0661 17.9026C15.0661 18.6636 14.9018 19.4245 14.5218 20.0766C14.1973 20.6179 13.7609 21.1097 13.1642 21.4343C12.8872 21.5736 12.5288 21.6733 12.1935 21.7666C12.1359 21.7826 12.0789 21.7985 12.0232 21.8143C10.6665 22.1389 9.47215 22.4674 8.82003 25.0739C8.76363 25.342 8.60035 25.6142 8.38364 25.7784C8.22234 25.9427 7.95021 26.0506 7.67809 26.0506C7.35054 26.0506 7.07842 25.9427 6.86171 25.726C6.64499 25.5617 6.53713 25.2342 6.53713 24.9096C6.53713 24.8018 6.53713 24.6375 6.59255 24.5296C6.64499 24.4218 6.7014 24.3129 6.80926 24.205C7.08139 23.8805 7.02597 23.3916 6.7014 23.1195C6.37682 22.8474 5.88799 22.9028 5.61586 23.2274C5.45159 23.4995 5.28832 23.7716 5.17947 24.0438C5.07062 24.3159 5.0152 24.6434 5.0152 24.968C5.0152 25.726 5.34274 26.4306 5.83158 26.9224C6.32042 27.4142 7.02498 27.7387 7.78595 27.7387C8.43806 27.7387 9.03476 27.522 9.5236 27.142C10.0115 26.764 10.336 26.2198 10.5003 25.5677C10.9327 23.8854 11.6937 23.6657 12.5625 23.449C12.6017 23.4392 12.6414 23.4293 12.6816 23.4193C13.0841 23.3193 13.5331 23.2076 14.028 22.9602C14.9493 22.5248 15.6014 21.8192 16.0903 20.9504C16.5791 20.0776 16.8512 19.0485 16.8512 18.0154C16.8512 16.4381 16.2545 15.025 15.2214 13.9948C14.1884 12.9647 12.7753 12.3126 11.2009 12.3126C10.7121 12.3126 10.2796 12.369 9.84323 12.4769C10.0045 12.0959 10.2767 11.7159 10.5488 11.4438C11.2573 10.7392 12.234 10.3028 13.3195 10.3028C15.3818 10.3028 17.0679 11.988 17.1758 14.0503C17.1758 14.4867 17.5558 14.8112 17.9922 14.8112C18.4286 14.8112 18.7532 14.4312 18.7532 13.9948C18.6453 11.0598 16.2585 8.72548 13.3235 8.72548C11.8016 8.72548 10.4439 9.37859 9.4672 10.3553C8.48952 11.3854 7.89282 12.7431 7.89282 14.264C7.89282 14.9171 8.00068 15.5692 8.21739 16.1659C8.43312 16.8151 8.75769 17.3593 9.19408 17.8482Z" fill="white"/>
</mask>
<g mask="url(#mask0)">
<rect width="38" height="38" fill="#0079C8"/>
</g>
</svg>
