<svg width="16" height="16" viewBox="0 0 16 16" fill="none" xmlns="http://www.w3.org/2000/svg">
<path fill-rule="evenodd" clip-rule="evenodd" d="M0 8C0 3.589 3.589 0 8 0C12.411 0 16 3.589 16 8C16 12.411 12.411 16 8 16C3.589 16 0 12.411 0 8ZM11.4 7.4H8.6V4.6C8.6 4.26863 8.33137 4 8 4C7.66863 4 7.4 4.26863 7.4 4.6V7.4H4.6C4.26863 7.4 4 7.66863 4 8C4 8.33137 4.26863 8.6 4.6 8.6H7.4V11.4C7.4 11.7314 7.66863 12 8 12C8.33137 12 8.6 11.7314 8.6 11.4V8.6H11.4C11.7314 8.6 12 8.33137 12 8C12 7.66863 11.7314 7.4 11.4 7.4Z" fill="#1697F3"/>
</svg>
