<svg width="38" height="38" viewBox="0 0 38 38" fill="none" xmlns="http://www.w3.org/2000/svg">
<path fill-rule="evenodd" clip-rule="evenodd" d="M24.7086 19.6549L30.5555 26.5101L30.5565 26.5091C30.7574 26.7634 30.8069 27.1156 30.6584 27.4154L27.9344 34.2736C27.8354 34.5774 27.5811 34.7812 27.2783 34.8307H27.1269C26.8756 34.8307 26.6223 34.7288 26.4709 34.5279L15.0265 21.0649C10.9321 15.8739 10.9413 12.3116 10.9418 12.0965L10.9418 12.0912C10.9418 9.26819 11.7987 7.05074 13.4126 5.43688C15.632 3.31838 18.6074 3.16699 19.2625 3.16699C19.6652 3.16699 22.8929 3.16699 25.2618 5.43688C26.9251 7.05074 27.7325 9.27116 27.7325 12.1437L27.7325 12.1511C27.7334 12.3729 27.7441 15.2769 24.7086 19.6549ZM16.3872 20.0071L26.8758 32.258L26.8768 32.259L28.8934 27.268L16.9947 13.2509L16.9691 13.2199C16.6713 12.8616 15.5354 11.4947 15.6342 10.1251C15.6827 9.569 15.934 9.06436 16.3882 8.7121C16.4901 8.61018 17.4984 7.90467 19.3131 7.90467H19.4121C21.1744 7.95712 22.1826 8.61018 22.2846 8.7121C22.7892 9.1168 23.0425 9.61748 23.092 10.1746C23.2434 11.5876 21.9847 13.0471 21.7314 13.3004L20.5223 14.7134L23.5462 18.2419C25.9674 14.562 25.9674 12.1902 25.9674 12.1407C25.9674 9.77184 25.3114 7.90467 24.0498 6.69552C22.2341 4.97974 19.7663 4.93026 19.3616 4.93026H19.3121C18.9104 4.93026 16.3902 5.03218 14.6249 6.74499C13.3623 7.95712 12.7073 9.77184 12.7073 12.1407C12.7073 12.1931 12.7073 15.3189 16.3872 20.0071ZM20.3728 12.1407L19.3645 13.3498L18.3067 12.1407C17.9545 11.736 17.3479 10.8296 17.4003 10.326C17.4003 10.224 17.4498 10.1746 17.5023 10.1251C17.6536 10.0232 18.2562 9.67091 19.3665 9.67091C20.3917 9.67091 21.0288 10.016 21.1982 10.1078C21.2123 10.1154 21.2231 10.1213 21.2307 10.1251C21.2801 10.1746 21.3326 10.227 21.3326 10.326C21.3266 10.7801 20.7725 11.64 20.3708 12.1407H20.3728ZM11.8016 32.2572L9.83583 27.2146L14.0194 22.276L12.8597 20.9155L8.11907 26.512C7.9182 26.7654 7.86576 27.1186 7.96768 27.4184L10.6917 34.2766C10.7937 34.5794 11.044 34.7802 11.3468 34.8337H11.4982C11.7515 34.8337 12.0018 34.7317 12.1532 34.5309L18.2049 27.4224L17.0453 26.0618L11.8016 32.2572Z" fill="#1D1D1B"/>
<mask id="mask0" mask-type="alpha" maskUnits="userSpaceOnUse" x="7" y="3" width="24" height="32">
<path fill-rule="evenodd" clip-rule="evenodd" d="M24.7086 19.6549L30.5555 26.5101L30.5565 26.5091C30.7574 26.7634 30.8069 27.1156 30.6584 27.4154L27.9344 34.2736C27.8354 34.5774 27.5811 34.7812 27.2783 34.8307H27.1269C26.8756 34.8307 26.6223 34.7288 26.4709 34.5279L15.0265 21.0649C10.9321 15.8739 10.9413 12.3116 10.9418 12.0965L10.9418 12.0912C10.9418 9.26819 11.7987 7.05074 13.4126 5.43688C15.632 3.31838 18.6074 3.16699 19.2625 3.16699C19.6652 3.16699 22.8929 3.16699 25.2618 5.43688C26.9251 7.05074 27.7325 9.27116 27.7325 12.1437L27.7325 12.1511C27.7334 12.3729 27.7441 15.2769 24.7086 19.6549ZM16.3872 20.0071L26.8758 32.258L26.8768 32.259L28.8934 27.268L16.9947 13.2509L16.9691 13.2199C16.6713 12.8616 15.5354 11.4947 15.6342 10.1251C15.6827 9.569 15.934 9.06436 16.3882 8.7121C16.4901 8.61018 17.4984 7.90467 19.3131 7.90467H19.4121C21.1744 7.95712 22.1826 8.61018 22.2846 8.7121C22.7892 9.1168 23.0425 9.61748 23.092 10.1746C23.2434 11.5876 21.9847 13.0471 21.7314 13.3004L20.5223 14.7134L23.5462 18.2419C25.9674 14.562 25.9674 12.1902 25.9674 12.1407C25.9674 9.77184 25.3114 7.90467 24.0498 6.69552C22.2341 4.97974 19.7663 4.93026 19.3616 4.93026H19.3121C18.9104 4.93026 16.3902 5.03218 14.6249 6.74499C13.3623 7.95712 12.7073 9.77184 12.7073 12.1407C12.7073 12.1931 12.7073 15.3189 16.3872 20.0071ZM20.3728 12.1407L19.3645 13.3498L18.3067 12.1407C17.9545 11.736 17.3479 10.8296 17.4003 10.326C17.4003 10.224 17.4498 10.1746 17.5023 10.1251C17.6536 10.0232 18.2562 9.67091 19.3665 9.67091C20.3917 9.67091 21.0288 10.016 21.1982 10.1078C21.2123 10.1154 21.2231 10.1213 21.2307 10.1251C21.2801 10.1746 21.3326 10.227 21.3326 10.326C21.3266 10.7801 20.7725 11.64 20.3708 12.1407H20.3728ZM11.8016 32.2572L9.83583 27.2146L14.0194 22.276L12.8597 20.9155L8.11907 26.512C7.9182 26.7654 7.86576 27.1186 7.96768 27.4184L10.6917 34.2766C10.7937 34.5794 11.044 34.7802 11.3468 34.8337H11.4982C11.7515 34.8337 12.0018 34.7317 12.1532 34.5309L18.2049 27.4224L17.0453 26.0618L11.8016 32.2572Z" fill="white"/>
</mask>
<g mask="url(#mask0)">
<rect width="38" height="38" fill="#0079C8"/>
</g>
</svg>
