<svg width="38" height="38" viewBox="0 0 38 38" fill="none" xmlns="http://www.w3.org/2000/svg">
<path fill-rule="evenodd" clip-rule="evenodd" d="M7.40766 34.5872L5.06078 32.4758C4.78275 32.2255 4.68085 31.8357 4.7976 31.4805L4.80353 31.4587C5.07859 30.6335 5.41301 29.7886 5.99973 29.2019C6.9597 28.2448 8.38203 27.8429 9.88785 27.4173L9.89603 27.415L9.90558 27.4123C12.1783 26.77 14.5264 26.1064 15.8909 23.5751C17.0376 21.4478 16.5993 20.6187 15.7207 18.9684L15.7204 18.9678C14.9784 17.5708 13.9615 15.6564 13.7636 12.3858C13.64 10.2556 13.5776 7.48231 13.5776 4.14008C13.5776 3.60184 14.014 3.1665 14.5512 3.1665H17.5689C18.0973 3.1665 18.5306 3.58997 18.5425 4.12227C18.7028 11.9752 19.2687 13.6572 19.4389 13.9857L19.5072 14.1529C19.6061 14.3785 20.0949 14.5734 21.109 14.24C23.9625 13.3218 27.9637 12.5887 30.8547 14.2954C32.5209 15.2789 33.5875 16.9262 34.0297 19.187C34.7965 23.1259 33.1333 27.5723 29.7941 30.5099C27.274 32.7271 21.6037 35.9576 11.9105 32.7519C11.4959 32.6589 10.3611 32.5352 9.64373 32.9873C9.29447 33.207 9.07185 33.5503 8.96301 34.0391L8.95015 34.0945C8.7958 34.799 7.93897 35.072 7.4037 34.5922L7.40766 34.5872ZM6.86657 31.4805L7.67987 32.2106C7.93316 31.8584 8.25175 31.5586 8.62871 31.3261C10.19 30.3585 12.1906 30.8126 12.4132 30.869L12.4874 30.8908C21.2843 33.8155 26.3055 30.9927 28.5159 29.0475C31.3486 26.5581 32.7644 22.833 32.1272 19.561C31.7938 17.8454 31.0577 16.6729 29.8733 15.9744C28.1013 14.9296 25.2073 14.9731 21.7166 16.0951C20.5699 16.4691 19.5924 16.4543 18.8137 16.0486C18.0934 15.6717 17.7936 15.0899 17.6917 14.8277C17.4444 14.3419 16.8289 12.8548 16.6281 5.11861H15.5368C15.5487 7.9879 15.608 10.3932 15.7159 12.276C15.886 15.1206 16.7142 16.6819 17.4473 18.0581C18.4179 19.8826 19.253 21.4597 17.6145 24.5012C15.8524 27.7573 12.8436 28.6072 10.4255 29.2869L10.4086 29.2917C9.10185 29.6607 7.97413 29.9791 7.37711 30.5791C7.1822 30.777 7.01202 31.1114 6.86657 31.4785V31.4805ZM27.3965 21.1965C27.3965 20.5099 26.8028 19.9162 26.1162 19.9162C25.4295 19.9162 24.8359 20.5099 24.8359 21.1965C24.8359 21.8832 25.4295 22.4768 26.1162 22.4768C26.8028 22.4768 27.3965 21.8832 27.3965 21.1965ZM23.0679 19.4868C22.6108 19.4868 22.2457 19.1217 22.2457 18.6646C22.2457 18.2075 22.6108 17.8424 23.0679 17.8424C23.525 17.8424 23.8901 18.2075 23.8901 18.6646C23.8901 19.1188 23.525 19.4868 23.0679 19.4868ZM19.8831 24.1024C19.9078 24.0995 19.9355 24.0995 19.9602 24.0995H19.9612C20.1591 24.1054 20.3323 24.2231 20.6261 24.4299L20.6356 24.4368C20.996 24.6978 21.4362 25.0165 22.0825 25.0048C22.6789 24.9959 23.0561 24.8001 23.3882 24.6276L23.3935 24.6248L23.3951 24.624C23.6982 24.466 23.9822 24.318 24.5471 24.2597C24.9795 24.2172 25.1932 24.3686 25.5672 24.6684L25.5748 24.6744C25.9327 24.9573 26.3764 25.3082 27.0484 25.262C27.7192 25.2155 28.1763 24.8267 28.5444 24.5111C28.86 24.2419 29.0579 24.0817 29.3022 24.0629C29.4101 24.326 29.324 25.4827 27.8399 27.1765L27.7993 27.223C25.1467 30.1725 21.9806 31.3786 17.8528 31.0263C15.8769 30.8561 15.2368 30.4109 15.1685 30.1725C15.0844 29.8756 15.5791 29.1425 16.5567 28.4192C18.6958 26.8025 19.234 24.7742 19.2617 24.6624C19.2617 24.6555 19.3765 24.1549 19.8831 24.1024Z" fill="#1D1D1B"/>
<mask id="mask0" mask-type="alpha" maskUnits="userSpaceOnUse" x="4" y="3" width="31" height="32">
<path fill-rule="evenodd" clip-rule="evenodd" d="M7.40766 34.5872L5.06078 32.4758C4.78275 32.2255 4.68085 31.8357 4.7976 31.4805L4.80353 31.4587C5.07859 30.6335 5.41301 29.7886 5.99973 29.2019C6.9597 28.2448 8.38203 27.8429 9.88785 27.4173L9.89603 27.415L9.90558 27.4123C12.1783 26.77 14.5264 26.1064 15.8909 23.5751C17.0376 21.4478 16.5993 20.6187 15.7207 18.9684L15.7204 18.9678C14.9784 17.5708 13.9615 15.6564 13.7636 12.3858C13.64 10.2556 13.5776 7.48231 13.5776 4.14008C13.5776 3.60184 14.014 3.1665 14.5512 3.1665H17.5689C18.0973 3.1665 18.5306 3.58997 18.5425 4.12227C18.7028 11.9752 19.2687 13.6572 19.4389 13.9857L19.5072 14.1529C19.6061 14.3785 20.0949 14.5734 21.109 14.24C23.9625 13.3218 27.9637 12.5887 30.8547 14.2954C32.5209 15.2789 33.5875 16.9262 34.0297 19.187C34.7965 23.1259 33.1333 27.5723 29.7941 30.5099C27.274 32.7271 21.6037 35.9576 11.9105 32.7519C11.4959 32.6589 10.3611 32.5352 9.64373 32.9873C9.29447 33.207 9.07185 33.5503 8.96301 34.0391L8.95015 34.0945C8.7958 34.799 7.93897 35.072 7.4037 34.5922L7.40766 34.5872ZM6.86657 31.4805L7.67987 32.2106C7.93316 31.8584 8.25175 31.5586 8.62871 31.3261C10.19 30.3585 12.1906 30.8126 12.4132 30.869L12.4874 30.8908C21.2843 33.8155 26.3055 30.9927 28.5159 29.0475C31.3486 26.5581 32.7644 22.833 32.1272 19.561C31.7938 17.8454 31.0577 16.6729 29.8733 15.9744C28.1013 14.9296 25.2073 14.9731 21.7166 16.0951C20.5699 16.4691 19.5924 16.4543 18.8137 16.0486C18.0934 15.6717 17.7936 15.0899 17.6917 14.8277C17.4444 14.3419 16.8289 12.8548 16.6281 5.11861H15.5368C15.5487 7.9879 15.608 10.3932 15.7159 12.276C15.886 15.1206 16.7142 16.6819 17.4473 18.0581C18.4179 19.8826 19.253 21.4597 17.6145 24.5012C15.8524 27.7573 12.8436 28.6072 10.4255 29.2869L10.4086 29.2917C9.10185 29.6607 7.97413 29.9791 7.37711 30.5791C7.1822 30.777 7.01202 31.1114 6.86657 31.4785V31.4805ZM27.3965 21.1965C27.3965 20.5099 26.8028 19.9162 26.1162 19.9162C25.4295 19.9162 24.8359 20.5099 24.8359 21.1965C24.8359 21.8832 25.4295 22.4768 26.1162 22.4768C26.8028 22.4768 27.3965 21.8832 27.3965 21.1965ZM23.0679 19.4868C22.6108 19.4868 22.2457 19.1217 22.2457 18.6646C22.2457 18.2075 22.6108 17.8424 23.0679 17.8424C23.525 17.8424 23.8901 18.2075 23.8901 18.6646C23.8901 19.1188 23.525 19.4868 23.0679 19.4868ZM19.8831 24.1024C19.9078 24.0995 19.9355 24.0995 19.9602 24.0995H19.9612C20.1591 24.1054 20.3323 24.2231 20.6261 24.4299L20.6356 24.4368C20.996 24.6978 21.4362 25.0165 22.0825 25.0048C22.6789 24.9959 23.0561 24.8001 23.3882 24.6276L23.3935 24.6248L23.3951 24.624C23.6982 24.466 23.9822 24.318 24.5471 24.2597C24.9795 24.2172 25.1932 24.3686 25.5672 24.6684L25.5748 24.6744C25.9327 24.9573 26.3764 25.3082 27.0484 25.262C27.7192 25.2155 28.1763 24.8267 28.5444 24.5111C28.86 24.2419 29.0579 24.0817 29.3022 24.0629C29.4101 24.326 29.324 25.4827 27.8399 27.1765L27.7993 27.223C25.1467 30.1725 21.9806 31.3786 17.8528 31.0263C15.8769 30.8561 15.2368 30.4109 15.1685 30.1725C15.0844 29.8756 15.5791 29.1425 16.5567 28.4192C18.6958 26.8025 19.234 24.7742 19.2617 24.6624C19.2617 24.6555 19.3765 24.1549 19.8831 24.1024Z" fill="white"/>
</mask>
<g mask="url(#mask0)">
<rect width="38" height="38" fill="#0079C8"/>
</g>
</svg>
