<svg width="38" height="38" viewBox="0 0 38 38" fill="none" xmlns="http://www.w3.org/2000/svg">
<path fill-rule="evenodd" clip-rule="evenodd" d="M17.7389 15.2268C12.5247 18.6844 11.356 19.4821 8.00721 23.5235C7.84689 23.7373 7.52824 23.7897 7.31746 23.576C7.10371 23.4147 7.05126 23.097 7.26501 22.8862C8.75534 21.0773 9.81618 19.9086 10.9888 18.8448H10.6702C9.60639 18.8972 8.65044 18.6834 7.95773 18.2045C7.74398 18.0442 7.63908 17.778 7.79741 17.5147C7.95773 17.301 8.22393 17.1961 8.48716 17.3544C9.01857 17.6731 9.81717 17.8858 10.6672 17.8334C11.4648 17.7809 12.3159 17.5672 13.1135 17.1436C13.9282 16.5328 14.8991 15.8906 16.0968 15.0984L16.0969 15.0983C16.463 14.8561 16.8503 14.5999 17.2609 14.3263C17.4746 14.2214 17.632 14.1125 17.632 13.8473V5.22896C17.632 4.96276 17.8457 4.75 18.1109 4.75C18.3761 4.75 18.5899 4.96375 18.5899 5.22896V13.8968C18.5345 14.5371 18.2158 14.9082 17.7398 15.2268H17.7389ZM12.5802 10.6529C4.4962 13.687 4.6011 24.1608 4.70699 29.6412V30.3309C7.41946 30.702 9.44119 30.7574 10.8761 30.4358C12.311 30.1142 13.2135 29.4245 13.7489 28.2557C14.6514 26.3943 14.7602 22.9891 14.7078 20.7566L16.1427 19.7977C16.1952 22.0302 16.2476 26.3943 15.0789 28.893C14.2813 30.5417 13.0591 31.4996 11.1423 31.9242C9.38578 32.2953 7.04737 32.1904 3.85693 31.7629C3.48583 31.7104 3.16718 31.3918 3.16718 31.0177V29.6877L3.16709 29.3869C3.16437 23.4607 3.15938 12.5607 12.1012 9.26845C13.8023 8.62819 14.8137 8.89735 15.45 9.63955C16.0348 10.3293 16.1952 11.3407 16.1952 12.5123V13.8948L14.7048 14.8537V12.4599C14.7048 11.6623 14.6524 10.9171 14.3337 10.5985C14.0675 10.3352 13.5915 10.2828 12.5802 10.6539V10.6529ZM25.9802 9.27043C35.0756 12.6192 34.9143 23.8422 34.8094 29.6372V30.9672C34.8094 31.3383 34.4907 31.657 34.1196 31.7124C30.9282 32.1914 28.5868 32.2972 26.8333 31.8737C24.9194 31.4472 23.6943 30.4912 22.8967 28.8426C21.728 26.3439 21.7804 21.9837 21.8329 19.7472L23.2678 20.7062C23.2153 22.9387 23.3202 26.2914 24.2267 28.2053C24.8115 29.374 25.717 30.1192 27.0995 30.3854C28.5344 30.704 30.5571 30.6516 33.2686 30.2805V29.5907L33.2697 29.4731C33.3229 24.016 33.4243 13.6151 25.3984 10.6588C24.4395 10.2877 23.908 10.3402 23.6418 10.6064C23.3232 10.9775 23.2707 11.6702 23.2707 12.4678V14.8616L21.7804 13.9027V12.5143C21.7804 11.3981 21.9417 10.3342 22.5256 9.64153C23.2678 8.89934 24.2791 8.63314 25.9802 9.27043ZM30.7153 25.9134C26.1939 20.2796 25.3962 19.7472 19.4399 15.8106H19.4478C19.0767 15.5969 18.9688 15.5969 18.5977 15.8631C12.6414 19.7967 11.8438 20.3281 7.32234 25.9658C7.10859 26.1766 7.16104 26.4943 7.37479 26.6556C7.58557 26.8693 7.90422 26.8169 8.06453 26.6031C8.47343 26.1163 8.84675 25.665 9.19488 25.2442L9.19508 25.244L9.19536 25.2436C9.7974 24.5159 10.3242 23.8792 10.8295 23.3068C10.8295 23.4118 10.8425 23.5303 10.8555 23.6493C10.8687 23.7691 10.8819 23.8893 10.8819 23.9965C10.9868 24.6863 11.1471 25.379 11.4133 25.9638C11.5222 26.23 11.7874 26.3379 12.0536 26.23C12.3198 26.1222 12.4247 25.856 12.3198 25.5898C12.107 25.0574 11.9457 24.4735 11.8933 23.8887C11.8408 23.3009 11.8408 22.72 11.9457 22.0797C13.7517 20.2183 15.4004 19.102 19.0183 16.7082L19.4274 16.983C22.7139 19.1904 24.3526 20.291 26.0909 22.0797C26.1958 22.6675 26.1958 23.2514 26.1434 23.8362C26.088 24.4735 25.9306 25.0584 25.7169 25.5373C25.612 25.7511 25.7169 26.0727 25.9831 26.1776C26.1968 26.2825 26.5184 26.1776 26.6233 25.9114C26.8895 25.3266 27.1033 24.6338 27.1557 23.9441C27.2082 23.7333 27.2082 23.5205 27.2082 23.2543C27.9554 24.0507 28.7494 25.0346 29.7645 26.2923L29.9731 26.5507C30.1304 26.7644 30.4491 26.7644 30.6628 26.6031C30.8766 26.4458 30.8766 26.1271 30.7153 25.9134ZM19.4927 5.22896V13.8968L19.4917 13.8958C19.4917 14.5361 19.8093 14.9072 20.3417 15.2228L20.527 15.3471C25.5294 18.7003 26.7651 19.5286 30.0734 23.573C30.2307 23.7868 30.5494 23.7868 30.7631 23.6255C30.9769 23.4681 30.9769 23.1495 30.8156 22.9357C29.3253 21.1268 28.2614 19.9056 27.0927 18.8942H27.4114C28.4228 18.9437 29.4341 18.6805 30.1239 18.254C30.3376 18.0956 30.4465 17.778 30.2852 17.5642C30.1278 17.3515 29.8092 17.2436 29.5954 17.4039C29.0116 17.7226 28.2654 17.9353 27.4153 17.8829C26.6702 17.8829 25.7667 17.6196 24.9691 17.1931C23.8528 16.3955 22.5782 15.5445 20.8217 14.3758C20.6119 14.2679 20.4506 14.163 20.4506 13.8968V5.22896C20.4506 4.96375 20.2368 4.75 19.9716 4.75C19.7064 4.75 19.4927 4.96276 19.4927 5.22896Z" fill="#1D1D1B"/>
<mask id="mask0" mask-type="alpha" maskUnits="userSpaceOnUse" x="3" y="4" width="32" height="29">
<path fill-rule="evenodd" clip-rule="evenodd" d="M17.7389 15.2268C12.5247 18.6844 11.356 19.4821 8.00721 23.5235C7.84689 23.7373 7.52824 23.7897 7.31746 23.576C7.10371 23.4147 7.05126 23.097 7.26501 22.8862C8.75534 21.0773 9.81618 19.9086 10.9888 18.8448H10.6702C9.60639 18.8972 8.65044 18.6834 7.95773 18.2045C7.74398 18.0442 7.63908 17.778 7.79741 17.5147C7.95773 17.301 8.22393 17.1961 8.48716 17.3544C9.01857 17.6731 9.81717 17.8858 10.6672 17.8334C11.4648 17.7809 12.3159 17.5672 13.1135 17.1436C13.9282 16.5328 14.8991 15.8906 16.0968 15.0984L16.0969 15.0983C16.463 14.8561 16.8503 14.5999 17.2609 14.3263C17.4746 14.2214 17.632 14.1125 17.632 13.8473V5.22896C17.632 4.96276 17.8457 4.75 18.1109 4.75C18.3761 4.75 18.5899 4.96375 18.5899 5.22896V13.8968C18.5345 14.5371 18.2158 14.9082 17.7398 15.2268H17.7389ZM12.5802 10.6529C4.4962 13.687 4.6011 24.1608 4.70699 29.6412V30.3309C7.41946 30.702 9.44119 30.7574 10.8761 30.4358C12.311 30.1142 13.2135 29.4245 13.7489 28.2557C14.6514 26.3943 14.7602 22.9891 14.7078 20.7566L16.1427 19.7977C16.1952 22.0302 16.2476 26.3943 15.0789 28.893C14.2813 30.5417 13.0591 31.4996 11.1423 31.9242C9.38578 32.2953 7.04737 32.1904 3.85693 31.7629C3.48583 31.7104 3.16718 31.3918 3.16718 31.0177V29.6877L3.16709 29.3869C3.16437 23.4607 3.15938 12.5607 12.1012 9.26845C13.8023 8.62819 14.8137 8.89735 15.45 9.63955C16.0348 10.3293 16.1952 11.3407 16.1952 12.5123V13.8948L14.7048 14.8537V12.4599C14.7048 11.6623 14.6524 10.9171 14.3337 10.5985C14.0675 10.3352 13.5915 10.2828 12.5802 10.6539V10.6529ZM25.9802 9.27043C35.0756 12.6192 34.9143 23.8422 34.8094 29.6372V30.9672C34.8094 31.3383 34.4907 31.657 34.1196 31.7124C30.9282 32.1914 28.5868 32.2972 26.8333 31.8737C24.9194 31.4472 23.6943 30.4912 22.8967 28.8426C21.728 26.3439 21.7804 21.9837 21.8329 19.7472L23.2678 20.7062C23.2153 22.9387 23.3202 26.2914 24.2267 28.2053C24.8115 29.374 25.717 30.1192 27.0995 30.3854C28.5344 30.704 30.5571 30.6516 33.2686 30.2805V29.5907L33.2697 29.4731C33.3229 24.016 33.4243 13.6151 25.3984 10.6588C24.4395 10.2877 23.908 10.3402 23.6418 10.6064C23.3232 10.9775 23.2707 11.6702 23.2707 12.4678V14.8616L21.7804 13.9027V12.5143C21.7804 11.3981 21.9417 10.3342 22.5256 9.64153C23.2678 8.89934 24.2791 8.63314 25.9802 9.27043ZM30.7153 25.9134C26.1939 20.2796 25.3962 19.7472 19.4399 15.8106H19.4478C19.0767 15.5969 18.9688 15.5969 18.5977 15.8631C12.6414 19.7967 11.8438 20.3281 7.32234 25.9658C7.10859 26.1766 7.16104 26.4943 7.37479 26.6556C7.58557 26.8693 7.90422 26.8169 8.06453 26.6031C8.47343 26.1163 8.84675 25.665 9.19488 25.2442L9.19508 25.244L9.19536 25.2436C9.7974 24.5159 10.3242 23.8792 10.8295 23.3068C10.8295 23.4118 10.8425 23.5303 10.8555 23.6493C10.8687 23.7691 10.8819 23.8893 10.8819 23.9965C10.9868 24.6863 11.1471 25.379 11.4133 25.9638C11.5222 26.23 11.7874 26.3379 12.0536 26.23C12.3198 26.1222 12.4247 25.856 12.3198 25.5898C12.107 25.0574 11.9457 24.4735 11.8933 23.8887C11.8408 23.3009 11.8408 22.72 11.9457 22.0797C13.7517 20.2183 15.4004 19.102 19.0183 16.7082L19.4274 16.983C22.7139 19.1904 24.3526 20.291 26.0909 22.0797C26.1958 22.6675 26.1958 23.2514 26.1434 23.8362C26.088 24.4735 25.9306 25.0584 25.7169 25.5373C25.612 25.7511 25.7169 26.0727 25.9831 26.1776C26.1968 26.2825 26.5184 26.1776 26.6233 25.9114C26.8895 25.3266 27.1033 24.6338 27.1557 23.9441C27.2082 23.7333 27.2082 23.5205 27.2082 23.2543C27.9554 24.0507 28.7494 25.0346 29.7645 26.2923L29.9731 26.5507C30.1304 26.7644 30.4491 26.7644 30.6628 26.6031C30.8766 26.4458 30.8766 26.1271 30.7153 25.9134ZM19.4927 5.22896V13.8968L19.4917 13.8958C19.4917 14.5361 19.8093 14.9072 20.3417 15.2228L20.527 15.3471C25.5294 18.7003 26.7651 19.5286 30.0734 23.573C30.2307 23.7868 30.5494 23.7868 30.7631 23.6255C30.9769 23.4681 30.9769 23.1495 30.8156 22.9357C29.3253 21.1268 28.2614 19.9056 27.0927 18.8942H27.4114C28.4228 18.9437 29.4341 18.6805 30.1239 18.254C30.3376 18.0956 30.4465 17.778 30.2852 17.5642C30.1278 17.3515 29.8092 17.2436 29.5954 17.4039C29.0116 17.7226 28.2654 17.9353 27.4153 17.8829C26.6702 17.8829 25.7667 17.6196 24.9691 17.1931C23.8528 16.3955 22.5782 15.5445 20.8217 14.3758C20.6119 14.2679 20.4506 14.163 20.4506 13.8968V5.22896C20.4506 4.96375 20.2368 4.75 19.9716 4.75C19.7064 4.75 19.4927 4.96276 19.4927 5.22896Z" fill="white"/>
</mask>
<g mask="url(#mask0)">
<rect width="38" height="38" fill="#0079C8"/>
</g>
</svg>
