<svg width="40" height="40" viewBox="0 0 40 40" fill="none" xmlns="http://www.w3.org/2000/svg">
<path fill-rule="evenodd" clip-rule="evenodd" d="M40 20C40 31 31 40 20 40C9 40 0 31 0 20C0 9 9 0 20 0C31 0 40 9 40 20ZM37.25 20C37.25 10.5 29.5 2.75 20 2.75C10.5 2.75 2.75 10.5 2.75 20C2.75 29.5 10.5 37.25 20 37.25C29.5 37.25 37.25 29.5 37.25 20ZM31.25 15.5L30.375 14.375C30.375 14.25 30.25 14.125 30.25 14.25H29.875L21.25 18.875L9.25 10.5C9.125 10.375 9 10.375 8.875 10.375C8.75 10.375 8.625 10.5 8.5 10.625L8 11.125C7.875 11.25 7.875 11.375 7.875 11.5C8 11.625 8 11.75 8 11.75C14.25 17.875 17.875 21.375 19.125 22.375C20.375 23.375 21 23.875 21.125 23.875C21.2036 23.875 21.4304 23.7268 21.8364 23.4614C22.0763 23.3047 22.3787 23.1071 22.75 22.875C23.75 22.25 26.625 20 31.25 16.125C31.375 16.125 31.375 16 31.375 15.875C31.375 15.75 31.375 15.625 31.25 15.5Z" fill="#0079C7"/>
</svg>
