<svg width="38" height="38" viewBox="0 0 38 38" fill="none" xmlns="http://www.w3.org/2000/svg">
<path fill-rule="evenodd" clip-rule="evenodd" d="M31.7165 31.8157C31.7885 31.9002 31.8461 31.9894 31.8787 32.0767L31.8748 32.0738C31.9593 32.2235 31.9679 32.3915 31.9199 32.5863C31.8652 32.7811 31.7578 32.9365 31.6167 33.0507C31.467 33.138 31.2924 33.1534 31.0889 33.0929C30.8759 33.0392 30.7387 32.9308 30.6514 32.7811C30.588 32.6669 30.5314 32.5642 30.4892 32.4778C30.447 32.3915 30.3635 32.3013 30.2493 32.2111C29.7484 31.3628 29.1064 30.1806 28.3301 28.6634C27.5538 27.1588 27.2928 25.752 27.5624 24.4537C27.6996 23.5728 27.9491 22.7744 28.2879 22.0701C28.6266 21.3657 28.9836 20.6575 29.3674 19.9532C29.8328 19.078 30.2733 18.1424 30.684 17.1406C31.0889 16.1388 31.302 14.9489 31.302 13.5661C31.302 12.2438 31.041 11.0328 30.5343 9.93213C30.0219 8.82859 29.3204 7.86228 28.4414 7.03799C27.524 6.21945 26.4359 5.57172 25.173 5.10056C23.9131 4.63228 22.5639 4.39238 21.1274 4.39238C20.828 4.39238 20.5151 4.41637 20.1918 4.44324C19.8674 4.47299 19.5795 4.51521 19.3128 4.56894C18.1334 4.81268 17.0184 5.22915 15.9628 5.82889C14.9015 6.4344 13.9928 7.14834 13.2309 7.964C12.4632 8.76142 11.8394 9.64617 11.375 10.6355C10.9048 11.6249 10.6707 12.5998 10.6707 13.5652C10.6707 13.7475 10.6793 13.9212 10.6946 14.0987C10.7094 14.2691 10.7347 14.4528 10.7605 14.6395L10.7637 14.6629C10.8511 15.0832 10.6946 15.6648 10.2993 16.4142L9.00383 18.8525C8.7908 19.1769 8.59313 19.5041 8.40408 19.8275C8.21504 20.1509 8.04424 20.4695 7.90318 20.7928C7.86767 20.8562 7.86767 20.8917 7.89454 20.907L8.02984 20.9704C8.14875 20.9917 8.30216 21.0264 8.49538 21.07C8.54541 21.0813 8.59812 21.0932 8.65358 21.1057C8.91075 21.1594 9.14489 21.2218 9.35792 21.2822C9.47212 21.3091 9.57383 21.3302 9.66116 21.3456C9.74464 21.3571 9.82237 21.3849 9.8857 21.4175C10.0891 21.4444 10.2484 21.5471 10.3473 21.7236C10.4432 21.9002 10.4883 22.0806 10.4615 22.2485V22.3205C10.4615 22.3304 10.4501 22.3438 10.432 22.3651C10.4272 22.3708 10.422 22.377 10.4164 22.3838C10.3895 22.4462 10.3626 22.5153 10.3473 22.5873C10.329 22.6592 10.3108 22.7226 10.2782 22.7763C10.2513 22.8963 10.2091 23.0133 10.164 23.1275L10.02 23.5747C10.0469 23.5747 10.0824 23.5776 10.1246 23.5929C10.163 23.6112 10.2235 23.6169 10.2772 23.6169C10.3237 23.6256 10.3721 23.6353 10.4223 23.6453C10.5274 23.6663 10.6404 23.6889 10.7599 23.7071C10.9374 23.7369 11.0996 23.7522 11.2522 23.7522C11.4259 23.7522 11.588 23.8271 11.732 23.9681C11.8788 24.1178 11.9565 24.3069 11.9565 24.541C11.9565 24.7233 11.8817 24.8855 11.732 25.0295C11.5851 25.1734 11.3932 25.2454 11.162 25.2454C11.0391 25.2454 10.9125 25.23 10.7868 25.2031C10.6524 25.1734 10.4989 25.158 10.3223 25.158C10.6457 25.4277 10.7954 25.7194 10.7628 26.0428C10.7359 26.3671 10.6735 26.7203 10.5862 27.0983C10.5229 27.3114 10.4807 27.509 10.4538 27.6981C10.4212 27.89 10.4538 28.0733 10.544 28.2412C10.7752 28.6548 11.4019 28.9638 12.4363 29.1528C13.465 29.3419 14.4188 29.4944 15.3065 29.6086C15.4178 29.6384 15.5348 29.6653 15.6577 29.6806C15.769 29.696 15.8467 29.7046 15.8736 29.7046C16.3121 29.7593 16.6921 29.8581 17.0165 29.9838C17.3408 30.1191 17.6162 30.3168 17.8561 30.5836C18.0902 30.8235 18.3062 31.121 18.5192 31.4866C18.7226 31.8522 18.9568 32.3022 19.2235 32.8271C19.3109 33.0402 19.3195 33.2292 19.2475 33.4058C19.1727 33.5823 19.0316 33.7176 18.8339 33.7982C18.6487 33.8942 18.4741 33.9 18.2975 33.8222C18.121 33.757 17.9741 33.6121 17.8599 33.4086C17.8352 33.3545 17.8108 33.3013 17.7869 33.249C17.6054 32.8518 17.4489 32.5094 17.3082 32.2389C17.147 31.927 16.9934 31.7015 16.8437 31.5518C16.7238 31.4376 16.5626 31.3388 16.3553 31.2668C16.1547 31.2016 15.936 31.1411 15.7018 31.1143C15.5929 31.0943 15.5004 31.0744 15.4242 31.058C15.3977 31.0523 15.3731 31.047 15.3506 31.0423C15.2604 31.0298 15.1894 31.024 15.1289 31.024C14.1847 30.9099 13.1291 30.7237 11.9565 30.4723C10.7781 30.2266 9.94136 29.8102 9.44333 29.219C9.39186 29.1447 9.34525 29.0731 9.30471 29.0109C9.29763 29 9.29074 28.9894 9.28403 28.9791C9.26296 28.9396 9.23175 28.8882 9.19343 28.8251C9.16198 28.7733 9.12573 28.7137 9.08636 28.6462C8.96929 28.2681 8.94242 27.914 8.99616 27.5906C9.05661 27.2663 9.11898 26.9784 9.18232 26.7116C9.20919 26.5974 9.21878 26.4775 9.20055 26.3547C9.1852 26.2405 9.07484 26.1512 8.87045 26.0879C8.66126 26.0006 8.5106 25.8749 8.42999 25.7127C8.34267 25.5572 8.33116 25.3739 8.38489 25.1609C8.41272 25.0803 8.45974 24.993 8.5202 24.921C8.57393 24.8558 8.6555 24.7953 8.7361 24.7684C8.53267 24.685 8.39737 24.5439 8.34363 24.3549C8.28701 24.1601 8.29853 23.9806 8.38585 23.7945C8.49717 23.6265 8.58641 23.4557 8.64686 23.2935L8.65345 23.2738C8.70482 23.1198 8.75387 22.9727 8.78792 22.8291C8.54802 22.8022 8.33212 22.76 8.12484 22.7149L7.55484 22.6007C7.49151 22.5738 7.42914 22.5527 7.36868 22.5374C7.31494 22.5249 7.25449 22.5009 7.20075 22.474C7.01459 22.3627 6.86777 22.2399 6.75358 22.1228C6.63651 22.0115 6.52903 21.8887 6.44171 21.7716C6.38797 21.5951 6.35247 21.4089 6.33711 21.2199C6.32272 21.0279 6.34671 20.8456 6.40045 20.6595C6.40045 20.6057 6.4158 20.5577 6.44267 20.5155C6.4753 20.4704 6.51176 20.4042 6.53863 20.3082C6.67969 19.9935 6.86585 19.6663 7.0904 19.3429C7.30631 19.0166 7.50494 18.6779 7.68151 18.3267C8.14691 17.5955 8.54802 16.9324 8.87237 16.3269C9.19863 15.7271 9.3608 15.3404 9.3608 15.1542C9.34735 15.0534 9.3315 14.9475 9.31493 14.8368C9.2984 14.7263 9.28114 14.611 9.26484 14.4912C9.23797 14.2609 9.22262 14.0421 9.22262 13.8377C9.22262 12.6353 9.48939 11.4598 10.0354 10.3323C10.5747 9.20187 11.3011 8.15591 12.2185 7.18096C13.1003 6.24248 14.1377 5.4297 15.3285 4.75223C16.5155 4.07475 17.7573 3.6247 19.0527 3.3848C19.403 3.3042 19.7398 3.24374 20.0632 3.21687C20.3866 3.19001 20.7407 3.16602 21.1274 3.16602C22.7049 3.16602 24.2221 3.43278 25.6586 3.96056C27.098 4.4941 28.3522 5.23778 29.4135 6.20314C30.4335 7.15122 31.2463 8.25763 31.8518 9.53485C32.4602 10.8159 32.7634 12.2188 32.7634 13.7456C32.7634 15.3375 32.5379 16.6694 32.1003 17.7576C31.6532 18.841 31.1705 19.8697 30.6456 20.8408C30.2944 21.4885 29.9672 22.1363 29.6707 22.7869C29.377 23.4375 29.1429 24.1332 28.9663 24.8951C28.7533 25.8969 29.0172 27.0782 29.734 28.4456C30.4566 29.8188 31.039 30.86 31.4766 31.5912C31.5639 31.6535 31.6474 31.7351 31.7165 31.8157ZM29.2667 10.1778C29.1861 10.1144 29.1199 10.0722 29.0719 10.0425L29.0709 10.0444C29.0406 10.0285 29.0112 10.0098 28.9806 9.99049L28.9806 9.99046L28.9806 9.99045C28.954 9.97363 28.9267 9.9563 28.8972 9.9398C28.7475 9.39667 28.5345 8.98308 28.2706 8.67409C28.0067 8.37086 27.7313 8.0897 27.455 7.83445C27.4185 7.82197 27.3916 7.80086 27.3648 7.77111L27.3548 7.76119C27.3295 7.73598 27.3088 7.7153 27.2985 7.69914C26.7621 7.22222 26.1806 6.86525 25.5415 6.63783C24.9063 6.41232 24.2557 6.22041 23.5926 6.04672C23.5167 6.03181 23.4403 6.0078 23.3597 5.98248C23.3262 5.97195 23.292 5.96119 23.2567 5.95076C23.179 5.92775 23.1053 5.90313 23.0377 5.88055L23.0376 5.88052C23.0009 5.86827 22.9661 5.85662 22.9333 5.84616C22.2645 5.64753 21.6321 5.55828 21.0439 5.56404C20.4537 5.57652 19.9202 5.64177 19.449 5.77707C19.1976 5.84904 18.9635 5.945 18.7476 6.04672C18.5288 6.15707 18.3369 6.27414 18.1632 6.40945C17.7285 6.47278 17.3293 6.56202 16.9579 6.67333C16.5866 6.78465 16.245 6.95546 15.9206 7.17424C15.5934 7.39015 15.2998 7.64445 15.0416 7.94768C14.7806 8.25379 14.5705 8.62227 14.415 9.04834C14.2231 9.15965 14.0408 9.30071 13.8786 9.47152C13.7164 9.64232 13.5658 9.84384 13.4343 10.0655C13.3326 10.2958 13.2433 10.53 13.1589 10.7699C13.0745 11.0126 13.0207 11.265 12.9967 11.5346C12.9756 11.7774 12.9756 12.0356 13.0025 12.3052C13.0265 12.5749 13.086 12.8301 13.1944 13.07C13.2779 13.3281 13.4103 13.5738 13.5811 13.7926C13.7481 14.021 13.9525 14.2129 14.1924 14.3597C14.2049 14.4288 14.226 14.4969 14.2528 14.5603C14.2826 14.6207 14.3133 14.6831 14.3488 14.7435C14.4448 14.8664 14.5589 14.9834 14.6847 15.0947C14.8132 15.2089 14.9514 15.2963 15.1011 15.35C15.1884 15.4124 15.2719 15.4546 15.3564 15.4815C15.4437 15.5055 15.5185 15.5237 15.5905 15.5352C15.7671 15.5678 15.9408 15.5736 16.1212 15.5621C16.3006 15.5477 16.4743 15.5227 16.6547 15.4872C16.7775 15.4757 16.8908 15.4479 16.9992 15.4124C17.1076 15.374 17.2151 15.3318 17.3235 15.2838C17.3466 15.4815 17.3946 15.659 17.455 15.8058C17.5183 15.9584 17.6229 16.1148 17.764 16.2587C17.9262 16.4238 18.1152 16.5706 18.3311 16.6992C18.5499 16.8287 18.7802 16.9391 19.0355 17.0235C19.2811 17.084 19.5421 17.1349 19.806 17.1646C20.0699 17.1982 20.3511 17.2039 20.6543 17.1828C20.7944 17.1828 20.9239 17.1646 21.0257 17.1166C21.1274 17.0754 21.2262 17.0063 21.3375 16.9161C21.397 17.0389 21.4805 17.1291 21.5889 17.1982C21.6964 17.2615 21.8039 17.3124 21.9123 17.3421C22.0592 17.3748 22.2146 17.3805 22.3768 17.369C22.538 17.3594 22.7002 17.3268 22.8681 17.2788L24.7758 19.3573C24.8295 19.4321 24.89 19.4811 24.9648 19.4926C25.031 19.5137 25.1001 19.5137 25.175 19.4926L25.8198 19.3573C25.9004 19.3294 25.981 19.27 26.0415 19.1769C26.1019 19.0876 26.123 18.9821 26.1077 18.8592L25.9513 18.0436C26.0741 18.0618 26.1883 18.0618 26.3082 18.0436C26.3639 18.0378 26.4189 18.0308 26.4738 18.0238C26.5374 18.0157 26.6009 18.0075 26.6652 18.0014C27.049 17.938 27.4243 17.8037 27.7956 17.5964C28.1622 17.3863 28.4913 17.1137 28.7946 16.7808C28.9414 16.6368 29.0767 16.4449 29.2053 16.2165C29.3319 15.9891 29.4212 15.7434 29.4816 15.4882C29.5411 15.2656 29.568 15.0353 29.5833 14.8011C29.5891 14.567 29.544 14.3722 29.4605 14.2014C29.4534 14.1921 29.4468 14.1813 29.4398 14.1699L29.4397 14.1699C29.4286 14.1519 29.4165 14.1322 29.4001 14.114L29.3463 14.0421L29.3281 13.9999C29.3069 13.9855 29.2877 13.9678 29.268 13.9495C29.2547 13.9371 29.2411 13.9245 29.2264 13.9125C29.1909 13.8857 29.1544 13.8521 29.1247 13.8223C29.2715 13.7168 29.4068 13.6026 29.5354 13.4711C29.662 13.3416 29.7637 13.2005 29.8357 13.0479C29.9825 12.7773 30.0612 12.4751 30.0727 12.145C30.0785 11.8148 30.0008 11.4339 29.8357 10.9934C29.7647 10.8102 29.6803 10.6518 29.5843 10.5136C29.4883 10.3783 29.3809 10.268 29.2667 10.1778ZM22.4478 8.22116C22.2827 8.30561 22.1119 8.50904 21.9171 8.83914L21.9123 8.83722C21.7204 9.1702 21.6724 9.53005 21.7838 9.92924L21.7569 9.97722C22.3355 9.2249 22.7011 8.70288 22.8691 8.415C23.0177 8.15724 23.5477 7.84424 24.4458 7.47431C24.2008 7.59259 23.7694 7.87728 23.1541 8.32288L22.8902 8.77869L21.8912 10.1336C21.921 10.2565 22.0476 10.3284 22.2693 10.3409C22.5207 10.3524 22.7817 10.2056 23.0456 9.88798L23.226 9.12031L23.4237 8.7096L23.9332 8.32288L23.4237 8.97924V9.38995L23.9332 9.00323L24.6894 8.035L24.0023 9.13854L23.3757 9.54924L23.1541 10.0645L24.0206 9.81889L24.6894 9.56652L25.3343 9.25465L24.6894 9.7498L24.0023 9.97722L23.8459 10.1125L22.9554 10.3582L22.6253 10.7718L22.5985 10.9723V11.1316L22.7961 11.2909L23.084 11.264L23.7106 10.9944C23.8248 10.8601 23.9054 10.7612 23.9534 10.7008C24.0139 10.6259 24.2538 10.5002 24.6885 10.314H25.4197L24.5052 10.5415L24.0196 10.9282L23.7979 11.2372L24.7969 11.1287L26.2392 10.742L24.8449 11.3955L24.2182 11.4224L23.2404 11.6229L23.3757 11.7611L23.8613 11.9857H24.3382L24.6952 11.7851L25.5617 11.5337L25.958 11.5577L26.2488 11.4675L27.1785 11.0626L27.1785 11.0626L26.4474 11.6028L25.959 11.693L25.6289 11.6661L25.1433 11.8523C24.7201 12.0979 24.4207 12.215 24.2288 12.215C24.033 12.215 23.8056 12.167 23.5417 12.0557L23.0293 12.2841L23.7221 12.7792L24.367 12.8215L24.7662 12.9568C24.9581 13.1093 25.0752 13.1928 25.1231 13.2082C25.1356 13.2264 25.3036 13.2504 25.6212 13.2744C25.9359 13.308 26.0386 13.332 25.9244 13.3435C25.8313 13.3646 25.5319 13.3646 25.0157 13.3435L24.5867 13.0499H23.9476L24.2326 13.4126L25.0541 13.7484L25.1965 13.8932L25.1272 13.9201L25.0147 13.8444L24.2317 13.616L24.5674 14.1569C24.5032 14.186 24.4404 14.2152 24.3789 14.2445L24.342 14.186L23.964 13.6429L23.7212 13.3464L23.3009 12.9836L23.0552 12.8934L22.6771 13.0527C22.5274 13.1871 22.4372 13.2859 22.4132 13.3464C22.3797 13.4366 22.2597 13.9049 22.0563 14.7503L22.7011 15.9949L23.37 16.7203C23.5257 16.9148 23.6559 17.0737 23.7615 17.1966L23.2433 16.6349C23.1828 16.5754 23.1137 16.5389 23.0331 16.5121C22.9487 16.4881 22.8709 16.4996 22.799 16.5418C22.7381 16.5682 22.6796 16.5909 22.624 16.6102L22.5217 16.5341L21.9191 15.9018L21.6312 15.5602L21.4095 14.993L21.2118 14.4048L21.0554 14.1831C20.8155 13.8645 20.6831 13.6736 20.6591 13.6131C20.6236 13.5383 20.5209 13.4778 20.3472 13.4212C20.164 13.3704 20.0565 13.3406 20.0143 13.3406C19.9663 13.3406 19.9068 13.3579 19.8223 13.3886C19.7379 13.4193 19.6842 13.449 19.6602 13.4759C19.6247 13.5239 19.5585 13.734 19.4625 14.1054L19.5047 14.423L19.5949 15.1034L19.4385 16.1407L19.3694 15.0554V14.5401C19.3512 14.447 19.3301 14.234 19.3032 13.901L19.3694 13.6342L19.1238 13.6074L18.881 13.7427L18.6593 14.0603L18.4108 14.4892L17.9703 14.7556C17.9703 14.7512 17.9701 14.747 17.9699 14.7429L18.3302 14.4202L18.3964 14.1265L18.5941 13.8146C18.2822 13.8905 18.0692 13.95 17.9732 13.9951C17.8555 14.0543 17.6856 14.2105 17.4653 14.4525C17.4329 14.4586 17.4007 14.4682 17.3686 14.4816C17.3554 14.4885 17.342 14.4955 17.3283 14.5024V14.4202C17.3495 14.2858 17.6882 14.0574 18.3273 13.7398L19.0796 13.3349L19.3915 13.1343L19.4304 13.0738C19.5786 12.8439 19.6554 12.7248 19.6554 12.7054C19.6554 12.6756 19.6016 12.5768 19.4999 12.4117L18.8791 12.2524L18.12 12.1411L16.9205 12.8426L16.3025 12.9779L17.0107 12.642L17.551 12.3244L18.0576 12.0547L17.5692 11.9194H17.2631L16.9244 11.6229C16.5703 11.4128 16.3783 11.29 16.3486 11.2602C16.2977 11.2305 15.9168 11.2544 15.1971 11.3293C15.293 11.1911 15.5329 11.1374 15.911 11.1489L16.5261 11.17C16.5683 11.17 16.7967 11.3351 17.2132 11.6652L17.4771 11.7131H18.0289L18.6497 11.8935H19.4922C19.5527 11.8062 19.5824 11.7429 19.5824 11.7131V11.3322L19.3186 11.1038L18.6497 10.7411L17.2554 10.1288L16.9436 9.5646L17.3639 10.0597L18.2726 10.3352L18.1642 10.1077L17.7592 9.49551L17.2554 9.11455L16.9167 8.77293L17.7861 9.33717L18.2572 10.0597L18.6113 10.4887L19.118 10.696L19.4961 10.9234H19.853L20.2311 10.696L20.3396 10.3332L20.2973 9.98874L19.9404 9.61066L19.1669 9.06465L18.8762 8.97445L18.5403 8.89L18.2102 8.2749L18.7438 8.82091L19.1151 8.89L19.8742 9.33717L19.6525 8.82187L19.7187 8.41116L19.6045 8.18374L19.119 7.25677L19.7187 8.04844L19.8751 7.25677C19.831 6.95334 19.8777 6.71639 20.0115 6.53774C20.0561 6.52921 20.1012 6.52129 20.1468 6.51399C20.108 6.65037 20.0615 6.85253 20.0075 7.12147V8.27586L19.9202 8.47642C19.9202 8.61076 19.9807 8.82955 20.1006 9.13278L20.7244 10.0473L21.0122 10.2718L21.3692 10.0473V9.63369C21.4556 9.4149 21.5007 9.28248 21.5007 9.25561C21.5122 9.19323 21.6772 8.93798 21.9891 8.48217L22.3192 7.91793C22.349 7.7193 22.3374 7.53985 22.277 7.35369C22.2261 7.17712 22.2232 6.92187 22.253 6.60424L22.2542 6.60017C22.2828 6.60645 22.3115 6.61292 22.3403 6.61958V6.83263C22.3403 6.86238 22.3614 6.97369 22.4094 7.16273C22.4488 7.35177 22.4871 7.50147 22.5236 7.59743C22.5447 7.69626 22.5236 7.86132 22.4488 8.10121C22.5956 7.97839 22.6791 7.91505 22.6973 7.91505C22.7049 7.91505 22.9209 7.57376 23.336 6.89248L23.3688 6.90025C23.0458 7.56626 22.8578 7.92573 22.8048 7.98126C22.7328 8.06187 22.61 8.14056 22.4478 8.22116ZM23.3688 6.90025C23.4142 6.80667 23.4622 6.70705 23.5129 6.60137C23.4504 6.70446 23.3914 6.8015 23.336 6.89248C23.2599 6.87385 23.1854 6.85181 23.1087 6.82914L23.1087 6.82912C23.0803 6.82074 23.0517 6.81226 23.0226 6.80385C22.9965 6.79592 22.9707 6.78791 22.9451 6.77994L22.9448 6.77987L22.9448 6.77986C22.8525 6.75119 22.7623 6.72314 22.6685 6.70213C22.5574 6.672 22.448 6.64447 22.3403 6.61958V6.31061L22.2542 6.60017C21.8044 6.50134 21.3844 6.44976 20.9949 6.44976C20.6952 6.44976 20.4126 6.47142 20.1468 6.51399C20.1811 6.39343 20.2096 6.32427 20.2321 6.30581C20.2714 6.25207 20.211 6.31157 20.0488 6.49197C20.0357 6.50678 20.0233 6.52203 20.0115 6.53774C19.8716 6.56449 19.7366 6.59726 19.6064 6.63592C19.4116 6.71077 19.235 6.78849 19.0661 6.87582C18.8973 6.96314 18.7485 7.04662 18.6132 7.13107C18.595 7.16082 18.571 7.18768 18.5412 7.21167C18.5173 7.23332 18.4927 7.24749 18.4715 7.25971L18.4568 7.26829C18.3253 7.39112 18.2111 7.51395 18.1209 7.62526C18.0307 7.73274 17.9655 7.8594 17.9233 7.99087C17.8935 8.10218 17.8331 8.18279 17.7371 8.23077C17.6411 8.2845 17.5327 8.29986 17.4128 8.26051C17.311 8.23364 17.2295 8.16743 17.1815 8.05996C17.1278 7.95536 17.1153 7.84405 17.1489 7.72122L17.2026 7.60991C17.2095 7.59604 17.2158 7.58313 17.2216 7.571L17.2216 7.57099L17.2216 7.57098C17.236 7.54115 17.2481 7.51603 17.2631 7.49284C17.0798 7.54369 16.9061 7.60415 16.7439 7.679C16.5818 7.75385 16.4378 7.83829 16.3063 7.92465C16.1115 8.06284 15.935 8.22117 15.7728 8.39198C15.6106 8.56279 15.4638 8.7643 15.3324 8.98597H15.3746C15.4763 9.0042 15.5579 9.06082 15.6174 9.14526C15.6778 9.23546 15.7018 9.34006 15.6893 9.46289C15.6711 9.5742 15.6231 9.65481 15.5454 9.71526C15.4609 9.77859 15.365 9.79587 15.245 9.77859H15.0205C14.9754 9.77859 14.936 9.79107 14.9063 9.80258C14.8794 9.82369 14.8583 9.82945 14.8458 9.82945C14.7259 9.87743 14.6002 9.96476 14.4745 10.0905C14.3488 10.2229 14.2346 10.3726 14.1386 10.552C14.0484 10.7171 13.9764 10.8965 13.917 11.0884C13.8536 11.2832 13.8085 11.4963 13.7817 11.7035C13.7634 11.9012 13.7634 12.1085 13.7874 12.3148C13.8143 12.5221 13.8536 12.7198 13.916 12.8992C13.94 12.9894 13.988 13.0825 14.0475 13.1813C14.1079 13.2773 14.1732 13.3761 14.2451 13.4692C14.2451 13.4395 14.2509 13.4212 14.2691 13.4212C14.3113 13.3166 14.3833 13.2408 14.485 13.2053C14.5868 13.1727 14.6827 13.1756 14.7815 13.2207C14.8775 13.2811 14.9495 13.3617 14.9859 13.4606C15.0186 13.5565 15.0186 13.6611 14.9802 13.7609C14.9591 13.7964 14.9447 13.83 14.9322 13.8598C14.9197 13.8895 14.9111 13.9202 14.9111 13.9442V14.0795C14.9111 14.0971 14.9171 14.11 14.9263 14.1298L14.9322 14.1428L14.9345 14.1475C14.9453 14.1699 14.9562 14.1926 14.9562 14.2177C14.9594 14.2277 14.963 14.2373 14.9665 14.2468L14.9665 14.2468L14.9665 14.2469C14.9754 14.2709 14.9839 14.2939 14.9859 14.3194C14.9917 14.3549 15.0042 14.3943 15.0186 14.4182C15.0608 14.4787 15.1145 14.5411 15.1836 14.6015C15.2498 14.6649 15.3218 14.7186 15.3995 14.7608C15.4361 14.7701 15.468 14.779 15.498 14.7874L15.498 14.7874L15.4981 14.7874C15.5177 14.7929 15.5364 14.7981 15.555 14.803C15.5867 14.82 15.6221 14.829 15.6593 14.8383L15.6593 14.8383L15.6864 14.8453C15.8006 14.8664 15.9292 14.8721 16.0578 14.8721C16.1931 14.8721 16.3275 14.8539 16.4628 14.803C16.6182 14.779 16.7804 14.7311 16.9483 14.6677C17.0926 14.6114 17.218 14.558 17.3283 14.5024V14.6063C17.376 14.5517 17.4216 14.5004 17.4653 14.4525C17.5354 14.4393 17.606 14.443 17.6776 14.4633C17.7764 14.4931 17.8638 14.5535 17.9233 14.6399C17.9296 14.6515 17.9371 14.6611 17.9439 14.6699L17.944 14.6699C17.9496 14.6771 17.9549 14.6838 17.9588 14.6908C17.9636 14.7005 17.9685 14.719 17.9699 14.7429L17.9252 14.7829L17.9703 14.7556L17.9703 14.757L17.9781 14.7924C17.9854 14.8259 17.9914 14.8531 18 14.8798C18.0058 14.9153 18.0183 14.9604 18.0327 15.0026C18.0595 15.1763 18.0931 15.3203 18.1411 15.4584C18.1833 15.5937 18.2495 15.7099 18.3388 15.7943C18.4587 15.9171 18.594 16.0284 18.7437 16.1119C18.8848 16.205 19.0556 16.277 19.2475 16.3403C19.4423 16.4008 19.6525 16.4449 19.8799 16.4689C20.1083 16.4958 20.3443 16.4958 20.5842 16.4747C20.6715 16.4747 20.7608 16.4391 20.8481 16.3662C20.8788 16.3387 20.9137 16.3079 20.9523 16.2738C21.0185 16.2154 21.0956 16.1473 21.1811 16.0697C21.2531 15.9949 21.349 15.9584 21.4575 15.968C21.5659 15.9795 21.6551 16.0284 21.7156 16.1119L21.7156 16.1119C21.7396 16.133 21.7636 16.1542 21.7818 16.181C21.788 16.1971 21.7962 16.2135 21.8044 16.2299L21.8044 16.2299C21.8114 16.2438 21.8183 16.2576 21.824 16.2712C21.8538 16.394 21.896 16.4785 21.944 16.5409C21.992 16.6032 22.0524 16.6368 22.1119 16.6522C22.1992 16.6877 22.3009 16.6944 22.4151 16.6704C22.4777 16.6566 22.548 16.6366 22.624 16.6102L23.3162 17.1253L24.0753 17.9409L24.3843 18.4389H24.5819C24.3843 18.0376 24.2427 17.7691 24.1572 17.6255L25.1989 18.7547H25.2651L25.1337 18.0138C24.9926 17.9812 24.8573 17.939 24.7172 17.8757C24.5733 17.8152 24.4476 17.7528 24.3334 17.6924C24.2249 17.629 24.1597 17.5456 24.1299 17.4343C24.1031 17.3258 24.1059 17.2212 24.1568 17.1281C24.1961 17.0235 24.2768 16.9545 24.3909 16.9276C24.4994 16.8978 24.6069 16.9065 24.7143 16.9698C25.0377 17.1531 25.3534 17.2702 25.6653 17.3181C25.9772 17.3748 26.2708 17.3815 26.5558 17.3335C26.8648 17.2702 27.1613 17.1531 27.4521 16.9823C27.7399 16.8115 28.0153 16.5956 28.2802 16.3374C28.3819 16.2328 28.4779 16.0975 28.5709 15.9325C28.6544 15.7674 28.7206 15.5937 28.7657 15.4105C28.7955 15.2636 28.8195 15.1283 28.8348 15.0113C28.8463 14.9 28.8348 14.8165 28.7926 14.7531C28.7744 14.7263 28.7657 14.6994 28.7657 14.6869C28.7657 14.6743 28.7533 14.6622 28.7371 14.6465L28.7264 14.6361V14.6178C28.6784 14.543 28.618 14.4825 28.5431 14.4317C28.4711 14.3895 28.3809 14.3511 28.2792 14.3232C28.2677 14.3232 28.2524 14.3232 28.237 14.3079C28.2188 14.3021 28.213 14.2897 28.213 14.2724C28.0182 14.2186 27.7966 14.1918 27.5442 14.1975C27.2928 14.2062 27.0222 14.2484 26.7285 14.3232C26.2583 14.4096 25.7899 14.5556 25.3224 14.7497L24.723 14.4077L24.5674 14.1569C24.6918 14.1006 24.821 14.0447 24.9552 13.9893C25.0125 13.9657 25.0698 13.9426 25.1272 13.9201L25.411 14.1112L25.1965 13.8932C25.6476 13.7199 26.1008 13.5811 26.5568 13.4769C26.8657 13.4135 27.168 13.378 27.4712 13.3656C27.7745 13.3502 28.0556 13.3838 28.308 13.4558C28.5114 13.3512 28.6919 13.2427 28.8387 13.1199C28.9797 12.9971 29.1026 12.8618 29.1928 12.7063C29.2676 12.5624 29.3098 12.3762 29.3213 12.1546C29.3271 11.9358 29.2609 11.6719 29.1265 11.3504C29.0786 11.2487 29.0306 11.1556 28.9826 11.0683C28.9346 10.9838 28.8684 10.909 28.7964 10.8495C28.7667 10.8226 28.7302 10.8015 28.688 10.7862C28.6414 10.774 28.6002 10.7574 28.5565 10.7397L28.5527 10.7382H28.5047C28.4596 10.7113 28.4116 10.7084 28.3483 10.72C28.2879 10.7324 28.2399 10.7468 28.2015 10.7622C28.0787 10.7622 27.9856 10.7862 27.9165 10.8284C27.8503 10.8793 27.7908 10.9272 27.7303 10.9877C27.6612 11.0836 27.571 11.1374 27.4636 11.147L27.4703 11.1489C27.3638 11.164 27.2638 11.1319 27.1785 11.0626L27.1786 11.0625L27.1785 11.0626L27.1738 11.0587C27.096 10.9954 27.0481 10.9119 27.0356 10.8034C27.0241 10.6921 27.0471 10.5875 27.1076 10.4916C27.2093 10.3745 27.3235 10.2699 27.4521 10.1797C27.572 10.0924 27.6977 10.0271 27.8177 9.97915C27.8478 9.96959 27.8774 9.95722 27.9034 9.94634L27.9261 9.93693C27.9558 9.92157 27.9981 9.91006 28.0576 9.91006C27.9261 9.56844 27.7543 9.29208 27.5595 9.08289C27.3619 8.88233 27.1546 8.69905 26.9511 8.534C26.9329 8.50425 26.9089 8.47738 26.8849 8.46491C26.8552 8.45243 26.8245 8.4294 26.7947 8.39582C26.3092 7.97263 25.7718 7.66077 25.1903 7.46021C24.5992 7.25965 23.9994 7.07349 23.3795 6.90268L23.3688 6.90025ZM25.2152 14.7951L25.2594 14.7762L25.3224 14.7497L25.7219 14.9777L25.2152 14.7951ZM25.2152 14.7951C24.7474 14.9966 24.3274 15.2057 23.9553 15.4085C23.8651 15.469 23.772 15.5256 23.6789 15.5736C23.583 15.6273 23.5024 15.6753 23.4419 15.7204C23.3699 15.801 23.274 15.8288 23.1655 15.8106C23.0571 15.7991 22.9621 15.7358 22.8892 15.6302C22.8287 15.5582 22.8057 15.4594 22.823 15.3481C22.8345 15.2397 22.8949 15.1408 23.0034 15.0602L23.2586 14.8683C23.3517 14.8021 23.4621 14.7397 23.582 14.6793C23.8168 14.5303 24.0826 14.3858 24.3789 14.2445L24.5819 14.567L25.2152 14.7951ZM23.9856 17.4395C24.0266 17.4782 24.0574 17.5014 24.0781 17.5091C24.0942 17.5255 24.1206 17.5641 24.1572 17.6255L23.9856 17.4395ZM23.7615 17.1966C23.8555 17.306 23.93 17.387 23.9856 17.4395L23.7615 17.1966ZM24.5723 7.42278C24.5379 7.43301 24.4957 7.45021 24.4458 7.47431C24.4872 7.45726 24.5294 7.44008 24.5723 7.42278Z" fill="black"/>
<mask id="mask0" mask-type="alpha" maskUnits="userSpaceOnUse" x="6" y="3" width="27" height="31">
<path fill-rule="evenodd" clip-rule="evenodd" d="M31.7165 31.8157C31.7885 31.9002 31.8461 31.9894 31.8787 32.0767L31.8748 32.0738C31.9593 32.2235 31.9679 32.3915 31.9199 32.5863C31.8652 32.7811 31.7578 32.9365 31.6167 33.0507C31.467 33.138 31.2924 33.1534 31.0889 33.0929C30.8759 33.0392 30.7387 32.9308 30.6514 32.7811C30.588 32.6669 30.5314 32.5642 30.4892 32.4778C30.447 32.3915 30.3635 32.3013 30.2493 32.2111C29.7484 31.3628 29.1064 30.1806 28.3301 28.6634C27.5538 27.1588 27.2928 25.752 27.5624 24.4537C27.6996 23.5728 27.9491 22.7744 28.2879 22.0701C28.6266 21.3657 28.9836 20.6575 29.3674 19.9532C29.8328 19.078 30.2733 18.1424 30.684 17.1406C31.0889 16.1388 31.302 14.9489 31.302 13.5661C31.302 12.2438 31.041 11.0328 30.5343 9.93213C30.0219 8.82859 29.3204 7.86228 28.4414 7.03799C27.524 6.21945 26.4359 5.57172 25.173 5.10056C23.9131 4.63228 22.5639 4.39238 21.1274 4.39238C20.828 4.39238 20.5151 4.41637 20.1918 4.44324C19.8674 4.47299 19.5795 4.51521 19.3128 4.56894C18.1334 4.81268 17.0184 5.22915 15.9628 5.82889C14.9015 6.4344 13.9928 7.14834 13.2309 7.964C12.4632 8.76142 11.8394 9.64617 11.375 10.6355C10.9048 11.6249 10.6707 12.5998 10.6707 13.5652C10.6707 13.7475 10.6793 13.9212 10.6946 14.0987C10.7094 14.2691 10.7347 14.4528 10.7605 14.6395L10.7637 14.6629C10.8511 15.0832 10.6946 15.6648 10.2993 16.4142L9.00383 18.8525C8.7908 19.1769 8.59313 19.5041 8.40408 19.8275C8.21504 20.1509 8.04424 20.4695 7.90318 20.7928C7.86767 20.8562 7.86767 20.8917 7.89454 20.907L8.02984 20.9704C8.14875 20.9917 8.30216 21.0264 8.49538 21.07C8.54541 21.0813 8.59812 21.0932 8.65358 21.1057C8.91075 21.1594 9.14489 21.2218 9.35792 21.2822C9.47212 21.3091 9.57383 21.3302 9.66116 21.3456C9.74464 21.3571 9.82237 21.3849 9.8857 21.4175C10.0891 21.4444 10.2484 21.5471 10.3473 21.7236C10.4432 21.9002 10.4883 22.0806 10.4615 22.2485V22.3205C10.4615 22.3304 10.4501 22.3438 10.432 22.3651C10.4272 22.3708 10.422 22.377 10.4164 22.3838C10.3895 22.4462 10.3626 22.5153 10.3473 22.5873C10.329 22.6592 10.3108 22.7226 10.2782 22.7763C10.2513 22.8963 10.2091 23.0133 10.164 23.1275L10.02 23.5747C10.0469 23.5747 10.0824 23.5776 10.1246 23.5929C10.163 23.6112 10.2235 23.6169 10.2772 23.6169C10.3237 23.6256 10.3721 23.6353 10.4223 23.6453C10.5274 23.6663 10.6404 23.6889 10.7599 23.7071C10.9374 23.7369 11.0996 23.7522 11.2522 23.7522C11.4259 23.7522 11.588 23.8271 11.732 23.9681C11.8788 24.1178 11.9565 24.3069 11.9565 24.541C11.9565 24.7233 11.8817 24.8855 11.732 25.0295C11.5851 25.1734 11.3932 25.2454 11.162 25.2454C11.0391 25.2454 10.9125 25.23 10.7868 25.2031C10.6524 25.1734 10.4989 25.158 10.3223 25.158C10.6457 25.4277 10.7954 25.7194 10.7628 26.0428C10.7359 26.3671 10.6735 26.7203 10.5862 27.0983C10.5229 27.3114 10.4807 27.509 10.4538 27.6981C10.4212 27.89 10.4538 28.0733 10.544 28.2412C10.7752 28.6548 11.4019 28.9638 12.4363 29.1528C13.465 29.3419 14.4188 29.4944 15.3065 29.6086C15.4178 29.6384 15.5348 29.6653 15.6577 29.6806C15.769 29.696 15.8467 29.7046 15.8736 29.7046C16.3121 29.7593 16.6921 29.8581 17.0165 29.9838C17.3408 30.1191 17.6162 30.3168 17.8561 30.5836C18.0902 30.8235 18.3062 31.121 18.5192 31.4866C18.7226 31.8522 18.9568 32.3022 19.2235 32.8271C19.3109 33.0402 19.3195 33.2292 19.2475 33.4058C19.1727 33.5823 19.0316 33.7176 18.8339 33.7982C18.6487 33.8942 18.4741 33.9 18.2975 33.8222C18.121 33.757 17.9741 33.6121 17.8599 33.4086C17.8352 33.3545 17.8108 33.3013 17.7869 33.249C17.6054 32.8518 17.4489 32.5094 17.3082 32.2389C17.147 31.927 16.9934 31.7015 16.8437 31.5518C16.7238 31.4376 16.5626 31.3388 16.3553 31.2668C16.1547 31.2016 15.936 31.1411 15.7018 31.1143C15.5929 31.0943 15.5004 31.0744 15.4242 31.058C15.3977 31.0523 15.3731 31.047 15.3506 31.0423C15.2604 31.0298 15.1894 31.024 15.1289 31.024C14.1847 30.9099 13.1291 30.7237 11.9565 30.4723C10.7781 30.2266 9.94136 29.8102 9.44333 29.219C9.39186 29.1447 9.34525 29.0731 9.30471 29.0109C9.29763 29 9.29074 28.9894 9.28403 28.9791C9.26296 28.9396 9.23175 28.8882 9.19343 28.8251C9.16198 28.7733 9.12573 28.7137 9.08636 28.6462C8.96929 28.2681 8.94242 27.914 8.99616 27.5906C9.05661 27.2663 9.11898 26.9784 9.18232 26.7116C9.20919 26.5974 9.21878 26.4775 9.20055 26.3547C9.1852 26.2405 9.07484 26.1512 8.87045 26.0879C8.66126 26.0006 8.5106 25.8749 8.42999 25.7127C8.34267 25.5572 8.33116 25.3739 8.38489 25.1609C8.41272 25.0803 8.45974 24.993 8.5202 24.921C8.57393 24.8558 8.6555 24.7953 8.7361 24.7684C8.53267 24.685 8.39737 24.5439 8.34363 24.3549C8.28701 24.1601 8.29853 23.9806 8.38585 23.7945C8.49717 23.6265 8.58641 23.4557 8.64686 23.2935L8.65345 23.2738C8.70482 23.1198 8.75387 22.9727 8.78792 22.8291C8.54802 22.8022 8.33212 22.76 8.12484 22.7149L7.55484 22.6007C7.49151 22.5738 7.42914 22.5527 7.36868 22.5374C7.31494 22.5249 7.25449 22.5009 7.20075 22.474C7.01459 22.3627 6.86777 22.2399 6.75358 22.1228C6.63651 22.0115 6.52903 21.8887 6.44171 21.7716C6.38797 21.5951 6.35247 21.4089 6.33711 21.2199C6.32272 21.0279 6.34671 20.8456 6.40045 20.6595C6.40045 20.6057 6.4158 20.5577 6.44267 20.5155C6.4753 20.4704 6.51176 20.4042 6.53863 20.3082C6.67969 19.9935 6.86585 19.6663 7.0904 19.3429C7.30631 19.0166 7.50494 18.6779 7.68151 18.3267C8.14691 17.5955 8.54802 16.9324 8.87237 16.3269C9.19863 15.7271 9.3608 15.3404 9.3608 15.1542C9.34735 15.0534 9.3315 14.9475 9.31493 14.8368C9.2984 14.7263 9.28114 14.611 9.26484 14.4912C9.23797 14.2609 9.22262 14.0421 9.22262 13.8377C9.22262 12.6353 9.48939 11.4598 10.0354 10.3323C10.5747 9.20187 11.3011 8.15591 12.2185 7.18096C13.1003 6.24248 14.1377 5.4297 15.3285 4.75223C16.5155 4.07475 17.7573 3.6247 19.0527 3.3848C19.403 3.3042 19.7398 3.24374 20.0632 3.21687C20.3866 3.19001 20.7407 3.16602 21.1274 3.16602C22.7049 3.16602 24.2221 3.43278 25.6586 3.96056C27.098 4.4941 28.3522 5.23778 29.4135 6.20314C30.4335 7.15122 31.2463 8.25763 31.8518 9.53485C32.4602 10.8159 32.7634 12.2188 32.7634 13.7456C32.7634 15.3375 32.5379 16.6694 32.1003 17.7576C31.6532 18.841 31.1705 19.8697 30.6456 20.8408C30.2944 21.4885 29.9672 22.1363 29.6707 22.7869C29.377 23.4375 29.1429 24.1332 28.9663 24.8951C28.7533 25.8969 29.0172 27.0782 29.734 28.4456C30.4566 29.8188 31.039 30.86 31.4766 31.5912C31.5639 31.6535 31.6474 31.7351 31.7165 31.8157ZM29.2667 10.1778C29.1861 10.1144 29.1199 10.0722 29.0719 10.0425L29.0709 10.0444C29.0406 10.0285 29.0112 10.0098 28.9806 9.99049L28.9806 9.99046L28.9806 9.99045C28.954 9.97363 28.9267 9.9563 28.8972 9.9398C28.7475 9.39667 28.5345 8.98308 28.2706 8.67409C28.0067 8.37086 27.7313 8.0897 27.455 7.83445C27.4185 7.82197 27.3916 7.80086 27.3648 7.77111L27.3548 7.76119C27.3295 7.73598 27.3088 7.7153 27.2985 7.69914C26.7621 7.22222 26.1806 6.86525 25.5415 6.63783C24.9063 6.41232 24.2557 6.22041 23.5926 6.04672C23.5167 6.03181 23.4403 6.0078 23.3597 5.98248C23.3262 5.97195 23.292 5.96119 23.2567 5.95076C23.179 5.92775 23.1053 5.90313 23.0377 5.88055L23.0376 5.88052C23.0009 5.86827 22.9661 5.85662 22.9333 5.84616C22.2645 5.64753 21.6321 5.55828 21.0439 5.56404C20.4537 5.57652 19.9202 5.64177 19.449 5.77707C19.1976 5.84904 18.9635 5.945 18.7476 6.04672C18.5288 6.15707 18.3369 6.27414 18.1632 6.40945C17.7285 6.47278 17.3293 6.56202 16.9579 6.67333C16.5866 6.78465 16.245 6.95546 15.9206 7.17424C15.5934 7.39015 15.2998 7.64445 15.0416 7.94768C14.7806 8.25379 14.5705 8.62227 14.415 9.04834C14.2231 9.15965 14.0408 9.30071 13.8786 9.47152C13.7164 9.64232 13.5658 9.84384 13.4343 10.0655C13.3326 10.2958 13.2433 10.53 13.1589 10.7699C13.0745 11.0126 13.0207 11.265 12.9967 11.5346C12.9756 11.7774 12.9756 12.0356 13.0025 12.3052C13.0265 12.5749 13.086 12.8301 13.1944 13.07C13.2779 13.3281 13.4103 13.5738 13.5811 13.7926C13.7481 14.021 13.9525 14.2129 14.1924 14.3597C14.2049 14.4288 14.226 14.4969 14.2528 14.5603C14.2826 14.6207 14.3133 14.6831 14.3488 14.7435C14.4448 14.8664 14.5589 14.9834 14.6847 15.0947C14.8132 15.2089 14.9514 15.2963 15.1011 15.35C15.1884 15.4124 15.2719 15.4546 15.3564 15.4815C15.4437 15.5055 15.5185 15.5237 15.5905 15.5352C15.7671 15.5678 15.9408 15.5736 16.1212 15.5621C16.3006 15.5477 16.4743 15.5227 16.6547 15.4872C16.7775 15.4757 16.8908 15.4479 16.9992 15.4124C17.1076 15.374 17.2151 15.3318 17.3235 15.2838C17.3466 15.4815 17.3946 15.659 17.455 15.8058C17.5183 15.9584 17.6229 16.1148 17.764 16.2587C17.9262 16.4238 18.1152 16.5706 18.3311 16.6992C18.5499 16.8287 18.7802 16.9391 19.0355 17.0235C19.2811 17.084 19.5421 17.1349 19.806 17.1646C20.0699 17.1982 20.3511 17.2039 20.6543 17.1828C20.7944 17.1828 20.9239 17.1646 21.0257 17.1166C21.1274 17.0754 21.2262 17.0063 21.3375 16.9161C21.397 17.0389 21.4805 17.1291 21.5889 17.1982C21.6964 17.2615 21.8039 17.3124 21.9123 17.3421C22.0592 17.3748 22.2146 17.3805 22.3768 17.369C22.538 17.3594 22.7002 17.3268 22.8681 17.2788L24.7758 19.3573C24.8295 19.4321 24.89 19.4811 24.9648 19.4926C25.031 19.5137 25.1001 19.5137 25.175 19.4926L25.8198 19.3573C25.9004 19.3294 25.981 19.27 26.0415 19.1769C26.1019 19.0876 26.123 18.9821 26.1077 18.8592L25.9513 18.0436C26.0741 18.0618 26.1883 18.0618 26.3082 18.0436C26.3639 18.0378 26.4189 18.0308 26.4738 18.0238C26.5374 18.0157 26.6009 18.0075 26.6652 18.0014C27.049 17.938 27.4243 17.8037 27.7956 17.5964C28.1622 17.3863 28.4913 17.1137 28.7946 16.7808C28.9414 16.6368 29.0767 16.4449 29.2053 16.2165C29.3319 15.9891 29.4212 15.7434 29.4816 15.4882C29.5411 15.2656 29.568 15.0353 29.5833 14.8011C29.5891 14.567 29.544 14.3722 29.4605 14.2014C29.4534 14.1921 29.4468 14.1813 29.4398 14.1699L29.4397 14.1699C29.4286 14.1519 29.4165 14.1322 29.4001 14.114L29.3463 14.0421L29.3281 13.9999C29.3069 13.9855 29.2877 13.9678 29.268 13.9495C29.2547 13.9371 29.2411 13.9245 29.2264 13.9125C29.1909 13.8857 29.1544 13.8521 29.1247 13.8223C29.2715 13.7168 29.4068 13.6026 29.5354 13.4711C29.662 13.3416 29.7637 13.2005 29.8357 13.0479C29.9825 12.7773 30.0612 12.4751 30.0727 12.145C30.0785 11.8148 30.0008 11.4339 29.8357 10.9934C29.7647 10.8102 29.6803 10.6518 29.5843 10.5136C29.4883 10.3783 29.3809 10.268 29.2667 10.1778ZM22.4478 8.22116C22.2827 8.30561 22.1119 8.50904 21.9171 8.83914L21.9123 8.83722C21.7204 9.1702 21.6724 9.53005 21.7838 9.92924L21.7569 9.97722C22.3355 9.2249 22.7011 8.70288 22.8691 8.415C23.0177 8.15724 23.5477 7.84424 24.4458 7.47431C24.2008 7.59259 23.7694 7.87728 23.1541 8.32288L22.8902 8.77869L21.8912 10.1336C21.921 10.2565 22.0476 10.3284 22.2693 10.3409C22.5207 10.3524 22.7817 10.2056 23.0456 9.88798L23.226 9.12031L23.4237 8.7096L23.9332 8.32288L23.4237 8.97924V9.38995L23.9332 9.00323L24.6894 8.035L24.0023 9.13854L23.3757 9.54924L23.1541 10.0645L24.0206 9.81889L24.6894 9.56652L25.3343 9.25465L24.6894 9.7498L24.0023 9.97722L23.8459 10.1125L22.9554 10.3582L22.6253 10.7718L22.5985 10.9723V11.1316L22.7961 11.2909L23.084 11.264L23.7106 10.9944C23.8248 10.8601 23.9054 10.7612 23.9534 10.7008C24.0139 10.6259 24.2538 10.5002 24.6885 10.314H25.4197L24.5052 10.5415L24.0196 10.9282L23.7979 11.2372L24.7969 11.1287L26.2392 10.742L24.8449 11.3955L24.2182 11.4224L23.2404 11.6229L23.3757 11.7611L23.8613 11.9857H24.3382L24.6952 11.7851L25.5617 11.5337L25.958 11.5577L26.2488 11.4675L27.1785 11.0626L27.1785 11.0626L26.4474 11.6028L25.959 11.693L25.6289 11.6661L25.1433 11.8523C24.7201 12.0979 24.4207 12.215 24.2288 12.215C24.033 12.215 23.8056 12.167 23.5417 12.0557L23.0293 12.2841L23.7221 12.7792L24.367 12.8215L24.7662 12.9568C24.9581 13.1093 25.0752 13.1928 25.1231 13.2082C25.1356 13.2264 25.3036 13.2504 25.6212 13.2744C25.9359 13.308 26.0386 13.332 25.9244 13.3435C25.8313 13.3646 25.5319 13.3646 25.0157 13.3435L24.5867 13.0499H23.9476L24.2326 13.4126L25.0541 13.7484L25.1965 13.8932L25.1272 13.9201L25.0147 13.8444L24.2317 13.616L24.5674 14.1569C24.5032 14.186 24.4404 14.2152 24.3789 14.2445L24.342 14.186L23.964 13.6429L23.7212 13.3464L23.3009 12.9836L23.0552 12.8934L22.6771 13.0527C22.5274 13.1871 22.4372 13.2859 22.4132 13.3464C22.3797 13.4366 22.2597 13.9049 22.0563 14.7503L22.7011 15.9949L23.37 16.7203C23.5257 16.9148 23.6559 17.0737 23.7615 17.1966L23.2433 16.6349C23.1828 16.5754 23.1137 16.5389 23.0331 16.5121C22.9487 16.4881 22.8709 16.4996 22.799 16.5418C22.7381 16.5682 22.6796 16.5909 22.624 16.6102L22.5217 16.5341L21.9191 15.9018L21.6312 15.5602L21.4095 14.993L21.2118 14.4048L21.0554 14.1831C20.8155 13.8645 20.6831 13.6736 20.6591 13.6131C20.6236 13.5383 20.5209 13.4778 20.3472 13.4212C20.164 13.3704 20.0565 13.3406 20.0143 13.3406C19.9663 13.3406 19.9068 13.3579 19.8223 13.3886C19.7379 13.4193 19.6842 13.449 19.6602 13.4759C19.6247 13.5239 19.5585 13.734 19.4625 14.1054L19.5047 14.423L19.5949 15.1034L19.4385 16.1407L19.3694 15.0554V14.5401C19.3512 14.447 19.3301 14.234 19.3032 13.901L19.3694 13.6342L19.1238 13.6074L18.881 13.7427L18.6593 14.0603L18.4108 14.4892L17.9703 14.7556C17.9703 14.7512 17.9701 14.747 17.9699 14.7429L18.3302 14.4202L18.3964 14.1265L18.5941 13.8146C18.2822 13.8905 18.0692 13.95 17.9732 13.9951C17.8555 14.0543 17.6856 14.2105 17.4653 14.4525C17.4329 14.4586 17.4007 14.4682 17.3686 14.4816C17.3554 14.4885 17.342 14.4955 17.3283 14.5024V14.4202C17.3495 14.2858 17.6882 14.0574 18.3273 13.7398L19.0796 13.3349L19.3915 13.1343L19.4304 13.0738C19.5786 12.8439 19.6554 12.7248 19.6554 12.7054C19.6554 12.6756 19.6016 12.5768 19.4999 12.4117L18.8791 12.2524L18.12 12.1411L16.9205 12.8426L16.3025 12.9779L17.0107 12.642L17.551 12.3244L18.0576 12.0547L17.5692 11.9194H17.2631L16.9244 11.6229C16.5703 11.4128 16.3783 11.29 16.3486 11.2602C16.2977 11.2305 15.9168 11.2544 15.1971 11.3293C15.293 11.1911 15.5329 11.1374 15.911 11.1489L16.5261 11.17C16.5683 11.17 16.7967 11.3351 17.2132 11.6652L17.4771 11.7131H18.0289L18.6497 11.8935H19.4922C19.5527 11.8062 19.5824 11.7429 19.5824 11.7131V11.3322L19.3186 11.1038L18.6497 10.7411L17.2554 10.1288L16.9436 9.5646L17.3639 10.0597L18.2726 10.3352L18.1642 10.1077L17.7592 9.49551L17.2554 9.11455L16.9167 8.77293L17.7861 9.33717L18.2572 10.0597L18.6113 10.4887L19.118 10.696L19.4961 10.9234H19.853L20.2311 10.696L20.3396 10.3332L20.2973 9.98874L19.9404 9.61066L19.1669 9.06465L18.8762 8.97445L18.5403 8.89L18.2102 8.2749L18.7438 8.82091L19.1151 8.89L19.8742 9.33717L19.6525 8.82187L19.7187 8.41116L19.6045 8.18374L19.119 7.25677L19.7187 8.04844L19.8751 7.25677C19.831 6.95334 19.8777 6.71639 20.0115 6.53774C20.0561 6.52921 20.1012 6.52129 20.1468 6.51399C20.108 6.65037 20.0615 6.85253 20.0075 7.12147V8.27586L19.9202 8.47642C19.9202 8.61076 19.9807 8.82955 20.1006 9.13278L20.7244 10.0473L21.0122 10.2718L21.3692 10.0473V9.63369C21.4556 9.4149 21.5007 9.28248 21.5007 9.25561C21.5122 9.19323 21.6772 8.93798 21.9891 8.48217L22.3192 7.91793C22.349 7.7193 22.3374 7.53985 22.277 7.35369C22.2261 7.17712 22.2232 6.92187 22.253 6.60424L22.2542 6.60017C22.2828 6.60645 22.3115 6.61292 22.3403 6.61958V6.83263C22.3403 6.86238 22.3614 6.97369 22.4094 7.16273C22.4488 7.35177 22.4871 7.50147 22.5236 7.59743C22.5447 7.69626 22.5236 7.86132 22.4488 8.10121C22.5956 7.97839 22.6791 7.91505 22.6973 7.91505C22.7049 7.91505 22.9209 7.57376 23.336 6.89248L23.3688 6.90025C23.0458 7.56626 22.8578 7.92573 22.8048 7.98126C22.7328 8.06187 22.61 8.14056 22.4478 8.22116ZM23.3688 6.90025C23.4142 6.80667 23.4622 6.70705 23.5129 6.60137C23.4504 6.70446 23.3914 6.8015 23.336 6.89248C23.2599 6.87385 23.1854 6.85181 23.1087 6.82914L23.1087 6.82912C23.0803 6.82074 23.0517 6.81226 23.0226 6.80385C22.9965 6.79592 22.9707 6.78791 22.9451 6.77994L22.9448 6.77987L22.9448 6.77986C22.8525 6.75119 22.7623 6.72314 22.6685 6.70213C22.5574 6.672 22.448 6.64447 22.3403 6.61958V6.31061L22.2542 6.60017C21.8044 6.50134 21.3844 6.44976 20.9949 6.44976C20.6952 6.44976 20.4126 6.47142 20.1468 6.51399C20.1811 6.39343 20.2096 6.32427 20.2321 6.30581C20.2714 6.25207 20.211 6.31157 20.0488 6.49197C20.0357 6.50678 20.0233 6.52203 20.0115 6.53774C19.8716 6.56449 19.7366 6.59726 19.6064 6.63592C19.4116 6.71077 19.235 6.78849 19.0661 6.87582C18.8973 6.96314 18.7485 7.04662 18.6132 7.13107C18.595 7.16082 18.571 7.18768 18.5412 7.21167C18.5173 7.23332 18.4927 7.24749 18.4715 7.25971L18.4568 7.26829C18.3253 7.39112 18.2111 7.51395 18.1209 7.62526C18.0307 7.73274 17.9655 7.8594 17.9233 7.99087C17.8935 8.10218 17.8331 8.18279 17.7371 8.23077C17.6411 8.2845 17.5327 8.29986 17.4128 8.26051C17.311 8.23364 17.2295 8.16743 17.1815 8.05996C17.1278 7.95536 17.1153 7.84405 17.1489 7.72122L17.2026 7.60991C17.2095 7.59604 17.2158 7.58313 17.2216 7.571L17.2216 7.57099L17.2216 7.57098C17.236 7.54115 17.2481 7.51603 17.2631 7.49284C17.0798 7.54369 16.9061 7.60415 16.7439 7.679C16.5818 7.75385 16.4378 7.83829 16.3063 7.92465C16.1115 8.06284 15.935 8.22117 15.7728 8.39198C15.6106 8.56279 15.4638 8.7643 15.3324 8.98597H15.3746C15.4763 9.0042 15.5579 9.06082 15.6174 9.14526C15.6778 9.23546 15.7018 9.34006 15.6893 9.46289C15.6711 9.5742 15.6231 9.65481 15.5454 9.71526C15.4609 9.77859 15.365 9.79587 15.245 9.77859H15.0205C14.9754 9.77859 14.936 9.79107 14.9063 9.80258C14.8794 9.82369 14.8583 9.82945 14.8458 9.82945C14.7259 9.87743 14.6002 9.96476 14.4745 10.0905C14.3488 10.2229 14.2346 10.3726 14.1386 10.552C14.0484 10.7171 13.9764 10.8965 13.917 11.0884C13.8536 11.2832 13.8085 11.4963 13.7817 11.7035C13.7634 11.9012 13.7634 12.1085 13.7874 12.3148C13.8143 12.5221 13.8536 12.7198 13.916 12.8992C13.94 12.9894 13.988 13.0825 14.0475 13.1813C14.1079 13.2773 14.1732 13.3761 14.2451 13.4692C14.2451 13.4395 14.2509 13.4212 14.2691 13.4212C14.3113 13.3166 14.3833 13.2408 14.485 13.2053C14.5868 13.1727 14.6827 13.1756 14.7815 13.2207C14.8775 13.2811 14.9495 13.3617 14.9859 13.4606C15.0186 13.5565 15.0186 13.6611 14.9802 13.7609C14.9591 13.7964 14.9447 13.83 14.9322 13.8598C14.9197 13.8895 14.9111 13.9202 14.9111 13.9442V14.0795C14.9111 14.0971 14.9171 14.11 14.9263 14.1298L14.9322 14.1428L14.9345 14.1475C14.9453 14.1699 14.9562 14.1926 14.9562 14.2177C14.9594 14.2277 14.963 14.2373 14.9665 14.2468L14.9665 14.2468L14.9665 14.2469C14.9754 14.2709 14.9839 14.2939 14.9859 14.3194C14.9917 14.3549 15.0042 14.3943 15.0186 14.4182C15.0608 14.4787 15.1145 14.5411 15.1836 14.6015C15.2498 14.6649 15.3218 14.7186 15.3995 14.7608C15.4361 14.7701 15.468 14.779 15.498 14.7874L15.498 14.7874L15.4981 14.7874C15.5177 14.7929 15.5364 14.7981 15.555 14.803C15.5867 14.82 15.6221 14.829 15.6593 14.8383L15.6593 14.8383L15.6864 14.8453C15.8006 14.8664 15.9292 14.8721 16.0578 14.8721C16.1931 14.8721 16.3275 14.8539 16.4628 14.803C16.6182 14.779 16.7804 14.7311 16.9483 14.6677C17.0926 14.6114 17.218 14.558 17.3283 14.5024V14.6063C17.376 14.5517 17.4216 14.5004 17.4653 14.4525C17.5354 14.4393 17.606 14.443 17.6776 14.4633C17.7764 14.4931 17.8638 14.5535 17.9233 14.6399C17.9296 14.6515 17.9371 14.6611 17.9439 14.6699L17.944 14.6699C17.9496 14.6771 17.9549 14.6838 17.9588 14.6908C17.9636 14.7005 17.9685 14.719 17.9699 14.7429L17.9252 14.7829L17.9703 14.7556L17.9703 14.757L17.9781 14.7924C17.9854 14.8259 17.9914 14.8531 18 14.8798C18.0058 14.9153 18.0183 14.9604 18.0327 15.0026C18.0595 15.1763 18.0931 15.3203 18.1411 15.4584C18.1833 15.5937 18.2495 15.7099 18.3388 15.7943C18.4587 15.9171 18.594 16.0284 18.7437 16.1119C18.8848 16.205 19.0556 16.277 19.2475 16.3403C19.4423 16.4008 19.6525 16.4449 19.8799 16.4689C20.1083 16.4958 20.3443 16.4958 20.5842 16.4747C20.6715 16.4747 20.7608 16.4391 20.8481 16.3662C20.8788 16.3387 20.9137 16.3079 20.9523 16.2738C21.0185 16.2154 21.0956 16.1473 21.1811 16.0697C21.2531 15.9949 21.349 15.9584 21.4575 15.968C21.5659 15.9795 21.6551 16.0284 21.7156 16.1119L21.7156 16.1119C21.7396 16.133 21.7636 16.1542 21.7818 16.181C21.788 16.1971 21.7962 16.2135 21.8044 16.2299L21.8044 16.2299C21.8114 16.2438 21.8183 16.2576 21.824 16.2712C21.8538 16.394 21.896 16.4785 21.944 16.5409C21.992 16.6032 22.0524 16.6368 22.1119 16.6522C22.1992 16.6877 22.3009 16.6944 22.4151 16.6704C22.4777 16.6566 22.548 16.6366 22.624 16.6102L23.3162 17.1253L24.0753 17.9409L24.3843 18.4389H24.5819C24.3843 18.0376 24.2427 17.7691 24.1572 17.6255L25.1989 18.7547H25.2651L25.1337 18.0138C24.9926 17.9812 24.8573 17.939 24.7172 17.8757C24.5733 17.8152 24.4476 17.7528 24.3334 17.6924C24.2249 17.629 24.1597 17.5456 24.1299 17.4343C24.1031 17.3258 24.1059 17.2212 24.1568 17.1281C24.1961 17.0235 24.2768 16.9545 24.3909 16.9276C24.4994 16.8978 24.6069 16.9065 24.7143 16.9698C25.0377 17.1531 25.3534 17.2702 25.6653 17.3181C25.9772 17.3748 26.2708 17.3815 26.5558 17.3335C26.8648 17.2702 27.1613 17.1531 27.4521 16.9823C27.7399 16.8115 28.0153 16.5956 28.2802 16.3374C28.3819 16.2328 28.4779 16.0975 28.5709 15.9325C28.6544 15.7674 28.7206 15.5937 28.7657 15.4105C28.7955 15.2636 28.8195 15.1283 28.8348 15.0113C28.8463 14.9 28.8348 14.8165 28.7926 14.7531C28.7744 14.7263 28.7657 14.6994 28.7657 14.6869C28.7657 14.6743 28.7533 14.6622 28.7371 14.6465L28.7264 14.6361V14.6178C28.6784 14.543 28.618 14.4825 28.5431 14.4317C28.4711 14.3895 28.3809 14.3511 28.2792 14.3232C28.2677 14.3232 28.2524 14.3232 28.237 14.3079C28.2188 14.3021 28.213 14.2897 28.213 14.2724C28.0182 14.2186 27.7966 14.1918 27.5442 14.1975C27.2928 14.2062 27.0222 14.2484 26.7285 14.3232C26.2583 14.4096 25.7899 14.5556 25.3224 14.7497L24.723 14.4077L24.5674 14.1569C24.6918 14.1006 24.821 14.0447 24.9552 13.9893C25.0125 13.9657 25.0698 13.9426 25.1272 13.9201L25.411 14.1112L25.1965 13.8932C25.6476 13.7199 26.1008 13.5811 26.5568 13.4769C26.8657 13.4135 27.168 13.378 27.4712 13.3656C27.7745 13.3502 28.0556 13.3838 28.308 13.4558C28.5114 13.3512 28.6919 13.2427 28.8387 13.1199C28.9797 12.9971 29.1026 12.8618 29.1928 12.7063C29.2676 12.5624 29.3098 12.3762 29.3213 12.1546C29.3271 11.9358 29.2609 11.6719 29.1265 11.3504C29.0786 11.2487 29.0306 11.1556 28.9826 11.0683C28.9346 10.9838 28.8684 10.909 28.7964 10.8495C28.7667 10.8226 28.7302 10.8015 28.688 10.7862C28.6414 10.774 28.6002 10.7574 28.5565 10.7397L28.5527 10.7382H28.5047C28.4596 10.7113 28.4116 10.7084 28.3483 10.72C28.2879 10.7324 28.2399 10.7468 28.2015 10.7622C28.0787 10.7622 27.9856 10.7862 27.9165 10.8284C27.8503 10.8793 27.7908 10.9272 27.7303 10.9877C27.6612 11.0836 27.571 11.1374 27.4636 11.147L27.4703 11.1489C27.3638 11.164 27.2638 11.1319 27.1785 11.0626L27.1786 11.0625L27.1785 11.0626L27.1738 11.0587C27.096 10.9954 27.0481 10.9119 27.0356 10.8034C27.0241 10.6921 27.0471 10.5875 27.1076 10.4916C27.2093 10.3745 27.3235 10.2699 27.4521 10.1797C27.572 10.0924 27.6977 10.0271 27.8177 9.97915C27.8478 9.96959 27.8774 9.95722 27.9034 9.94634L27.9261 9.93693C27.9558 9.92157 27.9981 9.91006 28.0576 9.91006C27.9261 9.56844 27.7543 9.29208 27.5595 9.08289C27.3619 8.88233 27.1546 8.69905 26.9511 8.534C26.9329 8.50425 26.9089 8.47738 26.8849 8.46491C26.8552 8.45243 26.8245 8.4294 26.7947 8.39582C26.3092 7.97263 25.7718 7.66077 25.1903 7.46021C24.5992 7.25965 23.9994 7.07349 23.3795 6.90268L23.3688 6.90025ZM25.2152 14.7951L25.2594 14.7762L25.3224 14.7497L25.7219 14.9777L25.2152 14.7951ZM25.2152 14.7951C24.7474 14.9966 24.3274 15.2057 23.9553 15.4085C23.8651 15.469 23.772 15.5256 23.6789 15.5736C23.583 15.6273 23.5024 15.6753 23.4419 15.7204C23.3699 15.801 23.274 15.8288 23.1655 15.8106C23.0571 15.7991 22.9621 15.7358 22.8892 15.6302C22.8287 15.5582 22.8057 15.4594 22.823 15.3481C22.8345 15.2397 22.8949 15.1408 23.0034 15.0602L23.2586 14.8683C23.3517 14.8021 23.4621 14.7397 23.582 14.6793C23.8168 14.5303 24.0826 14.3858 24.3789 14.2445L24.5819 14.567L25.2152 14.7951ZM23.9856 17.4395C24.0266 17.4782 24.0574 17.5014 24.0781 17.5091C24.0942 17.5255 24.1206 17.5641 24.1572 17.6255L23.9856 17.4395ZM23.7615 17.1966C23.8555 17.306 23.93 17.387 23.9856 17.4395L23.7615 17.1966ZM24.5723 7.42278C24.5379 7.43301 24.4957 7.45021 24.4458 7.47431C24.4872 7.45726 24.5294 7.44008 24.5723 7.42278Z" fill="white"/>
</mask>
<g mask="url(#mask0)">
<rect width="38" height="38" fill="#0079C8"/>
</g>
</svg>
