<svg width="16" height="19" viewBox="0 0 16 19" fill="none" xmlns="http://www.w3.org/2000/svg">
<path fill-rule="evenodd" clip-rule="evenodd" d="M13.4737 1.68421C13.2411 1.68421 13.0526 1.87272 13.0526 2.10526C12.5876 2.10526 12.2105 2.48229 12.2105 2.94737V3.78947V7.57895H12.6316V3.78958H13.0526V14.3158H13.8947L13.895 14.3166H13.0526L14.1012 16.843H14.1622C14.3137 16.8456 14.3648 16.8468 14.3158 16.8468C13.4737 16.8468 12.6413 16.6824 12.3066 16.6058C11.9203 16.5184 11.644 16.4163 11.4614 16.2947C10.873 15.7684 10.3267 16.1979 10.3267 16.1979C10.1409 16.3721 9.93359 16.5189 9.7115 16.6289C9.48309 16.7442 9.22153 16.8016 8.93523 16.8016H8.63104L8.83682 16.5779C9.07206 16.3231 9.27784 16.0105 9.44888 15.6521C9.61361 15.3079 9.63834 14.9658 9.52467 14.6058C9.42625 14.2784 9.21732 14.0631 8.88997 13.9431C8.7484 13.8921 8.60683 13.8658 8.47052 13.8658C8.28948 13.8658 8.10739 13.9116 7.9295 14.0037C7.5169 14.211 7.24534 14.5679 7.09903 15.0958C6.9522 15.6252 6.96746 16.1021 7.14324 16.5168L7.20587 16.6631L7.05114 16.6995C6.80905 16.7568 6.46223 16.7947 6.01647 16.811C5.98857 16.8126 5.96226 16.8126 5.93752 16.8126C5.48176 16.8126 5.18757 16.6531 5.06074 16.3358C4.80233 15.571 4.15606 15.9689 4.15606 15.9689C3.93923 16.1626 3.67398 16.3505 3.36663 16.5263C3.0477 16.7089 2.71667 16.8026 2.38301 16.8026C2.19407 16.8026 2.03777 16.7416 1.91777 16.6216C1.73831 16.4405 1.65463 16.1395 1.65779 15.7005C1.66253 15.041 1.6941 14.5742 1.75147 14.2747L1.77463 14.1579L1.89304 14.1679C1.95514 14.171 2.01935 14.1742 2.08355 14.1742C2.57405 14.1726 3.09033 14.0279 3.61819 13.74C4.22658 13.4095 4.73286 13.0495 5.12284 12.6695C5.73964 12.0737 6.17014 11.4784 6.40065 10.8979C6.63116 10.3189 6.73116 9.80576 6.70011 9.37471C6.65853 8.92892 6.48959 8.58523 6.18014 8.32207C5.95647 8.13155 5.70175 8.03944 5.40071 8.03944C5.29388 8.03944 5.17915 8.0526 5.06547 8.07576C4.66602 8.17155 4.21026 8.43102 3.71187 8.84892C3.20875 9.26997 2.70036 9.93102 2.20039 10.8126C2.02619 11.1316 1.86146 11.4552 1.71358 11.7794C1.56569 12.1021 1.4357 12.4373 1.32729 12.7747L1.22677 13.0858L1.08046 12.7931C0.998359 12.6284 0.930994 12.421 0.878366 12.1779C0.827317 11.9363 0.801003 11.6468 0.801003 11.3163C0.801003 11.05 0.689431 10.9416 0.403133 10.9416C0.119992 10.9452 0 11.0684 0 11.3463C0.0115782 11.8116 0.0857841 12.2937 0.220513 12.7805C0.350504 13.2473 0.605752 13.6226 0.978886 13.8905L1.04783 13.9416L1.03151 14.0252C0.965729 14.351 0.919416 14.7358 0.891523 15.1668C0.865209 15.591 0.894681 15.9989 0.980465 16.3789C1.06414 16.751 1.21887 17.0684 1.44254 17.3216C1.65463 17.5637 1.98672 17.6853 2.43248 17.6842C2.73667 17.6842 3.05086 17.62 3.36663 17.4932C3.69082 17.3647 4.00659 17.1958 4.3092 16.99L4.4192 16.9142L4.49498 17.0258C4.78286 17.4516 5.24704 17.6589 5.91121 17.6589H5.98331C6.70853 17.6426 7.3106 17.5421 7.77109 17.3595L7.83214 17.3347L7.88793 17.3695C8.22001 17.5684 8.57894 17.6705 8.95207 17.6705C9.10522 17.6705 9.26468 17.6526 9.42573 17.6195C9.9899 17.5032 10.4799 17.2663 10.883 16.9158L10.9619 16.8468L11.0477 16.9079C11.334 17.1089 11.7535 17.2847 12.2977 17.4295L12.3849 17.4529C12.8852 17.5872 13.2465 17.6842 14.1053 17.6842C14.1384 17.6842 14.1942 17.6834 14.2594 17.6824C14.4558 17.6794 14.7368 17.6751 14.7368 17.6889L14.9471 16.843H14.9514L16 14.3166H15.1576L15.1579 14.3158H16V2.10526C16 1.87272 15.8115 1.68421 15.5789 1.68421V0.421053C15.5789 0.188512 15.3904 0 15.1579 0H13.8947C13.6622 0 13.4737 0.188512 13.4737 0.421053V1.68421ZM14.9471 16.843L14.9474 16.8421H14.1053L14.1622 16.843H14.9471ZM15.1576 14.3166L14.5263 16L13.895 14.3166H15.1576ZM5.42387 8.90892C5.36282 8.90892 5.29546 8.91734 5.22336 8.93365C4.93074 8.99471 4.59655 9.20523 4.20184 9.57523C3.82187 9.93208 3.40768 10.4963 2.96824 11.2479C2.78719 11.5637 2.62299 11.8879 2.47827 12.2116C2.33196 12.5373 2.2067 12.8679 2.10513 13.1937L2.04408 13.3895L2.24618 13.3663C2.66247 13.3205 3.10139 13.1626 3.5503 12.8995C3.99133 12.6395 4.35447 12.3684 4.62761 12.0952C5.13599 11.61 5.49439 11.1347 5.69017 10.6873C5.88753 10.2331 5.96963 9.83523 5.93384 9.50155C5.90753 9.31892 5.85174 9.1726 5.76596 9.05892C5.71491 8.98997 5.61281 8.90944 5.42387 8.90944V8.90892ZM7.92214 15.5358C7.95845 15.3337 8.04581 15.161 8.17896 15.021C8.31211 14.7826 8.48684 14.7331 8.60999 14.7316C8.62315 14.7316 8.63472 14.7316 8.64788 14.7331C8.76629 14.7431 8.8284 14.8021 8.86155 14.85C8.92734 14.9489 8.92892 15.09 8.86313 15.2958C8.80208 15.4653 8.70525 15.6331 8.57368 15.7942C8.44737 15.9505 8.31264 16.0884 8.17265 16.2037L8.0195 16.3321L7.96003 16.141C7.8974 15.9437 7.88424 15.7395 7.92214 15.5358ZM13.8947 2.52632V13.8947H15.1579V2.52632H13.8947ZM14.3158 1.68421V0.842105H14.7368V1.68421H14.3158Z" fill="white"/>
</svg>
