<svg width="16" height="16" viewBox="0 0 16 16" fill="none" xmlns="http://www.w3.org/2000/svg">
<path id="Fill 35" fill-rule="evenodd" clip-rule="evenodd" d="M15.6577 2.809L13.1287 0.31375C12.9164 0.1045 12.6239 0 12.3317 0C12.0364 0 11.7442 0.1045 11.5319 0.31375L10.7349 1.10125L10.0427 1.7845L14.1932 5.85175L14.8854 5.16875L15.6824 4.38125C16.1099 3.96275 16.1099 3.255 15.6577 2.809V2.809ZM14.9654 3.70125L14.1654 4.48575L11.4517 1.7845L12.2517 0.99675C12.2764 0.97225 12.3317 0.9445 12.3564 0.9445C12.3839 0.9445 12.4117 0.9445 12.4642 0.99675L14.9902 3.489C15.0177 3.51675 15.0454 3.569 15.0454 3.5935C15.0177 3.62125 14.9902 3.6735 14.9654 3.70125V3.70125ZM12.6239 6.00875L6.1044 12.4115L5.1474 11.4667L11.6917 5.012L10.9994 4.329L4.45515 10.7837L3.3909 9.73475L9.9349 3.27975L9.24265 2.59675L2.1384 9.60225C2.08615 9.65475 2.05865 9.71 2.0339 9.787L0.0371542 15.0357C-0.0428458 15.2175 0.0124042 15.402 0.144904 15.5342C0.249404 15.639 0.357154 15.6912 0.489404 15.6912C0.544654 15.6912 0.597154 15.6912 0.649404 15.6635L5.91665 13.9342C5.99665 13.9067 6.05215 13.882 6.1044 13.8267L13.3162 6.71625L12.6239 6.00875ZM2.80615 10.5222L5.3844 13.0667L2.5384 14.0112L1.74165 13.2515L2.80615 10.5222Z" fill="#1697F3"/>
</svg>
