<svg width="24" height="24" viewBox="0 0 24 24" fill="none" xmlns="http://www.w3.org/2000/svg">
<path fill-rule="evenodd" clip-rule="evenodd" d="M0 12C0 5.3835 5.3835 0 12 0C18.6165 0 24 5.3835 24 12C24 18.6165 18.6165 24 12 24C5.3835 24 0 18.6165 0 12ZM1.2 12C1.2 17.9545 6.0455 22.8 12 22.8C17.9545 22.8 22.8 17.9545 22.8 12C22.8 6.0455 17.9545 1.2 12 1.2C6.0455 1.2 1.2 6.0455 1.2 12ZM13.3643 16.9778C13.3643 16.2502 12.7748 15.6608 12.0473 15.6608C11.3198 15.6608 10.7303 16.2502 10.7303 16.9778C10.7303 17.7052 11.3198 18.2948 12.0473 18.2948C12.7748 18.2948 13.3643 17.7052 13.3643 16.9778ZM10.7303 7.01925C10.7303 6.2925 11.3183 5.70225 12.0473 5.70225C12.7763 5.70225 13.3643 6.2925 13.3643 7.01925L12.9263 13.9755C12.9263 14.4607 12.5325 14.8545 12.0473 14.8545C11.562 14.8545 11.1683 14.4607 11.1683 13.9755L10.7303 7.01925Z" fill="#FFC300"/>
</svg>
