<svg width="55" height="62" viewBox="0 0 55 62" fill="none" xmlns="http://www.w3.org/2000/svg">
<path fill-rule="evenodd" clip-rule="evenodd" d="M22.5133 4.2735C22.5382 3.98213 22.4477 3.7275 22.2351 3.51487C22.0224 3.30225 21.7547 3.19462 21.4357 3.19462H19.1599C18.8934 2.28769 18.3763 1.533 17.6006 0.91875C16.8289 0.307125 15.939 0 14.9271 0C13.9151 0 13.0239 0.307125 12.2535 0.91875C11.4818 1.53038 10.962 2.289 10.6943 3.19462H8.41838C8.09812 3.19462 7.82775 3.30881 7.59806 3.53456C7.37231 3.76031 7.25812 4.03463 7.25812 4.35488V10.3806H22.5081V4.2735H22.5133ZM41.3398 10.0616L36.4586 5.24606C36.0478 4.84444 35.4861 4.63969 34.9204 4.63969C34.3507 4.63969 33.7837 4.8405 33.3742 5.24606L31.836 6.76725L30.4986 8.08369L38.5127 15.9338L39.8501 14.6173L41.3844 13.0961C42.2126 12.2876 42.2126 10.9226 41.3398 10.0603V10.0616ZM38.4562 13.2969L40.0024 11.7836H40.0011C40.0248 11.7586 40.0492 11.7223 40.074 11.6853C40.1013 11.6446 40.1291 11.6031 40.1572 11.5749C40.1572 11.5303 40.1048 11.4279 40.0509 11.3741L35.1737 6.5625C35.0713 6.46012 35.0188 6.46012 34.965 6.46012C34.9204 6.46012 34.8141 6.51394 34.7642 6.5625L33.2181 8.08369L38.4562 13.2969ZM35.4821 16.2383L35.4801 16.2402L35.4782 16.2383H35.4821ZM35.4801 16.2402L36.8117 17.5993L22.8913 31.3267C22.7929 31.4331 22.6866 31.4816 22.5304 31.5354L12.3624 34.8744C12.264 34.9282 12.1616 34.9282 12.0553 34.9282C11.802 34.9282 11.592 34.8259 11.3912 34.6251C11.1339 34.3678 11.0263 34.0108 11.1825 33.6617L15.0386 23.5305C15.0833 23.3822 15.1371 23.2759 15.2394 23.1735L28.9551 9.65081L30.2886 10.9672L17.6558 23.4281L19.7111 25.4546L32.3439 12.9937L33.6814 14.3102L21.0486 26.7711L22.8939 28.5968L35.4801 16.2402ZM16.5296 24.9506L21.5093 29.8646L16.0125 31.6903L14.4742 30.2216L16.5296 24.9506ZM11.3571 26.0282L10.857 27.3407V26.0282H11.3571ZM10.8583 23.0344H12.4937L12.6328 22.6695C12.8087 22.1524 13.0764 21.7258 13.4374 21.3649L14.0529 20.7585H10.8583V23.0344ZM27.219 7.77619L27.2186 7.77656H27.2199L27.219 7.77619ZM28.8474 6.16875L27.219 7.77619C27.109 7.7318 26.9938 7.70699 26.8629 7.70306H24.4676V5.46788H26.8629C27.6124 5.46788 28.2726 5.71331 28.8474 6.16875ZM10.857 17.7647H17.0914L19.4001 15.4888H10.857V17.7647ZM5.98894 15.4875H8.26087H8.26481V17.7634H5.98894V15.4875ZM27.8211 30.0615V37.6399C27.8211 37.8774 27.7266 38.0993 27.5428 38.3001C27.3591 38.5009 27.1281 38.5993 26.8656 38.5993H3.23269C2.99513 38.5993 2.77331 38.5009 2.5725 38.3001C2.37169 38.0993 2.27325 37.8814 2.27325 37.6399V8.70319C2.27325 8.43675 2.37169 8.20312 2.5725 8.00625C2.77331 7.80544 2.99119 7.707 3.23269 7.707H5.46788V5.47181H3.23269C2.32575 5.47181 1.56319 5.78288 0.935812 6.41156C0.312375 7.035 0 7.79756 0 8.7045V37.6451C0 38.5481 0.311063 39.3146 0.93975 39.9381C1.56319 40.5615 2.32969 40.8778 3.23662 40.8778H26.8656C27.7725 40.8778 28.5351 40.5654 29.1624 39.9381C29.7859 39.3146 30.1022 38.5481 30.1022 37.6451V27.8224L27.8211 30.0615ZM5.98894 31.2165H8.26087H8.26481V33.4924H5.98894V31.2165ZM8.26087 26.0282H5.98894V28.3041H8.26481V26.0282H8.26087ZM5.98894 20.7585H8.26087H8.26481V23.0344H5.98894V20.7585ZM9.618 8.10469H20.3976H20.4002V5.47181H18.2424C17.9222 5.47181 17.6466 5.36419 17.4221 5.15156C17.1977 4.93894 17.0822 4.6725 17.0822 4.35225C17.0822 3.76556 16.8814 3.27338 16.4837 2.87569C16.086 2.478 15.5938 2.27719 15.0071 2.27719C14.4493 2.27719 13.9663 2.478 13.5516 2.87569C13.1368 3.27338 12.9321 3.76556 12.9321 4.35225C12.8796 4.64756 12.7562 4.90744 12.5554 5.13188C12.3546 5.35631 12.0789 5.47181 11.7351 5.47181H9.618V8.10469Z" fill="#0079C7"/>
<path d="M54 47C54 54.732 47.732 61 40 61C32.268 61 26 54.732 26 47C26 39.268 32.268 33 40 33C47.732 33 54 39.268 54 47Z" stroke="#0079C7" stroke-width="2"/>
<path fill-rule="evenodd" clip-rule="evenodd" d="M32.8235 48.7322C32 47.8581 31.3529 47.1588 31.1765 46.9257C29.8824 44.5946 30.7647 41.6807 33 40.3403C34.3529 39.4662 36.2353 39.4079 37.7059 40.1072C38.5021 40.4523 39.0879 41.0477 39.6768 41.6463L39.6768 41.6464C39.784 41.7553 39.8913 41.8644 40 41.9721C40.1163 41.8569 40.2325 41.7372 40.3502 41.616L40.3502 41.616C40.8277 41.1243 41.3276 40.6094 41.9412 40.2821C43.1765 39.5245 44.8235 39.3496 46.1765 39.8741C48.3529 40.6317 49.6471 42.9045 49.4118 45.1191C49.1765 45.0025 48.8824 44.9442 48.5882 44.9442C48.5294 44.9442 48.4559 44.9588 48.3824 44.9734C48.3088 44.9879 48.2353 45.0025 48.1765 45.0025C48.2353 44.3032 48.1765 43.6039 47.8235 42.9628C47.1765 41.6807 45.7059 40.8065 44.2353 40.9231C43 41.0397 42.1765 41.7973 41.3529 42.6131C41.2649 42.6879 41.1796 42.7679 41.0947 42.8476L41.0947 42.8476C40.7822 43.1408 40.4751 43.429 40.0588 43.429C39.5294 43.429 39.2353 43.1376 38.8824 42.788C37.9412 41.8555 37 40.9231 35.5294 40.9231C33.5294 40.9231 31.8235 42.6131 31.8235 44.5363C31.8235 45.7018 32.4118 46.576 33.2353 47.3919C33.4706 47.5667 33.7059 47.7998 34 48.0912L34 48.0912C33.5294 48.2078 33.1177 48.3826 32.8235 48.7322ZM44.4706 49.6064C44.7059 49.9561 45.0588 50.2475 45.4706 50.5388L41.2941 54.6765C41.2444 54.7258 41.1947 54.7774 41.1443 54.8297L41.1442 54.8297C40.837 55.1484 40.5053 55.4924 40 55.4924C39.5511 55.4924 39.2291 55.1572 38.9263 54.8421L38.9263 54.842C38.872 54.7855 38.8184 54.7297 38.7647 54.6765C38.5294 54.5017 37.1765 53.1613 35.7059 51.7044L35.7059 51.7044C36.0588 51.3547 36.2941 50.9468 36.3529 50.4223C37.5108 51.5693 38.6976 52.7164 39.4028 53.3979C39.7007 53.6858 39.9126 53.8906 40 53.9772C40.6214 53.3274 41.5264 52.4568 42.4773 51.542C43.1467 50.8981 43.8388 50.2324 44.4706 49.6064ZM49.3529 46.9257C49.3529 46.4594 49 46.1098 48.5294 46.1098C48.0588 46.1098 47.6471 46.5177 47.6471 46.9839V47.217L46.7059 47.7998C46.5882 47.6833 46.3529 47.625 46.1765 47.625C46 47.625 45.8824 47.6833 45.7647 47.7415L44.1177 46.2263C44.1765 46.1098 44.1765 45.9932 44.1765 45.8767C44.1765 45.4104 43.7647 45.0025 43.2941 45.0025C42.8235 45.0025 42.4118 45.4104 42.4118 45.8767C42.4118 45.9932 42.4706 46.168 42.5294 46.2846L40.3529 48.674C40.2353 48.6157 40.1177 48.6157 40 48.6157C39.8235 48.6157 39.6471 48.674 39.5294 48.7322L37.7059 47.217C37.7647 47.1005 37.7647 47.0422 37.7647 46.9257C37.7647 46.4594 37.3529 46.0515 36.8824 46.0515C36.4118 46.0515 36 46.4594 36 46.9257C36 47.1005 36.0588 47.2753 36.1177 47.3919L34.5882 49.3733C34.4706 49.315 34.4118 49.315 34.2941 49.315C33.8235 49.315 33.4706 49.6647 33.4118 50.1309L32.1765 50.4223C32 50.1892 31.7647 50.0143 31.4118 50.0143C30.9412 50.0143 30.5294 50.4223 30.5294 50.8885C30.5294 51.3547 30.9412 51.7627 31.4118 51.7627C31.8824 51.7627 32.2353 51.413 32.2941 51.0051L33.5882 50.6554C33.7647 50.8885 34 51.0051 34.2941 51.0051C34.7647 51.0051 35.1765 50.5971 35.1765 50.1309C35.1765 49.9561 35.1177 49.7812 35.0588 49.6647L36.5882 47.6833C36.7059 47.7415 36.7647 47.7415 36.8824 47.7415C37.0588 47.7415 37.2353 47.6833 37.3529 47.625L39.1765 49.1402C39.1177 49.2567 39.1177 49.315 39.1177 49.4316C39.1177 49.8978 39.5294 50.3057 40 50.3057C40.4706 50.3057 40.8824 49.8978 40.8824 49.4316C40.8824 49.315 40.8235 49.1402 40.7647 49.0236L42.9412 46.6343C43.0588 46.6925 43.1765 46.6925 43.2941 46.6925C43.4118 46.6925 43.5882 46.6343 43.7059 46.576L45.4118 48.0912C45.3529 48.2078 45.3529 48.3243 45.3529 48.4409C45.3529 48.9071 45.7647 49.315 46.2353 49.315C46.7059 49.315 47.1177 48.9071 47.1177 48.4409C47.1177 48.3826 47.1177 48.266 47.0588 48.2078L47.9412 47.625C48.1177 47.7415 48.2941 47.7998 48.4706 47.7998C48.9412 47.7998 49.3529 47.3919 49.3529 46.9257Z" fill="#0079C7"/>
</svg>
