<svg width="38" height="38" viewBox="0 0 38 38" fill="none" xmlns="http://www.w3.org/2000/svg">
<path fill-rule="evenodd" clip-rule="evenodd" d="M10.2913 30.0827H18.208V28.4993H10.2913V30.0827ZM10.2913 26.1243H26.9163V24.541H10.2913V26.1243ZM10.2913 22.166H26.9163V20.5827H10.2913V22.166ZM10.2913 18.2077H26.9163V16.6243H10.2913V18.2077ZM10.2913 14.2493H19.7913V12.666H10.2913V14.2493ZM10.2913 10.291H19.7913V8.70768H10.2913V10.291ZM6.33301 33.2494V4.74935C6.33301 3.85872 7.02572 3.16602 7.91634 3.16602H23.4488C23.7457 3.16602 24.0426 3.26497 24.2405 3.46289L31.3695 10.5879C31.5674 10.7858 31.6663 11.0827 31.6663 11.3796V33.2494C31.6663 34.14 30.9736 34.8327 30.083 34.8327H7.91634C7.02572 34.8327 6.33301 34.14 6.33301 33.2494ZM30.083 32.7546V12.5235C30.083 12.2266 29.8851 12.0327 29.5882 12.0327H23.4528C22.6611 12.0327 22.1663 11.3796 22.1663 10.5879V5.24414C22.1663 4.94727 21.9684 4.74935 21.6715 4.74935H8.41113C8.11426 4.74935 7.91634 4.94727 7.91634 5.24414V32.7546C7.91634 33.0514 8.11426 33.2493 8.41113 33.2493H29.5882C29.7861 33.2493 30.083 33.0514 30.083 32.7546ZM29.2913 10.6077L23.7497 5.06599V10.0218C23.7497 10.3187 23.9436 10.6077 24.2405 10.6077H29.2913Z" fill="#1D1D1B"/>
<mask id="mask0" mask-type="alpha" maskUnits="userSpaceOnUse" x="6" y="3" width="26" height="32">
<path fill-rule="evenodd" clip-rule="evenodd" d="M10.2913 30.0827H18.208V28.4993H10.2913V30.0827ZM10.2913 26.1243H26.9163V24.541H10.2913V26.1243ZM10.2913 22.166H26.9163V20.5827H10.2913V22.166ZM10.2913 18.2077H26.9163V16.6243H10.2913V18.2077ZM10.2913 14.2493H19.7913V12.666H10.2913V14.2493ZM10.2913 10.291H19.7913V8.70768H10.2913V10.291ZM6.33301 33.2494V4.74935C6.33301 3.85872 7.02572 3.16602 7.91634 3.16602H23.4488C23.7457 3.16602 24.0426 3.26497 24.2405 3.46289L31.3695 10.5879C31.5674 10.7858 31.6663 11.0827 31.6663 11.3796V33.2494C31.6663 34.14 30.9736 34.8327 30.083 34.8327H7.91634C7.02572 34.8327 6.33301 34.14 6.33301 33.2494ZM30.083 32.7546V12.5235C30.083 12.2266 29.8851 12.0327 29.5882 12.0327H23.4528C22.6611 12.0327 22.1663 11.3796 22.1663 10.5879V5.24414C22.1663 4.94727 21.9684 4.74935 21.6715 4.74935H8.41113C8.11426 4.74935 7.91634 4.94727 7.91634 5.24414V32.7546C7.91634 33.0514 8.11426 33.2493 8.41113 33.2493H29.5882C29.7861 33.2493 30.083 33.0514 30.083 32.7546ZM29.2913 10.6077L23.7497 5.06599V10.0218C23.7497 10.3187 23.9436 10.6077 24.2405 10.6077H29.2913Z" fill="white"/>
</mask>
<g mask="url(#mask0)">
<rect width="38" height="38" fill="#0079C8"/>
</g>
</svg>
