<svg width="40" height="38" viewBox="0 0 40 38" fill="none" xmlns="http://www.w3.org/2000/svg">
<path fill-rule="evenodd" clip-rule="evenodd" d="M23.692 0H35.0561L35.0548 0.00125004C37.7537 0.00125004 39.9337 2.24757 40 5.00891V13.7392C40 16.438 37.7499 18.6843 35.0548 18.6843H29.9847L32.1023 16.6918H34.9936C36.5999 16.6918 37.9474 15.343 37.9474 13.7379V5.00766C37.9474 3.40261 36.5986 2.05506 34.9936 2.05506H23.6295C22.0232 2.05506 20.6756 3.40261 20.6756 5.00766V13.7379C20.6756 15.343 22.0244 16.6905 23.6295 16.6905H29.1497L22.5982 22.792C22.4745 22.9832 22.2169 23.0495 21.9582 23.0495C21.6994 23.0495 21.4419 22.9207 21.2507 22.7295C20.8682 22.3432 20.9307 21.7019 21.3169 21.3157L24.2083 18.6206H23.692C20.9932 18.6206 18.7468 16.3705 18.7468 13.6754V4.94515C18.7468 2.24632 20.9969 0 23.692 0ZM16.3755 18.1681C16.3755 22.0819 13.0979 25.102 10.2741 25.102C7.51273 25.102 4.17263 21.9569 4.17263 18.1681V16.7543C4.17263 13.9292 6.10144 11.1678 10.2741 11.1678C14.7705 11.1678 16.3755 14.0592 16.3755 16.7543V18.1681ZM6.16394 16.6918C6.16394 14.508 7.70274 13.0979 10.2728 13.0979C11.3004 13.0979 12.1366 13.2892 12.7766 13.6767C12.5854 14.1917 11.6866 15.603 8.15526 16.1805C7.70649 16.2468 7.38523 16.6955 7.44773 17.1455C7.51399 17.5318 7.8965 17.8531 8.28401 17.8531H8.41276C11.8154 17.2743 13.2917 15.9892 13.9992 14.9617C14.2567 15.4767 14.3855 16.0518 14.3855 16.6955V18.1093C14.3855 21.0007 11.9441 23.117 10.2766 23.117C8.67152 23.117 6.16769 20.8707 6.16769 18.1093L6.16394 16.6918ZM9.30904 27.3521C9.30904 26.8358 9.6953 26.3871 10.2741 26.3871C10.7866 26.3871 11.2354 26.8371 11.2979 27.3484V36.2786H9.30904V27.3521ZM6.03519 25.422H5.90643L5.71518 25.4883L4.11013 26.0046C3.66136 26.1296 0 27.2234 0 30.626V36.2749H1.98881V30.626C1.98881 28.6371 4.55889 27.9309 4.6839 27.9309L5.32517 27.7396L6.09519 36.2786H8.084L7.18522 26.3258C7.06397 25.8096 6.61521 25.3608 6.03644 25.4233L6.03519 25.422ZM14.833 25.5508L16.3718 26.0671L16.3743 26.0658C16.823 26.1946 20.4831 27.2846 20.4831 30.6247V36.2699H18.5568V30.621C18.5568 28.6334 15.9905 27.9259 15.8617 27.9259H15.7955L15.2167 27.7346L14.4467 36.2736H12.4579L13.3567 26.3208C13.3567 25.8083 13.8692 25.3558 14.3842 25.422H14.513L14.833 25.5508ZM31.0122 4.9414H27.6096V7.31648H25.2345V10.7191H27.6096V13.0942H31.0122V10.7191H33.3873V7.31648H31.0122V4.9414ZM32.4273 9.82031V8.34401H30.0522V5.96894H28.5759V8.34401H26.2008V9.82031H28.5759V12.1954H30.0522V9.82031H32.4273Z" fill="#0079C7"/>
</svg>
