<svg width="22" height="24" viewBox="0 0 22 24" fill="none" xmlns="http://www.w3.org/2000/svg">
<path fill-rule="evenodd" clip-rule="evenodd" d="M11.5631 0.000749976C10.2034 0.000749976 8.93372 0.251242 7.74501 0.757476C6.56604 1.26596 5.53033 1.96194 4.6371 2.84316C3.74613 3.72663 3.04565 4.7601 2.53492 5.93681C2.02419 7.11803 1.76844 8.37874 1.76844 9.7122C1.76844 11.0502 2.02419 12.3116 2.53492 13.4876C3.04565 14.6688 3.74688 15.6933 4.6371 16.5692C5.52733 17.4452 6.5638 18.1419 7.74501 18.6527C8.93297 19.1634 10.2012 19.4191 11.5631 19.4191C12.4159 19.4191 13.2438 19.3111 14.0358 19.0982C14.8353 18.8852 15.5875 18.5919 16.2947 18.2147L21.7111 19.9254L19.9441 14.7108C20.3941 13.9863 20.7414 13.1988 20.9843 12.3484C21.2348 11.5024 21.3571 10.6189 21.3571 9.71145C21.3571 8.37799 21.1013 7.11728 20.5839 5.93606C20.0656 4.75935 19.3651 3.72588 18.4817 2.84241C17.6027 1.96119 16.5647 1.26521 15.3738 0.756726C14.1858 0.250492 12.9153 0 11.5631 0V0.000749976ZM11.5631 17.8622C10.4239 17.8622 9.35746 17.6492 8.35474 17.218C7.35427 16.7912 6.4798 16.2077 5.73432 15.4698C4.98659 14.7265 4.40086 13.8671 3.96738 12.8801C3.53614 11.8984 3.3209 10.8387 3.3209 9.71145C3.3209 8.57973 3.53914 7.52002 3.96738 6.5308C4.40086 5.53708 4.98884 4.67235 5.73432 3.93138C6.4798 3.1904 7.35352 2.60467 8.35474 2.17868C9.35596 1.7527 10.4239 1.53895 11.5631 1.53895C12.6949 1.53895 13.7546 1.75195 14.755 2.17868C15.7533 2.60542 16.63 3.19115 17.3732 3.93138C18.1209 4.66935 18.7112 5.53483 19.1402 6.5308C19.5714 7.52226 19.7874 8.57898 19.7874 9.71145C19.7874 10.6069 19.6494 11.4596 19.3749 12.2681C19.1004 13.0833 18.7164 13.8266 18.2169 14.497L19.2571 17.5135L16.0765 16.5197C15.4413 16.951 14.731 17.2817 13.9668 17.5135C13.2026 17.7452 12.4061 17.8629 11.5624 17.8629L11.5631 17.8622ZM1.74595 14.611C1.4647 15.2958 1.32371 16.0262 1.32371 16.8047H1.32446C1.32446 17.4325 1.42046 18.0377 1.61245 18.6069C1.80219 19.1792 2.06469 19.7041 2.41192 20.1774L1.69495 22.3028L3.88638 21.6023C4.32436 21.9023 4.81185 22.1386 5.33683 22.3028C5.86632 22.4663 6.41455 22.551 6.99353 22.551C7.77876 22.551 8.51448 22.3988 9.20371 22.0988C9.89219 21.7966 10.4952 21.3863 11.0082 20.8636C11.1859 20.6836 11.3501 20.4939 11.5024 20.2921C11.9876 20.2524 12.4631 20.1774 12.9273 20.0626C12.6109 20.6484 12.2269 21.1711 11.7649 21.6353C11.1492 22.2541 10.4367 22.7438 9.6207 23.1023C8.80547 23.4653 7.92875 23.6438 6.99128 23.6438C6.4033 23.6438 5.83557 23.571 5.28733 23.4188C4.73385 23.2665 4.21637 23.0625 3.73338 22.7933L0 24L1.21646 20.3296C0.911972 19.8189 0.670479 19.2631 0.499484 18.6609C0.32849 18.0654 0.243742 17.4445 0.243742 16.8047C0.243742 15.8628 0.416987 14.974 0.773226 14.1468C0.908972 13.8258 1.06197 13.5258 1.23746 13.2401C1.34996 13.6338 1.4857 14.0178 1.64995 14.3906L1.74595 14.611Z" fill="#7ED321"/>
</svg>
