<svg width="80" height="80" viewBox="0 0 80 80" fill="none" xmlns="http://www.w3.org/2000/svg">
<g id="ico/exito">
<path id="Oval" fill-rule="evenodd" clip-rule="evenodd" d="M40 80C62.0914 80 80 62.0914 80 40C80 17.9086 62.0914 0 40 0C17.9086 0 0 17.9086 0 40C0 62.0914 17.9086 80 40 80Z" fill="#D8322D"/>
<path id="Fill 30" fill-rule="evenodd" clip-rule="evenodd" d="M22.6684 60C23.349 60 24.0297 59.7393 24.5511 59.218L40 43.769L55.4453 59.218C55.9703 59.7393 56.651 60 57.3353 60C58.0159 60 58.7002 59.7393 59.218 59.218C60.2607 58.1752 60.2607 56.4881 59.218 55.4453L43.7726 40L59.218 24.5511C60.2607 23.5119 60.2607 21.8211 59.218 20.782C58.1752 19.7393 56.4881 19.7393 55.4453 20.782L40 36.2274L24.5511 20.782C23.5119 19.7393 21.8211 19.7393 20.782 20.782C19.7393 21.8211 19.7393 23.5119 20.782 24.5511L36.231 40L20.782 55.4453C19.7393 56.4881 19.7393 58.1752 20.782 59.218C21.3034 59.7393 21.9841 60 22.6684 60Z" fill="white"/>
</g>
</svg>
