<svg width="56" height="62" viewBox="0 0 56 62" fill="none" xmlns="http://www.w3.org/2000/svg">
<path fill-rule="evenodd" clip-rule="evenodd" d="M22.5133 4.2735C22.5382 3.98213 22.4477 3.7275 22.2351 3.51487C22.0224 3.30225 21.7547 3.19462 21.4357 3.19462H19.1599C18.8934 2.28769 18.3763 1.533 17.6006 0.91875C16.8289 0.307125 15.939 0 14.9271 0C13.9151 0 13.0239 0.307125 12.2535 0.91875C11.4818 1.53038 10.962 2.289 10.6943 3.19462H8.41838C8.09812 3.19462 7.82775 3.30881 7.59806 3.53456C7.37231 3.76031 7.25812 4.03463 7.25812 4.35488V10.3806H22.5081V4.2735H22.5133ZM41.3398 10.0616L36.4586 5.24606C36.0478 4.84444 35.4861 4.63969 34.9204 4.63969C34.3507 4.63969 33.7837 4.8405 33.3742 5.24606L31.836 6.76725L30.4986 8.08369L38.5127 15.9338L39.8501 14.6173L41.3844 13.0961C42.2126 12.2876 42.2126 10.9226 41.3398 10.0603V10.0616ZM38.4562 13.2969L40.0024 11.7836H40.0011C40.0248 11.7586 40.0492 11.7223 40.074 11.6853C40.1013 11.6446 40.1291 11.6031 40.1572 11.5749C40.1572 11.5303 40.1048 11.4279 40.0509 11.3741L35.1737 6.5625C35.0713 6.46012 35.0188 6.46012 34.965 6.46012C34.9204 6.46012 34.8141 6.51394 34.7642 6.5625L33.2181 8.08369L38.4562 13.2969ZM35.4821 16.2383L35.4801 16.2402L35.4782 16.2383H35.4821ZM35.4801 16.2402L36.8117 17.5993L22.8913 31.3267C22.7929 31.4331 22.6866 31.4816 22.5304 31.5354L12.3624 34.8744C12.264 34.9282 12.1616 34.9282 12.0553 34.9282C11.802 34.9282 11.592 34.8259 11.3912 34.6251C11.1339 34.3678 11.0263 34.0108 11.1825 33.6617L15.0386 23.5305C15.0833 23.3822 15.1371 23.2759 15.2394 23.1735L28.9551 9.65081L30.2886 10.9672L17.6558 23.4281L19.7111 25.4546L32.3439 12.9937L33.6814 14.3102L21.0486 26.7711L22.8939 28.5968L35.4801 16.2402ZM16.5296 24.9506L21.5093 29.8646L16.0125 31.6903L14.4742 30.2216L16.5296 24.9506ZM11.3571 26.0282L10.857 27.3407V26.0282H11.3571ZM10.8583 23.0344H12.4937L12.6328 22.6695C12.8087 22.1524 13.0764 21.7258 13.4374 21.3649L14.0529 20.7585H10.8583V23.0344ZM27.219 7.77619L27.2186 7.77656H27.2199L27.219 7.77619ZM28.8474 6.16875L27.219 7.77619C27.109 7.7318 26.9938 7.70699 26.8629 7.70306H24.4676V5.46788H26.8629C27.6124 5.46788 28.2726 5.71331 28.8474 6.16875ZM10.857 17.7647H17.0914L19.4001 15.4888H10.857V17.7647ZM5.98894 15.4875H8.26087H8.26481V17.7634H5.98894V15.4875ZM27.8211 30.0615V37.6399C27.8211 37.8774 27.7266 38.0993 27.5428 38.3001C27.3591 38.5009 27.1281 38.5993 26.8656 38.5993H3.23269C2.99513 38.5993 2.77331 38.5009 2.5725 38.3001C2.37169 38.0993 2.27325 37.8814 2.27325 37.6399V8.70319C2.27325 8.43675 2.37169 8.20312 2.5725 8.00625C2.77331 7.80544 2.99119 7.707 3.23269 7.707H5.46788V5.47181H3.23269C2.32575 5.47181 1.56319 5.78288 0.935812 6.41156C0.312375 7.035 0 7.79756 0 8.7045V37.6451C0 38.5481 0.311063 39.3146 0.93975 39.9381C1.56319 40.5615 2.32969 40.8778 3.23662 40.8778H26.8656C27.7725 40.8778 28.5351 40.5654 29.1624 39.9381C29.7859 39.3146 30.1022 38.5481 30.1022 37.6451V27.8224L27.8211 30.0615ZM5.98894 31.2165H8.26087H8.26481V33.4924H5.98894V31.2165ZM8.26087 26.0282H5.98894V28.3041H8.26481V26.0282H8.26087ZM5.98894 20.7585H8.26087H8.26481V23.0344H5.98894V20.7585ZM9.618 8.10469H20.3976H20.4002V5.47181H18.2424C17.9222 5.47181 17.6466 5.36419 17.4221 5.15156C17.1977 4.93894 17.0822 4.6725 17.0822 4.35225C17.0822 3.76556 16.8814 3.27338 16.4837 2.87569C16.086 2.478 15.5938 2.27719 15.0071 2.27719C14.4493 2.27719 13.9663 2.478 13.5516 2.87569C13.1368 3.27338 12.9321 3.76556 12.9321 4.35225C12.8796 4.64756 12.7562 4.90744 12.5554 5.13188C12.3546 5.35631 12.0789 5.47181 11.7351 5.47181H9.618V8.10469Z" fill="#B5B6B8"/>
<path d="M54 47C54 54.732 47.732 61 40 61C32.268 61 26 54.732 26 47C26 39.268 32.268 33 40 33C47.732 33 54 39.268 54 47Z" stroke="#B5B6B8" stroke-width="2"/>
<path fill-rule="evenodd" clip-rule="evenodd" d="M32.8234 48.7324C31.9999 47.8582 31.3528 47.1589 31.1764 46.9258C29.8822 44.5947 30.7646 41.6808 32.9999 40.3405C34.3528 39.4663 36.2352 39.408 37.7058 40.1073C38.502 40.4525 39.0877 41.0478 39.6767 41.6465L39.6767 41.6465C39.7839 41.7555 39.8912 41.8645 39.9999 41.9722C40.1161 41.857 40.2324 41.7373 40.35 41.6162L40.3501 41.6161C40.8276 41.1244 41.3275 40.6095 41.9411 40.2822C43.1764 39.5246 44.8234 39.3497 46.1764 39.8742C48.3528 40.6318 49.6469 42.9046 49.4116 45.1192C49.1764 45.0026 48.8822 44.9444 48.5881 44.9444C48.5293 44.9444 48.4558 44.9589 48.3822 44.9735C48.3087 44.9881 48.2352 45.0026 48.1764 45.0026C48.2352 44.3033 48.1764 43.604 47.8234 42.9629C47.1764 41.6808 45.7058 40.8067 44.2352 40.9232C42.9999 41.0398 42.1764 41.7974 41.3528 42.6133C41.2648 42.688 41.1795 42.768 41.0946 42.8477L41.0946 42.8478C40.7821 43.1409 40.475 43.4291 40.0587 43.4291C39.5293 43.4291 39.2352 43.1378 38.8822 42.7881C37.9411 41.8557 36.9999 40.9232 35.5293 40.9232C33.5293 40.9232 31.8234 42.6133 31.8234 44.5364C31.8234 45.702 32.4116 46.5761 33.2352 47.392C33.4705 47.5668 33.7058 47.7999 33.9999 48.0913L33.9999 48.0913C33.5293 48.2079 33.1175 48.3827 32.8234 48.7324ZM44.4705 49.6065C44.7058 49.9562 45.0587 50.2476 45.4705 50.539L41.294 54.6766C41.2443 54.7259 41.1945 54.7775 41.1441 54.8298L41.1441 54.8298C40.8369 55.1485 40.5052 55.4925 39.9999 55.4925C39.551 55.4925 39.229 55.1573 38.9262 54.8422L38.9262 54.8422C38.8719 54.7857 38.8182 54.7298 38.7646 54.6766C38.5293 54.5018 37.1764 53.1614 35.7058 51.7045L35.7058 51.7045C36.0587 51.3548 36.294 50.9469 36.3528 50.4224C37.5106 51.5695 38.6975 52.7165 39.4026 53.398C39.7006 53.6859 39.9125 53.8908 39.9999 53.9773C40.6213 53.3275 41.5263 52.4569 42.4772 51.5422C43.1466 50.8983 43.8386 50.2325 44.4705 49.6065ZM49.3528 46.9258C49.3528 46.4596 48.9999 46.1099 48.5293 46.1099C48.0587 46.1099 47.6469 46.5178 47.6469 46.9841V47.2172L46.7058 47.7999C46.5881 47.6834 46.3528 47.6251 46.1764 47.6251C45.9999 47.6251 45.8822 47.6834 45.7646 47.7417L44.1175 46.2264C44.1764 46.1099 44.1764 45.9933 44.1764 45.8768C44.1764 45.4106 43.7646 45.0026 43.294 45.0026C42.8234 45.0026 42.4116 45.4106 42.4116 45.8768C42.4116 45.9933 42.4705 46.1682 42.5293 46.2847L40.3528 48.6741C40.2352 48.6158 40.1175 48.6158 39.9999 48.6158C39.8234 48.6158 39.6469 48.6741 39.5293 48.7324L37.7058 47.2172C37.7646 47.1006 37.7646 47.0423 37.7646 46.9258C37.7646 46.4596 37.3528 46.0516 36.8822 46.0516C36.4116 46.0516 35.9999 46.4596 35.9999 46.9258C35.9999 47.1006 36.0587 47.2754 36.1175 47.392L34.5881 49.3734C34.4705 49.3151 34.4116 49.3151 34.294 49.3151C33.8234 49.3151 33.4705 49.6648 33.4116 50.131L32.1764 50.4224C31.9999 50.1893 31.7646 50.0145 31.4116 50.0145C30.9411 50.0145 30.5293 50.4224 30.5293 50.8886C30.5293 51.3548 30.9411 51.7628 31.4116 51.7628C31.8822 51.7628 32.2352 51.4131 32.294 51.0052L33.5881 50.6555C33.7646 50.8886 33.9999 51.0052 34.294 51.0052C34.7646 51.0052 35.1764 50.5972 35.1764 50.131C35.1764 49.9562 35.1175 49.7814 35.0587 49.6648L36.5881 47.6834C36.7058 47.7417 36.7646 47.7417 36.8822 47.7417C37.0587 47.7417 37.2352 47.6834 37.3528 47.6251L39.1764 49.1403C39.1175 49.2569 39.1175 49.3151 39.1175 49.4317C39.1175 49.8979 39.5293 50.3059 39.9999 50.3059C40.4705 50.3059 40.8822 49.8979 40.8822 49.4317C40.8822 49.3151 40.8234 49.1403 40.7646 49.0238L42.9411 46.6344C43.0587 46.6927 43.1764 46.6927 43.294 46.6927C43.4116 46.6927 43.5881 46.6344 43.7058 46.5761L45.4116 48.0913C45.3528 48.2079 45.3528 48.3244 45.3528 48.441C45.3528 48.9072 45.7646 49.3151 46.2352 49.3151C46.7058 49.3151 47.1175 48.9072 47.1175 48.441C47.1175 48.3827 47.1175 48.2662 47.0587 48.2079L47.9411 47.6251C48.1175 47.7417 48.294 47.7999 48.4705 47.7999C48.9411 47.7999 49.3528 47.392 49.3528 46.9258Z" fill="#B5B6B8"/>
<path fill-rule="evenodd" clip-rule="evenodd" d="M40 61C48.2843 61 55 54.2843 55 46C55 37.7157 48.2843 31 40 31C31.7157 31 25 37.7157 25 46C25 54.2843 31.7157 61 40 61Z" fill="#40A2A4" stroke="#40A2A4"/>
<path fill-rule="evenodd" clip-rule="evenodd" d="M46.2132 38.2513L47.7031 39.4705C47.7237 39.4918 47.7476 39.52 47.7607 39.5548C47.7813 39.5897 47.7943 39.6212 47.7943 39.6493C47.8008 39.6954 47.8008 39.737 47.7943 39.7764C47.7846 39.8146 47.7672 39.8506 47.7466 39.8821L37.9862 53.6841C37.9655 53.719 37.9319 53.7403 37.9015 53.7617L37.7896 53.8H37.769C37.7321 53.8 37.694 53.7898 37.6604 53.7786C37.6267 53.7572 37.6028 53.7403 37.5855 53.719L32.2741 48.018C32.2535 47.9831 32.2372 47.9584 32.2199 47.9157C32.2025 47.8875 32.1992 47.856 32.1992 47.8212C32.1992 47.7751 32.2057 47.7368 32.2199 47.7053C32.2372 47.6705 32.2535 47.6457 32.2741 47.621L33.5914 46.1904C33.6457 46.1342 33.7098 46.1061 33.7847 46.1061C33.8596 46.1061 33.9237 46.1342 33.978 46.1904L37.5551 50.0278L45.8288 38.3177C45.8657 38.2513 45.9276 38.212 46.0015 38.2018C46.0764 38.1951 46.147 38.2052 46.2121 38.2513H46.2132Z" fill="white"/>
</svg>
