<svg width="38" height="38" viewBox="0 0 38 38" fill="none" xmlns="http://www.w3.org/2000/svg">
<path fill-rule="evenodd" clip-rule="evenodd" d="M17.2407 5.36708C18.4325 3.28142 21.0148 2.5862 23.1004 3.67869C25.1861 4.8705 25.9806 7.45274 24.6895 9.43909C23.4977 11.5247 20.9154 12.3193 18.8298 11.1275C16.8434 10.035 16.0489 7.45274 17.2407 5.36708ZM19.8231 9.63772C21.0149 10.2336 22.5046 9.83635 23.1998 8.64455C23.8951 7.45274 23.3985 5.96298 22.1074 5.36708C20.9156 4.67186 19.4258 5.16845 18.8299 6.36025C18.234 7.55206 18.6313 8.9425 19.8231 9.63772ZM24.0937 34.3677C23.5971 34.3677 23.1998 33.9704 23.1998 33.4738V22.0524C23.1005 20.1653 24.4909 18.4769 26.378 18.179C26.8746 18.0797 27.2718 18.3776 27.3711 18.8742C27.4705 19.3708 27.1725 19.7681 26.6759 19.8674C25.6828 20.066 24.8882 20.9599 24.9875 21.953V33.4738C24.9875 33.9704 24.5903 34.3677 24.0937 34.3677ZM19.6244 14.8022L23.0011 16.6892C23.9943 17.0865 24.4909 18.179 24.1929 18.9735V19.0729C23.7957 19.9667 22.7032 20.4633 21.8093 20.066L17.936 18.2783L16.7442 20.364L19.2271 23.0455L21.4121 30.7923C22.008 32.4807 21.1141 34.2684 19.4257 34.765C17.936 35.0629 16.3469 34.3677 15.751 32.8779C15.2544 33.8711 14.2612 34.5663 13.1687 34.5663C11.381 34.5663 9.9906 33.0766 10.0899 31.3882V23.4428C9.3947 22.4496 9.29538 21.1585 9.89128 20.1653L13.9633 12.6172C14.6585 11.4254 16.0489 10.8295 17.3401 11.1275C19.0285 11.5248 20.0216 13.2131 19.6244 14.8022ZM13.0693 32.58C12.3741 32.58 11.7782 31.9841 11.8775 31.2889V25.5285V24.9326L12.5727 25.5285L14.0625 26.7203L14.3605 27.8128V31.2889C14.3605 31.9841 13.8639 32.58 13.0693 32.58ZM22.1073 18.7749C22.5046 18.9735 22.8025 18.9735 22.9018 18.5763C22.9018 18.179 22.8025 17.881 22.3059 17.5831L17.8366 15.2988C17.638 15.1002 17.5387 14.7029 17.638 14.4049L17.7373 14.107V13.809C17.638 13.4118 17.3401 13.1138 16.9428 13.0145C16.3469 12.8159 15.751 13.0145 15.453 13.6104L11.381 21.0592C11.0831 21.6551 11.2817 22.4496 11.8776 22.7476L14.2612 24.6346L15.453 25.5285L16.2476 27.8127L17.4394 31.9841V32.1827C17.7373 32.7786 18.4326 33.0766 19.0285 32.8779C19.6244 32.58 19.9223 31.8847 19.7237 31.2888L17.7373 24.3366L15.8503 21.953H15.751C14.8571 21.4564 14.5592 20.364 15.0558 19.4701L16.1483 17.4838L16.2476 17.3844L16.5455 16.8879C16.6448 16.5899 17.1414 16.3913 17.4394 16.4906L22.1073 18.7749Z" fill="#1D1D1B"/>
<mask id="mask0" mask-type="alpha" maskUnits="userSpaceOnUse" x="9" y="3" width="19" height="32">
<path fill-rule="evenodd" clip-rule="evenodd" d="M17.2407 5.36708C18.4325 3.28142 21.0148 2.5862 23.1004 3.67869C25.1861 4.8705 25.9806 7.45274 24.6895 9.43909C23.4977 11.5247 20.9154 12.3193 18.8298 11.1275C16.8434 10.035 16.0489 7.45274 17.2407 5.36708ZM19.8231 9.63772C21.0149 10.2336 22.5046 9.83635 23.1998 8.64455C23.8951 7.45274 23.3985 5.96298 22.1074 5.36708C20.9156 4.67186 19.4258 5.16845 18.8299 6.36025C18.234 7.55206 18.6313 8.9425 19.8231 9.63772ZM24.0937 34.3677C23.5971 34.3677 23.1998 33.9704 23.1998 33.4738V22.0524C23.1005 20.1653 24.4909 18.4769 26.378 18.179C26.8746 18.0797 27.2718 18.3776 27.3711 18.8742C27.4705 19.3708 27.1725 19.7681 26.6759 19.8674C25.6828 20.066 24.8882 20.9599 24.9875 21.953V33.4738C24.9875 33.9704 24.5903 34.3677 24.0937 34.3677ZM19.6244 14.8022L23.0011 16.6892C23.9943 17.0865 24.4909 18.179 24.1929 18.9735V19.0729C23.7957 19.9667 22.7032 20.4633 21.8093 20.066L17.936 18.2783L16.7442 20.364L19.2271 23.0455L21.4121 30.7923C22.008 32.4807 21.1141 34.2684 19.4257 34.765C17.936 35.0629 16.3469 34.3677 15.751 32.8779C15.2544 33.8711 14.2612 34.5663 13.1687 34.5663C11.381 34.5663 9.9906 33.0766 10.0899 31.3882V23.4428C9.3947 22.4496 9.29538 21.1585 9.89128 20.1653L13.9633 12.6172C14.6585 11.4254 16.0489 10.8295 17.3401 11.1275C19.0285 11.5248 20.0216 13.2131 19.6244 14.8022ZM13.0693 32.58C12.3741 32.58 11.7782 31.9841 11.8775 31.2889V25.5285V24.9326L12.5727 25.5285L14.0625 26.7203L14.3605 27.8128V31.2889C14.3605 31.9841 13.8639 32.58 13.0693 32.58ZM22.1073 18.7749C22.5046 18.9735 22.8025 18.9735 22.9018 18.5763C22.9018 18.179 22.8025 17.881 22.3059 17.5831L17.8366 15.2988C17.638 15.1002 17.5387 14.7029 17.638 14.4049L17.7373 14.107V13.809C17.638 13.4118 17.3401 13.1138 16.9428 13.0145C16.3469 12.8159 15.751 13.0145 15.453 13.6104L11.381 21.0592C11.0831 21.6551 11.2817 22.4496 11.8776 22.7476L14.2612 24.6346L15.453 25.5285L16.2476 27.8127L17.4394 31.9841V32.1827C17.7373 32.7786 18.4326 33.0766 19.0285 32.8779C19.6244 32.58 19.9223 31.8847 19.7237 31.2888L17.7373 24.3366L15.8503 21.953H15.751C14.8571 21.4564 14.5592 20.364 15.0558 19.4701L16.1483 17.4838L16.2476 17.3844L16.5455 16.8879C16.6448 16.5899 17.1414 16.3913 17.4394 16.4906L22.1073 18.7749Z" fill="white"/>
</mask>
<g mask="url(#mask0)">
<rect width="38" height="38" fill="#0079C8"/>
</g>
</svg>
