<svg width="37" height="36" viewBox="0 0 37 36" fill="none" xmlns="http://www.w3.org/2000/svg">
<path fill-rule="evenodd" clip-rule="evenodd" d="M19.872 3.71613C19.872 3.48387 19.7564 3.25161 19.6409 3.01935C19.4098 2.7871 19.1788 2.7871 18.9477 2.7871H16.9836C16.7525 1.97419 16.2904 1.27742 15.5972 0.812903C14.904 0.232258 14.0952 0 13.2865 0C12.3622 0 11.669 0.232258 10.9758 0.812903C10.2826 1.39355 9.82045 1.97419 9.58938 2.7871H7.39422C7.16315 2.7871 6.93208 2.7871 6.70101 3.01935C6.46995 3.25161 6.35441 3.48387 6.35441 3.71613V9.05806H19.7564V3.71613H19.872ZM36.3934 8.82581L32.1187 4.52903C31.7721 4.18064 31.1944 4.06452 30.7322 4.06452C30.2701 4.06452 29.6924 4.29677 29.3458 4.64516L27.9594 6.03871L26.8041 7.2L33.8517 14.1677L35.007 13.0065L36.3934 11.6129C37.2022 10.8 37.2022 9.52258 36.3934 8.82581ZM33.8517 11.729L35.2381 10.3355C35.2381 10.3355 35.3536 10.2194 35.4692 10.2194C35.4692 10.1032 35.3536 9.9871 35.3536 9.9871L31.0788 5.69032C30.9633 5.57419 30.8478 5.57419 30.8478 5.57419C30.7322 5.57419 30.6167 5.69032 30.6167 5.69032L29.2303 7.08387L33.8517 11.729ZM31.1944 14.2839L20.103 25.2L18.4856 23.5742L29.5769 12.5419L28.4215 11.3806L17.3302 22.4129L15.4817 20.671L26.573 9.63871L25.4176 8.47742L13.402 20.4387C13.3443 20.4968 13.3154 20.5548 13.2865 20.6129C13.2576 20.671 13.2287 20.729 13.171 20.7871L9.82045 29.729C9.70492 30.0774 9.82045 30.3097 10.0515 30.5419C10.1671 30.7742 10.3981 30.7742 10.6292 30.7742H10.8603L19.7564 27.871C19.872 27.871 19.9875 27.7548 20.103 27.6387L32.3497 15.4452L31.1944 14.2839ZM14.5574 21.9484L18.9477 26.2452L14.0952 27.871L12.7088 26.7097L14.5574 21.9484ZM10.0515 22.9935L9.58938 24.1548V22.9935H10.0515ZM9.58938 20.3226H10.9758L11.0913 19.9742C11.2069 19.5097 11.4379 19.1613 11.7845 18.8129L12.3622 18.2323H9.58938V20.3226ZM25.4176 5.34194L23.9157 6.85161C23.9157 6.73548 23.8002 6.73548 23.6846 6.73548H21.605V4.76129H23.6846C24.3778 4.76129 24.9555 4.99355 25.4176 5.34194ZM9.58938 15.6774H15.0195L17.0991 13.7032H9.58938V15.6774ZM5.3146 13.5871H7.27869V15.6774H5.3146V13.5871ZM24.4934 26.4774V33.2129C24.4934 33.3829 24.4314 33.4907 24.3529 33.6274C24.3242 33.6774 24.2933 33.7313 24.2623 33.7935C24.1468 34.0258 23.9157 34.0258 23.6846 34.0258H2.88837C2.71921 34.0258 2.61197 33.9636 2.47599 33.8847L2.47595 33.8846L2.47589 33.8846C2.42615 33.8557 2.37256 33.8246 2.31069 33.7935C2.07963 33.6774 2.07963 33.4452 2.07963 33.2129V7.66452C2.07963 7.43226 2.19516 7.2 2.31069 7.08387C2.54176 6.85161 2.6573 6.85161 2.88837 6.85161H4.85246V4.76129H2.88837C2.07963 4.76129 1.38642 4.99355 0.924278 5.57419C0.231069 6.15484 0 6.85161 0 7.66452V33.2129C0 34.0258 0.23107 34.7226 0.808743 35.1871C1.38642 35.7677 2.07963 36 2.77283 36H23.5691C24.3778 36 25.071 35.7677 25.5332 35.1871C26.1108 34.6065 26.3419 33.9097 26.3419 33.2129V24.5032L24.4934 26.4774ZM5.3146 27.5226H7.27869V29.4968H5.3146V27.5226ZM7.27869 22.9935H5.3146V24.9677H7.27869V22.9935ZM5.3146 18.2323H7.27869V20.3226H5.3146V18.2323ZM8.43404 7.08387H17.9079V4.64516H16.0593C15.8283 4.64516 15.5972 4.64516 15.3661 4.4129C15.1351 4.18064 15.0195 3.94839 15.0195 3.71613C15.0195 3.25161 14.904 2.7871 14.5574 2.43871C14.2108 2.09032 13.7486 1.85806 13.2865 1.85806C12.8244 1.85806 12.3622 2.09032 12.0156 2.43871C11.669 2.7871 11.4379 3.25161 11.4379 3.71613C11.3224 4.06452 11.2069 4.29677 10.9758 4.4129C10.8603 4.64516 10.6292 4.76129 10.2826 4.76129H8.43404V7.08387Z" fill="white"/>
</svg>
