<svg width="24" height="24" viewBox="0 0 24 24" fill="none" xmlns="http://www.w3.org/2000/svg">
<path fill-rule="evenodd" clip-rule="evenodd" d="M18.4145 5.71874L15.762 5.27312L15.8282 4.60687C15.9026 3.63999 15.2382 2.79062 14.2832 2.62999L10.6876 2.02624C9.73262 1.86624 8.82636 2.45187 8.57824 3.40312L8.42574 4.04187L5.77511 3.59437C5.45261 3.53999 5.15011 3.75624 5.09511 4.07874C5.04011 4.40124 5.25699 4.70374 5.57949 4.75812L18.2164 6.88124C18.5389 6.93624 18.8414 6.71937 18.8957 6.39687C18.9501 6.07624 18.7339 5.77187 18.4132 5.71687L18.4145 5.71874ZM16.1801 22H7.81324C6.84449 22 6.04761 21.2712 5.96386 20.3069L5.00699 9.48249C4.96199 8.96499 5.13574 8.44749 5.48761 8.06437C5.83949 7.68124 6.33699 7.46062 6.85886 7.46062H17.1401C17.6595 7.46062 18.1595 7.68124 18.5095 8.06437C18.8614 8.44749 19.0351 8.96499 18.9901 9.48249L18.0332 20.3069C17.9476 21.2719 17.1501 22 16.182 22H16.1801ZM6.85574 8.64062C6.66449 8.64062 6.48636 8.71874 6.35574 8.86124C6.22511 9.00374 6.16449 9.18749 6.18011 9.37874L7.13699 20.2031C7.16824 20.555 7.45699 20.8206 7.81074 20.8206H16.1776C16.5314 20.8206 16.8201 20.555 16.8514 20.2031L17.8082 9.37874C17.8257 9.18749 17.7632 9.00374 17.6326 8.86124C17.5057 8.71874 17.3276 8.64062 17.1364 8.64062H6.85574ZM12.5864 10.7519V18.8456C12.5864 19.1719 12.3226 19.4356 11.9964 19.4356C11.6701 19.4356 11.4064 19.1719 11.4064 18.8456V10.7519C11.4064 10.4256 11.6701 10.1619 11.9964 10.1619C12.3226 10.1619 12.5864 10.4256 12.5864 10.7519ZM9.33261 19.4256C9.65886 19.4062 9.90512 19.125 9.88512 18.8006L9.38511 10.7225C9.36574 10.3962 9.08261 10.1481 8.76011 10.17C8.43386 10.1894 8.18761 10.4706 8.20761 10.795L8.70574 18.875C8.72511 19.1875 8.98511 19.4275 9.29386 19.4275H9.29391C9.30764 19.4275 9.32138 19.4275 9.33324 19.4256H9.33261ZM15.7876 10.7969L15.2876 18.875C15.2676 19.1875 15.0082 19.4275 14.6995 19.4294C14.6939 19.4294 14.6878 19.4289 14.6815 19.4285L14.6815 19.4284C14.6751 19.428 14.6686 19.4275 14.6626 19.4275C14.337 19.4081 14.0907 19.1287 14.1101 18.8025L14.6101 10.7244C14.6295 10.3987 14.917 10.1506 15.2351 10.1719C15.5607 10.1912 15.807 10.4706 15.7876 10.7969ZM9.72449 3.68749L9.59387 4.23624H9.59324L14.5951 5.07812L14.652 4.50374C14.6776 4.16437 14.4351 3.85374 14.0876 3.79499L10.492 3.19124C10.1445 3.13312 9.81449 3.34562 9.72449 3.68749Z" fill="#1D1D1B"/>
<mask id="mask0" mask-type="alpha" maskUnits="userSpaceOnUse" x="5" y="2" width="14" height="20">
<path fill-rule="evenodd" clip-rule="evenodd" d="M18.4145 5.71874L15.762 5.27312L15.8282 4.60687C15.9026 3.63999 15.2382 2.79062 14.2832 2.62999L10.6876 2.02624C9.73262 1.86624 8.82636 2.45187 8.57824 3.40312L8.42574 4.04187L5.77511 3.59437C5.45261 3.53999 5.15011 3.75624 5.09511 4.07874C5.04011 4.40124 5.25699 4.70374 5.57949 4.75812L18.2164 6.88124C18.5389 6.93624 18.8414 6.71937 18.8957 6.39687C18.9501 6.07624 18.7339 5.77187 18.4132 5.71687L18.4145 5.71874ZM16.1801 22H7.81324C6.84449 22 6.04761 21.2712 5.96386 20.3069L5.00699 9.48249C4.96199 8.96499 5.13574 8.44749 5.48761 8.06437C5.83949 7.68124 6.33699 7.46062 6.85886 7.46062H17.1401C17.6595 7.46062 18.1595 7.68124 18.5095 8.06437C18.8614 8.44749 19.0351 8.96499 18.9901 9.48249L18.0332 20.3069C17.9476 21.2719 17.1501 22 16.182 22H16.1801ZM6.85574 8.64062C6.66449 8.64062 6.48636 8.71874 6.35574 8.86124C6.22511 9.00374 6.16449 9.18749 6.18011 9.37874L7.13699 20.2031C7.16824 20.555 7.45699 20.8206 7.81074 20.8206H16.1776C16.5314 20.8206 16.8201 20.555 16.8514 20.2031L17.8082 9.37874C17.8257 9.18749 17.7632 9.00374 17.6326 8.86124C17.5057 8.71874 17.3276 8.64062 17.1364 8.64062H6.85574ZM12.5864 10.7519V18.8456C12.5864 19.1719 12.3226 19.4356 11.9964 19.4356C11.6701 19.4356 11.4064 19.1719 11.4064 18.8456V10.7519C11.4064 10.4256 11.6701 10.1619 11.9964 10.1619C12.3226 10.1619 12.5864 10.4256 12.5864 10.7519ZM9.33261 19.4256C9.65886 19.4062 9.90512 19.125 9.88512 18.8006L9.38511 10.7225C9.36574 10.3962 9.08261 10.1481 8.76011 10.17C8.43386 10.1894 8.18761 10.4706 8.20761 10.795L8.70574 18.875C8.72511 19.1875 8.98511 19.4275 9.29386 19.4275H9.29391C9.30764 19.4275 9.32138 19.4275 9.33324 19.4256H9.33261ZM15.7876 10.7969L15.2876 18.875C15.2676 19.1875 15.0082 19.4275 14.6995 19.4294C14.6939 19.4294 14.6878 19.4289 14.6815 19.4285L14.6815 19.4284C14.6751 19.428 14.6686 19.4275 14.6626 19.4275C14.337 19.4081 14.0907 19.1287 14.1101 18.8025L14.6101 10.7244C14.6295 10.3987 14.917 10.1506 15.2351 10.1719C15.5607 10.1912 15.807 10.4706 15.7876 10.7969ZM9.72449 3.68749L9.59387 4.23624H9.59324L14.5951 5.07812L14.652 4.50374C14.6776 4.16437 14.4351 3.85374 14.0876 3.79499L10.492 3.19124C10.1445 3.13312 9.81449 3.34562 9.72449 3.68749Z" fill="white"/>
</mask>
<g mask="url(#mask0)">
<rect width="24" height="24" fill="#0079C8"/>
</g>
</svg>
