<svg width="38" height="38" viewBox="0 0 38 38" fill="none" xmlns="http://www.w3.org/2000/svg">
<path fill-rule="evenodd" clip-rule="evenodd" d="M2.375 17.8119L3.59146 19.1577L6.02439 17.0202V34.8327H31.9756V17.0202L34.4085 19.1577L35.625 17.8119L19 3.16602L2.375 17.8119ZM30.3536 15.4368L18.9999 5.54102L7.64624 15.4368V33.2493H30.3536V15.4368ZM21.375 23.7493V28.4993H16.625V23.7493H11.875V18.9993H16.625V14.2493H21.375V18.9993H26.125V23.7493H21.375Z" fill="#1D1D1B"/>
<mask id="mask0" mask-type="alpha" maskUnits="userSpaceOnUse" x="2" y="3" width="34" height="32">
<path fill-rule="evenodd" clip-rule="evenodd" d="M2.375 17.8119L3.59146 19.1577L6.02439 17.0202V34.8327H31.9756V17.0202L34.4085 19.1577L35.625 17.8119L19 3.16602L2.375 17.8119ZM30.3536 15.4368L18.9999 5.54102L7.64624 15.4368V33.2493H30.3536V15.4368ZM21.375 23.7493V28.4993H16.625V23.7493H11.875V18.9993H16.625V14.2493H21.375V18.9993H26.125V23.7493H21.375Z" fill="white"/>
</mask>
<g mask="url(#mask0)">
<rect width="38" height="38" fill="#0079C8"/>
</g>
</svg>
