<?xml version="1.0" encoding="UTF-8"?>
<svg width="40px" height="40px" viewBox="0 0 40 40" version="1.1" xmlns="http://www.w3.org/2000/svg" xmlns:xlink="http://www.w3.org/1999/xlink">
    <!-- Generator: Sketch 51.3 (57544) - http://www.bohemiancoding.com/sketch -->
    <title>sadness</title>
    <desc>Created with Sketch.</desc>
    <defs></defs>
    <g id="Flujo" stroke="none" stroke-width="1" fill="none" fill-rule="evenodd">
        <g id="Ventaweb_20VW" transform="translate(-700.000000, -277.000000)" fill="#0079C7" fill-rule="nonzero">
            <g id="sadness" transform="translate(700.000000, 277.000000)">
                <path d="M9.625,30.5 C9,30.25 8.75,29.5 9.125,28.875 C9.75,27.875 10.375,26.875 11.25,26 C12.375,24.875 13.625,24 15.125,23.375 C16.625,22.75 18.25,22.375 19.875,22.375 C21.625,22.375 23.25,22.75 24.75,23.375 C26.25,24 27.5,24.875 28.625,26 C29.5,26.875 30.125,27.75 30.75,28.875 C31.125,29.5 30.75,30.25 30.25,30.5 C29.75,30.75 29.125,30.5 28.875,30 C28.375,29.125 27.875,28.375 27.125,27.75 C26.25,26.875 25.125,26.125 23.875,25.625 C22.625,25.125 21.375,24.875 19.875,24.875 C18.5,24.875 17.125,25.125 16,25.625 C14.75,26.125 13.625,26.875 12.75,27.75 C12.125,28.375 11.5,29.25 11,30.125 C10.875,30.5 10.25,30.75 9.625,30.5 Z M40,20 C40,31 31,40 20,40 C9,40 0,31 0,20 C0,9 9,0 20,0 C31,0 40,9 40,20 Z M20,2.375 C10.25,2.375 2.375,10.25 2.375,20 C2.375,29.75 10.25,37.625 20,37.625 C29.75,37.625 37.625,29.75 37.625,20 C37.625,10.25 29.75,2.375 20,2.375 Z M13.25,13.75 C12.125,13.75 11.25,14.625 11.25,15.75 C11.25,16.875 12.125,17.75 13.25,17.75 C14.375,17.75 15.25,16.875 15.25,15.75 C15.25,14.625 14.375,13.75 13.25,13.75 Z M26.75,13.75 C25.625,13.75 24.75,14.625 24.75,15.75 C24.75,16.875 25.625,17.75 26.75,17.75 C27.875,17.75 28.75,16.875 28.75,15.75 C28.75,14.625 27.875,13.75 26.75,13.75 Z" id="path-1"></path>
            </g>
        </g>
    </g>
</svg>