<svg width="21" height="20" viewBox="0 0 21 20" fill="none" xmlns="http://www.w3.org/2000/svg">
<path fill-rule="evenodd" clip-rule="evenodd" d="M8.56328 16.7033L15.0181 10.3678C15.2238 10.1666 15.2238 9.83844 15.0181 9.63719L8.56328 3.29729C8.11222 2.85417 8.11222 2.13731 8.5652 1.69357L9.95673 0.332339C10.4097 -0.11078 11.1444 -0.11078 11.5981 0.332339L20.6603 9.1972C21.1132 9.64032 21.1132 10.3591 20.6603 10.8028L11.5981 19.6677C11.1451 20.1108 10.4103 20.1108 9.95673 19.6677L8.5652 18.3064C8.11222 17.8633 8.11222 17.1465 8.56328 16.7027V16.7033ZM8.17586 12C7.04701 12 6.13189 11.1046 6.13189 10C6.13189 8.89543 7.04701 8 8.17586 8C9.30471 8 10.2198 8.89543 10.2198 10C10.2198 11.1046 9.30471 12 8.17586 12ZM0 10C0 11.1046 0.915114 12 2.04396 12C3.17282 12 4.08793 11.1046 4.08793 10C4.08793 8.89543 3.17282 8 2.04396 8C0.915114 8 0 8.89543 0 10Z" fill="#9B9B9B"/>
</svg>
