<svg width="38" height="38" viewBox="0 0 38 38" fill="none" xmlns="http://www.w3.org/2000/svg">
<path fill-rule="evenodd" clip-rule="evenodd" d="M7.76785 5.02555V23.7674H7.76884C7.77181 23.91 7.91036 24.003 8.00339 24.006H14.9309V25.6329H8.00339C7.30767 25.6329 6.70102 25.2123 6.37641 24.6552C6.23786 24.4226 6.14483 24.095 6.14483 23.7704V5.02851C6.14483 4.98262 6.1564 4.94804 6.168 4.91338C6.17966 4.87852 6.19135 4.84358 6.19135 4.79694H5.02851C4.88996 4.79694 4.79694 4.88898 4.79694 5.02851L4.75042 23.2568V23.3033C4.75042 23.7704 4.37931 24.095 3.95871 24.095C3.53811 24.095 3.16699 23.7209 3.16699 23.2568V5.02851C3.16699 4.00522 4.00225 3.16699 5.02555 3.16699H26.1792C27.2025 3.16699 28.0407 4.00522 28.0407 5.02851V14.0996C27.9942 14.1451 27.9477 14.2382 27.9012 14.3312L27.7151 14.7023C27.6454 14.7256 27.5642 14.7488 27.4831 14.7721C27.4019 14.7953 27.3208 14.8186 27.251 14.8418L27.2451 14.8438C26.9661 14.9361 26.6889 15.0279 26.4128 15.1664V5.02555C26.4128 4.887 26.3207 4.79397 26.1812 4.79397H7.99943C7.86088 4.79397 7.76785 4.88601 7.76785 5.02555ZM32.6942 18.0947L33.2048 17.117C33.2978 16.931 33.3443 16.6994 33.2513 16.5104C33.2048 16.3243 33.0197 16.1393 32.8337 16.0462L30.1369 14.6518C29.7193 14.4658 29.2522 14.6053 29.0206 15.0229L28.507 16.0007C26.5524 16.2323 24.6473 17.6742 23.5775 19.7673C22.8788 21.1617 22.5998 22.6501 22.7393 24.0445H17.9059V21.2082C21.2548 20.7906 23.9051 17.9048 23.9051 14.4658C23.9051 10.6527 20.8372 7.58477 17.1132 7.58477C13.3891 7.58477 10.2787 10.6527 10.2787 14.4193C10.2787 17.9078 12.9289 20.7906 16.2789 21.2072V31.2521C16.3719 33.2532 17.9989 34.8337 19.999 34.8337C21.5329 34.8337 22.8353 33.9024 23.3944 32.6475L25.2065 29.1125L25.8587 29.4371L25.882 29.445L25.9054 29.4532L25.9418 29.4662C26.0393 29.5012 26.1198 29.5302 26.2298 29.5302C26.5079 29.5302 26.787 29.3906 26.975 29.1125L27.4856 28.1348C29.4402 27.9032 31.3453 26.4613 32.4151 24.3682C33.5775 22.1858 33.6709 19.8145 32.6942 18.0947ZM16.4185 18.3759C16.4185 18.0018 16.746 17.6772 17.1172 17.6772C17.4883 17.6772 17.8129 17.9553 17.7723 18.3788V19.5882C20.097 19.2606 21.913 17.4486 22.2376 15.1229H21.1213C20.7472 15.1229 20.4226 14.7983 20.4226 14.4242C20.4226 14.0501 20.7501 13.7255 21.1213 13.7255H22.2841C21.9565 11.3998 20.1445 9.58385 17.8188 9.25925V10.4656C17.8188 10.8397 17.4942 11.1643 17.1201 11.1643C16.746 11.1643 16.4214 10.8367 16.4214 10.4656V9.25628C14.0958 9.58484 12.2808 11.3969 11.9562 13.7225H13.116C13.4901 13.7225 13.8147 14.0472 13.8147 14.4212C13.8147 14.7953 13.4871 15.1199 13.116 15.1199H11.9532C12.2808 17.4456 14.0928 19.2606 16.4185 19.5852V18.3759ZM21.9534 31.9538L21.9534 31.9538L21.9534 31.9538C21.9418 31.9887 21.9301 32.0236 21.9069 32.0468V32.0933C21.5358 32.7455 20.8371 33.2097 20.0454 33.2097C18.8825 33.2097 17.9513 32.2784 17.9513 31.1156V25.6755H23.2983C23.3216 25.722 23.3448 25.7799 23.3681 25.8377L23.3681 25.8378C23.3913 25.8957 23.4146 25.9536 23.4379 26.0001L22.9272 26.9779C22.8342 27.1639 22.7877 27.3955 22.8807 27.5845C22.9272 27.7706 23.1123 27.9556 23.2983 28.0487L23.905 28.3267L21.9999 31.8618V31.8608C21.9767 31.884 21.965 31.9189 21.9534 31.9538ZM27.0688 26.5098C28.5562 26.5098 30.1832 25.3509 31.068 23.5814C31.9497 21.8614 31.9497 19.8613 31.1145 18.6084C30.9284 18.3768 30.9284 18.0483 31.068 17.7702L31.3926 17.118L30.1367 16.4658L29.8121 17.118C29.6706 17.3496 29.438 17.5357 29.1134 17.5357C27.626 17.5357 25.999 18.6955 25.1143 20.464C24.2295 22.2325 24.183 24.2306 25.0677 25.4399C25.2538 25.6715 25.2538 26.0001 25.1143 26.2782L24.7896 26.9304L26.0455 27.5796L26.3701 26.9274C26.5116 26.6958 26.7442 26.5098 27.0688 26.5098ZM18.2799 14.4212L20.0494 11.7245L19.9099 11.5849L17.1201 13.2584C16.4679 13.2584 15.9572 13.7691 15.9572 14.4212C15.9572 15.0734 16.4679 15.5841 17.1201 15.5841C17.7722 15.5841 18.2799 15.0734 18.2799 14.4212Z" fill="#1D1D1B"/>
<mask id="mask0" mask-type="alpha" maskUnits="userSpaceOnUse" x="3" y="3" width="31" height="32">
<path fill-rule="evenodd" clip-rule="evenodd" d="M7.76785 5.02555V23.7674H7.76884C7.77181 23.91 7.91036 24.003 8.00339 24.006H14.9309V25.6329H8.00339C7.30767 25.6329 6.70102 25.2123 6.37641 24.6552C6.23786 24.4226 6.14483 24.095 6.14483 23.7704V5.02851C6.14483 4.98262 6.1564 4.94804 6.168 4.91338C6.17966 4.87852 6.19135 4.84358 6.19135 4.79694H5.02851C4.88996 4.79694 4.79694 4.88898 4.79694 5.02851L4.75042 23.2568V23.3033C4.75042 23.7704 4.37931 24.095 3.95871 24.095C3.53811 24.095 3.16699 23.7209 3.16699 23.2568V5.02851C3.16699 4.00522 4.00225 3.16699 5.02555 3.16699H26.1792C27.2025 3.16699 28.0407 4.00522 28.0407 5.02851V14.0996C27.9942 14.1451 27.9477 14.2382 27.9012 14.3312L27.7151 14.7023C27.6454 14.7256 27.5642 14.7488 27.4831 14.7721C27.4019 14.7953 27.3208 14.8186 27.251 14.8418L27.2451 14.8438C26.9661 14.9361 26.6889 15.0279 26.4128 15.1664V5.02555C26.4128 4.887 26.3207 4.79397 26.1812 4.79397H7.99943C7.86088 4.79397 7.76785 4.88601 7.76785 5.02555ZM32.6942 18.0947L33.2048 17.117C33.2978 16.931 33.3443 16.6994 33.2513 16.5104C33.2048 16.3243 33.0197 16.1393 32.8337 16.0462L30.1369 14.6518C29.7193 14.4658 29.2522 14.6053 29.0206 15.0229L28.507 16.0007C26.5524 16.2323 24.6473 17.6742 23.5775 19.7673C22.8788 21.1617 22.5998 22.6501 22.7393 24.0445H17.9059V21.2082C21.2548 20.7906 23.9051 17.9048 23.9051 14.4658C23.9051 10.6527 20.8372 7.58477 17.1132 7.58477C13.3891 7.58477 10.2787 10.6527 10.2787 14.4193C10.2787 17.9078 12.9289 20.7906 16.2789 21.2072V31.2521C16.3719 33.2532 17.9989 34.8337 19.999 34.8337C21.5329 34.8337 22.8353 33.9024 23.3944 32.6475L25.2065 29.1125L25.8587 29.4371L25.882 29.445L25.9054 29.4532L25.9418 29.4662C26.0393 29.5012 26.1198 29.5302 26.2298 29.5302C26.5079 29.5302 26.787 29.3906 26.975 29.1125L27.4856 28.1348C29.4402 27.9032 31.3453 26.4613 32.4151 24.3682C33.5775 22.1858 33.6709 19.8145 32.6942 18.0947ZM16.4185 18.3759C16.4185 18.0018 16.746 17.6772 17.1172 17.6772C17.4883 17.6772 17.8129 17.9553 17.7723 18.3788V19.5882C20.097 19.2606 21.913 17.4486 22.2376 15.1229H21.1213C20.7472 15.1229 20.4226 14.7983 20.4226 14.4242C20.4226 14.0501 20.7501 13.7255 21.1213 13.7255H22.2841C21.9565 11.3998 20.1445 9.58385 17.8188 9.25925V10.4656C17.8188 10.8397 17.4942 11.1643 17.1201 11.1643C16.746 11.1643 16.4214 10.8367 16.4214 10.4656V9.25628C14.0958 9.58484 12.2808 11.3969 11.9562 13.7225H13.116C13.4901 13.7225 13.8147 14.0472 13.8147 14.4212C13.8147 14.7953 13.4871 15.1199 13.116 15.1199H11.9532C12.2808 17.4456 14.0928 19.2606 16.4185 19.5852V18.3759ZM21.9534 31.9538L21.9534 31.9538L21.9534 31.9538C21.9418 31.9887 21.9301 32.0236 21.9069 32.0468V32.0933C21.5358 32.7455 20.8371 33.2097 20.0454 33.2097C18.8825 33.2097 17.9513 32.2784 17.9513 31.1156V25.6755H23.2983C23.3216 25.722 23.3448 25.7799 23.3681 25.8377L23.3681 25.8378C23.3913 25.8957 23.4146 25.9536 23.4379 26.0001L22.9272 26.9779C22.8342 27.1639 22.7877 27.3955 22.8807 27.5845C22.9272 27.7706 23.1123 27.9556 23.2983 28.0487L23.905 28.3267L21.9999 31.8618V31.8608C21.9767 31.884 21.965 31.9189 21.9534 31.9538ZM27.0688 26.5098C28.5562 26.5098 30.1832 25.3509 31.068 23.5814C31.9497 21.8614 31.9497 19.8613 31.1145 18.6084C30.9284 18.3768 30.9284 18.0483 31.068 17.7702L31.3926 17.118L30.1367 16.4658L29.8121 17.118C29.6706 17.3496 29.438 17.5357 29.1134 17.5357C27.626 17.5357 25.999 18.6955 25.1143 20.464C24.2295 22.2325 24.183 24.2306 25.0677 25.4399C25.2538 25.6715 25.2538 26.0001 25.1143 26.2782L24.7896 26.9304L26.0455 27.5796L26.3701 26.9274C26.5116 26.6958 26.7442 26.5098 27.0688 26.5098ZM18.2799 14.4212L20.0494 11.7245L19.9099 11.5849L17.1201 13.2584C16.4679 13.2584 15.9572 13.7691 15.9572 14.4212C15.9572 15.0734 16.4679 15.5841 17.1201 15.5841C17.7722 15.5841 18.2799 15.0734 18.2799 14.4212Z" fill="white"/>
</mask>
<g mask="url(#mask0)">
<rect width="38" height="38" fill="#0079C8"/>
</g>
</svg>
