<svg width="38" height="38" viewBox="0 0 38 38" fill="none" xmlns="http://www.w3.org/2000/svg">
<path fill-rule="evenodd" clip-rule="evenodd" d="M17.1822 32.1398C17.6919 32.6754 18.234 33.245 18.9898 33.245C19.8014 33.245 20.4487 32.5881 21.0066 32.022C21.0615 31.9664 21.1154 31.9117 21.1686 31.8585L30.2798 22.7473C30.456 22.5711 30.6334 22.3961 30.8107 22.2213C32.2277 20.8238 33.636 19.4349 34.3402 17.4985C35.9247 13.24 33.5479 8.38726 29.2894 6.80271C27.0116 6.01043 24.2386 6.2085 22.1589 7.49595C21.1675 8.15691 20.3139 9.02464 19.4832 9.86915C19.3181 10.0369 19.154 10.2038 18.9898 10.368C18.8068 10.1849 18.6261 9.99958 18.4456 9.8144C17.4541 8.7971 16.468 7.78533 15.1274 7.19885C12.6516 5.91139 9.5815 6.10946 7.20466 7.59499C3.44134 9.87279 2.05485 14.8245 4.13458 18.6869C5.12493 20.4695 16.0188 31.0662 16.9101 31.8585C17.0004 31.9489 17.0908 32.0438 17.1822 32.1398ZM5.22378 14.7255C5.22378 11.4574 8.19483 8.58535 11.463 8.58535C13.9388 8.58535 15.5234 10.0709 17.0089 11.7545C17.6031 12.3487 18.1973 12.8438 18.9896 12.8438C19.8404 12.8438 20.3988 12.2592 20.916 11.7177C21.0009 11.6288 21.0846 11.5411 21.1684 11.4574C22.5549 9.97183 23.9414 8.78342 26.0211 8.58535C28.497 8.38728 30.9728 9.8728 32.0622 12.0516C33.2506 14.3294 32.7555 17.1023 30.9728 18.984C30.5767 19.4792 22.5549 27.3029 18.9896 30.7691C18.6707 30.4502 17.4898 29.2947 15.973 27.8104C13.2502 25.1461 9.44509 21.4227 7.60062 19.5782C6.21413 18.1917 5.22378 16.7062 5.22378 14.7255Z" fill="#1D1D1B"/>
<mask id="mask0" mask-type="alpha" maskUnits="userSpaceOnUse" x="3" y="6" width="32" height="28">
<path fill-rule="evenodd" clip-rule="evenodd" d="M17.1822 32.1398C17.6919 32.6754 18.234 33.245 18.9898 33.245C19.8014 33.245 20.4487 32.5881 21.0066 32.022C21.0615 31.9664 21.1154 31.9117 21.1686 31.8585L30.2798 22.7473C30.456 22.5711 30.6334 22.3961 30.8107 22.2213C32.2277 20.8238 33.636 19.4349 34.3402 17.4985C35.9247 13.24 33.5479 8.38726 29.2894 6.80271C27.0116 6.01043 24.2386 6.2085 22.1589 7.49595C21.1675 8.15691 20.3139 9.02464 19.4832 9.86915C19.3181 10.0369 19.154 10.2038 18.9898 10.368C18.8068 10.1849 18.6261 9.99958 18.4456 9.8144C17.4541 8.7971 16.468 7.78533 15.1274 7.19885C12.6516 5.91139 9.5815 6.10946 7.20466 7.59499C3.44134 9.87279 2.05485 14.8245 4.13458 18.6869C5.12493 20.4695 16.0188 31.0662 16.9101 31.8585C17.0004 31.9489 17.0908 32.0438 17.1822 32.1398ZM5.22378 14.7255C5.22378 11.4574 8.19483 8.58535 11.463 8.58535C13.9388 8.58535 15.5234 10.0709 17.0089 11.7545C17.6031 12.3487 18.1973 12.8438 18.9896 12.8438C19.8404 12.8438 20.3988 12.2592 20.916 11.7177C21.0009 11.6288 21.0846 11.5411 21.1684 11.4574C22.5549 9.97183 23.9414 8.78342 26.0211 8.58535C28.497 8.38728 30.9728 9.8728 32.0622 12.0516C33.2506 14.3294 32.7555 17.1023 30.9728 18.984C30.5767 19.4792 22.5549 27.3029 18.9896 30.7691C18.6707 30.4502 17.4898 29.2947 15.973 27.8104C13.2502 25.1461 9.44509 21.4227 7.60062 19.5782C6.21413 18.1917 5.22378 16.7062 5.22378 14.7255Z" fill="white"/>
</mask>
<g mask="url(#mask0)">
<rect width="38" height="38" fill="#0079C8"/>
</g>
</svg>
