<?xml version="1.0" encoding="UTF-8"?>
<svg width="37px" height="39px" viewBox="0 0 37 39" version="1.1" xmlns="http://www.w3.org/2000/svg" xmlns:xlink="http://www.w3.org/1999/xlink">
    <!-- Generator: Sketch 51.3 (57544) - http://www.bohemiancoding.com/sketch -->
    <title>Group 14</title>
    <desc>Created with Sketch.</desc>
    <defs>
        <path d="M19.6319553,25.5 C19.5507856,25.4415282 19.4725765,25.3803425 19.3993016,25.3152093 C18.4948388,24.5101733 18.4733745,23.2351422 18.7733818,22.2354468 C19.0731424,21.2357514 19.6183859,20.2994622 19.5823653,19.2193372 C19.5520192,18.3146277 19.0859716,17.3711836 18.3337329,16.6912329 C17.4739258,15.9140758 16.331875,15.519576 15.3171299,14.9434929 C14.6344652,14.556148 13.721614,13.8419036 13.4707033,13.0931189 C13.3678225,12.7857101 13.3012091,12.5774814 13.358694,12.3872629 C14.1333839,12.0583898 14.4008247,11.1354232 14.330017,10.362707 C14.2246691,9.21473501 13.4892071,8.1506466 12.4695276,7.62020605 C11.5440939,7.13910881 10.5414379,7.207696 10.3302486,8.41413986 C10.1136314,9.65068313 10.5695636,11.0860799 11.3689252,12.0001647 C11.7661388,12.4543698 12.3205108,12.5483688 12.9015283,12.5994391 C12.8423163,12.7343931 12.8186315,12.8848902 12.8378754,13.0314398 C13.00885,14.3415046 14.2333041,15.4741802 15.5263455,16.1709077 C16.7485792,16.8291474 18.2604581,17.3810523 18.7699278,18.5825618 C19.1858918,19.5642469 18.7240385,20.5380371 18.4284721,21.4629774 C18.0352059,22.6935994 18.0640718,24.3137869 19.2507783,25.2409476 C19.3694489,25.3334663 19.498235,25.4188303 19.6319553,25.5 M16.6417509,21.09685 C16.6301553,20.974972 16.6131318,20.8550678 16.5872266,20.7378775 C16.2701958,19.2879244 14.7210627,18.4624109 13.2711096,18.1451334 C11.8211566,17.8281027 10.2670891,17.8066383 8.96812657,17.0886932 C7.87961323,16.4871983 7.06717568,15.40732 6.79060644,14.1947083 C6.47480928,12.8091482 6.8377293,11.3700507 6.88312514,9.94945685 C6.91371799,8.99392371 6.71461775,7.5925738 5.9811295,6.85908554 C5.68013532,6.55833809 5.47412702,6.35775754 5.19755778,6.29780543 C4.78480102,6.55093659 3.90575001,6.75743833 3.26774105,6.55611764 C2.82192427,6.46779312 0.235841563,5.27713912 0.0110828003,2.38266074 C-0.178395498,-0.0563789122 2.10200543,0.235733464 3.76462815,1.24060991 C6.15703838,2.68661552 6.15506465,4.45187232 6.17011436,4.82663473 C6.18639765,5.23470388 6.03516042,5.63068392 5.78350955,5.95412929 C5.98902442,5.97016587 6.20958901,6.04837501 6.3751358,6.16038432 C7.85642187,7.16427389 8.33899941,9.15428946 8.23463832,10.9407639 C8.13619842,12.6295386 7.69186194,14.5529407 8.78901037,15.840801 C9.68557826,16.893047 11.2233624,17.0247936 12.5780829,17.2993891 C14.3810873,17.6645296 16.3488984,18.7150486 16.6064705,20.5365568 C16.6323757,20.7181401 16.6410108,20.9061381 16.6417509,21.09685" id="path-1"></path>
    </defs>
    <g id="Flujo" stroke="none" stroke-width="1" fill="none" fill-rule="evenodd">
        <g id="DeclaracionSalud_07DS" transform="translate(-394.000000, -15667.000000)">
            <g id="Group-14" transform="translate(394.000000, 15667.000000)">
                <g id="icons/specialties/psychiatrist" transform="translate(17.000000, 13.000000)">
                    <mask id="mask-2" fill="white">
                        <use xlink:href="#path-1"></use>
                    </mask>
                    <use id="assisted-reproduction" fill="#333333" xlink:href="#path-1"></use>
                    <g id="fills/bupa-cyan" mask="url(#mask-2)" fill="#0079C8">
                        <g transform="translate(-5.000000, -2.000000)" id="Rectangle">
                            <rect x="0" y="0" width="30" height="30"></rect>
                        </g>
                    </g>
                </g>
                <g id="noun_ovum_187811" fill="#0079C7" fill-rule="nonzero">
                    <path d="M10.7000518,6.92037432 C8.61596059,6.92037432 6.91990154,8.61696059 6.91990154,10.7005246 C6.91990154,12.7846158 8.61596059,14.4801476 10.7000518,14.4801476 C12.784143,14.4801476 14.4802021,12.7846158 14.4802021,10.7005246 C14.4802021,8.61696059 12.784143,6.92037432 10.7000518,6.92037432 Z M10.7000518,12.8984948 C9.4874513,12.8984948 8.50155437,11.9131251 8.50155437,10.7005246 C8.50155437,9.4884513 9.48797852,8.50202715 10.7000518,8.50202715 C11.9121251,8.50202715 12.8985492,9.4884513 12.8985492,10.7005246 C12.8985492,11.9131251 11.9121251,12.8984948 10.7000518,12.8984948 Z M23.4481736,11.4486464 L22.0468292,11.4486464 C21.9487667,10.2297193 21.6276912,9.07669435 21.1252528,8.02278635 L22.3425983,7.32000527 C22.7206133,7.1022644 22.8503088,6.61827863 22.6320407,6.23973639 C22.4137726,5.86172137 21.9308413,5.73149862 21.5517718,5.95029392 L20.3381169,6.65043891 C19.6595878,5.67034137 18.8086586,4.81888493 17.8285611,4.14035587 L18.5287061,2.92722815 C18.7475014,2.54921313 18.6178059,2.06522736 18.2387364,1.84695927 C17.8607214,1.62816396 17.37779,1.7578595 17.1584675,2.13640174 L16.4562137,3.3537472 C15.4017784,2.85130882 14.2482263,2.52917886 13.0292992,2.4316436 L13.0292992,1.03082641 C13.0292992,0.594290233 12.6755362,0.24 12.2384728,0.24 C11.8019366,0.24 11.4476464,0.594290233 11.4476464,1.03082641 L11.4476464,2.4316436 C10.2287193,2.52917886 9.07516713,2.85130882 8.02178635,3.3537472 L7.31953249,2.13640174 C7.1012644,1.7578595 6.61727863,1.62816396 6.23873639,1.84695927 C5.86072137,2.06522736 5.73102583,2.54868591 5.94929392,2.92722815 L6.64943891,4.14088309 C5.66986859,4.81941215 4.81788493,5.66928694 4.13935587,6.65043891 L2.92728259,5.95029392 C2.54926756,5.73149862 2.0652818,5.86172137 1.84701371,6.23973639 C1.62769118,6.61827863 1.75791393,7.1022644 2.13645618,7.32000527 L3.35327442,8.02278635 C2.85083604,9.07669435 2.52923329,10.2307737 2.43117082,11.4486464 L1.02982641,11.4486464 C0.592763016,11.4486464 0.239,11.8029366 0.239,12.2394728 C0.239,12.676009 0.592763016,13.0302992 1.02982641,13.0302992 L2.43117082,13.0302992 C2.52923329,14.2497535 2.85083604,15.4022512 3.35327442,16.4566864 L2.13540174,17.1594675 C1.7568595,17.3777356 1.62769118,17.8617214 1.84595927,18.2397364 C1.99252577,18.4933281 2.25824344,18.6351496 2.53186938,18.6351496 C2.66578265,18.6351496 2.80233202,18.6019349 2.92622815,18.5297061 L4.13935587,17.8290339 C4.81788493,18.8086042 5.66934137,19.6605878 6.64943891,20.3391169 L5.94876671,21.5522446 C5.7299714,21.9307869 5.86019415,22.4147726 6.23820917,22.6325135 C6.36263253,22.7052695 6.49865467,22.7384842 6.63309516,22.7384842 C6.9067211,22.7384842 7.17191156,22.5966627 7.31847805,22.343071 L8.02178635,21.1257256 C9.07622156,21.628164 10.2297737,21.9497667 11.4476464,22.0478292 L11.4476464,23.4486464 C11.4476464,23.8846553 11.8019366,24.2394728 12.2384728,24.2394728 C12.6760634,24.2394728 13.0292992,23.8846553 13.0292992,23.4486464 L13.0292992,22.0478292 C14.2487535,21.9497667 15.4017784,21.628164 16.4562137,21.1257256 L17.1584675,22.343071 C17.3045068,22.5966627 17.5702245,22.7384842 17.8443776,22.7384842 C17.9782909,22.7384842 18.114313,22.7052695 18.2387364,22.6325135 C18.6172786,22.4147726 18.7464469,21.9307869 18.5287061,21.5522446 L17.8285611,20.3391169 C18.8081314,19.6605878 19.6595878,18.8096586 20.3381169,17.8290339 L21.5507174,18.5297061 C21.6751408,18.6019349 21.8116901,18.6351496 21.9461306,18.6351496 C22.2192293,18.6351496 22.4844198,18.4933281 22.6309863,18.2397364 C22.8503088,17.8617214 22.7206133,17.3777356 22.3425983,17.1594675 L21.1247256,16.4561592 C21.627164,15.4022512 21.9487667,14.2486991 22.0468292,13.0302992 L23.4481736,13.0302992 C23.8847098,13.0302992 24.239,12.676009 24.239,12.2394728 C24.239,11.8029366 23.8847098,11.4486464 23.4481736,11.4486464 Z M12.2395272,20.5057177 C7.68120377,20.5057177 3.97328233,16.7977962 3.97328233,12.2389456 C3.97328233,7.68062212 7.68120377,3.97270067 12.2395272,3.97270067 C16.7973234,3.97270067 20.5052449,7.68062212 20.5052449,12.2389456 C20.5052449,16.7977962 16.7973234,20.5057177 12.2395272,20.5057177 Z" id="Shape"></path>
                </g>
            </g>
        </g>
    </g>
</svg>