<svg width="13" height="16" viewBox="0 0 13 16" fill="none" xmlns="http://www.w3.org/2000/svg">
<path fill-rule="evenodd" clip-rule="evenodd" d="M0 0.8V15.2C0 15.65 0.35 16 0.8 16H12C12.45 16 12.8 15.65 12.8 15.2V4.15C12.8 4 12.75 3.85 12.65 3.75L9.048 0.15C8.948 0.05 8.798 0 8.648 0H0.8C0.35 0 0 0.35 0 0.8ZM12 4.728V14.95C12 15.1 11.85 15.2 11.75 15.2H1.05C0.9 15.2 0.8 15.1 0.8 14.95V1.05C0.8 0.9 0.9 0.8 1.05 0.8H7.75C7.9 0.8 8 0.9 8 1.05V3.75C8 4.15 8.25 4.48 8.65 4.48H11.75C11.9 4.48 12 4.578 12 4.728ZM11.6 3.76L8.8 0.96V3.464C8.8 3.614 8.898 3.76 9.048 3.76H11.6ZM2.37278 13.0073C2.48077 13.0623 2.58676 13.1153 2.72124 13.1153V13.1148C3.01622 13.1148 3.33819 12.8743 3.68665 12.3633C3.95563 11.9884 4.2491 11.4809 4.54457 10.837C5.50848 10.407 6.71287 10.0321 7.73178 9.81808C8.32072 10.3825 8.83017 10.6495 9.25813 10.6495C9.5781 10.6495 9.87357 10.4885 10.0611 10.2215C10.275 9.92807 10.3035 9.65909 10.1955 9.44511C10.0611 9.17814 9.71259 9.04365 9.15014 9.04365C8.82817 9.04365 8.42671 9.09865 7.94376 9.17814C7.29982 8.4812 6.60488 7.4358 6.12193 6.4454C6.60288 4.40959 6.28291 4.00812 6.17492 3.87364C6.06893 3.73915 5.90795 3.65966 5.72046 3.65966C5.64097 3.65966 5.55948 3.68615 5.47999 3.71265C5.26601 3.79214 5.10502 3.92663 5.02553 4.14061C4.78455 4.72956 5.13302 5.74846 5.47999 6.52489C5.16002 7.72978 4.65056 9.20464 4.11461 10.3825C2.74774 10.998 2.02431 11.6154 1.97132 12.2044C1.94482 12.4183 1.99781 12.7403 2.37278 13.0073ZM3.66066 11.2674C2.88423 11.6954 2.58876 12.0439 2.56226 12.2579C2.56226 12.2603 2.56203 12.2632 2.56177 12.2666C2.55919 12.2999 2.55311 12.3781 2.72324 12.4983C2.77624 12.4998 3.09821 12.3388 3.66066 11.2674ZM9.25813 10.0346C9.07065 10.0346 8.80367 9.90007 8.5082 9.68609C8.75018 9.65959 8.96416 9.6331 9.15014 9.6066C9.47211 9.6066 9.5801 9.65959 9.6331 9.68609C9.6331 9.71259 9.6066 9.76758 9.5536 9.84708C9.44561 10.0081 9.33762 10.0346 9.25813 10.0346ZM5.88345 7.30182C5.61647 8.18623 5.2945 9.15014 4.91954 10.0346C5.66947 9.73909 6.50089 9.49861 7.25032 9.31113C6.76737 8.72218 6.28491 8.02525 5.88345 7.30182ZM5.66947 4.2476H5.69597H5.69647C5.74946 4.32859 5.83095 4.65056 5.72446 5.39899C5.56348 4.94254 5.51048 4.54107 5.58998 4.32709C5.61647 4.2741 5.64297 4.2476 5.66947 4.2476Z" fill="#0079C7"/>
</svg>
