<svg width="38" height="38" viewBox="0 0 38 38" fill="none" xmlns="http://www.w3.org/2000/svg">
<path fill-rule="evenodd" clip-rule="evenodd" d="M19.0852 10.7732C21.1856 10.7732 22.8883 9.07049 22.8883 6.9701C22.8883 4.8697 21.1856 3.16699 19.0852 3.16699C16.9848 3.16699 15.2821 4.8697 15.2821 6.9701C15.2838 9.06978 16.9855 10.7715 19.0852 10.7732ZM26.1695 21.8829C26.1695 23.5118 24.849 24.8323 23.2201 24.8323C21.6845 24.8299 20.4076 23.6496 20.2848 22.1189C20.1961 21.3068 20.4572 20.4954 21.0029 19.8875C21.5486 19.2796 22.3272 18.9327 23.1441 18.9336H23.2077H23.2201C24.849 18.9336 26.1695 20.2541 26.1695 21.8829ZM23.1612 20.9252L22.9796 20.7389C22.9426 20.6995 22.902 20.6637 22.8585 20.6318C22.7151 20.5436 22.5502 20.4969 22.3819 20.4967C22.1297 20.4967 21.8885 20.5999 21.7144 20.7824L21.6912 20.8072C21.4256 21.0864 21.3436 21.4931 21.48 21.8534C21.5217 21.9451 21.5777 22.0295 21.6461 22.1033L22.9889 23.4895C23.0302 23.5402 23.0912 23.5707 23.1565 23.5734C23.2218 23.5707 23.2829 23.5402 23.3242 23.4895L24.6669 22.1033C25.0227 21.7265 25.0227 21.1375 24.6669 20.7606L24.6436 20.7373C24.5039 20.5788 24.3006 20.4911 24.0894 20.4983C23.8373 20.4964 23.5959 20.6 23.4235 20.7839L23.2372 20.9764L23.1751 20.9112L23.1612 20.9252ZM21.8853 5.81293C21.4159 4.68053 20.3105 3.94251 19.0847 3.94313V3.94158C17.4125 3.94415 16.0579 5.2995 16.0561 6.97165C16.0555 8.19748 16.7935 9.30292 17.9259 9.77232C19.0583 10.2417 20.362 9.98257 21.2288 9.11578C22.0956 8.24899 22.3547 6.94532 21.8853 5.81293ZM16.5297 14.6958C16.4007 14.5099 16.1894 14.3982 15.9631 14.3962H15.9243C15.8637 14.3988 15.8037 14.4092 15.7458 14.4273L15.693 14.4413C15.1439 14.5658 14.6429 14.8473 14.251 15.2516C13.554 16.0215 13.5338 16.5306 13.5742 16.9963V17.0708C13.5764 17.1079 13.5816 17.1448 13.5897 17.181C13.7084 17.7075 13.9404 18.2017 14.2696 18.6293C14.6274 19.0939 15.0818 19.4753 15.6015 19.747C15.7754 19.8413 15.982 19.8543 16.1665 19.7827C16.2588 19.7659 16.3466 19.7299 16.4242 19.6771C16.6367 19.5279 16.7462 19.271 16.7067 19.0143C16.5769 18.2224 16.5316 17.419 16.5716 16.6176C16.595 16.1858 16.6427 15.7556 16.7145 15.3292C16.764 15.099 16.6912 14.8595 16.522 14.6958H16.5297ZM14.414 17.0724C14.5087 17.4904 14.693 17.8828 14.9542 18.2226C15.2188 18.5653 15.5485 18.8523 15.9244 19.0671C15.7238 17.7907 15.729 16.4905 15.9399 15.2158C15.5423 15.3048 15.1789 15.5069 14.8937 15.798C14.3564 16.387 14.3829 16.6973 14.4069 16.9801C14.4096 17.0111 14.4122 17.0417 14.414 17.0724ZM28.3693 21.7929C28.3576 19.5272 26.993 17.4879 24.903 16.6129C25.2356 16.1951 25.438 15.6888 25.4852 15.1569C25.5566 14.2519 25.1747 12.5785 21.8373 11.5354C21.5765 11.4547 21.0146 11.346 19.1456 11.346C18.0787 11.346 17.0421 11.3826 16.8389 11.3898L16.8032 11.391C16.7284 11.3937 16.6545 11.4084 16.5843 11.4345C16.4291 11.4904 12.9116 12.8424 11.9275 15.7607C10.9837 18.53 13.3913 20.6256 15.1329 21.5445L15.0972 21.8084C14.807 24.0375 14.5322 26.1424 14.0106 28.4087C13.9363 28.7375 14.1074 29.0725 14.4173 29.2051L14.4965 29.247C14.9 29.4666 15.318 29.6585 15.7477 29.8213L15.5816 33.8479C15.5735 34.0375 15.6429 34.2221 15.7738 34.3594C15.9047 34.4967 16.0858 34.5749 16.2754 34.576L18.1273 34.5868C18.5089 34.5869 18.8199 34.2807 18.8258 33.8992V33.7067C18.841 33.6526 18.8493 33.5968 18.8507 33.5406L18.9066 30.0185C19.3148 30.0557 19.7013 30.0821 20.1018 30.1007C20.0946 30.7465 20.0878 31.3927 20.0816 32.0395L20.0661 33.5484V33.5965V33.9069C20.064 34.0927 20.1361 34.2717 20.2663 34.4042C20.3965 34.5368 20.5742 34.612 20.76 34.6132L22.7267 34.6287C22.9128 34.6288 23.0912 34.5545 23.2223 34.4225C23.3535 34.2905 23.4265 34.1116 23.4253 33.9256C23.4253 33.1292 23.4346 32.3609 23.447 31.6173C23.4563 31.1082 23.4656 30.5866 23.4687 30.0495C24.1891 30.0376 24.9042 29.9231 25.5923 29.7096C25.9038 29.6077 26.1026 29.303 26.0704 28.9769C26.0533 28.7984 26.044 28.6059 26.044 28.4025C26.022 27.2855 26.3824 26.1945 27.0654 25.3104C27.9502 24.2067 28.3693 23.0502 28.3693 21.7944V21.7929ZM18.1441 33.5344L18.2124 29.2439L18.2139 29.0095C19.0793 29.1096 19.9492 29.165 20.8202 29.1756V29.8042V30.2109C20.814 30.481 20.8109 30.7517 20.8109 31.0228C20.8026 31.8683 20.7938 32.7143 20.7845 33.5608L22.683 33.5763C22.6788 32.7522 22.6914 31.977 22.7041 31.1977C22.7152 30.515 22.7264 29.829 22.7264 29.1042H23.1052C23.8381 29.1124 24.568 29.0076 25.2691 28.7937C25.2489 28.595 25.2396 28.3839 25.2396 28.1728C25.2185 26.9318 25.6209 25.7207 26.3805 24.7391C27.0806 23.8419 27.4888 22.8857 27.4888 21.7246C27.4876 19.3539 25.7537 17.3402 23.4094 16.987C23.2713 16.9094 23.4141 16.7837 23.515 16.7697C23.6075 16.7533 23.6966 16.7219 23.7789 16.6766C24.749 16.065 25.8853 13.7039 21.5917 12.3565C21.2036 12.2339 20.1667 12.2013 19.167 12.2013C18.0121 12.2013 16.9069 12.2448 16.9069 12.2448C16.9069 12.2448 13.6347 13.4726 12.7607 16.0494C11.6897 19.1959 15.9895 21.0742 15.9895 21.0742C15.9575 21.3175 15.9259 21.5595 15.8945 21.8006C15.6105 23.9785 15.337 26.0765 14.8268 28.328C14.8314 28.3299 14.8516 28.3409 14.8848 28.3589C15.1227 28.4878 16.0253 28.977 16.5607 29.056L16.5468 29.3929L16.5048 30.4003L16.4521 31.6872L16.404 32.8545L16.3869 33.2674C16.3862 33.2859 16.3826 33.3092 16.3787 33.3343C16.3648 33.4231 16.3475 33.5344 16.4443 33.5344H16.6399H17.2484H18.1441ZM14.2431 6.63481C14.202 7.17941 14.2192 7.72685 14.2943 8.26781C14.3859 9.04396 14.3657 9.49257 14.0025 9.76266C13.6408 9.99703 13.2163 10.1156 12.7855 10.1026C12.6869 10.1028 12.5884 10.0971 12.4905 10.0855C13.0602 9.5469 13.1037 8.74902 13.1394 8.0924C13.1382 7.81604 13.1747 7.54081 13.2481 7.27435C13.2643 7.23443 13.283 7.19555 13.3039 7.15793C13.5081 6.83565 13.8616 6.63873 14.2431 6.63481ZM12.6926 6.81177C13.0326 6.21103 13.6768 5.92851 14.338 5.92851V5.92386C14.6736 5.92398 15.0053 5.99532 15.3112 6.13309C15.2842 6.12169 15.2553 6.11547 15.226 6.11479C14.7556 6.11479 14.9776 8.05049 14.9931 8.18088C15.0863 8.96634 15.1282 9.79682 14.4219 10.3215C13.937 10.6482 13.3625 10.8158 12.778 10.8011C12.3143 10.8113 11.8561 10.6994 11.4492 10.4767C11.156 10.3141 11.0162 9.9686 11.1139 9.6478H11.1388C11.1957 9.65057 11.2502 9.67182 11.294 9.70833C11.3687 9.75741 11.4561 9.78333 11.5455 9.78284C11.6641 9.78172 11.7796 9.74553 11.8777 9.67884C12.3688 9.34525 12.4054 8.682 12.4406 8.04415C12.4615 7.66394 12.482 7.29276 12.5979 7.0058C12.6255 6.93925 12.6571 6.87445 12.6926 6.81177ZM15.3222 6.13807C15.3185 6.1364 15.3149 6.13474 15.3112 6.13309C15.3149 6.13465 15.3186 6.13632 15.3222 6.13807Z" fill="black"/>
<mask id="mask0" mask-type="alpha" maskUnits="userSpaceOnUse" x="11" y="3" width="18" height="32">
<path fill-rule="evenodd" clip-rule="evenodd" d="M19.0852 10.7732C21.1856 10.7732 22.8883 9.07049 22.8883 6.9701C22.8883 4.8697 21.1856 3.16699 19.0852 3.16699C16.9848 3.16699 15.2821 4.8697 15.2821 6.9701C15.2838 9.06978 16.9855 10.7715 19.0852 10.7732ZM26.1695 21.8829C26.1695 23.5118 24.849 24.8323 23.2201 24.8323C21.6845 24.8299 20.4076 23.6496 20.2848 22.1189C20.1961 21.3068 20.4572 20.4954 21.0029 19.8875C21.5486 19.2796 22.3272 18.9327 23.1441 18.9336H23.2077H23.2201C24.849 18.9336 26.1695 20.2541 26.1695 21.8829ZM23.1612 20.9252L22.9796 20.7389C22.9426 20.6995 22.902 20.6637 22.8585 20.6318C22.7151 20.5436 22.5502 20.4969 22.3819 20.4967C22.1297 20.4967 21.8885 20.5999 21.7144 20.7824L21.6912 20.8072C21.4256 21.0864 21.3436 21.4931 21.48 21.8534C21.5217 21.9451 21.5777 22.0295 21.6461 22.1033L22.9889 23.4895C23.0302 23.5402 23.0912 23.5707 23.1565 23.5734C23.2218 23.5707 23.2829 23.5402 23.3242 23.4895L24.6669 22.1033C25.0227 21.7265 25.0227 21.1375 24.6669 20.7606L24.6436 20.7373C24.5039 20.5788 24.3006 20.4911 24.0894 20.4983C23.8373 20.4964 23.5959 20.6 23.4235 20.7839L23.2372 20.9764L23.1751 20.9112L23.1612 20.9252ZM21.8853 5.81293C21.4159 4.68053 20.3105 3.94251 19.0847 3.94313V3.94158C17.4125 3.94415 16.0579 5.2995 16.0561 6.97165C16.0555 8.19748 16.7935 9.30292 17.9259 9.77232C19.0583 10.2417 20.362 9.98257 21.2288 9.11578C22.0956 8.24899 22.3547 6.94532 21.8853 5.81293ZM16.5297 14.6958C16.4007 14.5099 16.1894 14.3982 15.9631 14.3962H15.9243C15.8637 14.3988 15.8037 14.4092 15.7458 14.4273L15.693 14.4413C15.1439 14.5658 14.6429 14.8473 14.251 15.2516C13.554 16.0215 13.5338 16.5306 13.5742 16.9963V17.0708C13.5764 17.1079 13.5816 17.1448 13.5897 17.181C13.7084 17.7075 13.9404 18.2017 14.2696 18.6293C14.6274 19.0939 15.0818 19.4753 15.6015 19.747C15.7754 19.8413 15.982 19.8543 16.1665 19.7827C16.2588 19.7659 16.3466 19.7299 16.4242 19.6771C16.6367 19.5279 16.7462 19.271 16.7067 19.0143C16.5769 18.2224 16.5316 17.419 16.5716 16.6176C16.595 16.1858 16.6427 15.7556 16.7145 15.3292C16.764 15.099 16.6912 14.8595 16.522 14.6958H16.5297ZM14.414 17.0724C14.5087 17.4904 14.693 17.8828 14.9542 18.2226C15.2188 18.5653 15.5485 18.8523 15.9244 19.0671C15.7238 17.7907 15.729 16.4905 15.9399 15.2158C15.5423 15.3048 15.1789 15.5069 14.8937 15.798C14.3564 16.387 14.3829 16.6973 14.4069 16.9801C14.4096 17.0111 14.4122 17.0417 14.414 17.0724ZM28.3693 21.7929C28.3576 19.5272 26.993 17.4879 24.903 16.6129C25.2356 16.1951 25.438 15.6888 25.4852 15.1569C25.5566 14.2519 25.1747 12.5785 21.8373 11.5354C21.5765 11.4547 21.0146 11.346 19.1456 11.346C18.0787 11.346 17.0421 11.3826 16.8389 11.3898L16.8032 11.391C16.7284 11.3937 16.6545 11.4084 16.5843 11.4345C16.4291 11.4904 12.9116 12.8424 11.9275 15.7607C10.9837 18.53 13.3913 20.6256 15.1329 21.5445L15.0972 21.8084C14.807 24.0375 14.5322 26.1424 14.0106 28.4087C13.9363 28.7375 14.1074 29.0725 14.4173 29.2051L14.4965 29.247C14.9 29.4666 15.318 29.6585 15.7477 29.8213L15.5816 33.8479C15.5735 34.0375 15.6429 34.2221 15.7738 34.3594C15.9047 34.4967 16.0858 34.5749 16.2754 34.576L18.1273 34.5868C18.5089 34.5869 18.8199 34.2807 18.8258 33.8992V33.7067C18.841 33.6526 18.8493 33.5968 18.8507 33.5406L18.9066 30.0185C19.3148 30.0557 19.7013 30.0821 20.1018 30.1007C20.0946 30.7465 20.0878 31.3927 20.0816 32.0395L20.0661 33.5484V33.5965V33.9069C20.064 34.0927 20.1361 34.2717 20.2663 34.4042C20.3965 34.5368 20.5742 34.612 20.76 34.6132L22.7267 34.6287C22.9128 34.6288 23.0912 34.5545 23.2223 34.4225C23.3535 34.2905 23.4265 34.1116 23.4253 33.9256C23.4253 33.1292 23.4346 32.3609 23.447 31.6173C23.4563 31.1082 23.4656 30.5866 23.4687 30.0495C24.1891 30.0376 24.9042 29.9231 25.5923 29.7096C25.9038 29.6077 26.1026 29.303 26.0704 28.9769C26.0533 28.7984 26.044 28.6059 26.044 28.4025C26.022 27.2855 26.3824 26.1945 27.0654 25.3104C27.9502 24.2067 28.3693 23.0502 28.3693 21.7944V21.7929ZM18.1441 33.5344L18.2124 29.2439L18.2139 29.0095C19.0793 29.1096 19.9492 29.165 20.8202 29.1756V29.8042V30.2109C20.814 30.481 20.8109 30.7517 20.8109 31.0228C20.8026 31.8683 20.7938 32.7143 20.7845 33.5608L22.683 33.5763C22.6788 32.7522 22.6914 31.977 22.7041 31.1977C22.7152 30.515 22.7264 29.829 22.7264 29.1042H23.1052C23.8381 29.1124 24.568 29.0076 25.2691 28.7937C25.2489 28.595 25.2396 28.3839 25.2396 28.1728C25.2185 26.9318 25.6209 25.7207 26.3805 24.7391C27.0806 23.8419 27.4888 22.8857 27.4888 21.7246C27.4876 19.3539 25.7537 17.3402 23.4094 16.987C23.2713 16.9094 23.4141 16.7837 23.515 16.7697C23.6075 16.7533 23.6966 16.7219 23.7789 16.6766C24.749 16.065 25.8853 13.7039 21.5917 12.3565C21.2036 12.2339 20.1667 12.2013 19.167 12.2013C18.0121 12.2013 16.9069 12.2448 16.9069 12.2448C16.9069 12.2448 13.6347 13.4726 12.7607 16.0494C11.6897 19.1959 15.9895 21.0742 15.9895 21.0742C15.9575 21.3175 15.9259 21.5595 15.8945 21.8006C15.6105 23.9785 15.337 26.0765 14.8268 28.328C14.8314 28.3299 14.8516 28.3409 14.8848 28.3589C15.1227 28.4878 16.0253 28.977 16.5607 29.056L16.5468 29.3929L16.5048 30.4003L16.4521 31.6872L16.404 32.8545L16.3869 33.2674C16.3862 33.2859 16.3826 33.3092 16.3787 33.3343C16.3648 33.4231 16.3475 33.5344 16.4443 33.5344H16.6399H17.2484H18.1441ZM14.2431 6.63481C14.202 7.17941 14.2192 7.72685 14.2943 8.26781C14.3859 9.04396 14.3657 9.49257 14.0025 9.76266C13.6408 9.99703 13.2163 10.1156 12.7855 10.1026C12.6869 10.1028 12.5884 10.0971 12.4905 10.0855C13.0602 9.5469 13.1037 8.74902 13.1394 8.0924C13.1382 7.81604 13.1747 7.54081 13.2481 7.27435C13.2643 7.23443 13.283 7.19555 13.3039 7.15793C13.5081 6.83565 13.8616 6.63873 14.2431 6.63481ZM12.6926 6.81177C13.0326 6.21103 13.6768 5.92851 14.338 5.92851V5.92386C14.6736 5.92398 15.0053 5.99532 15.3112 6.13309C15.2842 6.12169 15.2553 6.11547 15.226 6.11479C14.7556 6.11479 14.9776 8.05049 14.9931 8.18088C15.0863 8.96634 15.1282 9.79682 14.4219 10.3215C13.937 10.6482 13.3625 10.8158 12.778 10.8011C12.3143 10.8113 11.8561 10.6994 11.4492 10.4767C11.156 10.3141 11.0162 9.9686 11.1139 9.6478H11.1388C11.1957 9.65057 11.2502 9.67182 11.294 9.70833C11.3687 9.75741 11.4561 9.78333 11.5455 9.78284C11.6641 9.78172 11.7796 9.74553 11.8777 9.67884C12.3688 9.34525 12.4054 8.682 12.4406 8.04415C12.4615 7.66394 12.482 7.29276 12.5979 7.0058C12.6255 6.93925 12.6571 6.87445 12.6926 6.81177ZM15.3222 6.13807C15.3185 6.1364 15.3149 6.13474 15.3112 6.13309C15.3149 6.13465 15.3186 6.13632 15.3222 6.13807Z" fill="white"/>
</mask>
<g mask="url(#mask0)">
<rect width="38" height="38" fill="#0079C8"/>
</g>
</svg>
