<svg width="16" height="16" viewBox="0 0 16 16" fill="none" xmlns="http://www.w3.org/2000/svg">
<path fill-rule="evenodd" clip-rule="evenodd" d="M0 8C0 3.589 3.589 0 8 0C12.411 0 16 3.589 16 8C16 12.411 12.411 16 8 16C3.589 16 0 12.411 0 8ZM1.0905 8C1.0905 11.8095 4.1905 14.9095 8 14.9095C11.8095 14.9095 14.9095 11.8095 14.9095 8C14.9095 4.1905 11.8095 1.0905 8 1.0905C4.1905 1.0905 1.0905 4.1905 1.0905 8ZM5.2295 5.917L5.22952 5.91651L6.451 5.929C6.4915 5.0055 7.0225 4.543 7.9055 4.543C8.7475 4.543 9.3055 4.923 9.3055 5.712C9.3055 6.4754 8.89818 6.88733 8.46182 7.32863C7.95848 7.83767 7.4165 8.38578 7.4165 9.5575H8.612C8.612 8.6763 9.10739 8.19647 9.62224 7.69777C10.1792 7.15827 10.759 6.59669 10.759 5.481C10.759 4 9.673 3.2125 8.042 3.2125C6.35766 3.2125 5.2842 4.19181 5.22952 5.91651L5.229 5.9165L5.2295 5.917ZM8.002 12.78C8.491 12.78 8.858 12.3985 8.858 11.869C8.858 11.353 8.4915 10.986 8.002 10.986C7.5125 10.986 7.1455 11.352 7.1455 11.869C7.1455 12.399 7.513 12.78 8.002 12.78Z" fill="#1697F3"/>
</svg>
