<svg width="38" height="38" viewBox="0 0 38 38" fill="none" xmlns="http://www.w3.org/2000/svg">
<path fill-rule="evenodd" clip-rule="evenodd" d="M30.6469 34.0241C30.9652 33.8113 31.1252 33.3857 30.9124 33.0129L30.9158 33.0095C30.8086 32.904 30.6486 32.6384 30.5958 32.3184L30.5792 32.2917C29.616 30.7389 27.6189 27.5196 27.9896 25.4564C28.3069 23.8646 28.9965 22.5908 29.6855 21.3181L29.6919 21.3062C30.7558 19.3383 31.8725 17.2632 31.8725 14.0187C31.8725 10.8251 30.5958 8.16615 28.4679 6.25107C26.2873 4.28321 23.2555 3.1665 19.9564 3.1665C19.2653 3.1665 18.5197 3.21928 17.8286 3.37929C15.1151 3.91041 12.6144 5.34715 10.8066 7.26223C8.94597 9.23009 7.77479 11.678 7.77479 14.0714C7.77479 14.5515 7.77479 14.9771 7.88033 15.4554C7.9331 15.7737 7.08195 17.2105 6.17803 18.7L6.16003 18.7293C5.74048 19.4123 5.32237 20.0929 5.00685 20.7223C4.95838 20.8693 4.90848 20.9703 4.85979 21.0689C4.85546 21.0776 4.85114 21.0864 4.84683 21.0951C4.68682 21.4679 4.73959 21.839 4.8996 22.159C5.05962 22.4791 5.32688 22.7446 5.64521 22.9047C5.75246 23.0119 5.91077 23.0647 6.01801 23.0647C6.33805 23.1702 6.81639 23.2775 7.24197 23.3302C7.13642 23.6503 7.02918 23.9686 6.81639 24.3414C6.65638 24.7142 6.81639 25.1925 7.24197 25.4053H7.29474C7.13472 25.5109 7.02748 25.6709 6.97471 25.8309C6.81469 26.2565 7.08025 26.6821 7.45305 26.7893C7.9331 26.8948 7.88033 27.1076 7.77308 27.4277C7.5603 28.0133 7.40028 28.7589 7.77308 29.6628C7.77308 29.7173 7.82585 29.77 7.82585 29.77C8.62423 31.2068 11.7088 31.6323 13.7839 31.8979C13.8782 31.93 13.9724 31.9432 14.0882 31.9594C14.169 31.9707 14.2604 31.9835 14.3695 32.0051C14.9551 32.0579 15.3279 32.2179 15.5934 32.4835C15.9118 32.8563 16.2318 33.4402 16.6574 34.3986C16.8702 34.7714 17.2957 34.9314 17.6685 34.7714C18.0413 34.5586 18.2014 34.133 18.0413 33.7602C17.5613 32.6435 17.1357 31.8979 16.6574 31.4196C16.0718 30.8884 15.4862 30.6229 14.5823 30.5156C14.5211 30.4841 14.4056 30.4708 14.2675 30.4549C14.1674 30.4434 14.0555 30.4306 13.9439 30.4084C13.7671 30.3806 13.5799 30.3523 13.386 30.323C11.7124 30.0698 9.53124 29.7399 9.10258 29.0244C8.99704 28.6516 9.10258 28.226 9.20982 27.8532C9.21659 27.8279 9.22336 27.8026 9.2301 27.7775C9.43524 27.0127 9.61341 26.3485 8.94426 25.8326C8.98256 25.8392 9.02012 25.8457 9.05702 25.8521C9.32687 25.899 9.5618 25.9399 9.79541 25.9399C10.1682 25.9399 10.541 25.6198 10.541 25.1942C10.541 24.8231 10.221 24.4503 9.79541 24.4503C9.58263 24.3976 9.20982 24.3431 8.83702 24.2903C8.77519 24.2903 8.71279 24.2722 8.66108 24.2572C8.62452 24.2466 8.59332 24.2376 8.57146 24.2376C8.597 24.1729 8.62265 24.1114 8.64759 24.0516C8.72572 23.8642 8.79702 23.6932 8.83702 23.4919C8.83702 23.3847 8.89149 23.2264 8.94426 23.1191C8.99704 23.1191 8.99704 23.0647 8.99704 23.0119C9.04981 22.5863 8.83702 22.2152 8.41145 22.108C8.35055 22.077 8.25562 22.0637 8.14599 22.0482C8.06254 22.0365 7.97059 22.0235 7.87863 22.0007C7.73738 21.9691 7.58679 21.9375 7.43648 21.9061C7.07776 21.831 6.72069 21.7563 6.49636 21.6807C6.44189 21.6279 6.38911 21.6279 6.38911 21.6279C6.33464 21.6279 6.28187 21.5752 6.28187 21.5752V21.5224V21.4696C6.65467 20.7768 7.02748 20.1384 7.50582 19.4473C7.58605 19.308 7.66627 19.1695 7.74591 19.0319C8.67006 17.4355 9.51546 15.9752 9.36814 15.1915C9.31366 14.8204 9.26089 14.4476 9.26089 14.0748C9.26089 12.0542 10.2704 9.9791 11.8671 8.32958C13.5149 6.62728 15.6973 5.35055 18.0907 4.87221C18.7291 4.76496 19.3147 4.71219 19.953 4.71219C22.8776 4.71219 25.5383 5.72336 27.4534 7.42565C29.2629 9.07348 30.3796 11.3614 30.3796 14.0748C30.3796 16.9483 29.3701 18.8089 28.359 20.6185C27.5606 22.0024 26.8167 23.3847 26.4967 25.1942C26.0183 27.8005 28.199 31.4178 29.2629 33.1201C29.3337 33.2377 29.3939 33.3449 29.4482 33.4417C29.5167 33.5637 29.5759 33.6693 29.6357 33.7585C29.8485 34.0768 30.2741 34.2369 30.6469 34.0241ZM12.8257 15.4588C12.3474 15.1388 12.0273 14.7132 11.8673 14.2348C11.7073 13.7565 11.6545 13.2237 11.7073 12.7453C11.7601 12.267 11.9201 11.7869 12.1329 11.3614C12.3457 10.9358 12.6657 10.6157 13.0368 10.403C13.3568 9.60458 13.888 9.02069 14.5263 8.64789C15.1647 8.27509 15.9103 8.0623 16.707 7.95676C17.2398 7.58395 17.8781 7.26562 18.6748 7.15838C19.4204 7.10561 20.2171 7.10561 21.1755 7.37117C21.2819 7.39755 21.3882 7.42436 21.4946 7.45116C21.601 7.47798 21.7074 7.50479 21.8139 7.53118C23.0906 7.84951 24.3145 8.16954 25.3785 9.07346C25.4312 9.07346 25.4857 9.12624 25.5385 9.17901C26.0713 9.60458 26.6024 10.0829 26.9224 11.1469C27.0333 11.1834 27.118 11.2461 27.2128 11.3163C27.2549 11.3474 27.2989 11.38 27.348 11.4124C27.508 11.5724 27.7208 11.838 27.8264 12.1036C28.1464 12.9547 28.0919 13.5931 27.8264 14.0714C27.6664 14.337 27.4536 14.5498 27.2408 14.7625C27.2936 14.8153 27.4008 14.9226 27.4536 15.0281V15.0809C27.6664 15.4009 27.6136 15.8793 27.5063 16.3576C27.3991 16.8359 27.1335 17.316 26.868 17.5816C26.4424 18.0599 25.9113 18.3799 25.3785 18.5927C25.2721 18.6191 25.1789 18.6459 25.0857 18.6727L25.0856 18.6727C24.9925 18.6995 24.8993 18.7264 24.7929 18.7527C24.7929 18.8327 24.7797 18.8991 24.7665 18.9655C24.7533 19.0319 24.7401 19.0983 24.7401 19.1783C24.6873 19.4983 24.6329 19.9239 24.7401 20.6678C24.9001 21.1462 24.9001 21.679 24.9001 22.2101C24.8473 22.7429 24.7929 23.274 24.6346 23.7524C24.3145 25.1364 24.049 26.6259 24.049 28.0609C24.049 29.4449 24.3145 30.7216 25.0074 31.7855C25.1674 31.9983 25.1146 32.3184 24.8473 32.4767C24.6346 32.6367 24.3145 32.5839 24.1562 32.3166C23.3051 31.0927 23.0395 29.6032 23.0395 28.0609C23.0395 26.5714 23.3051 24.9763 23.6779 23.5396C23.7851 23.0613 23.8907 22.5829 23.8907 22.1556C23.8907 21.7284 23.8907 21.3573 23.7834 20.9844C23.4634 20.5061 23.0395 19.9733 22.6122 19.4949C22.0794 18.9093 21.5483 18.431 21.1755 18.111C20.8555 18.2182 20.5371 18.2182 20.2716 18.1637C20.0588 18.111 19.846 18.0037 19.7388 17.8437C19.5787 17.951 19.3659 18.0565 19.1004 18.0565C18.5148 18.1093 17.9837 18.0565 17.5036 17.8965C17.0236 17.7365 16.5997 17.4709 16.2797 17.1509C16.0141 16.8853 15.9069 16.6181 15.8541 16.3525C15.758 16.3842 15.6618 16.4165 15.566 16.4487L15.5656 16.4489C15.5021 16.4702 15.4388 16.4915 15.3758 16.5125C15.0557 16.5653 14.6846 16.6198 14.3118 16.5653C14.2592 16.5479 14.2065 16.5363 14.1539 16.5246C14.0467 16.5009 13.9397 16.4772 13.8335 16.4053C13.5134 16.2452 13.2479 16.0325 13.0879 15.7669C12.9279 15.6614 12.8751 15.5541 12.8223 15.4469L12.8257 15.4588ZM13.7823 15.0332V15.1388C13.7823 15.1916 13.8351 15.246 13.8351 15.246C13.8878 15.3533 13.9951 15.4588 14.1551 15.5116C14.2079 15.5644 14.3151 15.5644 14.3679 15.5644C14.5611 15.6123 14.7543 15.5732 14.9871 15.5261L15.059 15.5116C15.0858 15.5049 15.1135 15.4983 15.1417 15.4915C15.3371 15.4443 15.5575 15.391 15.6974 15.2988C15.724 15.2182 15.7644 15.1375 15.8047 15.0571C15.8444 14.9779 15.884 14.899 15.9102 14.8205C16.0174 14.6077 16.123 14.4476 16.2302 14.3421C16.443 14.0765 16.763 13.8093 17.2414 13.651C17.4542 13.5982 17.7197 13.5982 17.987 13.651C18.1998 13.3854 18.4653 13.1726 18.7853 12.9598C19.1582 12.7471 19.6893 12.587 20.3276 12.5343C20.5932 12.1087 21.0188 11.7359 21.6044 11.4703C22.1899 11.2575 22.9339 11.1503 23.6795 11.3631C23.945 11.4159 24.105 11.6831 24.0523 11.9487C23.9995 12.2142 23.7322 12.3743 23.4667 12.3215C22.9338 12.1615 22.4027 12.2142 21.9772 12.3743C21.4988 12.5343 21.1788 12.8526 21.126 13.1182C21.0732 13.3309 20.8605 13.491 20.6477 13.491C20.0621 13.491 19.6365 13.5982 19.3182 13.7565C18.9998 13.9148 18.7853 14.1821 18.627 14.4476C18.5198 14.6604 18.2015 14.7677 17.9887 14.6604C17.8287 14.5532 17.6686 14.5532 17.5631 14.6077C17.3503 14.6604 17.1375 14.8205 17.0303 14.9805C16.9758 15.035 16.9354 15.089 16.8949 15.1431L16.8949 15.1431C16.8558 15.1954 16.8166 15.2478 16.7647 15.3005L16.7117 15.4061C16.676 15.4773 16.64 15.5489 16.6047 15.6205V15.7278C16.6575 15.9933 16.712 16.2606 16.8703 16.4189C17.0831 16.6317 17.3486 16.7917 17.6686 16.8973C18.0414 17.0045 18.4142 17.0573 18.8926 17.0045C18.9708 17.0045 19.0763 16.9193 19.2102 16.8111L19.2102 16.8111C19.2599 16.771 19.3134 16.7277 19.3709 16.6845C19.5837 16.5245 19.9038 16.5245 20.0621 16.7372C20.1148 16.79 20.1693 16.8445 20.1693 16.95C20.2221 17.11 20.2766 17.2156 20.3821 17.2156C20.4893 17.2684 20.7021 17.2156 20.9677 17.11C21.1277 17.0573 21.3405 17.0573 21.5005 17.2156L21.5492 17.2574C21.9314 17.585 22.5913 18.1509 23.2028 18.8651C23.2818 18.9441 23.3475 19.0231 23.413 19.1019L23.4131 19.1019C23.4803 19.1827 23.5474 19.2633 23.6284 19.3435C23.6284 19.2907 23.6416 19.2507 23.6548 19.2107C23.668 19.1707 23.6812 19.1307 23.6812 19.0779C23.6812 19.0251 23.6944 18.9851 23.7075 18.9451C23.7207 18.9051 23.7339 18.8651 23.7339 18.8123H23.6267C23.3611 18.7596 23.2011 18.4923 23.2011 18.2268C23.2539 17.9612 23.5211 17.8012 23.7867 17.8012C23.8667 17.8012 23.9331 17.8144 23.9995 17.8276C24.0659 17.8408 24.1323 17.8539 24.2123 17.8539C24.4778 17.8539 24.7451 17.8012 24.9579 17.6939C25.3835 17.5339 25.7563 17.2684 26.0746 16.8956C26.2346 16.7355 26.3946 16.4172 26.5002 16.0972L26.5034 16.0843L26.5034 16.0843C26.5551 15.8758 26.6063 15.6694 26.5529 15.5644C26.4457 15.4043 26.2874 15.2988 26.1274 15.2443H26.0746C25.7546 15.1371 25.2762 15.1371 24.7979 15.2443C23.8939 15.4043 22.8828 15.8299 22.1916 16.2555H22.1389C21.9261 16.4155 21.6061 16.3083 21.4477 16.0955C21.2894 15.8827 21.395 15.5644 21.6078 15.4043H21.6605C22.4589 14.9788 23.5756 14.5004 24.5868 14.2876C25.1724 14.1804 25.7035 14.1804 26.1835 14.2876C26.5036 14.1276 26.7691 13.9148 26.9291 13.702C27.0892 13.4365 27.0892 13.0637 26.8764 12.5309C26.8435 12.4312 26.7895 12.3526 26.7407 12.2817L26.7407 12.2816C26.7111 12.2387 26.6835 12.1985 26.6636 12.1581C26.6108 12.1053 26.5036 12.0508 26.398 11.998C26.1852 11.9453 26.0252 11.838 26.0252 11.6252C25.8124 10.7213 25.3869 10.3485 24.9085 9.97571C24.8821 9.94933 24.8553 9.93613 24.8285 9.92294C24.8017 9.90975 24.7749 9.89655 24.7485 9.87017C23.8446 9.12456 22.7279 8.80623 21.6095 8.54067L21.6093 8.54063C21.3966 8.48787 21.1838 8.43512 20.9711 8.38066C20.1727 8.16787 19.5344 8.1151 18.9488 8.22064C18.2576 8.32789 17.7248 8.59345 17.352 8.91178C17.2992 8.96455 17.192 9.01732 17.0865 9.01732C16.3408 9.12456 15.7025 9.28288 15.1186 9.55014C14.5858 9.87017 14.2147 10.2957 14.0019 10.9341C13.9491 11.0941 13.8419 11.1997 13.6819 11.2541C13.4691 11.3614 13.2563 11.5742 13.0435 11.8925C12.8835 12.2125 12.7779 12.5309 12.7235 12.9037C12.669 13.2765 12.7235 13.6476 12.8307 13.9676C12.8425 13.9915 12.8543 14.0179 12.8667 14.0457L12.8668 14.0457C12.9103 14.1428 12.9615 14.257 13.0435 14.3404C13.2035 14.1804 13.4163 14.1276 13.6291 14.2332C13.8946 14.3404 14.0019 14.6587 13.8946 14.8715C13.8946 14.8977 13.8817 14.9239 13.8686 14.9503C13.8553 14.9771 13.8419 15.0041 13.8419 15.0315C13.7891 14.9788 13.7363 14.9788 13.7891 15.0315L13.7823 15.0332Z" fill="#1D1D1B"/>
<mask id="mask0" mask-type="alpha" maskUnits="userSpaceOnUse" x="4" y="3" width="28" height="32">
<path fill-rule="evenodd" clip-rule="evenodd" d="M30.6469 34.0241C30.9652 33.8113 31.1252 33.3857 30.9124 33.0129L30.9158 33.0095C30.8086 32.904 30.6486 32.6384 30.5958 32.3184L30.5792 32.2917C29.616 30.7389 27.6189 27.5196 27.9896 25.4564C28.3069 23.8646 28.9965 22.5908 29.6855 21.3181L29.6919 21.3062C30.7558 19.3383 31.8725 17.2632 31.8725 14.0187C31.8725 10.8251 30.5958 8.16615 28.4679 6.25107C26.2873 4.28321 23.2555 3.1665 19.9564 3.1665C19.2653 3.1665 18.5197 3.21928 17.8286 3.37929C15.1151 3.91041 12.6144 5.34715 10.8066 7.26223C8.94597 9.23009 7.77479 11.678 7.77479 14.0714C7.77479 14.5515 7.77479 14.9771 7.88033 15.4554C7.9331 15.7737 7.08195 17.2105 6.17803 18.7L6.16003 18.7293C5.74048 19.4123 5.32237 20.0929 5.00685 20.7223C4.95838 20.8693 4.90848 20.9703 4.85979 21.0689C4.85546 21.0776 4.85114 21.0864 4.84683 21.0951C4.68682 21.4679 4.73959 21.839 4.8996 22.159C5.05962 22.4791 5.32688 22.7446 5.64521 22.9047C5.75246 23.0119 5.91077 23.0647 6.01801 23.0647C6.33805 23.1702 6.81639 23.2775 7.24197 23.3302C7.13642 23.6503 7.02918 23.9686 6.81639 24.3414C6.65638 24.7142 6.81639 25.1925 7.24197 25.4053H7.29474C7.13472 25.5109 7.02748 25.6709 6.97471 25.8309C6.81469 26.2565 7.08025 26.6821 7.45305 26.7893C7.9331 26.8948 7.88033 27.1076 7.77308 27.4277C7.5603 28.0133 7.40028 28.7589 7.77308 29.6628C7.77308 29.7173 7.82585 29.77 7.82585 29.77C8.62423 31.2068 11.7088 31.6323 13.7839 31.8979C13.8782 31.93 13.9724 31.9432 14.0882 31.9594C14.169 31.9707 14.2604 31.9835 14.3695 32.0051C14.9551 32.0579 15.3279 32.2179 15.5934 32.4835C15.9118 32.8563 16.2318 33.4402 16.6574 34.3986C16.8702 34.7714 17.2957 34.9314 17.6685 34.7714C18.0413 34.5586 18.2014 34.133 18.0413 33.7602C17.5613 32.6435 17.1357 31.8979 16.6574 31.4196C16.0718 30.8884 15.4862 30.6229 14.5823 30.5156C14.5211 30.4841 14.4056 30.4708 14.2675 30.4549C14.1674 30.4434 14.0555 30.4306 13.9439 30.4084C13.7671 30.3806 13.5799 30.3523 13.386 30.323C11.7124 30.0698 9.53124 29.7399 9.10258 29.0244C8.99704 28.6516 9.10258 28.226 9.20982 27.8532C9.21659 27.8279 9.22336 27.8026 9.2301 27.7775C9.43524 27.0127 9.61341 26.3485 8.94426 25.8326C8.98256 25.8392 9.02012 25.8457 9.05702 25.8521C9.32687 25.899 9.5618 25.9399 9.79541 25.9399C10.1682 25.9399 10.541 25.6198 10.541 25.1942C10.541 24.8231 10.221 24.4503 9.79541 24.4503C9.58263 24.3976 9.20982 24.3431 8.83702 24.2903C8.77519 24.2903 8.71279 24.2722 8.66108 24.2572C8.62452 24.2466 8.59332 24.2376 8.57146 24.2376C8.597 24.1729 8.62265 24.1114 8.64759 24.0516C8.72572 23.8642 8.79702 23.6932 8.83702 23.4919C8.83702 23.3847 8.89149 23.2264 8.94426 23.1191C8.99704 23.1191 8.99704 23.0647 8.99704 23.0119C9.04981 22.5863 8.83702 22.2152 8.41145 22.108C8.35055 22.077 8.25562 22.0637 8.14599 22.0482C8.06254 22.0365 7.97059 22.0235 7.87863 22.0007C7.73738 21.9691 7.58679 21.9375 7.43648 21.9061C7.07776 21.831 6.72069 21.7563 6.49636 21.6807C6.44189 21.6279 6.38911 21.6279 6.38911 21.6279C6.33464 21.6279 6.28187 21.5752 6.28187 21.5752V21.5224V21.4696C6.65467 20.7768 7.02748 20.1384 7.50582 19.4473C7.58605 19.308 7.66627 19.1695 7.74591 19.0319C8.67006 17.4355 9.51546 15.9752 9.36814 15.1915C9.31366 14.8204 9.26089 14.4476 9.26089 14.0748C9.26089 12.0542 10.2704 9.9791 11.8671 8.32958C13.5149 6.62728 15.6973 5.35055 18.0907 4.87221C18.7291 4.76496 19.3147 4.71219 19.953 4.71219C22.8776 4.71219 25.5383 5.72336 27.4534 7.42565C29.2629 9.07348 30.3796 11.3614 30.3796 14.0748C30.3796 16.9483 29.3701 18.8089 28.359 20.6185C27.5606 22.0024 26.8167 23.3847 26.4967 25.1942C26.0183 27.8005 28.199 31.4178 29.2629 33.1201C29.3337 33.2377 29.3939 33.3449 29.4482 33.4417C29.5167 33.5637 29.5759 33.6693 29.6357 33.7585C29.8485 34.0768 30.2741 34.2369 30.6469 34.0241ZM12.8257 15.4588C12.3474 15.1388 12.0273 14.7132 11.8673 14.2348C11.7073 13.7565 11.6545 13.2237 11.7073 12.7453C11.7601 12.267 11.9201 11.7869 12.1329 11.3614C12.3457 10.9358 12.6657 10.6157 13.0368 10.403C13.3568 9.60458 13.888 9.02069 14.5263 8.64789C15.1647 8.27509 15.9103 8.0623 16.707 7.95676C17.2398 7.58395 17.8781 7.26562 18.6748 7.15838C19.4204 7.10561 20.2171 7.10561 21.1755 7.37117C21.2819 7.39755 21.3882 7.42436 21.4946 7.45116C21.601 7.47798 21.7074 7.50479 21.8139 7.53118C23.0906 7.84951 24.3145 8.16954 25.3785 9.07346C25.4312 9.07346 25.4857 9.12624 25.5385 9.17901C26.0713 9.60458 26.6024 10.0829 26.9224 11.1469C27.0333 11.1834 27.118 11.2461 27.2128 11.3163C27.2549 11.3474 27.2989 11.38 27.348 11.4124C27.508 11.5724 27.7208 11.838 27.8264 12.1036C28.1464 12.9547 28.0919 13.5931 27.8264 14.0714C27.6664 14.337 27.4536 14.5498 27.2408 14.7625C27.2936 14.8153 27.4008 14.9226 27.4536 15.0281V15.0809C27.6664 15.4009 27.6136 15.8793 27.5063 16.3576C27.3991 16.8359 27.1335 17.316 26.868 17.5816C26.4424 18.0599 25.9113 18.3799 25.3785 18.5927C25.2721 18.6191 25.1789 18.6459 25.0857 18.6727L25.0856 18.6727C24.9925 18.6995 24.8993 18.7264 24.7929 18.7527C24.7929 18.8327 24.7797 18.8991 24.7665 18.9655C24.7533 19.0319 24.7401 19.0983 24.7401 19.1783C24.6873 19.4983 24.6329 19.9239 24.7401 20.6678C24.9001 21.1462 24.9001 21.679 24.9001 22.2101C24.8473 22.7429 24.7929 23.274 24.6346 23.7524C24.3145 25.1364 24.049 26.6259 24.049 28.0609C24.049 29.4449 24.3145 30.7216 25.0074 31.7855C25.1674 31.9983 25.1146 32.3184 24.8473 32.4767C24.6346 32.6367 24.3145 32.5839 24.1562 32.3166C23.3051 31.0927 23.0395 29.6032 23.0395 28.0609C23.0395 26.5714 23.3051 24.9763 23.6779 23.5396C23.7851 23.0613 23.8907 22.5829 23.8907 22.1556C23.8907 21.7284 23.8907 21.3573 23.7834 20.9844C23.4634 20.5061 23.0395 19.9733 22.6122 19.4949C22.0794 18.9093 21.5483 18.431 21.1755 18.111C20.8555 18.2182 20.5371 18.2182 20.2716 18.1637C20.0588 18.111 19.846 18.0037 19.7388 17.8437C19.5787 17.951 19.3659 18.0565 19.1004 18.0565C18.5148 18.1093 17.9837 18.0565 17.5036 17.8965C17.0236 17.7365 16.5997 17.4709 16.2797 17.1509C16.0141 16.8853 15.9069 16.6181 15.8541 16.3525C15.758 16.3842 15.6618 16.4165 15.566 16.4487L15.5656 16.4489C15.5021 16.4702 15.4388 16.4915 15.3758 16.5125C15.0557 16.5653 14.6846 16.6198 14.3118 16.5653C14.2592 16.5479 14.2065 16.5363 14.1539 16.5246C14.0467 16.5009 13.9397 16.4772 13.8335 16.4053C13.5134 16.2452 13.2479 16.0325 13.0879 15.7669C12.9279 15.6614 12.8751 15.5541 12.8223 15.4469L12.8257 15.4588ZM13.7823 15.0332V15.1388C13.7823 15.1916 13.8351 15.246 13.8351 15.246C13.8878 15.3533 13.9951 15.4588 14.1551 15.5116C14.2079 15.5644 14.3151 15.5644 14.3679 15.5644C14.5611 15.6123 14.7543 15.5732 14.9871 15.5261L15.059 15.5116C15.0858 15.5049 15.1135 15.4983 15.1417 15.4915C15.3371 15.4443 15.5575 15.391 15.6974 15.2988C15.724 15.2182 15.7644 15.1375 15.8047 15.0571C15.8444 14.9779 15.884 14.899 15.9102 14.8205C16.0174 14.6077 16.123 14.4476 16.2302 14.3421C16.443 14.0765 16.763 13.8093 17.2414 13.651C17.4542 13.5982 17.7197 13.5982 17.987 13.651C18.1998 13.3854 18.4653 13.1726 18.7853 12.9598C19.1582 12.7471 19.6893 12.587 20.3276 12.5343C20.5932 12.1087 21.0188 11.7359 21.6044 11.4703C22.1899 11.2575 22.9339 11.1503 23.6795 11.3631C23.945 11.4159 24.105 11.6831 24.0523 11.9487C23.9995 12.2142 23.7322 12.3743 23.4667 12.3215C22.9338 12.1615 22.4027 12.2142 21.9772 12.3743C21.4988 12.5343 21.1788 12.8526 21.126 13.1182C21.0732 13.3309 20.8605 13.491 20.6477 13.491C20.0621 13.491 19.6365 13.5982 19.3182 13.7565C18.9998 13.9148 18.7853 14.1821 18.627 14.4476C18.5198 14.6604 18.2015 14.7677 17.9887 14.6604C17.8287 14.5532 17.6686 14.5532 17.5631 14.6077C17.3503 14.6604 17.1375 14.8205 17.0303 14.9805C16.9758 15.035 16.9354 15.089 16.8949 15.1431L16.8949 15.1431C16.8558 15.1954 16.8166 15.2478 16.7647 15.3005L16.7117 15.4061C16.676 15.4773 16.64 15.5489 16.6047 15.6205V15.7278C16.6575 15.9933 16.712 16.2606 16.8703 16.4189C17.0831 16.6317 17.3486 16.7917 17.6686 16.8973C18.0414 17.0045 18.4142 17.0573 18.8926 17.0045C18.9708 17.0045 19.0763 16.9193 19.2102 16.8111L19.2102 16.8111C19.2599 16.771 19.3134 16.7277 19.3709 16.6845C19.5837 16.5245 19.9038 16.5245 20.0621 16.7372C20.1148 16.79 20.1693 16.8445 20.1693 16.95C20.2221 17.11 20.2766 17.2156 20.3821 17.2156C20.4893 17.2684 20.7021 17.2156 20.9677 17.11C21.1277 17.0573 21.3405 17.0573 21.5005 17.2156L21.5492 17.2574C21.9314 17.585 22.5913 18.1509 23.2028 18.8651C23.2818 18.9441 23.3475 19.0231 23.413 19.1019L23.4131 19.1019C23.4803 19.1827 23.5474 19.2633 23.6284 19.3435C23.6284 19.2907 23.6416 19.2507 23.6548 19.2107C23.668 19.1707 23.6812 19.1307 23.6812 19.0779C23.6812 19.0251 23.6944 18.9851 23.7075 18.9451C23.7207 18.9051 23.7339 18.8651 23.7339 18.8123H23.6267C23.3611 18.7596 23.2011 18.4923 23.2011 18.2268C23.2539 17.9612 23.5211 17.8012 23.7867 17.8012C23.8667 17.8012 23.9331 17.8144 23.9995 17.8276C24.0659 17.8408 24.1323 17.8539 24.2123 17.8539C24.4778 17.8539 24.7451 17.8012 24.9579 17.6939C25.3835 17.5339 25.7563 17.2684 26.0746 16.8956C26.2346 16.7355 26.3946 16.4172 26.5002 16.0972L26.5034 16.0843L26.5034 16.0843C26.5551 15.8758 26.6063 15.6694 26.5529 15.5644C26.4457 15.4043 26.2874 15.2988 26.1274 15.2443H26.0746C25.7546 15.1371 25.2762 15.1371 24.7979 15.2443C23.8939 15.4043 22.8828 15.8299 22.1916 16.2555H22.1389C21.9261 16.4155 21.6061 16.3083 21.4477 16.0955C21.2894 15.8827 21.395 15.5644 21.6078 15.4043H21.6605C22.4589 14.9788 23.5756 14.5004 24.5868 14.2876C25.1724 14.1804 25.7035 14.1804 26.1835 14.2876C26.5036 14.1276 26.7691 13.9148 26.9291 13.702C27.0892 13.4365 27.0892 13.0637 26.8764 12.5309C26.8435 12.4312 26.7895 12.3526 26.7407 12.2817L26.7407 12.2816C26.7111 12.2387 26.6835 12.1985 26.6636 12.1581C26.6108 12.1053 26.5036 12.0508 26.398 11.998C26.1852 11.9453 26.0252 11.838 26.0252 11.6252C25.8124 10.7213 25.3869 10.3485 24.9085 9.97571C24.8821 9.94933 24.8553 9.93613 24.8285 9.92294C24.8017 9.90975 24.7749 9.89655 24.7485 9.87017C23.8446 9.12456 22.7279 8.80623 21.6095 8.54067L21.6093 8.54063C21.3966 8.48787 21.1838 8.43512 20.9711 8.38066C20.1727 8.16787 19.5344 8.1151 18.9488 8.22064C18.2576 8.32789 17.7248 8.59345 17.352 8.91178C17.2992 8.96455 17.192 9.01732 17.0865 9.01732C16.3408 9.12456 15.7025 9.28288 15.1186 9.55014C14.5858 9.87017 14.2147 10.2957 14.0019 10.9341C13.9491 11.0941 13.8419 11.1997 13.6819 11.2541C13.4691 11.3614 13.2563 11.5742 13.0435 11.8925C12.8835 12.2125 12.7779 12.5309 12.7235 12.9037C12.669 13.2765 12.7235 13.6476 12.8307 13.9676C12.8425 13.9915 12.8543 14.0179 12.8667 14.0457L12.8668 14.0457C12.9103 14.1428 12.9615 14.257 13.0435 14.3404C13.2035 14.1804 13.4163 14.1276 13.6291 14.2332C13.8946 14.3404 14.0019 14.6587 13.8946 14.8715C13.8946 14.8977 13.8817 14.9239 13.8686 14.9503C13.8553 14.9771 13.8419 15.0041 13.8419 15.0315C13.7891 14.9788 13.7363 14.9788 13.7891 15.0315L13.7823 15.0332Z" fill="white"/>
</mask>
<g mask="url(#mask0)">
<rect width="38" height="38" fill="#0079C8"/>
</g>
</svg>
