<svg width="38" height="38" viewBox="0 0 38 38" fill="none" xmlns="http://www.w3.org/2000/svg">
<path fill-rule="evenodd" clip-rule="evenodd" d="M23.7581 21.5025C21.6466 21.5025 19.8834 19.857 19.7666 17.7425C19.7666 17.507 19.5905 17.3903 19.4144 17.3903H19.356H19.0621C16.9476 17.3903 15.1873 15.7458 15.0706 13.6333C14.9528 12.2233 15.599 10.8716 16.7744 10.0524C17.3028 9.7001 17.9499 9.46461 18.1844 9.40623C21.2953 8.40785 24.2915 6.47146 27.2252 3.59309C27.813 3.06471 28.753 3.00534 29.3398 3.53471L32.0361 5.76399C32.6822 6.29236 32.7999 7.23236 32.2716 7.93489C28.7106 12.5477 28.226 15.6488 27.9317 17.5319L27.9268 17.5634L27.8684 17.9751C27.7848 18.3504 27.7011 18.5779 27.6179 18.8045C27.5839 18.8969 27.55 18.9891 27.5162 19.0912C26.87 20.4428 25.6362 21.3205 24.1707 21.4412C23.9439 21.4974 23.8814 21.4995 23.7719 21.5031L23.7591 21.5035L23.7581 21.5025ZM8.02538 34.4775C8.31925 34.712 8.61313 34.8297 8.96538 34.8297V34.8327C9.43538 34.8327 9.78763 34.5982 10.0815 34.3043C15.5978 27.848 20.5887 25.6741 21.5871 25.3219L21.7632 25.2635C22.1164 25.1457 22.4093 24.9696 22.6448 24.7935C23.2326 24.3235 23.6432 23.7357 23.9371 23.0896L24.3487 21.9735L23.1732 22.0912C22.1778 22.1496 21.2378 21.8558 20.4739 21.2096C19.8278 20.6832 19.4162 19.9787 19.2401 19.2149C19.1223 18.5687 18.5355 18.0394 17.8301 17.981C17.0662 17.8632 16.3617 17.5694 15.7739 17.0994C15.3623 16.7461 15.0694 16.3939 14.8339 15.9239C14.5984 15.5132 14.4807 15.1016 14.4223 14.6316L14.3046 13.5155L13.3062 14.1032C12.6017 14.5149 12.0723 15.1016 11.7201 15.8071C11.7201 15.8266 11.707 15.866 11.6808 15.945C11.6286 16.102 11.5245 16.4155 11.3678 17.041V17.0994C11.0769 18.6271 9.84304 24.0257 5.08764 30.1327C4.55926 30.7175 4.67602 31.5991 5.26377 32.1275L6.32151 33.0091C6.32151 33.0091 6.90926 33.5958 8.02538 34.4775ZM13.2507 16.0436L13.2517 16.0416L13.2497 16.0406L13.2507 16.0436ZM13.1323 16.2207C13.1766 16.1618 13.221 16.1027 13.2507 16.0436C13.29 16.1617 13.3556 16.2794 13.4299 16.4127L13.4299 16.4127L13.4299 16.4128C13.4664 16.4783 13.505 16.5476 13.5435 16.6225C13.8374 17.2686 14.3074 17.797 14.8358 18.267C15.5967 18.9141 16.5951 19.3247 17.6528 19.4424C17.7706 19.4424 17.8289 19.5018 17.8289 19.5602C18.0644 20.6763 18.6512 21.6173 19.5328 22.3218C20.2344 22.9096 21.0566 23.2618 21.9382 23.4379C21.8798 23.4379 21.8205 23.4973 21.7621 23.5557C21.7281 23.5557 21.6543 23.5952 21.5059 23.6747C21.3993 23.7318 21.2541 23.8095 21.0576 23.9079H20.9992C19.8831 24.3779 14.6577 26.6666 8.96526 33.3049C7.90752 32.4233 7.26139 31.8949 7.26139 31.8949L6.20365 31.0133C11.2529 24.6718 12.4868 18.92 12.7807 17.3339C12.8107 17.1991 12.8369 17.0757 12.8603 16.9657L12.8603 16.9656C12.9286 16.6444 12.9727 16.4374 13.0162 16.3939C13.0454 16.3364 13.0888 16.2786 13.1323 16.2207ZM21.2356 17.6871C21.1733 16.6887 20.354 15.9832 19.414 15.9832L19.415 15.9852C19.3566 15.9852 19.2973 15.9852 19.2389 15.8734H19.0628C17.7705 15.8734 16.6544 14.875 16.5366 13.5234C16.4773 12.6418 16.8889 11.7602 17.6528 11.2318C17.8586 11.0772 18.2007 10.9676 18.4005 10.9037C18.4284 10.8947 18.4534 10.8867 18.475 10.8795H18.5928C22.0005 9.76342 25.1698 7.76567 28.2807 4.71414C28.3174 4.678 28.3314 4.68661 28.3506 4.69842C28.3624 4.70568 28.3762 4.71414 28.3984 4.71414L31.1007 6.94342C31.1007 6.96285 31.1071 6.98238 31.1136 7.00195C31.1266 7.0412 31.1396 7.08059 31.1007 7.11955C27.2843 12.0511 26.7559 15.3994 26.462 17.3942L26.4036 17.7465C26.3443 18.1571 26.2859 18.3332 26.1681 18.5687C25.7565 19.391 24.9372 19.9787 23.9972 20.0371C22.5279 20.1509 21.3534 19.0971 21.2356 17.7455V17.6871Z" fill="#1D1D1B"/>
<mask id="mask0" mask-type="alpha" maskUnits="userSpaceOnUse" x="4" y="3" width="29" height="32">
<path fill-rule="evenodd" clip-rule="evenodd" d="M23.7581 21.5025C21.6466 21.5025 19.8834 19.857 19.7666 17.7425C19.7666 17.507 19.5905 17.3903 19.4144 17.3903H19.356H19.0621C16.9476 17.3903 15.1873 15.7458 15.0706 13.6333C14.9528 12.2233 15.599 10.8716 16.7744 10.0524C17.3028 9.7001 17.9499 9.46461 18.1844 9.40623C21.2953 8.40785 24.2915 6.47146 27.2252 3.59309C27.813 3.06471 28.753 3.00534 29.3398 3.53471L32.0361 5.76399C32.6822 6.29236 32.7999 7.23236 32.2716 7.93489C28.7106 12.5477 28.226 15.6488 27.9317 17.5319L27.9268 17.5634L27.8684 17.9751C27.7848 18.3504 27.7011 18.5779 27.6179 18.8045C27.5839 18.8969 27.55 18.9891 27.5162 19.0912C26.87 20.4428 25.6362 21.3205 24.1707 21.4412C23.9439 21.4974 23.8814 21.4995 23.7719 21.5031L23.7591 21.5035L23.7581 21.5025ZM8.02538 34.4775C8.31925 34.712 8.61313 34.8297 8.96538 34.8297V34.8327C9.43538 34.8327 9.78763 34.5982 10.0815 34.3043C15.5978 27.848 20.5887 25.6741 21.5871 25.3219L21.7632 25.2635C22.1164 25.1457 22.4093 24.9696 22.6448 24.7935C23.2326 24.3235 23.6432 23.7357 23.9371 23.0896L24.3487 21.9735L23.1732 22.0912C22.1778 22.1496 21.2378 21.8558 20.4739 21.2096C19.8278 20.6832 19.4162 19.9787 19.2401 19.2149C19.1223 18.5687 18.5355 18.0394 17.8301 17.981C17.0662 17.8632 16.3617 17.5694 15.7739 17.0994C15.3623 16.7461 15.0694 16.3939 14.8339 15.9239C14.5984 15.5132 14.4807 15.1016 14.4223 14.6316L14.3046 13.5155L13.3062 14.1032C12.6017 14.5149 12.0723 15.1016 11.7201 15.8071C11.7201 15.8266 11.707 15.866 11.6808 15.945C11.6286 16.102 11.5245 16.4155 11.3678 17.041V17.0994C11.0769 18.6271 9.84304 24.0257 5.08764 30.1327C4.55926 30.7175 4.67602 31.5991 5.26377 32.1275L6.32151 33.0091C6.32151 33.0091 6.90926 33.5958 8.02538 34.4775ZM13.2507 16.0436L13.2517 16.0416L13.2497 16.0406L13.2507 16.0436ZM13.1323 16.2207C13.1766 16.1618 13.221 16.1027 13.2507 16.0436C13.29 16.1617 13.3556 16.2794 13.4299 16.4127L13.4299 16.4127L13.4299 16.4128C13.4664 16.4783 13.505 16.5476 13.5435 16.6225C13.8374 17.2686 14.3074 17.797 14.8358 18.267C15.5967 18.9141 16.5951 19.3247 17.6528 19.4424C17.7706 19.4424 17.8289 19.5018 17.8289 19.5602C18.0644 20.6763 18.6512 21.6173 19.5328 22.3218C20.2344 22.9096 21.0566 23.2618 21.9382 23.4379C21.8798 23.4379 21.8205 23.4973 21.7621 23.5557C21.7281 23.5557 21.6543 23.5952 21.5059 23.6747C21.3993 23.7318 21.2541 23.8095 21.0576 23.9079H20.9992C19.8831 24.3779 14.6577 26.6666 8.96526 33.3049C7.90752 32.4233 7.26139 31.8949 7.26139 31.8949L6.20365 31.0133C11.2529 24.6718 12.4868 18.92 12.7807 17.3339C12.8107 17.1991 12.8369 17.0757 12.8603 16.9657L12.8603 16.9656C12.9286 16.6444 12.9727 16.4374 13.0162 16.3939C13.0454 16.3364 13.0888 16.2786 13.1323 16.2207ZM21.2356 17.6871C21.1733 16.6887 20.354 15.9832 19.414 15.9832L19.415 15.9852C19.3566 15.9852 19.2973 15.9852 19.2389 15.8734H19.0628C17.7705 15.8734 16.6544 14.875 16.5366 13.5234C16.4773 12.6418 16.8889 11.7602 17.6528 11.2318C17.8586 11.0772 18.2007 10.9676 18.4005 10.9037C18.4284 10.8947 18.4534 10.8867 18.475 10.8795H18.5928C22.0005 9.76342 25.1698 7.76567 28.2807 4.71414C28.3174 4.678 28.3314 4.68661 28.3506 4.69842C28.3624 4.70568 28.3762 4.71414 28.3984 4.71414L31.1007 6.94342C31.1007 6.96285 31.1071 6.98238 31.1136 7.00195C31.1266 7.0412 31.1396 7.08059 31.1007 7.11955C27.2843 12.0511 26.7559 15.3994 26.462 17.3942L26.4036 17.7465C26.3443 18.1571 26.2859 18.3332 26.1681 18.5687C25.7565 19.391 24.9372 19.9787 23.9972 20.0371C22.5279 20.1509 21.3534 19.0971 21.2356 17.7455V17.6871Z" fill="white"/>
</mask>
<g mask="url(#mask0)">
<rect width="38" height="38" fill="#0079C8"/>
</g>
</svg>
