<svg width="38" height="38" viewBox="0 0 38 38" fill="none" xmlns="http://www.w3.org/2000/svg">
<path fill-rule="evenodd" clip-rule="evenodd" d="M30.2383 4.75C32.3108 4.75 33.5103 5.62295 34.0547 6.27518V6.27617C34.7099 7.257 35.0345 8.45657 34.701 9.65712C34.5931 10.0936 34.3734 10.4212 34.1566 10.6379C34.1566 10.7468 34.0487 10.8547 34.0487 10.8547C34.0487 10.9626 34.0487 11.2902 33.9409 11.5069C33.832 12.0513 33.7211 12.4868 33.5044 12.9232C33.4482 13.0082 33.3991 13.0859 33.3534 13.1582L33.3534 13.1583C33.223 13.3646 33.1206 13.5268 32.96 13.6873C32.6324 14.5603 31.5427 15.2125 30.3432 15.2125C30.2329 15.2125 30.0955 15.1854 29.9586 15.1583C29.8226 15.1314 29.6871 15.1046 29.5791 15.1046C28.818 14.9967 28.0549 14.5603 27.6184 14.0159C27.2908 13.4686 27.0741 12.9242 27.0741 12.3799C26.4218 12.1602 25.9854 11.8355 25.6578 11.5079C25.5476 14.216 23.9328 16.7099 22.7354 18.5593L22.7133 18.5935C22.5687 18.8526 22.4092 19.1193 22.2548 19.3775L22.2548 19.3776L22.2548 19.3776L22.2547 19.3776L22.2547 19.3777C21.8248 20.0966 21.4344 20.7496 21.5137 20.9906C21.5968 21.3178 21.6788 21.462 21.7601 21.605L21.7601 21.605C21.7873 21.6528 21.8143 21.7004 21.8413 21.7547C21.8826 21.8366 21.9276 21.9147 21.975 21.9968C22.1801 22.3524 22.4293 22.7845 22.6054 23.9351C23.1527 26.4401 21.6246 31.4571 21.5167 31.6738C21.4088 32.0024 21.1891 32.1103 20.9723 32.1103H16.9392C16.7224 32.1103 16.5027 31.8906 16.3948 31.6738C16.3948 31.6338 16.3427 31.4298 16.2605 31.1081C15.898 29.6893 14.9503 25.9795 15.3061 23.9351C15.5228 23.0621 15.6337 22.7375 15.8505 22.4099C15.892 22.326 15.9177 22.2583 15.9396 22.2007C15.975 22.1072 16.0005 22.0401 16.0672 21.9734C16.2869 21.7567 16.3958 21.5369 16.5037 20.9926C16.607 20.6817 15.9107 19.5675 15.3734 18.7079L15.3031 18.5954L15.2797 18.5593C14.0814 16.7101 12.4658 14.217 12.3587 11.5099C12.0311 11.8375 11.5946 12.1651 10.9423 12.3819C11.0502 12.9292 10.8345 13.5814 10.398 14.0179C9.85363 14.5623 9.2014 14.9987 8.43732 15.1066C8.10972 15.2145 7.89 15.2145 7.67324 15.2145C6.47566 15.2145 5.49582 14.5613 5.05638 13.6863C4.89494 13.5227 4.79224 13.3607 4.66078 13.1533L4.66077 13.1533C4.61573 13.0822 4.56733 13.0058 4.51202 12.9223C4.40117 12.4868 4.2923 12.0503 4.18442 11.5059C4.12968 11.3975 4.10246 11.288 4.07521 11.1783C4.04827 11.07 4.0213 10.9615 3.96767 10.8537C3.96767 10.8537 3.96767 10.7448 3.85979 10.637C3.64303 10.4202 3.42331 10.0926 3.31543 9.65613C2.98684 8.45558 3.20359 7.14714 3.96767 6.27518C4.62287 5.62196 5.71158 4.75 7.78409 4.75C8.21958 4.75 8.65605 4.75 9.20041 4.85788C11.0532 5.18548 12.037 5.72984 12.6892 6.16631C13.5622 6.71067 14.1055 6.82152 15.3061 6.49392C15.5977 6.41613 15.8685 6.34179 16.1221 6.27216L16.1222 6.27214C17.2917 5.95107 18.0976 5.72984 18.9028 5.72984C19.8826 5.72984 20.9743 5.94956 22.4995 6.49392C23.7001 6.81855 24.2444 6.71067 25.1164 6.16631C25.8775 5.72984 26.9692 5.18548 28.8219 4.85788C29.2574 4.75 29.8018 4.75 30.2383 4.75ZM8.21933 14.1248C8.76369 14.0129 9.20016 13.6883 9.52776 13.3607C9.74452 13.0321 9.8524 12.5966 9.85537 12.3799C9.74452 11.7276 9.09129 11.2911 8.21933 11.2911H7.67498C7.13062 11.403 6.5833 11.6188 6.36654 12.0552C6.03894 12.3799 5.93106 12.8163 6.03894 13.1439C6.14682 13.908 7.13062 14.3415 8.21933 14.1248ZM10.6166 11.4001C10.1802 10.636 9.20031 10.1995 8.10863 10.1995C7.81057 9.80241 7.42239 9.6773 7.11031 9.57671L7.11024 9.57669C7.07934 9.56673 7.04917 9.55701 7.01992 9.54729C6.84011 9.45799 6.71607 9.40549 6.62481 9.36686C6.49456 9.31172 6.43112 9.28487 6.36768 9.21969C6.2598 8.89208 6.36768 8.56745 6.47557 8.34773C6.80317 7.91125 7.45639 7.69549 8.1116 7.80337C9.85651 8.13097 11.2728 9.21969 11.928 10.3114C11.8162 10.5281 11.3807 11.0725 10.6166 11.4001ZM29.805 11.1833C29.0409 11.1833 28.2769 11.6198 28.169 12.272C28.169 12.5976 28.2769 13.0331 28.4966 13.2528C28.8242 13.6893 29.2607 13.909 29.805 14.0169C30.8967 14.2366 31.8775 13.8001 31.9854 13.0361C32.0943 12.5996 31.9854 12.275 31.6578 11.9474C31.3302 11.5109 30.8937 11.2912 30.3494 11.1833H29.805ZM29.9136 10.1995C28.8249 10.1995 27.9529 10.6359 27.4056 11.399C26.7514 11.1185 26.3381 10.6791 26.0967 10.4225L26.0966 10.4225C26.0561 10.3794 26.0205 10.3415 25.9893 10.3103C26.6415 9.2216 28.0618 8.12992 29.8057 7.80232C30.5698 7.69444 31.222 7.9102 31.4418 8.34667C31.6585 8.56343 31.6585 8.89103 31.5496 9.21863C31.5496 9.32651 31.3329 9.43539 31.0053 9.54624C30.9721 9.55746 30.9378 9.56864 30.9025 9.58012C30.5898 9.68192 30.2054 9.8071 29.9136 10.1985V10.1995ZM33.5837 9.50697C33.5956 9.4831 33.6075 9.45925 33.6193 9.43544L33.6184 9.43346C33.8381 8.5615 33.7262 7.68855 33.1819 7.03631C32.4218 6.05548 30.8936 5.62 29.0408 5.9476C27.4078 6.27521 26.5358 6.71069 25.7717 7.14716C24.7909 7.69152 23.9189 8.12799 22.2829 7.58364C22.0404 7.51425 21.8118 7.44762 21.5955 7.38461C20.4516 7.05128 19.6564 6.81956 19.0138 6.81956C18.2127 6.81956 17.3196 7.0961 16.0814 7.47954C15.9719 7.51344 15.8597 7.54818 15.7447 7.58364C14.1087 8.01912 13.2367 7.69152 12.2559 7.14716C11.6036 6.71168 10.6228 6.27521 8.98677 5.9476C7.13497 5.62 5.60979 6.05548 4.84571 7.03631C4.30135 7.68855 4.19248 8.5615 4.40923 9.43346C4.40923 9.65021 4.62896 9.86993 4.73684 9.97781C4.76535 10.0346 4.79379 10.0841 4.82024 10.1301C4.89481 10.2599 4.95359 10.3622 4.95359 10.5222C5.06246 10.634 5.17034 10.9586 5.17034 11.2862C5.27822 11.3971 5.27822 11.506 5.27822 11.6138C5.33254 11.5585 5.35975 11.5037 5.38679 11.4493C5.41394 11.3946 5.44091 11.3403 5.49498 11.2862C5.81961 10.9586 6.14721 10.7389 6.58369 10.5222C6.1482 10.4133 5.60385 10.1936 5.38413 9.54134C5.1644 8.8891 5.27327 8.23291 5.60088 7.68855C6.14523 6.92447 7.12606 6.49097 8.32562 6.70772C10.3971 7.03235 12.2499 8.45164 13.014 9.97682C13.0679 9.97682 13.0949 9.97682 13.1084 9.99031C13.1219 10.0038 13.1219 10.0308 13.1219 10.0847C13.3416 10.5212 13.4495 10.8488 13.4495 11.2853C13.4495 13.6824 14.9737 16.1914 16.1742 17.9353C17.1541 19.2437 17.8073 20.3324 17.5906 21.0965C17.3738 21.8606 17.2629 22.0773 17.0462 22.4049C16.9919 22.4603 16.9647 22.5151 16.9376 22.5695C16.9105 22.6242 16.8835 22.6785 16.8294 22.7326C16.7964 22.8321 16.7531 22.9214 16.7058 23.0189C16.5974 23.2423 16.4681 23.509 16.393 24.041C16.0654 25.8938 17.0462 29.5993 17.3738 30.7989H20.6528C20.9814 29.6023 21.9612 25.8938 21.6336 24.041C21.309 22.7335 21.1981 22.5138 20.9814 22.2971C20.9469 22.2449 20.9123 22.1955 20.8781 22.1467C20.6975 21.8886 20.5277 21.6459 20.437 21.0975C20.3363 20.3903 20.8883 19.4975 21.6624 18.2455C21.7247 18.1448 21.7884 18.0418 21.8533 17.9363C21.8998 17.8618 21.9473 17.7858 21.9957 17.7086C23.0788 15.9773 24.5781 13.581 24.5781 11.2862C24.5781 11.0111 24.6654 10.7792 24.757 10.536C24.8107 10.3934 24.8658 10.247 24.9057 10.0857C25.0136 10.0857 25.0136 9.97781 25.0136 9.97781C25.6698 8.45362 27.6304 7.03631 29.703 6.70871C30.9025 6.48998 31.8833 6.92546 32.4277 7.68954C32.7523 8.23389 32.8612 8.89009 32.6445 9.54233C32.4257 10.1956 31.8814 10.4153 31.4449 10.5232C31.8814 10.635 32.206 10.9596 32.5336 11.2872C32.6008 11.3545 32.6266 11.4225 32.6618 11.5157C32.6836 11.5735 32.7091 11.6408 32.7504 11.7237C32.8582 11.6129 32.8582 11.504 32.8582 11.3961C32.9083 11.2454 32.9354 11.0947 32.9605 10.9547C32.9899 10.7905 33.0167 10.6412 33.075 10.5241C33.075 10.4153 33.1839 10.1956 33.2917 10.0877C33.3904 9.89561 33.4875 9.70042 33.5837 9.50697Z" fill="#1D1D1B"/>
<mask id="mask0" mask-type="alpha" maskUnits="userSpaceOnUse" x="3" y="4" width="32" height="29">
<path fill-rule="evenodd" clip-rule="evenodd" d="M30.2383 4.75C32.3108 4.75 33.5103 5.62295 34.0547 6.27518V6.27617C34.7099 7.257 35.0345 8.45657 34.701 9.65712C34.5931 10.0936 34.3734 10.4212 34.1566 10.6379C34.1566 10.7468 34.0487 10.8547 34.0487 10.8547C34.0487 10.9626 34.0487 11.2902 33.9409 11.5069C33.832 12.0513 33.7211 12.4868 33.5044 12.9232C33.4482 13.0082 33.3991 13.0859 33.3534 13.1582L33.3534 13.1583C33.223 13.3646 33.1206 13.5268 32.96 13.6873C32.6324 14.5603 31.5427 15.2125 30.3432 15.2125C30.2329 15.2125 30.0955 15.1854 29.9586 15.1583C29.8226 15.1314 29.6871 15.1046 29.5791 15.1046C28.818 14.9967 28.0549 14.5603 27.6184 14.0159C27.2908 13.4686 27.0741 12.9242 27.0741 12.3799C26.4218 12.1602 25.9854 11.8355 25.6578 11.5079C25.5476 14.216 23.9328 16.7099 22.7354 18.5593L22.7133 18.5935C22.5687 18.8526 22.4092 19.1193 22.2548 19.3775L22.2548 19.3776L22.2548 19.3776L22.2547 19.3776L22.2547 19.3777C21.8248 20.0966 21.4344 20.7496 21.5137 20.9906C21.5968 21.3178 21.6788 21.462 21.7601 21.605L21.7601 21.605C21.7873 21.6528 21.8143 21.7004 21.8413 21.7547C21.8826 21.8366 21.9276 21.9147 21.975 21.9968C22.1801 22.3524 22.4293 22.7845 22.6054 23.9351C23.1527 26.4401 21.6246 31.4571 21.5167 31.6738C21.4088 32.0024 21.1891 32.1103 20.9723 32.1103H16.9392C16.7224 32.1103 16.5027 31.8906 16.3948 31.6738C16.3948 31.6338 16.3427 31.4298 16.2605 31.1081C15.898 29.6893 14.9503 25.9795 15.3061 23.9351C15.5228 23.0621 15.6337 22.7375 15.8505 22.4099C15.892 22.326 15.9177 22.2583 15.9396 22.2007C15.975 22.1072 16.0005 22.0401 16.0672 21.9734C16.2869 21.7567 16.3958 21.5369 16.5037 20.9926C16.607 20.6817 15.9107 19.5675 15.3734 18.7079L15.3031 18.5954L15.2797 18.5593C14.0814 16.7101 12.4658 14.217 12.3587 11.5099C12.0311 11.8375 11.5946 12.1651 10.9423 12.3819C11.0502 12.9292 10.8345 13.5814 10.398 14.0179C9.85363 14.5623 9.2014 14.9987 8.43732 15.1066C8.10972 15.2145 7.89 15.2145 7.67324 15.2145C6.47566 15.2145 5.49582 14.5613 5.05638 13.6863C4.89494 13.5227 4.79224 13.3607 4.66078 13.1533L4.66077 13.1533C4.61573 13.0822 4.56733 13.0058 4.51202 12.9223C4.40117 12.4868 4.2923 12.0503 4.18442 11.5059C4.12968 11.3975 4.10246 11.288 4.07521 11.1783C4.04827 11.07 4.0213 10.9615 3.96767 10.8537C3.96767 10.8537 3.96767 10.7448 3.85979 10.637C3.64303 10.4202 3.42331 10.0926 3.31543 9.65613C2.98684 8.45558 3.20359 7.14714 3.96767 6.27518C4.62287 5.62196 5.71158 4.75 7.78409 4.75C8.21958 4.75 8.65605 4.75 9.20041 4.85788C11.0532 5.18548 12.037 5.72984 12.6892 6.16631C13.5622 6.71067 14.1055 6.82152 15.3061 6.49392C15.5977 6.41613 15.8685 6.34179 16.1221 6.27216L16.1222 6.27214C17.2917 5.95107 18.0976 5.72984 18.9028 5.72984C19.8826 5.72984 20.9743 5.94956 22.4995 6.49392C23.7001 6.81855 24.2444 6.71067 25.1164 6.16631C25.8775 5.72984 26.9692 5.18548 28.8219 4.85788C29.2574 4.75 29.8018 4.75 30.2383 4.75ZM8.21933 14.1248C8.76369 14.0129 9.20016 13.6883 9.52776 13.3607C9.74452 13.0321 9.8524 12.5966 9.85537 12.3799C9.74452 11.7276 9.09129 11.2911 8.21933 11.2911H7.67498C7.13062 11.403 6.5833 11.6188 6.36654 12.0552C6.03894 12.3799 5.93106 12.8163 6.03894 13.1439C6.14682 13.908 7.13062 14.3415 8.21933 14.1248ZM10.6166 11.4001C10.1802 10.636 9.20031 10.1995 8.10863 10.1995C7.81057 9.80241 7.42239 9.6773 7.11031 9.57671L7.11024 9.57669C7.07934 9.56673 7.04917 9.55701 7.01992 9.54729C6.84011 9.45799 6.71607 9.40549 6.62481 9.36686C6.49456 9.31172 6.43112 9.28487 6.36768 9.21969C6.2598 8.89208 6.36768 8.56745 6.47557 8.34773C6.80317 7.91125 7.45639 7.69549 8.1116 7.80337C9.85651 8.13097 11.2728 9.21969 11.928 10.3114C11.8162 10.5281 11.3807 11.0725 10.6166 11.4001ZM29.805 11.1833C29.0409 11.1833 28.2769 11.6198 28.169 12.272C28.169 12.5976 28.2769 13.0331 28.4966 13.2528C28.8242 13.6893 29.2607 13.909 29.805 14.0169C30.8967 14.2366 31.8775 13.8001 31.9854 13.0361C32.0943 12.5996 31.9854 12.275 31.6578 11.9474C31.3302 11.5109 30.8937 11.2912 30.3494 11.1833H29.805ZM29.9136 10.1995C28.8249 10.1995 27.9529 10.6359 27.4056 11.399C26.7514 11.1185 26.3381 10.6791 26.0967 10.4225L26.0966 10.4225C26.0561 10.3794 26.0205 10.3415 25.9893 10.3103C26.6415 9.2216 28.0618 8.12992 29.8057 7.80232C30.5698 7.69444 31.222 7.9102 31.4418 8.34667C31.6585 8.56343 31.6585 8.89103 31.5496 9.21863C31.5496 9.32651 31.3329 9.43539 31.0053 9.54624C30.9721 9.55746 30.9378 9.56864 30.9025 9.58012C30.5898 9.68192 30.2054 9.8071 29.9136 10.1985V10.1995ZM33.5837 9.50697C33.5956 9.4831 33.6075 9.45925 33.6193 9.43544L33.6184 9.43346C33.8381 8.5615 33.7262 7.68855 33.1819 7.03631C32.4218 6.05548 30.8936 5.62 29.0408 5.9476C27.4078 6.27521 26.5358 6.71069 25.7717 7.14716C24.7909 7.69152 23.9189 8.12799 22.2829 7.58364C22.0404 7.51425 21.8118 7.44762 21.5955 7.38461C20.4516 7.05128 19.6564 6.81956 19.0138 6.81956C18.2127 6.81956 17.3196 7.0961 16.0814 7.47954C15.9719 7.51344 15.8597 7.54818 15.7447 7.58364C14.1087 8.01912 13.2367 7.69152 12.2559 7.14716C11.6036 6.71168 10.6228 6.27521 8.98677 5.9476C7.13497 5.62 5.60979 6.05548 4.84571 7.03631C4.30135 7.68855 4.19248 8.5615 4.40923 9.43346C4.40923 9.65021 4.62896 9.86993 4.73684 9.97781C4.76535 10.0346 4.79379 10.0841 4.82024 10.1301C4.89481 10.2599 4.95359 10.3622 4.95359 10.5222C5.06246 10.634 5.17034 10.9586 5.17034 11.2862C5.27822 11.3971 5.27822 11.506 5.27822 11.6138C5.33254 11.5585 5.35975 11.5037 5.38679 11.4493C5.41394 11.3946 5.44091 11.3403 5.49498 11.2862C5.81961 10.9586 6.14721 10.7389 6.58369 10.5222C6.1482 10.4133 5.60385 10.1936 5.38413 9.54134C5.1644 8.8891 5.27327 8.23291 5.60088 7.68855C6.14523 6.92447 7.12606 6.49097 8.32562 6.70772C10.3971 7.03235 12.2499 8.45164 13.014 9.97682C13.0679 9.97682 13.0949 9.97682 13.1084 9.99031C13.1219 10.0038 13.1219 10.0308 13.1219 10.0847C13.3416 10.5212 13.4495 10.8488 13.4495 11.2853C13.4495 13.6824 14.9737 16.1914 16.1742 17.9353C17.1541 19.2437 17.8073 20.3324 17.5906 21.0965C17.3738 21.8606 17.2629 22.0773 17.0462 22.4049C16.9919 22.4603 16.9647 22.5151 16.9376 22.5695C16.9105 22.6242 16.8835 22.6785 16.8294 22.7326C16.7964 22.8321 16.7531 22.9214 16.7058 23.0189C16.5974 23.2423 16.4681 23.509 16.393 24.041C16.0654 25.8938 17.0462 29.5993 17.3738 30.7989H20.6528C20.9814 29.6023 21.9612 25.8938 21.6336 24.041C21.309 22.7335 21.1981 22.5138 20.9814 22.2971C20.9469 22.2449 20.9123 22.1955 20.8781 22.1467C20.6975 21.8886 20.5277 21.6459 20.437 21.0975C20.3363 20.3903 20.8883 19.4975 21.6624 18.2455C21.7247 18.1448 21.7884 18.0418 21.8533 17.9363C21.8998 17.8618 21.9473 17.7858 21.9957 17.7086C23.0788 15.9773 24.5781 13.581 24.5781 11.2862C24.5781 11.0111 24.6654 10.7792 24.757 10.536C24.8107 10.3934 24.8658 10.247 24.9057 10.0857C25.0136 10.0857 25.0136 9.97781 25.0136 9.97781C25.6698 8.45362 27.6304 7.03631 29.703 6.70871C30.9025 6.48998 31.8833 6.92546 32.4277 7.68954C32.7523 8.23389 32.8612 8.89009 32.6445 9.54233C32.4257 10.1956 31.8814 10.4153 31.4449 10.5232C31.8814 10.635 32.206 10.9596 32.5336 11.2872C32.6008 11.3545 32.6266 11.4225 32.6618 11.5157C32.6836 11.5735 32.7091 11.6408 32.7504 11.7237C32.8582 11.6129 32.8582 11.504 32.8582 11.3961C32.9083 11.2454 32.9354 11.0947 32.9605 10.9547C32.9899 10.7905 33.0167 10.6412 33.075 10.5241C33.075 10.4153 33.1839 10.1956 33.2917 10.0877C33.3904 9.89561 33.4875 9.70042 33.5837 9.50697Z" fill="white"/>
</mask>
<g mask="url(#mask0)">
<rect width="38" height="38" fill="#0079C8"/>
</g>
</svg>
