<svg width="60" height="65" viewBox="0 0 60 65" fill="none" xmlns="http://www.w3.org/2000/svg">
<path fill-rule="evenodd" clip-rule="evenodd" d="M31 64C46.464 64 59 51.464 59 36C59 20.536 46.464 8 31 8C15.536 8 3 20.536 3 36C3 51.464 15.536 64 31 64Z" fill="#7FBCE3"/>
<path d="M29.9999 13.1429C29.4999 13.1429 29.0713 12.7143 29.0713 12.2143V7.57145C29.0713 7.07145 29.4999 6.64288 29.9999 6.64288C30.4999 6.64288 30.9284 7.07145 30.9284 7.57145V12.2143C30.9284 12.7143 30.4999 13.1429 29.9999 13.1429Z" fill="white"/>
<path d="M35.9999 13.9286C35.9284 13.9286 35.857 13.9286 35.7856 13.9286C35.2856 13.7857 34.9999 13.2857 35.1427 12.7857L36.357 8.35712C36.4999 7.85712 36.9999 7.57141 37.4999 7.71426C37.9999 7.85712 38.2856 8.35712 38.1427 8.85712L36.9284 13.2857C36.7856 13.6428 36.357 13.9286 35.9999 13.9286Z" fill="white"/>
<path d="M41.5717 16.2143C41.4288 16.2143 41.2145 16.1429 41.1431 16.0714C40.7145 15.7857 40.5717 15.2143 40.7859 14.7857L43.0717 10.7857C43.3574 10.3572 43.9288 10.2143 44.3574 10.4286C44.7859 10.7143 44.9288 11.2857 44.7145 11.7143L42.4288 15.7143C42.1431 16.0714 41.8574 16.2143 41.5717 16.2143Z" fill="white"/>
<path d="M46.2857 19.9286C46.0714 19.9286 45.8571 19.8572 45.6429 19.6429C45.2857 19.2857 45.2857 18.7143 45.6429 18.3572L48.9286 15.0714C49.2857 14.7143 49.8571 14.7143 50.2143 15.0714C50.5714 15.4286 50.5714 16 50.2143 16.3572L46.9286 19.6429C46.7857 19.7857 46.5714 19.9286 46.2857 19.9286Z" fill="white"/>
<path d="M49.9998 24.6429C49.6427 24.6429 49.3569 24.5 49.2141 24.2143C48.9284 23.7857 49.1427 23.2143 49.5712 22.9286L53.5712 20.6429C53.9998 20.3571 54.5712 20.5714 54.8569 21C55.1427 21.4286 54.9284 22 54.4998 22.2857L50.4998 24.5714C50.2855 24.6429 50.1427 24.6429 49.9998 24.6429Z" fill="white"/>
<path d="M52.2857 30.2143C51.8571 30.2143 51.4999 29.9286 51.3571 29.5C51.2142 29 51.4999 28.5 51.9999 28.3571L56.4285 27.1429C56.9285 27 57.4285 27.2857 57.5714 27.7857C57.7142 28.2857 57.4285 28.7857 56.9285 28.9286L52.4999 30.1429C52.4285 30.2143 52.3571 30.2143 52.2857 30.2143Z" fill="white"/>
<path d="M57.7145 36.2143H53.0716C52.5716 36.2143 52.1431 35.7857 52.1431 35.2857C52.1431 34.7857 52.5716 34.3571 53.0716 34.3571H57.7145C58.2145 34.3571 58.6431 34.7857 58.6431 35.2857C58.6431 35.7857 58.2145 36.2143 57.7145 36.2143Z" fill="white"/>
<path d="M56.7141 43.3571C56.6427 43.3571 56.5712 43.3571 56.4998 43.3571L52.0712 42.1429C51.5712 42 51.2855 41.5 51.4284 41C51.5712 40.5 52.0712 40.2143 52.5712 40.3571L56.9998 41.5714C57.4998 41.7143 57.7855 42.2143 57.6427 42.7143C57.4998 43.1429 57.1427 43.3571 56.7141 43.3571Z" fill="white"/>
<path d="M53.9999 50.0714C53.857 50.0714 53.6427 50 53.5713 49.9286L49.5713 47.6429C49.1427 47.3571 48.9999 46.7857 49.2142 46.3571C49.4999 45.9286 49.9999 45.7857 50.4999 46L54.4999 48.2857C54.9285 48.5714 55.0713 49.1429 54.857 49.5714C54.5713 49.9286 54.2856 50.0714 53.9999 50.0714Z" fill="white"/>
<path d="M49.5714 55.7857C49.3571 55.7857 49.1429 55.7143 48.9286 55.5L45.6429 52.2143C45.2857 51.8571 45.2857 51.2857 45.6429 50.9286C46 50.5714 46.5714 50.5714 46.9286 50.9286L50.2143 54.2143C50.5714 54.5714 50.5714 55.1428 50.2143 55.5C50.0714 55.7143 49.7857 55.7857 49.5714 55.7857Z" fill="white"/>
<path d="M43.8569 60.2143C43.4998 60.2143 43.2141 60.0715 43.0712 59.7857L40.7141 55.7857C40.4284 55.3572 40.6427 54.7857 41.0712 54.5C41.4998 54.2143 42.0712 54.4286 42.3569 54.8572L44.6427 58.8572C44.9284 59.2857 44.7141 59.8572 44.2855 60.1429C44.1427 60.1429 43.9998 60.2143 43.8569 60.2143Z" fill="white"/>
<path d="M37.143 62.9286C36.7144 62.9286 36.3573 62.6429 36.2144 62.2143L35.0002 57.7857C34.8573 57.2857 35.143 56.7857 35.643 56.6429C36.143 56.5 36.643 56.7857 36.7859 57.2857L38.0002 61.7143C38.143 62.2143 37.8573 62.7143 37.3573 62.8571C37.2859 62.9286 37.2144 62.9286 37.143 62.9286Z" fill="white"/>
<path d="M29.9999 63.9286C29.4999 63.9286 29.0713 63.5 29.0713 63V58.3572C29.0713 57.8572 29.4999 57.4286 29.9999 57.4286C30.4999 57.4286 30.9284 57.8572 30.9284 58.3572V63C30.9284 63.5 30.4999 63.9286 29.9999 63.9286Z" fill="white"/>
<path d="M22.8573 62.9286C22.7859 62.9286 22.7144 62.9286 22.643 62.9286C22.143 62.7857 21.8573 62.2857 22.0002 61.7857L23.2144 57.3571C23.3573 56.8571 23.8573 56.5714 24.3573 56.7143C24.8573 56.8571 25.143 57.3571 25.0002 57.8571L23.7859 62.2857C23.5716 62.6428 23.2144 62.9286 22.8573 62.9286Z" fill="white"/>
<path d="M16.143 60.2143C16.0001 60.2143 15.7858 60.1429 15.7144 60.0714C15.2858 59.7857 15.143 59.2143 15.3572 58.7857L17.643 54.7857C17.9287 54.3572 18.5001 54.2143 18.9287 54.4286C19.3572 54.7143 19.5001 55.2857 19.2858 55.7143L17.0001 59.7143C16.7858 60 16.4287 60.2143 16.143 60.2143Z" fill="white"/>
<path d="M10.4288 55.7857C10.2145 55.7857 10.0002 55.7143 9.78592 55.5C9.42878 55.1428 9.42878 54.5714 9.78592 54.2143L13.0716 50.9286C13.4288 50.5714 14.0002 50.5714 14.3574 50.9286C14.7145 51.2857 14.7145 51.8571 14.3574 52.2143L11.0716 55.5C10.8574 55.7143 10.6431 55.7857 10.4288 55.7857Z" fill="white"/>
<path d="M5.99979 50C5.64265 50 5.35694 49.8572 5.21408 49.5715C4.92836 49.1429 5.14265 48.5715 5.57122 48.2857L9.57122 46C9.99979 45.7143 10.5712 45.9286 10.8569 46.3572C11.1427 46.7857 10.9284 47.3572 10.4998 47.6429L6.42836 49.9286C6.35694 50 6.14265 50 5.99979 50Z" fill="white"/>
<path d="M3.28566 43.3572C2.85709 43.3572 2.49994 43.0715 2.35709 42.6429C2.21423 42.1429 2.49994 41.6429 2.99994 41.5L7.42851 40.2857C7.92851 40.1429 8.42852 40.4286 8.57137 40.9286C8.71423 41.4286 8.42851 41.9286 7.92851 42.0715L3.49994 43.2857C3.42852 43.3572 3.35709 43.3572 3.28566 43.3572Z" fill="white"/>
<path d="M6.92836 36.2143H2.2855C1.7855 36.2143 1.35693 35.7857 1.35693 35.2857C1.35693 34.7857 1.7855 34.3571 2.2855 34.3571H6.92836C7.42836 34.3571 7.85693 34.7857 7.85693 35.2857C7.85693 35.7857 7.42836 36.2143 6.92836 36.2143Z" fill="white"/>
<path d="M7.71409 30.2143C7.64266 30.2143 7.57123 30.2143 7.4998 30.2143L3.07123 29C2.57123 28.8571 2.28552 28.3571 2.42838 27.8571C2.57123 27.3571 3.07123 27.0714 3.57123 27.2143L7.9998 28.4286C8.4998 28.5714 8.78552 29.0714 8.64266 29.5714C8.4998 29.9286 8.14266 30.2143 7.71409 30.2143Z" fill="white"/>
<path d="M9.99989 24.6428C9.85703 24.6428 9.64274 24.5714 9.57131 24.5L5.57132 22.2143C5.14274 21.9286 4.99989 21.3571 5.21417 20.9286C5.49989 20.5 6.07132 20.3571 6.49989 20.5714L10.4999 22.8571C10.9285 23.1428 11.0713 23.7143 10.857 24.1428C10.6427 24.5 10.357 24.6428 9.99989 24.6428Z" fill="white"/>
<path d="M13.7145 19.8571C13.5002 19.8571 13.2145 19.7857 13.0716 19.5714L9.78592 16.2857C9.42878 15.9285 9.42878 15.3571 9.78592 15C10.1431 14.6428 10.7145 14.6428 11.0716 15L14.3574 18.2857C14.7145 18.6428 14.7145 19.2143 14.3574 19.5714C14.1431 19.7857 13.9288 19.8571 13.7145 19.8571Z" fill="white"/>
<path d="M18.4999 16.2143C18.1427 16.2143 17.857 16.0715 17.7141 15.7857L15.4284 11.7857C15.1427 11.3572 15.357 10.7857 15.7856 10.5C16.2141 10.2143 16.7856 10.4286 17.0713 10.8572L19.357 14.8572C19.6427 15.2857 19.4284 15.8572 18.9999 16.1429C18.7856 16.2143 18.6427 16.2143 18.4999 16.2143Z" fill="white"/>
<path d="M24.0712 13.9286C23.6427 13.9286 23.2855 13.6429 23.1427 13.2143L21.9284 8.78571C21.7855 8.28571 22.0712 7.78571 22.5712 7.64285C23.0712 7.5 23.5712 7.78571 23.7141 8.28571L24.9284 12.7143C25.0712 13.2143 24.7855 13.7143 24.2855 13.8571C24.2141 13.9286 24.1427 13.9286 24.0712 13.9286Z" fill="white"/>
<path fill-rule="evenodd" clip-rule="evenodd" d="M0.785645 35.1429C0.785645 51.2857 13.9285 64.3571 29.9999 64.3571C46.0714 64.3571 59.2142 51.3571 59.2142 35.2143C59.2142 19.0714 46.0714 6 29.9999 6C13.9285 6 0.785645 19 0.785645 35.1429ZM4.28564 35.1429C4.28564 21 15.7856 9.42857 29.9999 9.42857C44.2142 9.42857 55.7142 21 55.7142 35.1429C55.7142 49.2857 44.1428 60.8571 29.9999 60.8571C15.8571 60.8571 4.28564 49.2857 4.28564 35.1429Z" fill="#00548B"/>
<path d="M34.6427 4.71431H25.357C24.0713 4.71431 23.0713 3.64288 23.0713 2.4286C23.0713 1.14288 24.1427 0.142883 25.357 0.142883H34.5713C35.857 0.142883 36.857 1.21431 36.857 2.4286C36.9284 3.64288 35.857 4.71431 34.6427 4.71431Z" fill="#00548B"/>
<rect x="28.6431" y="3.85712" width="2.71429" height="2.71429" fill="#00548B"/>
<rect x="5.84961" y="13.0257" width="2.71426" height="4.8571" transform="rotate(-45 5.84961 13.0257)" fill="#00548B"/>
<path d="M9.64293 11.2857L6.0715 14.8571C5.71436 15.2143 5.14293 15.2143 4.78578 14.8571L0.50007 12C0.142927 11.6428 0.214355 10.9286 0.714355 10.5L5.35721 5.85713C5.78578 5.42856 6.50007 5.28571 6.85721 5.64285L9.71436 9.92856C10.0001 10.3571 10.0001 10.9286 9.64293 11.2857Z" fill="#00548B"/>
<rect x="48.8296" y="14.5174" width="4.8571" height="2.71426" transform="rotate(-45 48.8296 14.5174)" fill="#00548B"/>
<path d="M50.3571 11.2857L53.9285 14.8571C54.2857 15.2143 54.8571 15.2143 55.2143 14.8571L59.5 12C59.8571 11.6428 59.7857 10.9286 59.2857 10.5L54.6428 5.85713C54.2143 5.42856 53.5 5.28571 53.1428 5.64285L50.2857 9.92856C50 10.3571 50 10.9286 50.3571 11.2857Z" fill="#00548B"/>
<path d="M32.8574 34.9286L30.7859 20C30.6431 19.0714 29.3574 19.0714 29.2145 20L27.1431 34.9286C27.1431 35.0714 27.1431 35.1429 27.1431 35.2857C27.1431 36.8572 28.4288 38.1429 30.0002 38.1429C31.5716 38.1429 32.8574 36.8572 32.8574 35.2857C32.8574 35.1429 32.8574 35.0714 32.8574 34.9286Z" fill="white"/>
</svg>
