<svg width="38" height="38" viewBox="0 0 38 38" fill="none" xmlns="http://www.w3.org/2000/svg">
<path fill-rule="evenodd" clip-rule="evenodd" d="M7.11064 30.398H15.7876L15.7886 30.397V30.4495H22.9714C23.2594 31.0274 23.6453 31.6052 24.1282 32.0386C23.7878 32.0881 23.4049 32.1346 23.018 32.1346H7.06215C5.32754 32.1346 4.02535 31.5567 3.44748 30.496C2.96559 29.5807 3.11105 28.4705 3.83438 27.4097L6.14686 23.99L10.9183 16.6617C11.2547 16.1323 11.5456 15.0715 11.5456 14.4442V6.53705H10.4383C9.95646 6.53705 9.56956 6.15015 9.56956 5.66826C9.56956 5.18637 9.95646 4.79948 10.4383 4.79948H12.3184C12.8013 4.79948 13.1842 5.18538 13.1842 5.67123V14.4412C13.1842 15.406 12.8003 16.7577 12.2689 17.574L10.3889 20.5148H19.6408L17.7607 17.574C17.2323 16.7547 16.8454 15.406 16.8454 14.4412V5.61879C16.8454 5.1369 17.2313 4.75 17.7142 4.75H19.6902C20.1721 4.75 20.559 5.1369 20.559 5.61879C20.559 6.10068 20.1731 6.48757 19.6902 6.48757H18.58V14.3482C18.58 15.0231 18.8699 16.0343 19.2074 16.5657L22.3896 21.4826V24.6183L20.8005 22.1604H9.32812L7.25609 25.3882L5.28005 28.2795L5.27585 28.2867C5.08033 28.6251 4.74941 29.1979 4.98913 29.6282C5.23057 30.1071 6.04988 30.398 7.11064 30.398ZM15.5471 25.8186C14.9692 25.8186 14.4863 25.3357 14.4863 24.7578C14.4863 24.18 14.9692 23.6971 15.5471 23.6971C16.1249 23.6971 16.6078 24.18 16.6078 24.7578C16.6078 25.3357 16.1249 25.8186 15.5471 25.8186ZM10.4847 28.4259C9.90588 28.4259 9.42399 27.8936 9.42399 27.3157C9.42399 26.7339 9.90588 26.255 10.4847 26.255C11.0636 26.255 11.5455 26.7378 11.5455 27.3157C11.5455 27.9431 11.0636 28.4259 10.4847 28.4259ZM17.6212 26.4004C17.6212 26.9783 18.104 27.4612 18.6819 27.4612C19.2598 27.4612 19.7427 26.9783 19.7427 26.4004C19.7427 25.8225 19.2598 25.3397 18.6819 25.3397C18.104 25.3367 17.6212 25.8186 17.6212 26.4004ZM34.0102 8.85151H32.0342C31.6008 8.85151 31.2149 9.18893 31.2149 9.67082V9.71733V10.0082V14.4422H25.5252V10.0082V9.7668V9.72029C25.5252 9.2384 25.1383 8.85151 24.6564 8.85151H22.6804C22.1975 8.85151 21.8116 9.2384 21.8116 9.72029C21.8116 10.2022 22.1985 10.5891 22.6804 10.5891H23.7906V27.9431C23.7906 30.2555 25.6707 32.1861 28.0336 32.1861H28.6115C30.924 32.1861 32.8545 30.306 32.8545 27.9431V10.5861H33.9647C34.4476 10.5861 34.8335 10.1992 34.8335 9.71733C34.8335 9.23544 34.4437 8.85151 34.0112 8.85151H34.0102ZM28.0832 30.4475H28.661L28.662 30.4485C30.0592 30.4485 31.1694 29.2927 31.1694 27.8946V16.0818H25.5758V27.9401C25.5758 29.2908 26.685 30.4475 28.0832 30.4475ZM29.0935 18.1558C28.5156 18.1558 28.0327 18.6387 28.0327 19.2166C28.0327 19.7945 28.5156 20.2773 29.0935 20.2773C29.6713 20.2773 30.1542 19.7945 30.1542 19.2166C30.2037 18.6387 29.7208 18.1558 29.0935 18.1558ZM26.5891 22.2039C26.5891 21.626 27.072 21.1432 27.6499 21.1432C28.2743 21.1432 28.7571 21.626 28.7106 22.2039C28.7106 22.7818 28.2278 23.2647 27.6499 23.2647C27.072 23.2647 26.5891 22.7818 26.5891 22.2039Z" fill="#1D1D1B"/>
<mask id="mask0" mask-type="alpha" maskUnits="userSpaceOnUse" x="3" y="4" width="32" height="29">
<path fill-rule="evenodd" clip-rule="evenodd" d="M7.11064 30.398H15.7876L15.7886 30.397V30.4495H22.9714C23.2594 31.0274 23.6453 31.6052 24.1282 32.0386C23.7878 32.0881 23.4049 32.1346 23.018 32.1346H7.06215C5.32754 32.1346 4.02535 31.5567 3.44748 30.496C2.96559 29.5807 3.11105 28.4705 3.83438 27.4097L6.14686 23.99L10.9183 16.6617C11.2547 16.1323 11.5456 15.0715 11.5456 14.4442V6.53705H10.4383C9.95646 6.53705 9.56956 6.15015 9.56956 5.66826C9.56956 5.18637 9.95646 4.79948 10.4383 4.79948H12.3184C12.8013 4.79948 13.1842 5.18538 13.1842 5.67123V14.4412C13.1842 15.406 12.8003 16.7577 12.2689 17.574L10.3889 20.5148H19.6408L17.7607 17.574C17.2323 16.7547 16.8454 15.406 16.8454 14.4412V5.61879C16.8454 5.1369 17.2313 4.75 17.7142 4.75H19.6902C20.1721 4.75 20.559 5.1369 20.559 5.61879C20.559 6.10068 20.1731 6.48757 19.6902 6.48757H18.58V14.3482C18.58 15.0231 18.8699 16.0343 19.2074 16.5657L22.3896 21.4826V24.6183L20.8005 22.1604H9.32812L7.25609 25.3882L5.28005 28.2795L5.27585 28.2867C5.08033 28.6251 4.74941 29.1979 4.98913 29.6282C5.23057 30.1071 6.04988 30.398 7.11064 30.398ZM15.5471 25.8186C14.9692 25.8186 14.4863 25.3357 14.4863 24.7578C14.4863 24.18 14.9692 23.6971 15.5471 23.6971C16.1249 23.6971 16.6078 24.18 16.6078 24.7578C16.6078 25.3357 16.1249 25.8186 15.5471 25.8186ZM10.4847 28.4259C9.90588 28.4259 9.42399 27.8936 9.42399 27.3157C9.42399 26.7339 9.90588 26.255 10.4847 26.255C11.0636 26.255 11.5455 26.7378 11.5455 27.3157C11.5455 27.9431 11.0636 28.4259 10.4847 28.4259ZM17.6212 26.4004C17.6212 26.9783 18.104 27.4612 18.6819 27.4612C19.2598 27.4612 19.7427 26.9783 19.7427 26.4004C19.7427 25.8225 19.2598 25.3397 18.6819 25.3397C18.104 25.3367 17.6212 25.8186 17.6212 26.4004ZM34.0102 8.85151H32.0342C31.6008 8.85151 31.2149 9.18893 31.2149 9.67082V9.71733V10.0082V14.4422H25.5252V10.0082V9.7668V9.72029C25.5252 9.2384 25.1383 8.85151 24.6564 8.85151H22.6804C22.1975 8.85151 21.8116 9.2384 21.8116 9.72029C21.8116 10.2022 22.1985 10.5891 22.6804 10.5891H23.7906V27.9431C23.7906 30.2555 25.6707 32.1861 28.0336 32.1861H28.6115C30.924 32.1861 32.8545 30.306 32.8545 27.9431V10.5861H33.9647C34.4476 10.5861 34.8335 10.1992 34.8335 9.71733C34.8335 9.23544 34.4437 8.85151 34.0112 8.85151H34.0102ZM28.0832 30.4475H28.661L28.662 30.4485C30.0592 30.4485 31.1694 29.2927 31.1694 27.8946V16.0818H25.5758V27.9401C25.5758 29.2908 26.685 30.4475 28.0832 30.4475ZM29.0935 18.1558C28.5156 18.1558 28.0327 18.6387 28.0327 19.2166C28.0327 19.7945 28.5156 20.2773 29.0935 20.2773C29.6713 20.2773 30.1542 19.7945 30.1542 19.2166C30.2037 18.6387 29.7208 18.1558 29.0935 18.1558ZM26.5891 22.2039C26.5891 21.626 27.072 21.1432 27.6499 21.1432C28.2743 21.1432 28.7571 21.626 28.7106 22.2039C28.7106 22.7818 28.2278 23.2647 27.6499 23.2647C27.072 23.2647 26.5891 22.7818 26.5891 22.2039Z" fill="white"/>
</mask>
<g mask="url(#mask0)">
<rect width="38" height="38" fill="#0079C8"/>
</g>
</svg>
