<svg width="20" height="20" viewBox="0 0 20 20" fill="none" xmlns="http://www.w3.org/2000/svg">
<mask id="mask0" mask-type="alpha" maskUnits="userSpaceOnUse" x="0" y="0" width="20" height="20">
<path fill-rule="evenodd" clip-rule="evenodd" d="M13.7093 5.37446L14.5616 6.04831C14.5739 6.06061 14.5862 6.076 14.5955 6.09477C14.6078 6.11292 14.6139 6.13169 14.6139 6.14708C14.617 6.17169 14.617 6.19631 14.6139 6.21754C14.6078 6.23938 14.5985 6.25754 14.5862 6.27631L9.0047 13.8975C8.99239 13.9163 8.97393 13.9286 8.95547 13.9409L8.89085 13.9622H8.87854C8.857 13.9622 8.83547 13.9563 8.817 13.9498C8.79854 13.9375 8.78316 13.9286 8.77393 13.9163L5.737 10.7683C5.7247 10.7502 5.71546 10.7348 5.70623 10.7132C5.697 10.6978 5.69393 10.6791 5.69393 10.6609C5.69393 10.6363 5.697 10.6145 5.70623 10.5963C5.71546 10.5775 5.7247 10.5622 5.737 10.5498L6.49085 9.75908C6.52162 9.72831 6.55854 9.71323 6.60162 9.71323C6.6447 9.71323 6.68162 9.72831 6.71239 9.75908L8.75854 11.8794L13.4909 5.41138C13.5124 5.37446 13.5462 5.35323 13.5893 5.34677C13.6324 5.34369 13.6724 5.35015 13.7093 5.37446ZM9.93855 18.5225C14.6718 18.5225 18.5229 14.6717 18.5229 9.93846C18.5229 5.20523 14.6718 1.35446 9.93855 1.35446C5.20501 1.35446 1.35424 5.20523 1.35424 9.93846C1.35424 14.6717 5.20501 18.5225 9.93855 18.5225ZM9.93846 0C15.4185 0 19.8766 4.45815 19.8766 9.93846C19.8766 15.4188 15.4185 19.8769 9.93846 19.8769C4.45846 19.8769 0 15.4188 0 9.93846C0 4.45815 4.45846 0 9.93846 0Z" fill="white"/>
</mask>
<g mask="url(#mask0)">
<path fill-rule="evenodd" clip-rule="evenodd" d="M-1.53906 21.4153H21.4145V-1.53857H-1.53906V21.4153Z" fill="#007A3D"/>
</g>
</svg>
