<svg width="38" height="38" viewBox="0 0 38 38" fill="none" xmlns="http://www.w3.org/2000/svg">
<path fill-rule="evenodd" clip-rule="evenodd" d="M23.4692 10.1962L23.4697 10.1978L23.4677 10.1968L23.4692 10.1962ZM23.4692 10.1962C23.4482 10.1337 23.419 10.071 23.3881 10.0047C23.3416 9.90478 23.2913 9.79679 23.2599 9.66923C22.9441 8.7725 22.8362 7.76986 23.05 6.82067C23.2599 5.87148 23.7369 4.9213 24.6337 4.23538C25.0514 3.91668 25.5799 3.6534 26.1619 3.44357C26.5598 3.29575 27.0013 3.24049 27.4045 3.19004L27.4822 3.18029C29.0104 3.0724 30.4357 3.60094 31.6482 4.65604C32.8082 5.60523 33.7049 7.03149 34.2344 8.55969C34.4977 9.29905 34.6581 10.1433 34.7076 10.9351C34.8649 12.6762 34.5502 14.5231 33.9682 16.1592C33.4397 17.6379 32.6478 18.9553 31.6977 19.9569C30.696 21.012 29.536 21.6979 28.2147 21.8038C27.6337 21.8563 27.0022 21.7514 26.3677 21.5405C24.8366 21.012 23.9398 20.0094 23.4667 18.9543C23.2569 18.4812 23.151 18.0051 23.151 17.528C23.151 17.0549 23.2034 16.5788 23.3608 16.1552C23.3608 16.1027 23.3608 16.1027 23.4133 16.0503C23.4463 15.9514 23.5 15.8728 23.5483 15.802C23.5769 15.7602 23.6036 15.7211 23.6231 15.6821C23.6533 15.6519 23.6661 15.6391 23.6815 15.6337C23.6929 15.6296 23.7057 15.6296 23.728 15.6296C23.9913 15.4723 24.309 15.5247 24.5723 15.6296C24.7821 15.6821 24.9959 15.787 25.2067 15.9454C25.0494 16.2086 24.891 16.4739 24.7831 16.7372C24.6782 17.0005 24.6257 17.3192 24.6257 17.5815C24.6257 17.8972 24.6782 18.1634 24.8356 18.4782C25.1513 19.1651 25.7848 19.852 26.8399 20.2192C27.2635 20.3766 27.6841 20.429 28.1048 20.3766C29.0015 20.3241 29.8993 19.7956 30.6376 19.0038C31.4294 18.1595 32.1163 16.9995 32.5894 15.7316C33.118 14.2529 33.3813 12.6197 33.2239 11.0886C33.1714 10.4017 33.0141 9.71476 32.8003 9.08427C32.3766 7.76392 31.5878 6.60391 30.6881 5.81209C29.7914 5.07273 28.7363 4.59962 27.6287 4.70454C27.313 4.70454 26.9943 4.80945 26.6795 4.91437C26.2559 5.07174 25.8877 5.2301 25.572 5.49536C24.991 5.96847 24.6752 6.55046 24.5169 7.18391C24.3595 7.87081 24.4644 8.55771 24.6742 9.24066C24.7005 9.29311 24.7267 9.35893 24.7529 9.42476C24.7792 9.49057 24.8054 9.55639 24.8316 9.60885C24.8054 9.60885 24.7792 9.62197 24.7529 9.63508C24.7267 9.6482 24.7005 9.66131 24.6742 9.66131C24.4718 9.74093 24.281 9.83125 24.0903 9.92156C23.8878 10.0174 23.6854 10.1132 23.4692 10.1962ZM13.2055 9.43267C13.1792 9.49849 13.153 9.56431 13.1268 9.61677L13.1248 9.61776L13.1291 9.618C13.181 9.6208 13.2309 9.6235 13.2366 9.72267C13.441 9.80058 13.633 9.89041 13.825 9.98023C14.0282 10.0753 14.2313 10.1703 14.4491 10.2512C14.554 10.0404 14.6065 9.88299 14.6585 9.72705L14.6599 9.72267C14.9757 8.82594 15.0816 7.8233 14.8707 6.87411C14.6599 5.87246 14.1838 4.97573 13.2871 4.28883C12.8635 3.97012 12.3379 3.70783 11.7559 3.49701C11.2799 3.33865 10.8592 3.28619 10.4356 3.23373C8.9044 3.12882 7.42866 3.70783 6.26567 4.70948C5.10665 5.66263 4.20893 7.03248 3.68039 8.61611C3.4181 9.35547 3.25974 10.1997 3.20728 10.9916C3.04991 12.6801 3.36564 14.527 3.94367 16.2156C4.4732 17.6943 5.26502 19.0127 6.21421 20.0143C7.21684 21.0694 8.37983 21.7563 9.69721 21.8612C10.2792 21.9137 10.9097 21.8078 11.5441 21.5979C13.0723 21.016 14.0215 20.0668 14.4451 19.0117C14.656 18.5346 14.7609 18.0615 14.7609 17.5854C14.7609 17.1093 14.7074 16.6362 14.5501 16.2126C14.4976 16.1601 14.4976 16.1601 14.4976 16.1077C14.4715 16.0565 14.4332 15.9927 14.3948 15.9285C14.3543 15.8611 14.3137 15.7933 14.2868 15.7395C14.2606 15.7395 14.2474 15.7264 14.2343 15.7133C14.2212 15.7002 14.2081 15.687 14.1819 15.687C13.972 15.5297 13.6009 15.5821 13.3376 15.687L12.7031 16.0028C12.913 16.2136 13.0713 16.4789 13.1763 16.7421C13.2812 17.0044 13.3336 17.2717 13.3336 17.5864C13.3336 17.8612 13.2529 18.099 13.1626 18.3651C13.1495 18.4038 13.1361 18.4431 13.1228 18.4831C12.8595 19.1691 12.1736 19.856 11.1185 20.2241C10.6979 20.3815 10.2772 20.434 9.85359 20.3815C8.95686 20.3291 8.06013 19.8005 7.32077 19.0087C6.4765 18.1644 5.84205 17.0015 5.36894 15.7365C4.83941 14.2608 4.62958 12.6247 4.7345 11.0935C4.78993 10.4096 4.94829 9.72366 5.15812 9.09219C5.58174 7.77184 6.3211 6.61182 7.27029 5.82001C8.1116 5.02819 9.22212 4.60754 10.3297 4.71245L10.3413 4.71439C10.6523 4.76621 10.967 4.81866 11.2789 4.92228C11.6995 5.07966 12.0707 5.29345 12.3864 5.50328C12.9684 5.97936 13.2841 6.55739 13.4415 7.19183C13.5999 7.87477 13.495 8.56167 13.2841 9.24857C13.2579 9.30103 13.2317 9.36685 13.2055 9.43267ZM14.5532 28.8767C14.6581 29.4577 14.9214 29.8784 15.3974 30.2495C16.0843 30.7781 17.0335 31.0938 17.8778 31.2512C18.3014 31.3036 18.6696 31.5145 18.9854 31.7797C19.3011 31.5164 19.6723 31.3066 20.0929 31.2512C20.9372 31.0938 21.8874 30.8276 22.5733 30.2495C22.9969 29.8813 23.3126 29.4577 23.4175 28.8767H14.5532ZM6.95363 9.03479C6.7438 9.19315 6.69134 9.51087 6.84872 9.72169L6.8497 9.7207C8.00864 11.3567 9.32988 12.0426 10.6472 12.7265L10.6475 12.7266C10.6206 12.7266 10.5808 12.7399 10.5411 12.753L10.5411 12.753L10.5411 12.753C10.5018 12.7661 10.4627 12.7791 10.4366 12.7791C9.2212 13.0453 8.00873 13.6234 7.26937 14.2578C7.05954 14.4162 7.05855 14.7349 7.21691 14.9447C7.37527 15.1545 7.69299 15.1545 7.90381 14.9972C8.53528 14.4191 9.59236 13.9955 10.6475 13.7322C11.6491 13.5214 12.5993 13.469 13.1278 13.7322C13.1813 13.7587 13.2211 13.7852 13.2609 13.8117C13.3 13.8376 13.3391 13.8636 13.3911 13.8896L13.0739 13.9683L12.7567 14.047C11.9648 14.3103 11.2779 14.7863 10.8048 15.2595C10.5386 15.5257 10.3278 15.788 10.2228 15.9988C10.1179 16.2621 10.2228 16.5283 10.4337 16.6857C10.6969 16.7906 11.0157 16.6857 11.1206 16.4749C11.2285 16.3146 11.3868 16.1037 11.5442 15.9464C11.9154 15.5267 12.4944 15.1555 13.0754 14.9447C13.6564 14.7339 14.2354 14.7339 14.7639 14.9972C14.8688 15.0496 15.0272 15.1555 15.1321 15.2604C15.5557 15.8919 15.8715 16.7916 15.8715 18.0041V21.4346V25.7619C14.659 26.0252 13.8672 26.4459 13.3386 26.9744C12.7567 27.6088 12.5993 28.4007 12.7042 29.2449C12.8655 30.3525 13.4436 31.2502 14.2383 31.8807C15.1351 32.5666 16.3505 33.0437 17.6154 33.2535C17.6417 33.2797 17.6679 33.2928 17.6941 33.306C17.7204 33.3191 17.7466 33.3322 17.7728 33.3584C17.8253 33.4109 17.8253 33.4633 17.8253 33.5158V34.3601C17.8253 34.6233 18.0361 34.8332 18.2984 34.8332C18.5607 34.8332 18.7715 34.6233 18.7715 34.3601V33.5158C18.7715 33.1971 18.6656 32.9338 18.5082 32.724C18.2974 32.5102 18.0846 32.3528 17.7689 32.3004C16.6098 32.0895 15.5547 31.7223 14.8154 31.0879C14.1849 30.5623 13.7078 29.8754 13.6029 29.0311C13.498 28.4492 13.6029 27.9206 13.9711 27.5524C14.3947 27.0793 15.1341 26.7606 16.3466 26.5508C16.6128 26.5013 16.7702 26.3409 16.7702 26.0777V21.3297V17.8992C16.7702 16.1047 16.1892 14.9447 15.4498 14.1004C14.7105 13.3086 13.7613 12.8325 12.9695 12.4643C12.6585 12.2846 12.2728 12.1438 11.9052 12.0095L11.9052 12.0095C11.8375 11.9848 11.7704 11.9603 11.7045 11.9358L11.5929 11.8931C10.2519 11.3807 8.82021 10.8336 7.64053 9.1397C7.48217 8.92987 7.16346 8.87642 6.95363 9.03479ZM19.7243 34.7322C19.987 34.7322 20.1964 34.5234 20.1974 34.2611H20.2519V33.206C20.2519 33.1535 20.2519 33.1011 20.3043 33.0486C20.3568 32.9962 20.4093 32.9437 20.4617 32.9437C21.7276 32.7309 22.9431 32.3103 23.8398 31.5709C24.6316 30.9365 25.2136 30.0397 25.371 28.9322C25.5284 28.0879 25.371 27.2961 24.7365 26.6616C24.208 26.1361 23.4162 25.7124 22.2037 25.4492V21.1219V17.6913C22.2037 16.4789 22.5195 15.5821 22.9431 14.9477C23.048 14.8418 23.2064 14.7369 23.3113 14.6844C23.8398 14.4211 24.4178 14.4221 24.9998 14.6319C25.5818 14.8418 26.1628 15.2654 26.531 15.6336C26.7429 15.8445 26.8478 16.0019 26.9518 16.1579L26.9546 16.1621C27.113 16.4254 27.4317 16.4779 27.6415 16.373C27.9038 16.2146 28.0087 15.8969 27.8514 15.6861C27.694 15.4198 27.5336 15.21 27.2704 14.9467C26.7448 14.4736 26.0579 13.9975 25.3185 13.7342L25.0464 13.6668C24.9252 13.6368 24.804 13.6068 24.6841 13.5769C24.7375 13.5504 24.7774 13.5239 24.8172 13.4974C24.8563 13.4714 24.8954 13.4455 24.9474 13.4195C25.4759 13.1562 26.4261 13.2087 27.4277 13.4195C28.4828 13.6828 29.5369 14.1559 30.1714 14.6844C30.3852 14.8428 30.7009 14.8428 30.8583 14.6319C31.0156 14.4182 31.0156 14.1024 30.8058 13.945C30.0665 13.2581 28.851 12.7296 27.6386 12.4663C27.6123 12.4663 27.573 12.4532 27.5336 12.4401C27.4943 12.427 27.4549 12.4139 27.4287 12.4139C28.6936 11.9408 30.014 11.2539 31.174 9.56531C31.3324 9.35152 31.2789 9.03578 31.0691 8.87841C30.8553 8.72004 30.5396 8.7725 30.3822 8.98332C29.1668 10.7768 27.691 11.3063 26.3182 11.7794L26.2504 11.8052L26.2504 11.8053C25.8523 11.9568 25.4541 12.1085 25.0533 12.308L24.9476 12.3574C24.1781 12.7171 23.2797 13.137 22.5729 13.9441C21.7811 14.7893 21.2525 15.9483 21.2525 17.7428V21.1733V25.9213C21.2525 26.1865 21.4129 26.3974 21.6762 26.4498C22.8916 26.6596 23.628 27.0278 24.0516 27.4515C24.4198 27.8751 24.5247 28.3492 24.4198 28.9302C24.2624 29.8269 23.8418 30.4584 23.2073 30.9869C22.4155 31.6184 21.4139 31.9896 20.2539 32.1994C19.9381 32.2548 19.6758 32.4132 19.5145 32.623C19.3561 32.8338 19.2512 33.0991 19.2512 33.4148V34.2591C19.2512 34.5224 19.4611 34.7322 19.7243 34.7322ZM9.59217 8.08461C9.32889 8.19052 9.22398 8.45578 9.32889 8.71906L9.33186 8.71807L9.33483 8.7151C10.0163 10.3405 11.4255 10.9773 13.0482 11.7105L13.0801 11.725C15.1369 12.6227 17.4074 13.6244 17.4074 17.9516V19.5353V25.9718C17.4074 26.235 17.6172 26.4449 17.8805 26.4449H20.3609C20.6242 26.4449 20.834 26.235 20.834 25.9718V25.9193V19.4828V17.9516C20.834 13.7177 23.0077 12.7167 25.028 11.7864C25.0725 11.7659 25.1169 11.7455 25.1613 11.725C25.1884 11.7124 25.2155 11.6999 25.2426 11.6874C26.6892 11.0184 28.0749 10.3775 28.7492 8.77151C28.8541 8.50527 28.7492 8.24199 28.4859 8.13707C28.2197 8.03215 27.9564 8.13707 27.8515 8.40035C27.3259 9.66825 26.06 10.2463 24.7396 10.8283C24.5739 10.9124 24.4221 10.9816 24.2697 11.051C24.1316 11.1139 23.9929 11.1771 23.8429 11.2519C23.5242 11.1994 23.2649 11.1489 23.0511 10.9886C22.8373 10.8283 22.6799 10.6174 22.6275 10.4601C22.575 10.1968 22.3097 10.0384 22.0465 10.0919C21.7832 10.1453 21.6258 10.4106 21.6783 10.6739C21.7832 11.042 22.0494 11.4657 22.5225 11.7814C22.5225 11.7814 22.575 11.8339 22.6275 11.8339C21.0438 12.8355 19.7789 14.4191 19.7789 17.9022V19.4333V25.3967H18.3002V19.4333V17.8497C18.3002 14.3677 17.0353 12.7831 15.4516 11.7814C15.4516 11.7814 15.5041 11.7814 15.5565 11.729C15.9772 11.4657 16.2959 11.045 16.4008 10.6214C16.4562 10.3551 16.2989 10.0948 16.0326 10.0394C15.7664 9.98398 15.5031 10.1443 15.4506 10.4076C15.3952 10.5679 15.2903 10.7788 15.027 10.9361C14.8172 11.0945 14.5509 11.1994 14.2352 11.1994C14.1632 11.1628 14.0938 11.1262 14.0258 11.0904C13.7961 10.9695 13.582 10.8567 13.3385 10.7758C12.0211 10.1948 10.7552 9.61282 10.2266 8.34789C10.1207 8.08461 9.85545 7.97871 9.59217 8.08461Z" fill="#1D1D1B"/>
<mask id="mask0" mask-type="alpha" maskUnits="userSpaceOnUse" x="3" y="3" width="32" height="32">
<path fill-rule="evenodd" clip-rule="evenodd" d="M23.4692 10.1962L23.4697 10.1978L23.4677 10.1968L23.4692 10.1962ZM23.4692 10.1962C23.4482 10.1337 23.419 10.071 23.3881 10.0047C23.3416 9.90478 23.2913 9.79679 23.2599 9.66923C22.9441 8.7725 22.8362 7.76986 23.05 6.82067C23.2599 5.87148 23.7369 4.9213 24.6337 4.23538C25.0514 3.91668 25.5799 3.6534 26.1619 3.44357C26.5598 3.29575 27.0013 3.24049 27.4045 3.19004L27.4822 3.18029C29.0104 3.0724 30.4357 3.60094 31.6482 4.65604C32.8082 5.60523 33.7049 7.03149 34.2344 8.55969C34.4977 9.29905 34.6581 10.1433 34.7076 10.9351C34.8649 12.6762 34.5502 14.5231 33.9682 16.1592C33.4397 17.6379 32.6478 18.9553 31.6977 19.9569C30.696 21.012 29.536 21.6979 28.2147 21.8038C27.6337 21.8563 27.0022 21.7514 26.3677 21.5405C24.8366 21.012 23.9398 20.0094 23.4667 18.9543C23.2569 18.4812 23.151 18.0051 23.151 17.528C23.151 17.0549 23.2034 16.5788 23.3608 16.1552C23.3608 16.1027 23.3608 16.1027 23.4133 16.0503C23.4463 15.9514 23.5 15.8728 23.5483 15.802C23.5769 15.7602 23.6036 15.7211 23.6231 15.6821C23.6533 15.6519 23.6661 15.6391 23.6815 15.6337C23.6929 15.6296 23.7057 15.6296 23.728 15.6296C23.9913 15.4723 24.309 15.5247 24.5723 15.6296C24.7821 15.6821 24.9959 15.787 25.2067 15.9454C25.0494 16.2086 24.891 16.4739 24.7831 16.7372C24.6782 17.0005 24.6257 17.3192 24.6257 17.5815C24.6257 17.8972 24.6782 18.1634 24.8356 18.4782C25.1513 19.1651 25.7848 19.852 26.8399 20.2192C27.2635 20.3766 27.6841 20.429 28.1048 20.3766C29.0015 20.3241 29.8993 19.7956 30.6376 19.0038C31.4294 18.1595 32.1163 16.9995 32.5894 15.7316C33.118 14.2529 33.3813 12.6197 33.2239 11.0886C33.1714 10.4017 33.0141 9.71476 32.8003 9.08427C32.3766 7.76392 31.5878 6.60391 30.6881 5.81209C29.7914 5.07273 28.7363 4.59962 27.6287 4.70454C27.313 4.70454 26.9943 4.80945 26.6795 4.91437C26.2559 5.07174 25.8877 5.2301 25.572 5.49536C24.991 5.96847 24.6752 6.55046 24.5169 7.18391C24.3595 7.87081 24.4644 8.55771 24.6742 9.24066C24.7005 9.29311 24.7267 9.35893 24.7529 9.42476C24.7792 9.49057 24.8054 9.55639 24.8316 9.60885C24.8054 9.60885 24.7792 9.62197 24.7529 9.63508C24.7267 9.6482 24.7005 9.66131 24.6742 9.66131C24.4718 9.74093 24.281 9.83125 24.0903 9.92156C23.8878 10.0174 23.6854 10.1132 23.4692 10.1962ZM13.2055 9.43267C13.1792 9.49849 13.153 9.56431 13.1268 9.61677L13.1248 9.61776L13.1291 9.618C13.181 9.6208 13.2309 9.6235 13.2366 9.72267C13.441 9.80058 13.633 9.89041 13.825 9.98023C14.0282 10.0753 14.2313 10.1703 14.4491 10.2512C14.554 10.0404 14.6065 9.88299 14.6585 9.72705L14.6599 9.72267C14.9757 8.82594 15.0816 7.8233 14.8707 6.87411C14.6599 5.87246 14.1838 4.97573 13.2871 4.28883C12.8635 3.97012 12.3379 3.70783 11.7559 3.49701C11.2799 3.33865 10.8592 3.28619 10.4356 3.23373C8.9044 3.12882 7.42866 3.70783 6.26567 4.70948C5.10665 5.66263 4.20893 7.03248 3.68039 8.61611C3.4181 9.35547 3.25974 10.1997 3.20728 10.9916C3.04991 12.6801 3.36564 14.527 3.94367 16.2156C4.4732 17.6943 5.26502 19.0127 6.21421 20.0143C7.21684 21.0694 8.37983 21.7563 9.69721 21.8612C10.2792 21.9137 10.9097 21.8078 11.5441 21.5979C13.0723 21.016 14.0215 20.0668 14.4451 19.0117C14.656 18.5346 14.7609 18.0615 14.7609 17.5854C14.7609 17.1093 14.7074 16.6362 14.5501 16.2126C14.4976 16.1601 14.4976 16.1601 14.4976 16.1077C14.4715 16.0565 14.4332 15.9927 14.3948 15.9285C14.3543 15.8611 14.3137 15.7933 14.2868 15.7395C14.2606 15.7395 14.2474 15.7264 14.2343 15.7133C14.2212 15.7002 14.2081 15.687 14.1819 15.687C13.972 15.5297 13.6009 15.5821 13.3376 15.687L12.7031 16.0028C12.913 16.2136 13.0713 16.4789 13.1763 16.7421C13.2812 17.0044 13.3336 17.2717 13.3336 17.5864C13.3336 17.8612 13.2529 18.099 13.1626 18.3651C13.1495 18.4038 13.1361 18.4431 13.1228 18.4831C12.8595 19.1691 12.1736 19.856 11.1185 20.2241C10.6979 20.3815 10.2772 20.434 9.85359 20.3815C8.95686 20.3291 8.06013 19.8005 7.32077 19.0087C6.4765 18.1644 5.84205 17.0015 5.36894 15.7365C4.83941 14.2608 4.62958 12.6247 4.7345 11.0935C4.78993 10.4096 4.94829 9.72366 5.15812 9.09219C5.58174 7.77184 6.3211 6.61182 7.27029 5.82001C8.1116 5.02819 9.22212 4.60754 10.3297 4.71245L10.3413 4.71439C10.6523 4.76621 10.967 4.81866 11.2789 4.92228C11.6995 5.07966 12.0707 5.29345 12.3864 5.50328C12.9684 5.97936 13.2841 6.55739 13.4415 7.19183C13.5999 7.87477 13.495 8.56167 13.2841 9.24857C13.2579 9.30103 13.2317 9.36685 13.2055 9.43267ZM14.5532 28.8767C14.6581 29.4577 14.9214 29.8784 15.3974 30.2495C16.0843 30.7781 17.0335 31.0938 17.8778 31.2512C18.3014 31.3036 18.6696 31.5145 18.9854 31.7797C19.3011 31.5164 19.6723 31.3066 20.0929 31.2512C20.9372 31.0938 21.8874 30.8276 22.5733 30.2495C22.9969 29.8813 23.3126 29.4577 23.4175 28.8767H14.5532ZM6.95363 9.03479C6.7438 9.19315 6.69134 9.51087 6.84872 9.72169L6.8497 9.7207C8.00864 11.3567 9.32988 12.0426 10.6472 12.7265L10.6475 12.7266C10.6206 12.7266 10.5808 12.7399 10.5411 12.753L10.5411 12.753L10.5411 12.753C10.5018 12.7661 10.4627 12.7791 10.4366 12.7791C9.2212 13.0453 8.00873 13.6234 7.26937 14.2578C7.05954 14.4162 7.05855 14.7349 7.21691 14.9447C7.37527 15.1545 7.69299 15.1545 7.90381 14.9972C8.53528 14.4191 9.59236 13.9955 10.6475 13.7322C11.6491 13.5214 12.5993 13.469 13.1278 13.7322C13.1813 13.7587 13.2211 13.7852 13.2609 13.8117C13.3 13.8376 13.3391 13.8636 13.3911 13.8896L13.0739 13.9683L12.7567 14.047C11.9648 14.3103 11.2779 14.7863 10.8048 15.2595C10.5386 15.5257 10.3278 15.788 10.2228 15.9988C10.1179 16.2621 10.2228 16.5283 10.4337 16.6857C10.6969 16.7906 11.0157 16.6857 11.1206 16.4749C11.2285 16.3146 11.3868 16.1037 11.5442 15.9464C11.9154 15.5267 12.4944 15.1555 13.0754 14.9447C13.6564 14.7339 14.2354 14.7339 14.7639 14.9972C14.8688 15.0496 15.0272 15.1555 15.1321 15.2604C15.5557 15.8919 15.8715 16.7916 15.8715 18.0041V21.4346V25.7619C14.659 26.0252 13.8672 26.4459 13.3386 26.9744C12.7567 27.6088 12.5993 28.4007 12.7042 29.2449C12.8655 30.3525 13.4436 31.2502 14.2383 31.8807C15.1351 32.5666 16.3505 33.0437 17.6154 33.2535C17.6417 33.2797 17.6679 33.2928 17.6941 33.306C17.7204 33.3191 17.7466 33.3322 17.7728 33.3584C17.8253 33.4109 17.8253 33.4633 17.8253 33.5158V34.3601C17.8253 34.6233 18.0361 34.8332 18.2984 34.8332C18.5607 34.8332 18.7715 34.6233 18.7715 34.3601V33.5158C18.7715 33.1971 18.6656 32.9338 18.5082 32.724C18.2974 32.5102 18.0846 32.3528 17.7689 32.3004C16.6098 32.0895 15.5547 31.7223 14.8154 31.0879C14.1849 30.5623 13.7078 29.8754 13.6029 29.0311C13.498 28.4492 13.6029 27.9206 13.9711 27.5524C14.3947 27.0793 15.1341 26.7606 16.3466 26.5508C16.6128 26.5013 16.7702 26.3409 16.7702 26.0777V21.3297V17.8992C16.7702 16.1047 16.1892 14.9447 15.4498 14.1004C14.7105 13.3086 13.7613 12.8325 12.9695 12.4643C12.6585 12.2846 12.2728 12.1438 11.9052 12.0095L11.9052 12.0095C11.8375 11.9848 11.7704 11.9603 11.7045 11.9358L11.5929 11.8931C10.2519 11.3807 8.82021 10.8336 7.64053 9.1397C7.48217 8.92987 7.16346 8.87642 6.95363 9.03479ZM19.7243 34.7322C19.987 34.7322 20.1964 34.5234 20.1974 34.2611H20.2519V33.206C20.2519 33.1535 20.2519 33.1011 20.3043 33.0486C20.3568 32.9962 20.4093 32.9437 20.4617 32.9437C21.7276 32.7309 22.9431 32.3103 23.8398 31.5709C24.6316 30.9365 25.2136 30.0397 25.371 28.9322C25.5284 28.0879 25.371 27.2961 24.7365 26.6616C24.208 26.1361 23.4162 25.7124 22.2037 25.4492V21.1219V17.6913C22.2037 16.4789 22.5195 15.5821 22.9431 14.9477C23.048 14.8418 23.2064 14.7369 23.3113 14.6844C23.8398 14.4211 24.4178 14.4221 24.9998 14.6319C25.5818 14.8418 26.1628 15.2654 26.531 15.6336C26.7429 15.8445 26.8478 16.0019 26.9518 16.1579L26.9546 16.1621C27.113 16.4254 27.4317 16.4779 27.6415 16.373C27.9038 16.2146 28.0087 15.8969 27.8514 15.6861C27.694 15.4198 27.5336 15.21 27.2704 14.9467C26.7448 14.4736 26.0579 13.9975 25.3185 13.7342L25.0464 13.6668C24.9252 13.6368 24.804 13.6068 24.6841 13.5769C24.7375 13.5504 24.7774 13.5239 24.8172 13.4974C24.8563 13.4714 24.8954 13.4455 24.9474 13.4195C25.4759 13.1562 26.4261 13.2087 27.4277 13.4195C28.4828 13.6828 29.5369 14.1559 30.1714 14.6844C30.3852 14.8428 30.7009 14.8428 30.8583 14.6319C31.0156 14.4182 31.0156 14.1024 30.8058 13.945C30.0665 13.2581 28.851 12.7296 27.6386 12.4663C27.6123 12.4663 27.573 12.4532 27.5336 12.4401C27.4943 12.427 27.4549 12.4139 27.4287 12.4139C28.6936 11.9408 30.014 11.2539 31.174 9.56531C31.3324 9.35152 31.2789 9.03578 31.0691 8.87841C30.8553 8.72004 30.5396 8.7725 30.3822 8.98332C29.1668 10.7768 27.691 11.3063 26.3182 11.7794L26.2504 11.8052L26.2504 11.8053C25.8523 11.9568 25.4541 12.1085 25.0533 12.308L24.9476 12.3574C24.1781 12.7171 23.2797 13.137 22.5729 13.9441C21.7811 14.7893 21.2525 15.9483 21.2525 17.7428V21.1733V25.9213C21.2525 26.1865 21.4129 26.3974 21.6762 26.4498C22.8916 26.6596 23.628 27.0278 24.0516 27.4515C24.4198 27.8751 24.5247 28.3492 24.4198 28.9302C24.2624 29.8269 23.8418 30.4584 23.2073 30.9869C22.4155 31.6184 21.4139 31.9896 20.2539 32.1994C19.9381 32.2548 19.6758 32.4132 19.5145 32.623C19.3561 32.8338 19.2512 33.0991 19.2512 33.4148V34.2591C19.2512 34.5224 19.4611 34.7322 19.7243 34.7322ZM9.59217 8.08461C9.32889 8.19052 9.22398 8.45578 9.32889 8.71906L9.33186 8.71807L9.33483 8.7151C10.0163 10.3405 11.4255 10.9773 13.0482 11.7105L13.0801 11.725C15.1369 12.6227 17.4074 13.6244 17.4074 17.9516V19.5353V25.9718C17.4074 26.235 17.6172 26.4449 17.8805 26.4449H20.3609C20.6242 26.4449 20.834 26.235 20.834 25.9718V25.9193V19.4828V17.9516C20.834 13.7177 23.0077 12.7167 25.028 11.7864C25.0725 11.7659 25.1169 11.7455 25.1613 11.725C25.1884 11.7124 25.2155 11.6999 25.2426 11.6874C26.6892 11.0184 28.0749 10.3775 28.7492 8.77151C28.8541 8.50527 28.7492 8.24199 28.4859 8.13707C28.2197 8.03215 27.9564 8.13707 27.8515 8.40035C27.3259 9.66825 26.06 10.2463 24.7396 10.8283C24.5739 10.9124 24.4221 10.9816 24.2697 11.051C24.1316 11.1139 23.9929 11.1771 23.8429 11.2519C23.5242 11.1994 23.2649 11.1489 23.0511 10.9886C22.8373 10.8283 22.6799 10.6174 22.6275 10.4601C22.575 10.1968 22.3097 10.0384 22.0465 10.0919C21.7832 10.1453 21.6258 10.4106 21.6783 10.6739C21.7832 11.042 22.0494 11.4657 22.5225 11.7814C22.5225 11.7814 22.575 11.8339 22.6275 11.8339C21.0438 12.8355 19.7789 14.4191 19.7789 17.9022V19.4333V25.3967H18.3002V19.4333V17.8497C18.3002 14.3677 17.0353 12.7831 15.4516 11.7814C15.4516 11.7814 15.5041 11.7814 15.5565 11.729C15.9772 11.4657 16.2959 11.045 16.4008 10.6214C16.4562 10.3551 16.2989 10.0948 16.0326 10.0394C15.7664 9.98398 15.5031 10.1443 15.4506 10.4076C15.3952 10.5679 15.2903 10.7788 15.027 10.9361C14.8172 11.0945 14.5509 11.1994 14.2352 11.1994C14.1632 11.1628 14.0938 11.1262 14.0258 11.0904C13.7961 10.9695 13.582 10.8567 13.3385 10.7758C12.0211 10.1948 10.7552 9.61282 10.2266 8.34789C10.1207 8.08461 9.85545 7.97871 9.59217 8.08461Z" fill="white"/>
</mask>
<g mask="url(#mask0)">
<rect width="38" height="38" fill="#0079C8"/>
</g>
</svg>
