<svg width="49" height="60" viewBox="0 0 49 60" fill="none" xmlns="http://www.w3.org/2000/svg">
<path fill-rule="evenodd" clip-rule="evenodd" d="M20.654 3.20441C20.9617 3.20441 21.2189 3.31203 21.4232 3.52472C21.6275 3.74125 21.7198 3.99366 21.6928 4.28578V10.4114H6.99953V4.36522C6.99953 4.04491 7.10784 3.77328 7.32692 3.54394C7.54601 3.31972 7.80817 3.20312 8.11586 3.20312H10.3079C10.5651 2.29856 11.0661 1.5375 11.8083 0.921219C12.5504 0.308781 13.412 0 14.3855 0C15.3591 0 16.2207 0.308781 16.9628 0.921219C17.705 1.5375 18.2047 2.29856 18.4632 3.20312H20.6552L20.654 3.20441ZM25.8849 5.48631C26.7316 5.48631 27.4615 5.80278 28.0769 6.42675C28.6923 7.05584 29 7.82459 29 8.72916V37.7572C29 38.6656 28.6997 39.4305 28.0966 40.0596C27.4935 40.6887 26.7587 41 25.8849 41H3.11514C2.24251 41 1.50772 40.6874 0.903404 40.0596C0.299083 39.4318 0 38.6668 0 37.7572V8.72916C0 7.82459 0.300314 7.05584 0.903404 6.42675C1.50772 5.80278 2.24251 5.48631 3.11514 5.48631H5.26903V7.7285H3.11514C2.88375 7.7285 2.67329 7.82844 2.48005 8.02831C2.28682 8.22819 2.19205 8.46522 2.19205 8.72916V37.7572C2.19205 37.998 2.28805 38.2171 2.48005 38.4183C2.67206 38.6194 2.88375 38.7181 3.11514 38.7181H25.8849C26.1421 38.7181 26.3575 38.6182 26.5384 38.4183C26.7193 38.2184 26.808 37.998 26.808 37.7572V8.72916C26.808 8.46522 26.7193 8.22819 26.5384 8.02831C26.3575 7.82844 26.1421 7.7285 25.8849 7.7285H23.5771V5.48631H25.8849ZM19.6546 5.48631V8.12953H19.6533H9.26789V5.48631H11.3061C11.6409 5.48631 11.903 5.37356 12.095 5.1455C12.287 4.92128 12.4101 4.66119 12.4606 4.36522C12.4606 3.78097 12.66 3.28512 13.0563 2.88409C13.4526 2.48306 13.9215 2.28319 14.4606 2.28319C15.0255 2.28319 15.4982 2.48434 15.8834 2.88409C16.2687 3.28384 16.4607 3.78097 16.4607 4.36522C16.4607 4.68553 16.569 4.95331 16.788 5.166C17.0084 5.38253 17.2693 5.48631 17.577 5.48631H19.6546ZM12.1036 15.5364V17.8183H23.3076V15.5364H12.1036ZM12.1036 23.1035V20.8216H23.3076V23.1035H12.1036ZM12.1036 26.1068V28.3887H23.3076V26.1068H12.1036ZM12.1036 33.5944V31.3125H23.3076V33.5944H12.1036ZM5.36134 19.1034C5.77243 19.5314 6.47645 19.5365 6.89245 19.1034L10.0236 15.8439C11.0082 14.8189 9.48082 13.2251 8.49249 14.2501L6.1269 16.7126L5.50781 16.0682C4.52317 15.0432 2.99206 16.6332 3.9767 17.662L5.36134 19.1034ZM6.1269 21.9991L8.49249 19.5365C9.47712 18.5115 11.0082 20.1054 10.0236 21.1304L6.89245 24.3899C6.47645 24.8217 5.77243 24.8178 5.36134 24.3899L3.9767 22.9485C2.99206 21.9196 4.52317 20.3296 5.50781 21.3546L6.1269 21.9991ZM8.49249 24.8217L6.1269 27.2842L5.50781 26.6397C4.52317 25.6147 2.99206 27.2048 3.9767 28.2336L5.36134 29.675C5.77243 30.103 6.47645 30.1068 6.89245 29.675L10.0236 26.4155C11.0082 25.3905 9.47712 23.7967 8.49249 24.8217ZM6.1269 32.5694L8.49249 30.1068C9.47712 29.0818 11.0082 30.6757 10.0236 31.7007L6.89245 34.9602C6.47645 35.392 5.77243 35.3881 5.36134 34.9602L3.9767 33.5188C2.99206 32.4899 4.52317 30.8999 5.50781 31.9249L6.1269 32.5694Z" fill="#0079C7"/>
<path fill-rule="evenodd" clip-rule="evenodd" d="M43.616 31.5804L48.3594 36.1927V36.1917C49.206 37.0151 49.206 38.3228 48.4035 39.0972L45.6112 41.815L37.8291 34.2982L40.6213 31.5804C41.0198 31.1931 41.5673 31 42.1215 31C42.67 31 43.2175 31.1931 43.616 31.5804ZM47.0608 37.8422L45.5606 39.2922L40.4713 34.2991L41.9714 32.8436C42.0183 32.7974 42.1205 32.7484 42.1674 32.7484C42.2199 32.7484 42.2696 32.7484 42.3699 32.8436L47.1077 37.4495C47.1602 37.5012 47.2099 37.5964 47.2099 37.6426C47.1802 37.6703 47.1515 37.7135 47.1236 37.7554L47.1236 37.7555C47.1021 37.7878 47.0812 37.8193 47.0608 37.8422ZM30.4454 53.9387L42.669 42.1043H42.6718L43.9723 43.4092L30.4473 56.5521C30.3507 56.6565 30.2447 56.6999 30.0956 56.7517L20.2188 59.9482C20.1223 60 20.022 60 19.9198 60C19.6703 60 19.4678 59.9039 19.2719 59.7107C19.0225 59.4649 18.9203 59.1249 19.0693 58.7894L22.8142 49.0861C22.861 48.9447 22.9135 48.8403 23.0101 48.7451L36.3298 35.799L37.6275 37.0613L25.356 48.9909L27.3513 50.9288L39.6255 38.9992L40.9232 40.2616L28.6527 52.1911L30.4454 53.9387ZM29.0933 55.1483L24.259 50.4473H24.2581L22.2628 55.4921L23.7574 56.8959L29.0933 55.1483Z" fill="#0079C7"/>
</svg>
