<svg width="20" height="20" viewBox="0 0 20 20" fill="none" xmlns="http://www.w3.org/2000/svg">
<path id="pendiente" fill-rule="evenodd" clip-rule="evenodd" d="M0 10C0 15.5228 4.47715 20 10 20C15.5228 20 20 15.5228 20 10C20 4.47715 15.5228 0 10 0C4.47715 0 0 4.47715 0 10ZM6.15385 10C6.15385 12.1242 7.87583 13.8462 10 13.8462C12.1242 13.8462 13.8462 12.1242 13.8462 10C13.8462 7.87583 12.1242 6.15385 10 6.15385C7.87583 6.15385 6.15385 7.87583 6.15385 10ZM10 18.4615C14.6732 18.4615 18.4615 14.6732 18.4615 10C18.4615 5.32682 14.6732 1.53846 10 1.53846C5.32682 1.53846 1.53846 5.32682 1.53846 10C1.53846 14.6732 5.32682 18.4615 10 18.4615ZM12.3077 10C12.3077 11.2745 11.2745 12.3077 10 12.3077C8.7255 12.3077 7.69231 11.2745 7.69231 10C7.69231 8.7255 8.7255 7.69231 10 7.69231C11.2745 7.69231 12.3077 8.7255 12.3077 10Z" fill="#A4219B"/>
</svg>
