<svg width="38" height="38" viewBox="0 0 38 38" fill="none" xmlns="http://www.w3.org/2000/svg">
<path fill-rule="evenodd" clip-rule="evenodd" d="M24.2692 4.13444C22.4049 2.62536 19.6766 2.91332 18.1675 4.77766C16.6585 6.642 16.9464 9.37023 18.8108 10.8754C20.6751 12.3844 23.4033 12.0965 24.9094 10.2321C26.4185 8.37077 26.1306 5.64254 24.2692 4.13444ZM22.3917 17.4006L19.3182 14.9455C19.8317 13.7115 19.5131 12.24 18.4216 11.3583C17.0916 10.2816 15.1402 10.4895 14.0645 11.8165L8.60611 18.5613C7.53045 19.8913 7.73727 21.8427 9.06428 22.9184L11.5412 25.8069L12.1161 31.871C12.3081 33.674 13.829 34.9941 15.5113 34.8179C17.1936 34.6418 18.4058 33.0337 18.2168 31.2278L17.3667 23.1687L15.3718 20.0516L16.9145 18.1437L20.4522 20.6176C21.3398 21.153 22.4937 20.868 23.028 19.9804C23.5664 19.0898 23.2784 17.9359 22.3908 17.4016L22.3917 17.4006ZM23.7337 20.9788C23.7337 20.9264 23.7456 20.8828 23.7742 20.8433L23.7864 20.8234C23.8079 20.7887 23.8307 20.7517 23.8514 20.7077C23.9811 20.5009 24.1018 20.3029 24.2196 20.108C24.3373 19.9131 24.4452 19.7151 24.5471 19.5083C24.6438 19.3121 24.7432 19.1239 24.841 18.9386L24.8411 18.9385L24.8568 18.9087C24.9597 18.7137 25.1013 18.5039 25.2833 18.2714C25.3853 18.0923 25.5278 17.9804 25.7098 17.9438C25.889 17.9033 26.072 17.9379 26.2511 18.0398C26.6905 18.2961 27.1012 18.5811 27.4881 18.8898C27.875 19.1986 28.2085 19.5331 28.4935 19.8952C28.8032 20.3069 29.0407 20.7522 29.208 21.2282C29.3752 21.7042 29.4583 22.2395 29.4583 22.8333V29.1358C29.7146 29.1883 29.9531 29.2783 30.1728 29.4079C30.3925 29.5376 30.5904 29.6929 30.7725 29.872C31.0288 30.1283 31.2366 30.4321 31.3909 30.7815C31.5453 31.1308 31.6225 31.4831 31.6225 31.8452C31.6225 32.2322 31.5453 32.5933 31.3909 32.9278C31.2366 33.2623 31.0288 33.5582 30.7725 33.8184C30.5162 34.0747 30.2124 34.2825 29.863 34.4369C29.5137 34.5913 29.1614 34.6685 28.7993 34.6685C28.3876 34.6685 28.0135 34.5913 27.6771 34.4369C27.3436 34.2825 27.0467 34.0747 26.7865 33.8184C26.5549 33.5621 26.3531 33.2583 26.1868 32.909C26.0206 32.5597 25.9364 32.2074 25.9364 31.8452C25.9364 31.4583 26.0196 31.0971 26.1868 30.7627C26.354 30.4282 26.5549 30.1323 26.7865 29.872C26.9656 29.6929 27.1665 29.5386 27.3862 29.4079C27.6058 29.2773 27.8433 29.1883 28.1006 29.1358V26.5441H24.1612L22.4977 34.6615H21.004L23.7347 20.9808L23.7337 20.9788ZM21.004 34.6615L20.9886 34.7387V34.6615H21.004ZM24.3152 25.1568H27.9489V22.8372C27.9489 22.4256 27.8905 22.0456 27.7757 21.6963C27.6579 21.347 27.4848 21.0313 27.2532 20.7502C27.0988 20.5434 26.9197 20.3514 26.7119 20.1694C26.5051 19.9903 26.2854 19.8072 26.0529 19.6281C26.0004 19.7053 25.9509 19.8013 25.8985 19.919C25.846 20.0368 25.7966 20.1446 25.7441 20.2466C25.6422 20.4009 25.5432 20.5741 25.4532 20.769C25.3631 20.964 25.2523 21.1619 25.1256 21.3687L24.3152 25.1568ZM28.6812 30.4905C28.8603 30.4905 29.0434 30.5212 29.2225 30.5865L29.2235 30.5875C29.4056 30.6528 29.5609 30.7488 29.6906 30.8755C29.845 31.0051 29.9538 31.1545 30.0181 31.3208C30.0824 31.487 30.1013 31.6889 30.0765 31.9204C30.0765 32.1025 30.0528 32.2757 29.9993 32.4429C29.9459 32.6102 29.844 32.7715 29.6896 32.9258C29.559 33.0307 29.4046 33.1208 29.2255 33.198C29.0464 33.2752 28.8633 33.3157 28.6842 33.3157C28.4794 33.3157 28.2913 33.2851 28.1241 33.2197C27.9569 33.1544 27.7956 33.0584 27.6412 32.9288C27.5363 32.7734 27.4462 32.6131 27.3691 32.4459C27.2919 32.2787 27.2513 32.1025 27.2513 31.9234C27.2513 31.7186 27.282 31.5306 27.3473 31.3633C27.4126 31.1961 27.5086 31.0348 27.6382 30.8804C27.7936 30.7755 27.9539 30.6855 28.1211 30.6083C28.2884 30.5311 28.4744 30.4905 28.6812 30.4905ZM20.9908 19.3213C21.344 19.535 21.634 19.5964 21.8477 19.2441H21.8448C22.0585 18.8879 21.8913 18.6009 21.542 18.3812L17.5223 15.2888C17.272 15.0968 17.2571 14.5744 17.4174 14.3052L17.6124 13.9776C17.6747 13.8727 17.7143 13.755 17.7024 13.6343C17.6629 13.2563 17.4551 12.8921 17.081 12.6813C16.5407 12.3755 15.851 12.5606 15.4611 13.0435L10.0521 19.726C9.62165 20.2574 9.70577 21.0402 10.2342 21.4696L13.19 24.7481L13.4533 26.3937L13.9451 31.675C14.0223 32.3994 14.6318 32.9248 15.3027 32.8536C15.9737 32.7824 16.4625 32.1421 16.3853 31.4187L15.6184 24.1425L14.2024 21.4924C12.7586 20.3227 13.9273 18.879 13.9273 18.879L15.3869 17.073L15.3839 17.07L15.4828 16.9552L15.851 16.5258C16.0608 16.2784 16.602 16.0587 16.8653 16.2536L20.9908 19.3213ZM19.9794 9.43158C21.0432 10.2915 22.6018 10.1272 23.4647 9.06346C24.3276 7.99968 24.1633 6.44112 23.0966 5.57821C22.0328 4.71828 20.4742 4.88255 19.6113 5.94633C18.7514 7.01012 18.9156 8.56868 19.9794 9.43158Z" fill="#1D1D1B"/>
<mask id="mask0" mask-type="alpha" maskUnits="userSpaceOnUse" x="7" y="3" width="25" height="32">
<path fill-rule="evenodd" clip-rule="evenodd" d="M24.2692 4.13444C22.4049 2.62536 19.6766 2.91332 18.1675 4.77766C16.6585 6.642 16.9464 9.37023 18.8108 10.8754C20.6751 12.3844 23.4033 12.0965 24.9094 10.2321C26.4185 8.37077 26.1306 5.64254 24.2692 4.13444ZM22.3917 17.4006L19.3182 14.9455C19.8317 13.7115 19.5131 12.24 18.4216 11.3583C17.0916 10.2816 15.1402 10.4895 14.0645 11.8165L8.60611 18.5613C7.53045 19.8913 7.73727 21.8427 9.06428 22.9184L11.5412 25.8069L12.1161 31.871C12.3081 33.674 13.829 34.9941 15.5113 34.8179C17.1936 34.6418 18.4058 33.0337 18.2168 31.2278L17.3667 23.1687L15.3718 20.0516L16.9145 18.1437L20.4522 20.6176C21.3398 21.153 22.4937 20.868 23.028 19.9804C23.5664 19.0898 23.2784 17.9359 22.3908 17.4016L22.3917 17.4006ZM23.7337 20.9788C23.7337 20.9264 23.7456 20.8828 23.7742 20.8433L23.7864 20.8234C23.8079 20.7887 23.8307 20.7517 23.8514 20.7077C23.9811 20.5009 24.1018 20.3029 24.2196 20.108C24.3373 19.9131 24.4452 19.7151 24.5471 19.5083C24.6438 19.3121 24.7432 19.1239 24.841 18.9386L24.8411 18.9385L24.8568 18.9087C24.9597 18.7137 25.1013 18.5039 25.2833 18.2714C25.3853 18.0923 25.5278 17.9804 25.7098 17.9438C25.889 17.9033 26.072 17.9379 26.2511 18.0398C26.6905 18.2961 27.1012 18.5811 27.4881 18.8898C27.875 19.1986 28.2085 19.5331 28.4935 19.8952C28.8032 20.3069 29.0407 20.7522 29.208 21.2282C29.3752 21.7042 29.4583 22.2395 29.4583 22.8333V29.1358C29.7146 29.1883 29.9531 29.2783 30.1728 29.4079C30.3925 29.5376 30.5904 29.6929 30.7725 29.872C31.0288 30.1283 31.2366 30.4321 31.3909 30.7815C31.5453 31.1308 31.6225 31.4831 31.6225 31.8452C31.6225 32.2322 31.5453 32.5933 31.3909 32.9278C31.2366 33.2623 31.0288 33.5582 30.7725 33.8184C30.5162 34.0747 30.2124 34.2825 29.863 34.4369C29.5137 34.5913 29.1614 34.6685 28.7993 34.6685C28.3876 34.6685 28.0135 34.5913 27.6771 34.4369C27.3436 34.2825 27.0467 34.0747 26.7865 33.8184C26.5549 33.5621 26.3531 33.2583 26.1868 32.909C26.0206 32.5597 25.9364 32.2074 25.9364 31.8452C25.9364 31.4583 26.0196 31.0971 26.1868 30.7627C26.354 30.4282 26.5549 30.1323 26.7865 29.872C26.9656 29.6929 27.1665 29.5386 27.3862 29.4079C27.6058 29.2773 27.8433 29.1883 28.1006 29.1358V26.5441H24.1612L22.4977 34.6615H21.004L23.7347 20.9808L23.7337 20.9788ZM21.004 34.6615L20.9886 34.7387V34.6615H21.004ZM24.3152 25.1568H27.9489V22.8372C27.9489 22.4256 27.8905 22.0456 27.7757 21.6963C27.6579 21.347 27.4848 21.0313 27.2532 20.7502C27.0988 20.5434 26.9197 20.3514 26.7119 20.1694C26.5051 19.9903 26.2854 19.8072 26.0529 19.6281C26.0004 19.7053 25.9509 19.8013 25.8985 19.919C25.846 20.0368 25.7966 20.1446 25.7441 20.2466C25.6422 20.4009 25.5432 20.5741 25.4532 20.769C25.3631 20.964 25.2523 21.1619 25.1256 21.3687L24.3152 25.1568ZM28.6812 30.4905C28.8603 30.4905 29.0434 30.5212 29.2225 30.5865L29.2235 30.5875C29.4056 30.6528 29.5609 30.7488 29.6906 30.8755C29.845 31.0051 29.9538 31.1545 30.0181 31.3208C30.0824 31.487 30.1013 31.6889 30.0765 31.9204C30.0765 32.1025 30.0528 32.2757 29.9993 32.4429C29.9459 32.6102 29.844 32.7715 29.6896 32.9258C29.559 33.0307 29.4046 33.1208 29.2255 33.198C29.0464 33.2752 28.8633 33.3157 28.6842 33.3157C28.4794 33.3157 28.2913 33.2851 28.1241 33.2197C27.9569 33.1544 27.7956 33.0584 27.6412 32.9288C27.5363 32.7734 27.4462 32.6131 27.3691 32.4459C27.2919 32.2787 27.2513 32.1025 27.2513 31.9234C27.2513 31.7186 27.282 31.5306 27.3473 31.3633C27.4126 31.1961 27.5086 31.0348 27.6382 30.8804C27.7936 30.7755 27.9539 30.6855 28.1211 30.6083C28.2884 30.5311 28.4744 30.4905 28.6812 30.4905ZM20.9908 19.3213C21.344 19.535 21.634 19.5964 21.8477 19.2441H21.8448C22.0585 18.8879 21.8913 18.6009 21.542 18.3812L17.5223 15.2888C17.272 15.0968 17.2571 14.5744 17.4174 14.3052L17.6124 13.9776C17.6747 13.8727 17.7143 13.755 17.7024 13.6343C17.6629 13.2563 17.4551 12.8921 17.081 12.6813C16.5407 12.3755 15.851 12.5606 15.4611 13.0435L10.0521 19.726C9.62165 20.2574 9.70577 21.0402 10.2342 21.4696L13.19 24.7481L13.4533 26.3937L13.9451 31.675C14.0223 32.3994 14.6318 32.9248 15.3027 32.8536C15.9737 32.7824 16.4625 32.1421 16.3853 31.4187L15.6184 24.1425L14.2024 21.4924C12.7586 20.3227 13.9273 18.879 13.9273 18.879L15.3869 17.073L15.3839 17.07L15.4828 16.9552L15.851 16.5258C16.0608 16.2784 16.602 16.0587 16.8653 16.2536L20.9908 19.3213ZM19.9794 9.43158C21.0432 10.2915 22.6018 10.1272 23.4647 9.06346C24.3276 7.99968 24.1633 6.44112 23.0966 5.57821C22.0328 4.71828 20.4742 4.88255 19.6113 5.94633C18.7514 7.01012 18.9156 8.56868 19.9794 9.43158Z" fill="white"/>
</mask>
<g mask="url(#mask0)">
<rect width="38" height="38" fill="#0079C8"/>
</g>
</svg>
