<svg width="18" height="20" viewBox="0 0 18 20" fill="none" xmlns="http://www.w3.org/2000/svg">
<path fill-rule="evenodd" clip-rule="evenodd" d="M10.9739 12.5436C7.51633 12.5436 4.7021 9.72994 4.7021 6.27178C4.7021 2.81362 7.51392 0 10.9739 0C14.4339 0 17.2457 2.81362 17.2457 6.27178C17.2457 9.72994 14.432 12.5436 10.9739 12.5436ZM10.9739 0.821141C7.96865 0.821141 5.52264 3.26534 5.52264 6.27238C5.52264 9.27943 7.96865 11.7236 10.9739 11.7236C13.9791 11.7236 16.4251 9.27763 16.4251 6.27238C16.4251 3.26714 13.9791 0.821141 10.9739 0.821141ZM5.64458 17.0938C5.64458 17.3977 5.36647 17.6512 5.06252 17.6512C4.75857 17.6512 4.50508 17.3977 4.50508 17.0938C4.50508 16.7898 4.75857 16.5363 5.06252 16.5363C5.39109 16.5363 5.64458 16.7898 5.64458 17.0938ZM8.78318 12.9833V12.9841L8.78258 12.9839L8.78318 12.9833ZM8.78318 12.9841V15.0971H1.36468V6.38712H3.914C3.914 6.36706 3.91308 6.34762 3.91217 6.32841C3.91128 6.30964 3.9104 6.29109 3.9104 6.27238C3.9104 6.01169 3.92541 5.75399 3.95365 5.5011H1.36288V4.56463C1.36288 4.3616 1.54128 4.18559 1.74191 4.18559H4.22336C4.31706 3.88165 4.4336 3.58491 4.56695 3.29958H1.74552C1.06193 3.29958 0.480469 3.88165 0.480469 4.56463V17.9564C0.480469 18.6658 1.03791 19.2214 1.74552 19.2214H8.40354C9.11296 19.2214 9.66859 18.664 9.66859 17.9564V13.2109C9.36666 13.1527 9.07192 13.0777 8.78318 12.9841ZM8.40414 18.3348C8.60658 18.3348 8.78318 18.1828 8.78318 17.9558H8.78558V15.9567H1.36708V17.9558C1.36708 18.1564 1.54369 18.3348 1.74612 18.3348H8.40414Z" fill="#0079C7"/>
<path fill-rule="evenodd" clip-rule="evenodd" d="M7.72153 7.95583C7.26148 7.95583 6.80144 7.81233 6.55664 7.6013L6.74657 7.17502C6.98292 7.36494 7.35856 7.5 7.72153 7.5C8.18157 7.5 8.37572 7.3354 8.37572 7.11593C8.37572 6.47862 6.61995 6.89646 6.61995 5.7991C6.61995 5.32217 6.9998 4.91699 7.81016 4.91699C8.16469 4.91699 8.5361 5.00985 8.79356 5.17867L8.62052 5.60495C8.35462 5.44879 8.0634 5.37282 7.80594 5.37282C7.35011 5.37282 7.16441 5.55008 7.16441 5.77378C7.16441 6.40265 8.91596 5.99325 8.91596 7.07794C8.91596 7.55065 8.53188 7.95583 7.72153 7.95583ZM12.6934 7.91362H12.1743L12.17 5.95526L11.1993 7.57597H10.9545L9.98377 5.98058V7.91362H9.46042V4.9592H9.91202L11.0854 6.91756L12.2376 4.9592H12.6892L12.6934 7.91362ZM14.407 7.95583C13.9469 7.95583 13.4869 7.81233 13.2421 7.6013L13.432 7.17502C13.6684 7.36494 14.044 7.5 14.407 7.5C14.867 7.5 15.0612 7.3354 15.0612 7.11593C15.0612 6.47862 13.3054 6.89646 13.3054 5.7991C13.3054 5.32217 13.6852 4.91699 14.4956 4.91699C14.8501 4.91699 15.2215 5.00985 15.479 5.17867L15.306 5.60495C15.0401 5.44879 14.7488 5.37282 14.4914 5.37282C14.0356 5.37282 13.8498 5.55008 13.8498 5.77378C13.8498 6.40265 15.6014 5.99325 15.6014 7.07794C15.6014 7.55065 15.2173 7.95583 14.407 7.95583Z" fill="#0079C7"/>
</svg>
