<svg width="22" height="24" viewBox="0 0 22 24" fill="none" xmlns="http://www.w3.org/2000/svg">
<path fill-rule="evenodd" clip-rule="evenodd" d="M17.8328 2.2291C17.525 2.2291 17.2755 2.4786 17.2755 2.78638C16.66 2.78638 16.161 3.28538 16.161 3.90093V5.01548V10.031H16.7183V5.01563H17.2755V18.9474H18.3901L18.3905 18.9484H17.2755L18.6634 22.2923H18.7443C18.9446 22.2956 19.0123 22.2973 18.9474 22.2973C17.8328 22.2973 16.7312 22.0797 16.2881 21.9782C15.7769 21.8626 15.4112 21.7275 15.1695 21.5665C14.3907 20.87 13.6677 21.4384 13.6677 21.4384C13.4218 21.6689 13.1474 21.8633 12.8535 22.0089C12.5512 22.1614 12.205 22.2374 11.826 22.2374H11.4234L11.6958 21.9413C12.0071 21.6042 12.2795 21.1904 12.5059 20.716C12.7239 20.2604 12.7566 19.8076 12.6062 19.3312C12.4759 18.8979 12.1994 18.613 11.7661 18.4542C11.5788 18.3866 11.3914 18.3518 11.211 18.3518C10.9714 18.3518 10.7304 18.4124 10.4949 18.5343C9.94884 18.8087 9.58942 19.281 9.39577 19.9797C9.20144 20.6805 9.22164 21.3116 9.45429 21.8605L9.53718 22.0542L9.33239 22.1022C9.01198 22.1782 8.55295 22.2283 7.96297 22.2499C7.92609 22.252 7.89129 22.252 7.85858 22.252H7.85849C7.25527 22.252 6.8659 22.0409 6.69803 21.6209C6.35603 20.6087 5.50066 21.1354 5.50066 21.1354C5.21368 21.3917 4.86262 21.6404 4.45584 21.8731C4.03373 22.1148 3.5956 22.2388 3.15398 22.2388C2.90392 22.2388 2.69704 22.158 2.53823 21.9991C2.30071 21.7595 2.18996 21.3611 2.19414 20.7801C2.2004 19.9073 2.2422 19.2894 2.31812 18.893L2.34877 18.7384L2.50549 18.7516C2.58769 18.7558 2.67267 18.76 2.75764 18.76C3.40683 18.7579 4.09015 18.5663 4.78879 18.1853C5.594 17.7478 6.26408 17.2713 6.78023 16.7684C7.59658 15.9798 8.16636 15.192 8.47145 14.4236C8.77654 13.6574 8.90889 12.9782 8.86779 12.4077C8.81276 11.8177 8.58917 11.3628 8.1796 11.0145C7.88356 10.7623 7.54643 10.6404 7.14801 10.6404C7.00661 10.6404 6.85476 10.6578 6.7043 10.6885C6.17562 10.8153 5.57241 11.1587 4.91277 11.7118C4.24687 12.2691 3.574 13.144 2.91228 14.3108C2.68172 14.7329 2.4637 15.1613 2.26797 15.5904C2.07224 16.0175 1.90019 16.4612 1.7567 16.9077L1.62366 17.3194L1.43002 16.9321C1.32136 16.7141 1.2322 16.4396 1.16254 16.1178C1.09498 15.798 1.06015 15.4149 1.06015 14.9774C1.06015 14.625 0.912482 14.4815 0.533558 14.4815C0.158814 14.4863 0 14.6493 0 15.0171C0.0153241 15.6329 0.113538 16.271 0.291855 16.9154C0.463903 17.5333 0.80173 18.0299 1.29558 18.3845L1.38683 18.4521L1.36524 18.5628C1.27817 18.994 1.21687 19.5032 1.17996 20.0737C1.14513 20.6352 1.18414 21.1751 1.29767 21.678C1.40843 22.1705 1.61321 22.5905 1.90925 22.9256C2.18996 23.246 2.62948 23.407 3.21946 23.4056C3.62206 23.4056 4.03791 23.3206 4.45584 23.1527C4.88491 22.9827 5.30284 22.7591 5.70336 22.4868L5.84894 22.3864L5.94924 22.5341C6.33025 23.0977 6.94461 23.3721 7.82366 23.3721H7.91909C8.87893 23.3505 9.67579 23.2175 10.2853 22.9758L10.3661 22.943L10.4399 22.989C10.8794 23.2523 11.3545 23.3875 11.8483 23.3875C12.051 23.3875 12.2621 23.3638 12.4752 23.3199C13.2219 23.1659 13.8704 22.8525 14.404 22.3885L14.5085 22.2973L14.622 22.3781C15.0009 22.6442 15.5561 22.8768 16.2763 23.0684L16.3918 23.0994C17.0539 23.2772 17.5321 23.4056 18.6687 23.4056C18.7126 23.4056 18.7865 23.4044 18.8727 23.4031C19.1326 23.3992 19.5046 23.3935 19.5046 23.4118L19.783 22.2923H19.7887L21.1765 18.9484H20.0615L20.0619 18.9474H21.1765V2.78638C21.1765 2.4786 20.927 2.2291 20.6192 2.2291V0.557276C20.6192 0.249501 20.3697 0 20.0619 0H18.3901C18.0823 0 17.8328 0.249501 17.8328 0.557276V2.2291ZM19.783 22.2923L19.7833 22.291H18.6687L18.7443 22.2923H19.783ZM20.0615 18.9484L19.226 21.1765L18.3905 18.9484H20.0615ZM7.17865 11.7912C7.09785 11.7912 7.00869 11.8024 6.91327 11.824C6.52599 11.9048 6.08368 12.1834 5.56126 12.6731C5.05835 13.1454 4.51017 13.8921 3.92855 14.8869C3.68893 15.3048 3.47161 15.7339 3.28006 16.1624C3.08642 16.5935 2.92064 17.031 2.7862 17.4622L2.7054 17.7213L2.97288 17.6907C3.52385 17.6301 4.10477 17.4211 4.69893 17.0728C5.28264 16.7287 5.76326 16.3699 6.12477 16.0084C6.79764 15.3661 7.27199 14.7371 7.53111 14.145C7.79231 13.5438 7.90098 13.0172 7.85361 12.5756C7.81878 12.3339 7.74495 12.1402 7.63141 11.9897C7.56385 11.8985 7.42872 11.7919 7.17865 11.7919V11.7912ZM10.4852 20.5621C10.5332 20.2946 10.6489 20.0661 10.8251 19.8808C11.0013 19.5652 11.2326 19.4997 11.3956 19.4977C11.413 19.4977 11.4283 19.4977 11.4457 19.4997C11.6024 19.513 11.6846 19.591 11.7285 19.6544C11.8156 19.7854 11.8177 19.972 11.7306 20.2444C11.6498 20.4687 11.5216 20.6909 11.3475 20.9041C11.1803 21.111 11.002 21.2935 10.8167 21.446L10.614 21.616L10.5353 21.3631C10.4524 21.1019 10.435 20.8316 10.4852 20.5621ZM18.3901 3.34365V18.3901H20.0619V3.34365H18.3901ZM18.9474 2.2291V1.11455H19.5046V2.2291H18.9474Z" fill="#0079C7"/>
</svg>
