<svg width="38" height="38" viewBox="0 0 38 38" fill="none" xmlns="http://www.w3.org/2000/svg">
<path fill-rule="evenodd" clip-rule="evenodd" d="M29.4798 3.40276C32.8942 6.35104 33.5794 10.224 33.3192 16.7402C34.3712 17.9588 34.3057 19.6117 34.1185 21.0849C33.8751 22.6573 33.3847 24.8662 31.9377 26.0062L31.9133 26.4723L31.9115 26.5104C31.8635 27.5264 31.8136 28.5808 31.4697 29.5385C30.8258 31.6238 29.3825 32.9061 28.0722 33.8814C27.4982 34.2851 26.9458 34.7188 26.4174 35.1805C25.8138 35.7148 25.1732 36.2058 24.5005 36.65C23.2127 37.4268 21.8068 37.8012 20.0641 37.8012C19.9993 37.8012 19.9363 37.7977 19.8722 37.7942C19.7732 37.7887 19.6716 37.7831 19.5568 37.79C19.3677 37.8012 19.1599 37.8012 18.9728 37.8012C17.1813 37.8012 15.841 37.4474 14.6243 36.65C13.8917 36.1612 13.1931 35.6234 12.5333 35.0401C12.0541 34.6376 11.5581 34.2314 11.0676 33.8702C9.20507 32.5598 8.12497 31.1914 7.65325 29.5329C7.19837 28.3573 7.12724 27.1275 7.06172 25.9407C5.99098 25.0965 5.27591 23.4829 4.88093 21.0194C4.68064 19.5481 4.5627 17.8821 5.67275 16.6709C5.41256 10.2016 5.91798 6.26306 9.323 3.31478C10.6184 2.19163 12.4173 1.31183 13.9429 0.849464C19.0851 -0.70423 25.3204 -0.279304 29.4798 3.40276ZM31.5711 22.6368C31.7921 21.9927 31.947 21.3279 32.0334 20.6525C32.0936 20.1789 32.1199 19.7016 32.112 19.2242C32.112 18.6177 31.9398 17.8877 31.3633 17.7267C31.4419 17.0959 31.5186 16.465 31.5823 15.8342C31.893 12.7305 31.8556 9.44345 29.95 6.82277C28.3513 4.627 25.9384 3.07518 23.3177 2.3807C20.1332 1.555 16.7719 1.72751 13.6886 2.87488C11.3599 3.73222 8.64563 5.99163 8.02228 8.4869C7.66527 10.0385 7.48318 11.6251 7.47942 13.2172C7.47193 13.5954 7.56927 17.7136 7.79391 17.6837C7.0807 17.7772 6.9141 18.7207 6.92908 19.4395C6.94967 20.4335 6.97213 21.4462 7.28287 22.3915C7.59361 23.3369 8.23381 24.2223 9.16977 24.5761C8.87194 26.54 9.29841 28.5453 10.3697 30.218C11.2457 31.5714 12.513 32.6422 13.8234 33.5632C15.1337 34.4841 16.5545 35.3078 18.1288 35.5811C20.6091 36.0154 23.1455 35.0139 25.2177 33.5819C26.691 32.5598 28.035 31.2981 28.9092 29.7388C29.7834 28.1795 30.1933 26.3057 29.7834 24.5611C30.7025 24.4544 31.2715 23.5109 31.5711 22.6368ZM22.3423 18.4306C22.4811 18.0832 22.4811 17.6959 22.3423 17.3486C22.1996 16.9895 21.926 16.6978 21.5767 16.5324C21.4696 16.5044 21.3598 16.4874 21.2491 16.4819H21.0432C20.7438 16.4762 20.4483 16.5512 20.1878 16.699C19.9478 16.8503 19.7673 17.0797 19.6767 17.3486C19.5748 17.5216 19.5212 17.7187 19.5214 17.9195C19.5148 18.1024 19.5695 18.2823 19.6767 18.4306C19.7351 18.63 19.851 18.8077 20.0099 18.9416C20.1355 19.0674 20.2818 19.1706 20.4424 19.2467C20.5476 19.275 20.6555 19.292 20.7643 19.2973H21.0414C21.316 19.3024 21.5861 19.2269 21.8182 19.0801C22.0626 18.9302 22.2473 18.6999 22.3405 18.4287L22.3423 18.4306ZM18.8981 10.7033C18.4448 11.1529 17.8274 11.3977 17.1891 11.3809C15.8793 11.3646 14.8228 10.3041 14.8117 8.9942C14.7935 8.34855 15.0556 7.72662 15.5305 7.28888C15.9754 6.85788 16.5697 6.61572 17.1891 6.61311C17.8337 6.59811 18.4545 6.85652 18.8981 7.32444C19.3362 7.76893 19.5782 8.37019 19.5702 8.9942C19.5922 9.63231 19.3489 10.251 18.8981 10.7033ZM23.5272 19.8307C23.4713 19.9517 23.3981 20.0639 23.31 20.1639C23.2327 20.2369 23.1754 20.3284 23.1434 20.4298L23.5178 21.2965L21.8967 22.0022L21.4737 21.1411H20.7623L20.388 22.077L18.7032 21.478L19.0776 20.5009C19.0503 20.4755 19.0232 20.451 18.9963 20.4268L18.9963 20.4268C18.946 20.3814 18.8968 20.337 18.8492 20.2894C18.7702 20.2053 18.7011 20.1123 18.6433 20.0123L17.6606 20.4447L16.9605 18.76L17.8272 18.3856V17.62L16.9605 17.2456L17.61 15.5609L18.3588 15.8829C18.4351 15.807 18.5164 15.7363 18.6021 15.6713C18.6891 15.6016 18.7722 15.5272 18.8511 15.4486L18.4767 14.5276L20.0978 13.8275L20.5302 14.6942H21.2453L21.6197 13.7582L23.3044 14.3516L22.93 15.3344C23.0093 15.4091 23.082 15.4905 23.1472 15.5777L23.1893 15.6255C23.2491 15.6935 23.3098 15.7625 23.3643 15.8155L24.3003 15.4411L25.006 17.0678L24.1393 17.5058V18.2059L25.0547 18.5803L24.4051 20.2501L23.5272 19.8307ZM21.3071 9.86089H22.4864V8.02641H21.309C21.2666 7.79201 21.1936 7.56419 21.0919 7.34878C21.0152 7.18767 20.9349 7.04099 20.8598 6.90373C20.8267 6.84323 20.7946 6.78456 20.7643 6.7273L21.6328 5.80257L20.3899 4.554L19.5232 5.4207C19.4155 5.37392 19.3095 5.32298 19.203 5.2718C19.0836 5.21444 18.9636 5.15678 18.8399 5.10434C18.6228 5.00428 18.3957 4.92772 18.1623 4.87597V3.68917H16.3259V4.87222C16.0882 4.92133 15.857 4.99797 15.6371 5.1006C15.4678 5.17239 15.3024 5.25398 15.1459 5.33118C15.0861 5.36068 15.0276 5.38953 14.9707 5.41695L14.1021 4.554L12.8535 5.9074L13.7202 6.7741C13.6901 6.83335 13.6603 6.89172 13.6307 6.94947C13.5464 7.1143 13.4647 7.27408 13.387 7.43488C13.2832 7.65533 13.2101 7.88901 13.1699 8.12937H11.9831V9.9807H13.1718C13.2194 10.2138 13.2922 10.441 13.3889 10.6583C13.4811 10.8735 13.592 11.0802 13.7202 11.2761L12.8535 12.0922L14.1021 13.3296L14.9688 12.4629C15.1777 12.6099 15.401 12.7354 15.6352 12.8372C15.8526 12.9439 16.0848 13.0171 16.3241 13.0544V14.2524H18.1586V13.0544C18.3936 13.0145 18.6218 12.9414 18.8362 12.8372C19.0735 12.7307 19.3019 12.6055 19.5194 12.4629L20.3861 13.3296L21.6291 12.0922L20.7624 11.2255C20.8318 11.0736 20.9103 10.9227 20.9891 10.7713C21.0229 10.7063 21.0568 10.6412 21.09 10.576C21.201 10.3511 21.2744 10.1095 21.3071 9.86089Z" fill="black"/>
<mask id="mask0" mask-type="alpha" maskUnits="userSpaceOnUse" x="4" y="0" width="31" height="38">
<path fill-rule="evenodd" clip-rule="evenodd" d="M29.4798 3.40276C32.8942 6.35104 33.5794 10.224 33.3192 16.7402C34.3712 17.9588 34.3057 19.6117 34.1185 21.0849C33.8751 22.6573 33.3847 24.8662 31.9377 26.0062L31.9133 26.4723L31.9115 26.5104C31.8635 27.5264 31.8136 28.5808 31.4697 29.5385C30.8258 31.6238 29.3825 32.9061 28.0722 33.8814C27.4982 34.2851 26.9458 34.7188 26.4174 35.1805C25.8138 35.7148 25.1732 36.2058 24.5005 36.65C23.2127 37.4268 21.8068 37.8012 20.0641 37.8012C19.9993 37.8012 19.9363 37.7977 19.8722 37.7942C19.7732 37.7887 19.6716 37.7831 19.5568 37.79C19.3677 37.8012 19.1599 37.8012 18.9728 37.8012C17.1813 37.8012 15.841 37.4474 14.6243 36.65C13.8917 36.1612 13.1931 35.6234 12.5333 35.0401C12.0541 34.6376 11.5581 34.2314 11.0676 33.8702C9.20507 32.5598 8.12497 31.1914 7.65325 29.5329C7.19837 28.3573 7.12724 27.1275 7.06172 25.9407C5.99098 25.0965 5.27591 23.4829 4.88093 21.0194C4.68064 19.5481 4.5627 17.8821 5.67275 16.6709C5.41256 10.2016 5.91798 6.26306 9.323 3.31478C10.6184 2.19163 12.4173 1.31183 13.9429 0.849464C19.0851 -0.70423 25.3204 -0.279304 29.4798 3.40276ZM31.5711 22.6368C31.7921 21.9927 31.947 21.3279 32.0334 20.6525C32.0936 20.1789 32.1199 19.7016 32.112 19.2242C32.112 18.6177 31.9398 17.8877 31.3633 17.7267C31.4419 17.0959 31.5186 16.465 31.5823 15.8342C31.893 12.7305 31.8556 9.44345 29.95 6.82277C28.3513 4.627 25.9384 3.07518 23.3177 2.3807C20.1332 1.555 16.7719 1.72751 13.6886 2.87488C11.3599 3.73222 8.64563 5.99163 8.02228 8.4869C7.66527 10.0385 7.48318 11.6251 7.47942 13.2172C7.47193 13.5954 7.56927 17.7136 7.79391 17.6837C7.0807 17.7772 6.9141 18.7207 6.92908 19.4395C6.94967 20.4335 6.97213 21.4462 7.28287 22.3915C7.59361 23.3369 8.23381 24.2223 9.16977 24.5761C8.87194 26.54 9.29841 28.5453 10.3697 30.218C11.2457 31.5714 12.513 32.6422 13.8234 33.5632C15.1337 34.4841 16.5545 35.3078 18.1288 35.5811C20.6091 36.0154 23.1455 35.0139 25.2177 33.5819C26.691 32.5598 28.035 31.2981 28.9092 29.7388C29.7834 28.1795 30.1933 26.3057 29.7834 24.5611C30.7025 24.4544 31.2715 23.5109 31.5711 22.6368ZM22.3423 18.4306C22.4811 18.0832 22.4811 17.6959 22.3423 17.3486C22.1996 16.9895 21.926 16.6978 21.5767 16.5324C21.4696 16.5044 21.3598 16.4874 21.2491 16.4819H21.0432C20.7438 16.4762 20.4483 16.5512 20.1878 16.699C19.9478 16.8503 19.7673 17.0797 19.6767 17.3486C19.5748 17.5216 19.5212 17.7187 19.5214 17.9195C19.5148 18.1024 19.5695 18.2823 19.6767 18.4306C19.7351 18.63 19.851 18.8077 20.0099 18.9416C20.1355 19.0674 20.2818 19.1706 20.4424 19.2467C20.5476 19.275 20.6555 19.292 20.7643 19.2973H21.0414C21.316 19.3024 21.5861 19.2269 21.8182 19.0801C22.0626 18.9302 22.2473 18.6999 22.3405 18.4287L22.3423 18.4306ZM18.8981 10.7033C18.4448 11.1529 17.8274 11.3977 17.1891 11.3809C15.8793 11.3646 14.8228 10.3041 14.8117 8.9942C14.7935 8.34855 15.0556 7.72662 15.5305 7.28888C15.9754 6.85788 16.5697 6.61572 17.1891 6.61311C17.8337 6.59811 18.4545 6.85652 18.8981 7.32444C19.3362 7.76893 19.5782 8.37019 19.5702 8.9942C19.5922 9.63231 19.3489 10.251 18.8981 10.7033ZM23.5272 19.8307C23.4713 19.9517 23.3981 20.0639 23.31 20.1639C23.2327 20.2369 23.1754 20.3284 23.1434 20.4298L23.5178 21.2965L21.8967 22.0022L21.4737 21.1411H20.7623L20.388 22.077L18.7032 21.478L19.0776 20.5009C19.0503 20.4755 19.0232 20.451 18.9963 20.4268L18.9963 20.4268C18.946 20.3814 18.8968 20.337 18.8492 20.2894C18.7702 20.2053 18.7011 20.1123 18.6433 20.0123L17.6606 20.4447L16.9605 18.76L17.8272 18.3856V17.62L16.9605 17.2456L17.61 15.5609L18.3588 15.8829C18.4351 15.807 18.5164 15.7363 18.6021 15.6713C18.6891 15.6016 18.7722 15.5272 18.8511 15.4486L18.4767 14.5276L20.0978 13.8275L20.5302 14.6942H21.2453L21.6197 13.7582L23.3044 14.3516L22.93 15.3344C23.0093 15.4091 23.082 15.4905 23.1472 15.5777L23.1893 15.6255C23.2491 15.6935 23.3098 15.7625 23.3643 15.8155L24.3003 15.4411L25.006 17.0678L24.1393 17.5058V18.2059L25.0547 18.5803L24.4051 20.2501L23.5272 19.8307ZM21.3071 9.86089H22.4864V8.02641H21.309C21.2666 7.79201 21.1936 7.56419 21.0919 7.34878C21.0152 7.18767 20.9349 7.04099 20.8598 6.90373C20.8267 6.84323 20.7946 6.78456 20.7643 6.7273L21.6328 5.80257L20.3899 4.554L19.5232 5.4207C19.4155 5.37392 19.3095 5.32298 19.203 5.2718C19.0836 5.21444 18.9636 5.15678 18.8399 5.10434C18.6228 5.00428 18.3957 4.92772 18.1623 4.87597V3.68917H16.3259V4.87222C16.0882 4.92133 15.857 4.99797 15.6371 5.1006C15.4678 5.17239 15.3024 5.25398 15.1459 5.33118C15.0861 5.36068 15.0276 5.38953 14.9707 5.41695L14.1021 4.554L12.8535 5.9074L13.7202 6.7741C13.6901 6.83335 13.6603 6.89172 13.6307 6.94947C13.5464 7.1143 13.4647 7.27408 13.387 7.43488C13.2832 7.65533 13.2101 7.88901 13.1699 8.12937H11.9831V9.9807H13.1718C13.2194 10.2138 13.2922 10.441 13.3889 10.6583C13.4811 10.8735 13.592 11.0802 13.7202 11.2761L12.8535 12.0922L14.1021 13.3296L14.9688 12.4629C15.1777 12.6099 15.401 12.7354 15.6352 12.8372C15.8526 12.9439 16.0848 13.0171 16.3241 13.0544V14.2524H18.1586V13.0544C18.3936 13.0145 18.6218 12.9414 18.8362 12.8372C19.0735 12.7307 19.3019 12.6055 19.5194 12.4629L20.3861 13.3296L21.6291 12.0922L20.7624 11.2255C20.8318 11.0736 20.9103 10.9227 20.9891 10.7713C21.0229 10.7063 21.0568 10.6412 21.09 10.576C21.201 10.3511 21.2744 10.1095 21.3071 9.86089Z" fill="white"/>
</mask>
<g mask="url(#mask0)">
<rect width="38" height="38" fill="#0079C8"/>
</g>
</svg>
