<svg width="38" height="38" viewBox="0 0 38 38" fill="none" xmlns="http://www.w3.org/2000/svg">
<path fill-rule="evenodd" clip-rule="evenodd" d="M33.7565 19.2261C33.7565 27.5632 26.8513 36.2843 18.7833 34.5921C18.5736 34.5486 18.3539 34.5516 18.1431 34.601C10.5511 36.3882 3.16699 27.5533 3.16699 19.2261C3.16699 11.3967 11.1765 4.91106 17.1011 8.75849C16.3747 6.6616 14.1512 5.44938 11.8871 5.391C10.4552 5.35339 10.4552 3.13083 11.8871 3.16744C15.4802 3.26046 18.7764 5.48402 19.4444 9.00885C25.4936 4.51226 33.7565 11.2225 33.7565 19.2261ZM9.91766 24.4896C10.4184 25.8345 8.26904 26.4104 7.77426 25.0804C6.35126 21.2617 5.76148 15.1323 10.1987 13.0107C11.4851 12.3952 12.6103 14.3129 11.3209 14.9314C7.84155 16.5919 8.85982 21.6476 9.91667 24.4896H9.91766ZM19.3365 11.1493C25.2581 6.37364 31.6784 12.2715 31.6784 19.2261L31.6794 19.2271C31.6794 26.4203 25.8598 34.0518 18.7685 32.515C18.5676 32.4715 18.3539 32.4715 18.153 32.515C10.9539 34.0548 5.2451 26.4233 5.2451 19.2271C5.2451 12.3338 12.4036 7.33352 17.5711 11.1681C18.1025 11.5639 18.82 11.5669 19.3365 11.1493Z" fill="#1D1D1B"/>
<mask id="mask0" mask-type="alpha" maskUnits="userSpaceOnUse" x="3" y="3" width="31" height="32">
<path fill-rule="evenodd" clip-rule="evenodd" d="M33.7565 19.2261C33.7565 27.5632 26.8513 36.2843 18.7833 34.5921C18.5736 34.5486 18.3539 34.5516 18.1431 34.601C10.5511 36.3882 3.16699 27.5533 3.16699 19.2261C3.16699 11.3967 11.1765 4.91106 17.1011 8.75849C16.3747 6.6616 14.1512 5.44938 11.8871 5.391C10.4552 5.35339 10.4552 3.13083 11.8871 3.16744C15.4802 3.26046 18.7764 5.48402 19.4444 9.00885C25.4936 4.51226 33.7565 11.2225 33.7565 19.2261ZM9.91766 24.4896C10.4184 25.8345 8.26904 26.4104 7.77426 25.0804C6.35126 21.2617 5.76148 15.1323 10.1987 13.0107C11.4851 12.3952 12.6103 14.3129 11.3209 14.9314C7.84155 16.5919 8.85982 21.6476 9.91667 24.4896H9.91766ZM19.3365 11.1493C25.2581 6.37364 31.6784 12.2715 31.6784 19.2261L31.6794 19.2271C31.6794 26.4203 25.8598 34.0518 18.7685 32.515C18.5676 32.4715 18.3539 32.4715 18.153 32.515C10.9539 34.0548 5.2451 26.4233 5.2451 19.2271C5.2451 12.3338 12.4036 7.33352 17.5711 11.1681C18.1025 11.5639 18.82 11.5669 19.3365 11.1493Z" fill="white"/>
</mask>
<g mask="url(#mask0)">
<rect width="38" height="38" fill="#0079C8"/>
</g>
</svg>
