<svg width="250" height="58" viewBox="0 0 250 58" fill="none" xmlns="http://www.w3.org/2000/svg">
<path fill-rule="evenodd" clip-rule="evenodd" d="M205.507 0.357544C207.214 0.357544 208.282 1.24383 208.282 2.67834C208.282 4.10371 207.214 4.99 205.507 4.99H204.22V6.75343H202.742V0.357544H205.507ZM205.425 3.78391C206.329 3.78391 206.785 3.37275 206.785 2.67834C206.785 1.97479 206.329 1.56363 205.425 1.56363H204.22V3.78391H205.425ZM214.196 6.75343L213.63 5.38289H210.664L210.098 6.75343H208.583L211.431 0.357544H212.891L215.748 6.75343H214.196ZM211.139 4.25904H213.165L212.152 1.81032L211.139 4.25904ZM222.073 6.75343H220.485L219.252 4.97172H217.892V6.75343H216.414V0.357544H219.179C220.886 0.357544 221.954 1.24383 221.954 2.67834C221.954 3.63772 221.47 4.34127 220.64 4.69761L222.073 6.75343ZM220.457 2.67834C220.457 1.97479 220.001 1.56363 219.097 1.56363H217.892V3.79305H219.097C220.001 3.79305 220.457 3.37275 220.457 2.67834ZM224.446 6.75343V1.56363H222.401V0.357544H227.969V1.56363H225.924V6.75343H224.446ZM230.232 5.56563H233.71V6.75343H228.763V0.357544H233.591V1.54535H230.232V2.93417H233.198V4.08543H230.232V5.56563ZM237.47 6.75343V0.357544H240.372C242.462 0.357544 243.895 1.61845 243.895 3.55549C243.895 5.49253 242.462 6.75343 240.372 6.75343H237.47ZM238.948 5.53822H240.299C241.568 5.53822 242.398 4.77985 242.398 3.55549C242.398 2.33113 241.568 1.57276 240.299 1.57276H238.948V5.53822ZM246.478 5.56563H249.956V6.75343H245.009V0.357544H249.837V1.54535H246.478V2.93417H249.444V4.08543H246.478V5.56563Z" fill="#0079C7"/>
<rect x="203.175" y="11.9178" width="45.6349" height="46.0822" fill="#0079C8"/>
<path fill-rule="evenodd" clip-rule="evenodd" d="M244.169 25.7643C244.678 25.8917 245.202 25.9472 245.726 25.9293C246.004 25.9293 246.303 25.9293 246.398 25.9044L246.189 27.0502C246.102 27.0689 245.794 27.0689 245.486 27.0689H245.486C244.94 27.0792 244.395 27.0217 243.864 26.8976C243.199 26.6955 242.573 26.3796 242.014 25.9635L241.813 25.8203C241.431 25.5681 241.163 25.5681 240.928 25.8203C240.771 25.9916 240.238 26.7887 239.769 27.4923C239.648 27.6632 239.539 27.8285 239.442 27.9777C239.376 28.0787 239.314 28.1723 239.257 28.2552C239.045 28.6241 238.676 28.8743 238.258 28.934C237.974 28.934 237.746 28.7409 237.598 28.3766C237.33 27.7196 237.151 21.318 237.086 17.6719C237.086 17.5909 237.037 17.5535 236.994 17.5535C236.938 17.5592 236.895 17.6034 236.889 17.6594L236.833 17.896C236.732 18.3352 236.614 18.8489 236.484 19.4144C235.548 23.483 233.997 30.2292 233.71 31.1478C233.463 31.9324 233.032 32.4399 232.606 32.4399C232.329 32.4399 232.085 32.2095 231.922 31.7923C231.579 30.7804 231.308 29.745 231.111 28.6942C231.102 28.6523 231.093 28.6114 231.084 28.5716C231.04 28.3657 231.002 28.1885 230.969 28.0528C230.889 27.7228 230.793 27.5048 230.58 27.5048C230.351 27.5508 230.138 27.6584 229.964 27.8162C229.412 28.2147 228.49 28.7939 227.497 28.7939H217.769L217.997 27.5484H227.247C228.187 27.5484 228.756 27.0543 229.257 26.6197L229.264 26.6143C229.427 26.4657 229.599 26.3274 229.779 26.2002C230.562 25.674 231.209 25.7144 231.647 26.3372C232.029 26.8852 232.224 27.8815 232.449 29.0367C232.472 29.1572 232.496 29.2847 232.52 29.4153C232.569 29.6827 232.621 29.9625 232.677 30.2199C232.684 30.2578 232.717 30.2851 232.756 30.2851C232.794 30.2851 232.827 30.2578 232.834 30.2199C233.587 26.4773 235.338 19.1073 236.158 15.7943C236.479 14.4928 236.994 14.032 237.339 14.032C237.768 14.032 238.073 14.6516 238.141 15.6511C238.292 17.9178 238.508 25.4747 238.523 26.8603C238.523 26.8945 238.526 27.0004 238.606 27.0004C238.645 26.9945 238.678 26.9701 238.696 26.935C239.196 26.1511 239.749 25.4031 240.352 24.6963C240.731 24.3008 241.055 24.1265 241.363 24.1265C241.648 24.1439 241.922 24.2469 242.149 24.4223C242.367 24.5681 242.568 24.7236 242.765 24.8759C242.791 24.896 242.817 24.9161 242.843 24.936C243.238 25.2822 243.686 25.5618 244.169 25.7643ZM209.28 16.2863C210.621 16.2863 211.383 16.8467 211.383 18.0455C211.359 18.9167 210.747 19.6581 209.903 19.839C210.714 20.0225 211.235 20.8229 211.081 21.648C210.908 22.6675 210.112 23.4634 209.101 23.6283C208.654 23.694 208.202 23.7211 207.75 23.7092H205.376L206.684 16.2863H209.28ZM226.159 23.8213C226.931 23.8751 227.67 23.4959 228.083 22.8343L228.064 22.9153C228.026 23.1202 228.085 23.3313 228.222 23.4867C228.36 23.6422 228.561 23.7244 228.767 23.7092H229.076L230.001 18.416H228.869L228.718 19.2256C228.359 18.6107 227.69 18.2501 226.985 18.2915C225.323 18.2915 224.336 19.6739 224.17 21.1498C223.982 22.8374 225.067 23.8213 226.159 23.8213ZM227.148 19.1508C229.063 19.2598 228.44 22.9557 226.492 22.8468C224.731 22.7565 225.28 19.0543 227.148 19.1602V19.1508ZM208.608 22.7969C208.316 22.8479 208.019 22.8667 207.723 22.853H206.859L207.297 20.3621H208.58C210.267 20.3652 210.103 22.4202 208.595 22.7969H208.608ZM209.099 19.415L209.11 19.4124L209.098 19.4155L209.099 19.415ZM209.012 17.1052C210.402 17.1083 210.291 19.0155 209.099 19.415C208.85 19.4749 208.592 19.4971 208.336 19.4809H207.439L207.855 17.1052H209.012ZM216.433 18.4098H216.088C216.088 18.4098 215.586 21.3242 215.527 21.6573C215.404 22.3704 215.064 22.8592 214.105 22.8592C213.563 22.8592 213.029 22.5261 213.156 21.7819C213.173 21.6819 213.228 21.3584 213.294 20.9723L213.295 20.9673L213.295 20.9655L213.295 20.9639C213.418 20.2452 213.577 19.3148 213.597 19.2038C213.698 18.6309 213.214 18.4067 212.817 18.4067H212.508C212.474 18.6137 212.382 19.1325 212.282 19.7006L212.282 19.7008C212.168 20.3461 212.043 21.055 211.978 21.4425C211.927 21.7007 211.911 21.9645 211.929 22.2271C212.043 23.2173 212.903 23.8213 213.967 23.8213C215.817 23.8213 216.495 22.853 216.717 21.6978C216.788 21.318 217.136 19.3937 217.164 19.2069C217.197 18.9976 217.133 18.7847 216.99 18.6292C216.848 18.4737 216.643 18.3929 216.433 18.4098ZM218.854 22.8779L218.321 25.8047H218.021C217.784 25.798 217.564 25.6785 217.427 25.4823C217.29 25.2861 217.254 25.0363 217.328 24.8084C217.463 24.1202 218.45 18.3973 218.45 18.3973H218.798C219.004 18.3835 219.204 18.4671 219.339 18.6234C219.474 18.7797 219.53 18.9909 219.489 19.1944V19.266C219.946 18.6281 220.687 18.2616 221.466 18.2884C222.591 18.2884 223.556 19.2474 223.445 20.9101C223.34 22.4762 222.289 23.812 220.593 23.812C219.887 23.8487 219.218 23.4896 218.854 22.8779ZM221.096 19.266C222.85 19.3532 222.292 23.0647 220.442 22.962C218.592 22.8592 219.138 19.1446 221.086 19.2536L221.096 19.266Z" fill="white"/>
<path fill-rule="evenodd" clip-rule="evenodd" d="M12.743 57.2086C5.50962 57.2086 0.109619 52.1698 0.109619 45.1287C0.109619 38.0877 5.50962 33.0488 12.7763 33.0488C16.8096 33.0488 20.1763 34.5171 22.3763 37.1867L18.9096 40.3902C17.343 38.5882 15.3763 37.6539 13.043 37.6539C8.67629 37.6539 5.57629 40.7239 5.57629 45.1287C5.57629 49.5335 8.67629 52.6036 13.043 52.6036C15.3763 52.6036 17.343 51.6692 18.9096 49.8339L22.3763 53.0374C20.1763 55.7403 16.8096 57.2086 12.743 57.2086ZM30.6096 41.2244C31.8763 39.4892 34.0096 38.5882 36.7763 38.5882V43.3935C36.343 43.3601 36.0096 43.3267 35.6096 43.3267C32.743 43.3267 30.843 44.8951 30.843 48.3322V56.8082H25.643V38.8552H30.6096V41.2244ZM52.8763 38.8552H58.0763V56.8082H53.143V54.6725C51.7763 56.2409 49.7763 57.0751 47.5763 57.0751C43.0763 57.0751 39.9096 54.539 39.9096 48.9996V38.8552H45.1096V48.2321C45.1096 51.2354 46.443 52.5702 48.743 52.5702C51.143 52.5702 52.8763 51.0352 52.8763 47.7316V38.8552ZM68.243 52.8038H77.6763V56.8082H61.6763V53.6714L70.8096 42.8596H61.9096V38.8552H77.3763V41.9919L68.243 52.8038ZM98.5096 44.6615C101.11 45.4958 102.776 47.498 102.776 50.4345C102.776 54.4723 99.5763 56.8082 93.443 56.8082H81.3763V33.4493H92.7763C98.6096 33.4493 101.61 35.8853 101.61 39.5226C101.61 41.8585 100.41 43.6604 98.5096 44.6615ZM92.1096 37.5204H86.743V43.0264H92.1096C94.743 43.0264 96.1763 42.0921 96.1763 40.2567C96.1763 38.4214 94.743 37.5204 92.1096 37.5204ZM93.043 52.737C95.8429 52.737 97.3429 51.8694 97.3429 49.8672C97.3429 47.8984 95.8429 46.9641 93.043 46.9641H86.743V52.737H93.043ZM106.51 56.8082V32.0477H111.71V56.8082H106.51ZM123.776 38.5882C129.243 38.5882 132.41 41.1243 132.41 46.5636V56.8082H127.543V54.5724C126.576 56.2075 124.71 57.0751 122.076 57.0751C117.876 57.0751 115.376 54.7392 115.376 51.6358C115.376 48.4657 117.61 46.2633 123.076 46.2633H127.21C127.21 44.0275 125.876 42.7261 123.076 42.7261C121.176 42.7261 119.21 43.3601 117.91 44.3946L116.043 40.7573C118.01 39.3557 120.91 38.5882 123.776 38.5882ZM123.376 53.5713C125.11 53.5713 126.61 52.7704 127.21 51.1353V49.2999H123.643C121.21 49.2999 120.443 50.2009 120.443 51.4022C120.443 52.7037 121.543 53.5713 123.376 53.5713ZM148.01 38.5882C152.243 38.5882 155.443 41.0576 155.443 46.5303V56.8082H150.243V47.3311C150.243 44.4279 148.91 43.0932 146.61 43.0932C144.11 43.0932 142.31 44.6282 142.31 47.9318V56.8082H137.11V38.8552H142.076V40.9575C143.476 39.4225 145.576 38.5882 148.01 38.5882ZM168.81 57.0751C162.976 57.0751 158.81 53.2376 158.81 47.8317C158.81 42.4258 162.976 38.5882 168.81 38.5882C172.576 38.5882 175.543 40.2233 176.843 43.1599L172.81 45.3289C171.843 43.6271 170.41 42.8596 168.776 42.8596C166.143 42.8596 164.076 44.6949 164.076 47.8317C164.076 50.9684 166.143 52.8038 168.776 52.8038C170.41 52.8038 171.843 52.0696 172.81 50.3344L176.843 52.5368C175.543 55.4066 172.576 57.0751 168.81 57.0751ZM187.076 38.5882C192.543 38.5882 195.71 41.1243 195.71 46.5636V56.8082H190.843V54.5724C189.876 56.2075 188.01 57.0751 185.376 57.0751C181.176 57.0751 178.676 54.7392 178.676 51.6358C178.676 48.4657 180.91 46.2633 186.376 46.2633H190.51C190.51 44.0275 189.176 42.7261 186.376 42.7261C184.476 42.7261 182.51 43.3601 181.21 44.3946L179.343 40.7573C181.31 39.3557 184.21 38.5882 187.076 38.5882ZM186.676 53.5713C188.41 53.5713 189.91 52.7704 190.51 51.1353V49.2999H186.943C184.51 49.2999 183.743 50.2009 183.743 51.4022C183.743 52.7037 184.843 53.5713 186.676 53.5713Z" fill="#0079C7"/>
</svg>
